<?xml version="1.0" encoding="UTF-8"?>
<svg width="960px" height="952px" viewBox="0 0 960 952" version="1.1" xmlns="http://www.w3.org/2000/svg" xmlns:xlink="http://www.w3.org/1999/xlink">
    <!-- Generator: Sketch 64 (93537) - https://sketch.com -->
    <title>Fig1</title>
    <desc>Created with Sketch.</desc>
    <defs>
        <linearGradient x1="-1.11022302e-14%" y1="50%" x2="100%" y2="50%" id="linearGradient-1">
            <stop stop-color="#FFFFFF" stop-opacity="0" offset="0%"></stop>
            <stop stop-color="#FFFFFF" offset="100%"></stop>
        </linearGradient>
    </defs>
    <g id="Fig1" stroke="none" stroke-width="1" fill="none" fill-rule="evenodd">
        <rect fill="#FFFFFF" x="0" y="0" width="960" height="952"></rect>
        <rect id="Rectangle" stroke="#F1753A" stroke-width="5" fill="#FFFFFF" x="81" y="89" width="99" height="36"></rect>
        <rect id="Rectangle-Copy-8" stroke="#F1753A" stroke-width="5" fill="#FFFFFF" x="220" y="469" width="99" height="36"></rect>
        <rect id="Rectangle-Copy" stroke="#F1753A" stroke-width="5" fill="#FFFFFF" x="81" y="165" width="99" height="36"></rect>
        <rect id="Rectangle-Copy-10" stroke="#F1753A" stroke-width="5" fill="#FFFFFF" x="220" y="545" width="99" height="36"></rect>
        <rect id="Rectangle-Copy-3" stroke="#F1753A" stroke-width="5" fill="#FFFFFF" x="81" y="241" width="99" height="36"></rect>
        <rect id="Rectangle-Copy-11" stroke="#F1753A" stroke-width="5" fill="#FFFFFF" x="220" y="621" width="99" height="36"></rect>
        <rect id="Rectangle-Copy-5" stroke="#F1753A" stroke-width="5" fill="#FFFFFF" x="81" y="317" width="99" height="36"></rect>
        <rect id="Rectangle-Copy-12" stroke="#F1753A" stroke-width="5" fill="#FFFFFF" x="220" y="697" width="99" height="36"></rect>
        <rect id="Rectangle" stroke="#F1753A" stroke-width="5" fill="#FFFFFF" x="220" y="89" width="99" height="36"></rect>
        <rect id="Rectangle-Copy-37" stroke="#F1753A" stroke-width="5" fill="#FFFFFF" x="220" y="13" width="99" height="36"></rect>
        <rect id="Rectangle-Copy-13" stroke="#F1753A" stroke-width="5" fill="#FFFFFF" x="359" y="469" width="99" height="36"></rect>
        <rect id="Rectangle-Copy-2" stroke="#F1753A" stroke-width="5" fill="#FFFFFF" x="220" y="165" width="99" height="36"></rect>
        <rect id="Rectangle-Copy-14" stroke="#F1753A" stroke-width="5" fill="#FFFFFF" x="359" y="545" width="99" height="36"></rect>
        <rect id="Rectangle-Copy-39" stroke="#F1753A" stroke-width="5" fill="#FFFFFF" x="637" y="545" width="99" height="36"></rect>
        <rect id="Rectangle-Copy-4" stroke="#F1753A" stroke-width="5" fill="#FFFFFF" x="220" y="241" width="99" height="36"></rect>
        <rect id="Rectangle-Copy-15" stroke="#F1753A" stroke-width="5" fill="#FFFFFF" x="359" y="621" width="99" height="36"></rect>
        <rect id="Rectangle-Copy-6" stroke="#F1753A" stroke-width="5" fill="#FFFFFF" x="220" y="317" width="99" height="36"></rect>
        <rect id="Rectangle-Copy-16" stroke="#F1753A" stroke-width="5" fill="#FFFFFF" x="359" y="697" width="99" height="36"></rect>
        <rect id="Rectangle-Copy-7" stroke="#F1753A" stroke-width="5" fill="#FFFFFF" x="359" y="317" width="99" height="36"></rect>
        <rect id="Rectangle-Copy-17" stroke="#F1753A" stroke-width="5" fill="#FFFFFF" x="498" y="697" width="99" height="36"></rect>
        <rect id="Rectangle-Copy-9" stroke="#F1753A" stroke-width="5" fill="#FFFFFF" x="637" y="317" width="99" height="36"></rect>
        <rect id="Rectangle-Copy-18" stroke="#F1753A" stroke-width="5" fill="#FFFFFF" x="915" y="773" width="99" height="36"></rect>
        <rect id="Rectangle-Copy-18" stroke="#F1753A" stroke-width="5" fill="#FFFFFF" x="776" y="697" width="99" height="36"></rect>
        <rect id="Rectangle-Copy-35" stroke="#F1753A" stroke-width="5" fill="#FFFFFF" x="906" y="697" width="99" height="36"></rect>
        <rect id="Rectangle-Copy-18" stroke="#F1753A" stroke-width="5" fill="#FFFFFF" x="776" y="773" width="99" height="36"></rect>
        <rect id="Rectangle-Copy-18" stroke="#F1753A" stroke-width="5" fill="#FFFFFF" x="78" y="697" width="99" height="36"></rect>
        <rect id="Rectangle-Copy-24" stroke="#F1753A" stroke-width="5" fill="#FFFFFF" x="-58" y="697" width="99" height="36"></rect>
        <rect id="Rectangle-Copy-9" stroke="#F1753A" stroke-width="5" fill="#FFFFFF" x="498" y="393" width="99" height="36"></rect>
        <rect id="Rectangle-Copy-19" stroke="#F1753A" stroke-width="5" fill="#FFFFFF" x="637" y="773" width="99" height="36"></rect>
        <rect id="Rectangle-Copy-28" stroke="#F1753A" stroke-width="5" fill="#FFFFFF" x="637" y="848" width="99" height="36"></rect>
        <rect id="Rectangle-Copy-31" stroke="#F1753A" stroke-width="5" fill="#FFFFFF" x="637" y="924" width="99" height="36"></rect>
        <rect id="Rectangle-Copy-9" stroke="#F1753A" stroke-width="5" fill="#FFFFFF" x="359" y="393" width="99" height="36"></rect>
        <rect id="Rectangle-Copy-20" stroke="#F1753A" stroke-width="5" fill="#FFFFFF" x="498" y="773" width="99" height="36"></rect>
        <rect id="Rectangle-Copy-29" stroke="#F1753A" stroke-width="5" fill="#FFFFFF" x="498" y="848" width="99" height="36"></rect>
        <rect id="Rectangle-Copy-32" stroke="#F1753A" stroke-width="5" fill="#FFFFFF" x="498" y="924" width="99" height="36"></rect>
        <rect id="Rectangle-Copy-9" stroke="#F1753A" stroke-width="5" fill="#FFFFFF" x="81" y="393" width="99" height="36"></rect>
        <rect id="Rectangle-Copy-36" stroke="#F1753A" stroke-width="5" fill="#FFFFFF" x="-58" y="393" width="99" height="36"></rect>
        <rect id="Rectangle-Copy-21" stroke="#F1753A" stroke-width="5" fill="#FFFFFF" x="220" y="773" width="99" height="36"></rect>
        <rect id="Rectangle-Copy-25" stroke="#F1753A" stroke-width="5" fill="#FFFFFF" x="220" y="848" width="99" height="36"></rect>
        <rect id="Rectangle-Copy-33" stroke="#F1753A" stroke-width="5" fill="#FFFFFF" x="220" y="924" width="99" height="36"></rect>
        <rect id="Rectangle-Copy-26" stroke="#F1753A" stroke-width="5" fill="#FFFFFF" x="81" y="848" width="99" height="36"></rect>
        <rect id="Rectangle-Copy-27" stroke="#F1753A" stroke-width="5" fill="#FFFFFF" x="-58" y="848" width="99" height="36"></rect>
        <rect id="Rectangle-Copy-9" stroke="#F1753A" stroke-width="5" fill="#FFFFFF" x="220" y="393" width="99" height="36"></rect>
        <rect id="Rectangle-Copy-22" stroke="#F1753A" stroke-width="5" fill="#FFFFFF" x="359" y="773" width="99" height="36"></rect>
        <rect id="Rectangle-Copy-30" stroke="#F1753A" stroke-width="5" fill="#FFFFFF" x="359" y="848" width="99" height="36"></rect>
        <rect id="Rectangle-Copy-34" stroke="#F1753A" stroke-width="5" fill="#FFFFFF" x="359" y="924" width="99" height="36"></rect>
        <rect id="Rectangle" stroke="#F1753A" stroke-width="5" fill="#FFFFFF" x="359" y="89" width="99" height="36"></rect>
        <rect id="Rectangle-Copy-38" stroke="#F1753A" stroke-width="5" fill="#FFFFFF" x="359" y="13" width="99" height="36"></rect>
        <rect id="Rectangle-Copy-23" stroke="#F1753A" stroke-width="5" fill="#FFFFFF" x="498" y="469" width="99" height="36"></rect>
        <rect id="Rectangle-Copy-9" stroke="#F1753A" stroke-width="5" fill="#FDE3D7" transform="translate(947.500000, 492.500000) rotate(-270.000000) translate(-947.500000, -492.500000) " x="494.5" y="482.5" width="906" height="20"></rect>
        <rect id="Rectangle-Copy-9" stroke="#F1753A" stroke-width="5" fill="#FDE3D7" x="2.5" y="929.5" width="955" height="20"></rect>
        <path d="M0,0 L960,0 L960,20.5 C960,31.8218374 950.821837,41 939.5,41 L20.5,41 C9.17816263,41 1.38652519e-15,31.8218374 0,20.5 L0,0 L0,0 Z" id="Rectangle-Copy-9" fill="#F1753A" transform="translate(480.000000, 20.500000) scale(1, -1) translate(-480.000000, -20.500000) "></path>
        <rect id="Rectangle" fill="#F1753A" x="939" y="134" width="16" height="92" rx="7"></rect>
        <rect id="Rectangle" fill="#F1753A" transform="translate(204.500000, 940.000000) rotate(-90.000000) translate(-204.500000, -940.000000) " x="197" y="894" width="15" height="92" rx="7"></rect>
        <circle id="Oval" fill="#FFFFFF" cx="27.5" cy="22.5" r="7.5"></circle>
        <circle id="Oval-Copy" fill="#FFFFFF" cx="52.5" cy="22.5" r="7.5"></circle>
        <circle id="Oval-Copy-2" fill="#FFFFFF" cx="77.5" cy="22.5" r="7.5"></circle>
        <rect id="Rectangle-Copy-9" stroke="#F1753A" stroke-width="5" x="2.5" y="39.5" width="955" height="910"></rect>
        <line x1="270.5" y1="125" x2="270.5" y2="142" id="Line" stroke="#F1753A" stroke-width="5" stroke-linecap="square"></line>
        <line x1="131.5" y1="128.5" x2="131.5" y2="141.5" id="Line" stroke="#F1753A" stroke-width="5" stroke-linecap="square"></line>
        <line x1="269.5" y1="354" x2="269.5" y2="371" id="Line" stroke="#F1753A" stroke-width="5" stroke-linecap="square"></line>
        <line x1="409.5" y1="353.5" x2="409.5" y2="370.5" id="Line" stroke="#F1753A" stroke-width="5" stroke-linecap="square"></line>
        <line x1="547.5" y1="429.5" x2="547.5" y2="446.5" id="Line" stroke="#F1753A" stroke-width="5" stroke-linecap="square"></line>
        <line x1="408.5" y1="429.5" x2="408.5" y2="446.5" id="Line" stroke="#F1753A" stroke-width="5" stroke-linecap="square"></line>
        <line x1="270.5" y1="429.5" x2="270.5" y2="446.5" id="Line" stroke="#F1753A" stroke-width="5" stroke-linecap="square"></line>
        <line x1="131.5" y1="429.5" x2="131.5" y2="446.5" id="Line" stroke="#F1753A" stroke-width="5" stroke-linecap="square"></line>
        <line x1="269.5" y1="505.5" x2="269.5" y2="522.5" id="Line" stroke="#F1753A" stroke-width="5" stroke-linecap="square"></line>
        <line x1="409.5" y1="505.5" x2="409.5" y2="522.5" id="Line" stroke="#F1753A" stroke-width="5" stroke-linecap="square"></line>
        <line x1="547.5" y1="505.5" x2="547.5" y2="522.5" id="Line" stroke="#F1753A" stroke-width="5" stroke-linecap="square"></line>
        <line x1="687.5" y1="581.5" x2="687.5" y2="598.5" id="Line" stroke="#F1753A" stroke-width="5" stroke-linecap="square"></line>
        <line x1="409.5" y1="581.5" x2="409.5" y2="598.5" id="Line" stroke="#F1753A" stroke-width="5" stroke-linecap="square"></line>
        <line x1="687.5" y1="353.5" x2="687.5" y2="370.5" id="Line" stroke="#F1753A" stroke-width="5" stroke-linecap="square"></line>
        <line x1="270.5" y1="657.5" x2="270.5" y2="674.5" id="Line" stroke="#F1753A" stroke-width="5" stroke-linecap="square"></line>
        <line x1="128.5" y1="733.5" x2="128.5" y2="750.5" id="Line" stroke="#F1753A" stroke-width="5" stroke-linecap="square"></line>
        <line x1="270.5" y1="733.5" x2="270.5" y2="750.5" id="Line" stroke="#F1753A" stroke-width="5" stroke-linecap="square"></line>
        <line x1="409.5" y1="733.5" x2="409.5" y2="750.5" id="Line" stroke="#F1753A" stroke-width="5" stroke-linecap="square"></line>
        <line x1="547.5" y1="733.5" x2="547.5" y2="750.5" id="Line" stroke="#F1753A" stroke-width="5" stroke-linecap="square"></line>
        <line x1="826.5" y1="733.5" x2="826.5" y2="750.5" id="Line" stroke="#F1753A" stroke-width="5" stroke-linecap="square"></line>
        <line x1="826.5" y1="809.5" x2="826.5" y2="826.5" id="Line" stroke="#F1753A" stroke-width="5" stroke-linecap="square"></line>
        <line x1="687.5" y1="809.5" x2="687.5" y2="826.5" id="Line" stroke="#F1753A" stroke-width="5" stroke-linecap="square"></line>
        <line x1="547.5" y1="809.5" x2="547.5" y2="826.5" id="Line" stroke="#F1753A" stroke-width="5" stroke-linecap="square"></line>
        <line x1="409.5" y1="809.5" x2="409.5" y2="826.5" id="Line" stroke="#F1753A" stroke-width="5" stroke-linecap="square"></line>
        <line x1="269.5" y1="809.5" x2="269.5" y2="826.5" id="Line" stroke="#F1753A" stroke-width="5" stroke-linecap="square"></line>
        <line x1="269.5" y1="884.5" x2="269.5" y2="901.5" id="Line" stroke="#F1753A" stroke-width="5" stroke-linecap="square"></line>
        <line x1="408.5" y1="884.5" x2="408.5" y2="901.5" id="Line" stroke="#F1753A" stroke-width="5" stroke-linecap="square"></line>
        <line x1="548.5" y1="884.5" x2="548.5" y2="901.5" id="Line" stroke="#F1753A" stroke-width="5" stroke-linecap="square"></line>
        <line x1="687.5" y1="884.5" x2="687.5" y2="901.5" id="Line" stroke="#F1753A" stroke-width="5" stroke-linecap="square"></line>
        <line x1="128.5" y1="884.5" x2="128.5" y2="901.5" id="Line" stroke="#F1753A" stroke-width="5" stroke-linecap="square"></line>
        <line x1="131.5" y1="353.5" x2="131.5" y2="370.5" id="Line" stroke="#F1753A" stroke-width="5" stroke-linecap="square"></line>
        <line x1="270.5" y1="277.5" x2="270.5" y2="294.5" id="Line" stroke="#F1753A" stroke-width="5" stroke-linecap="square"></line>
        <line x1="131.5" y1="277.5" x2="131.5" y2="294.5" id="Line" stroke="#F1753A" stroke-width="5" stroke-linecap="square"></line>
        <line x1="131.5" y1="202.5" x2="131.5" y2="219.5" id="Line" stroke="#F1753A" stroke-width="5" stroke-linecap="square"></line>
        <line x1="270.5" y1="203" x2="270.5" y2="220" id="Line" stroke="#F1753A" stroke-width="5" stroke-linecap="square"></line>
        <line x1="409.5" y1="125.5" x2="409.5" y2="142.5" id="Line" stroke="#F1753A" stroke-width="5" stroke-linecap="square"></line>
        <line x1="269.5" y1="49.5" x2="269.5" y2="66.5" id="Line" stroke="#F1753A" stroke-width="5" stroke-linecap="square"></line>
        <line x1="409.5" y1="49.5" x2="409.5" y2="66.5" id="Line" stroke="#F1753A" stroke-width="5" stroke-linecap="square"></line>
        <line x1="269.5" y1="67.5" x2="409.5" y2="67.5" id="Line-2" stroke="#F1753A" stroke-width="5" stroke-linecap="square"></line>
        <line x1="131.5" y1="142.5" x2="409.5" y2="143" id="Line-2" stroke="#F1753A" stroke-width="5" stroke-linecap="square"></line>
        <line x1="269.5" y1="523.5" x2="547.5" y2="523.5" id="Line-2" stroke="#F1753A" stroke-width="5" stroke-linecap="square"></line>
        <line x1="4.5" y1="449.5" x2="547.5" y2="449.5" id="Line-2" stroke="#F1753A" stroke-width="5" stroke-linecap="square"></line>
        <line x1="270" y1="601.125" x2="687" y2="601.5" id="Line-2" stroke="#F1753A" stroke-width="5" stroke-linecap="square"></line>
        <line x1="-8" y1="678" x2="409" y2="678.375" id="Line-2" stroke="#F1753A" stroke-width="5" stroke-linecap="square"></line>
        <line x1="128.5" y1="750.5" x2="547.5" y2="750.5" id="Line-2" stroke="#F1753A" stroke-width="5" stroke-linecap="square"></line>
        <line x1="131.5" y1="373.25" x2="687.5" y2="373.5" id="Line-2" stroke="#F1753A" stroke-width="5" stroke-linecap="square"></line>
        <line x1="131.5" y1="220.5" x2="270.5" y2="220.5" id="Line-2" stroke="#F1753A" stroke-width="5" stroke-linecap="square"></line>
        <line x1="131.5" y1="295" x2="270.5" y2="295" id="Line-2" stroke="#F1753A" stroke-width="5" stroke-linecap="square"></line>
        <line x1="270" y1="581" x2="270" y2="598" id="Line" stroke="#F1753A" stroke-width="5" stroke-linecap="square"></line>
        <line x1="409.5" y1="657.5" x2="409.5" y2="678.5" id="Line" stroke="#F1753A" stroke-width="5" stroke-linecap="square"></line>
        <line x1="270" y1="826.8125" x2="826.5" y2="826.5" id="Line-2" stroke="#F1753A" stroke-width="5" stroke-linecap="square"></line>
        <line x1="128.5" y1="901.5" x2="684.75" y2="901.65625" id="Line-2" stroke="#F1753A" stroke-width="5" stroke-linecap="square"></line>
        <line x1="827" y1="751" x2="935.5" y2="750.5" id="Line-2" stroke="#F1753A" stroke-width="5" stroke-linecap="square"></line>
        <line x1="300.5" y1="144" x2="300.5" y2="161" id="Line" stroke="#F1753A" stroke-width="5" stroke-linecap="square"></line>
        <line x1="161.5" y1="147.5" x2="161.5" y2="160.5" id="Line" stroke="#F1753A" stroke-width="5" stroke-linecap="square"></line>
        <line x1="161.5" y1="224.5" x2="161.5" y2="237.5" id="Line" stroke="#F1753A" stroke-width="5" stroke-linecap="square"></line>
        <line x1="249" y1="221" x2="249" y2="238" id="Line" stroke="#F1753A" stroke-width="5" stroke-linecap="square"></line>
        <line x1="306" y1="374" x2="306" y2="391" id="Line" stroke="#F1753A" stroke-width="5" stroke-linecap="square"></line>
        <line x1="448" y1="374" x2="448" y2="391" id="Line" stroke="#F1753A" stroke-width="5" stroke-linecap="square"></line>
        <line x1="562" y1="374" x2="562" y2="391" id="Line" stroke="#F1753A" stroke-width="5" stroke-linecap="square"></line>
        <line x1="433" y1="452" x2="433" y2="469" id="Line" stroke="#F1753A" stroke-width="5" stroke-linecap="square"></line>
        <line x1="671" y1="376" x2="671.5" y2="544.5" id="Line" stroke="#F1753A" stroke-width="5" stroke-linecap="square"></line>
        <line x1="448" y1="602" x2="448" y2="619" id="Line" stroke="#F1753A" stroke-width="5" stroke-linecap="square"></line>
        <line x1="294" y1="602" x2="294" y2="619" id="Line" stroke="#F1753A" stroke-width="5" stroke-linecap="square"></line>
        <rect id="Rectangle" fill="url(#linearGradient-1)" transform="translate(470.405453, 812.454365) rotate(-270.000000) translate(-470.405453, -812.454365) " x="356.405453" y="347.454365" width="228" height="930"></rect>
    </g>
</svg>