<?xml version="1.0" encoding="UTF-8"?>
<svg width="926px" height="819px" viewBox="0 0 926 819" version="1.1" xmlns="http://www.w3.org/2000/svg" xmlns:xlink="http://www.w3.org/1999/xlink">
    <!-- Generator: Sketch 64 (93537) - https://sketch.com -->
    <title>Group</title>
    <desc>Created with Sketch.</desc>
    <g id="Demo" stroke="none" stroke-width="1" fill="none" fill-rule="evenodd">
        <g id="Artboard-Copy" transform="translate(-22.000000, -33.000000)">
            <g id="Group" transform="translate(23.000000, 34.000000)">
                <rect id="Rectangle" fill="#FFFFFF" x="0" y="0" width="924" height="817"></rect>
                <rect id="Rectangle" stroke="#000000" stroke-width="2" fill="#0A7FFF" x="0" y="0" width="154" height="32"></rect>
                <rect id="Rectangle-Copy-6" stroke="#000000" stroke-width="2" fill-opacity="0.0711046766" fill="#0A7FFF" x="0" y="32" width="154" height="130"></rect>
                <rect id="Rectangle-Copy-8" stroke="#000000" stroke-width="2" x="308" y="32" width="154" height="130"></rect>
                <rect id="Rectangle-Copy-12" stroke="#000000" stroke-width="2" x="308" y="162" width="154" height="131"></rect>
                <rect id="Rectangle-Copy-17" stroke="#000000" stroke-width="2" x="308" y="293" width="154" height="131"></rect>
                <rect id="Rectangle-Copy-23" stroke="#000000" stroke-width="2" x="308" y="424" width="154" height="131"></rect>
                <rect id="Rectangle-Copy-29" stroke="#000000" stroke-width="2" x="308" y="555" width="154" height="131"></rect>
                <rect id="Rectangle-Copy-35" stroke="#000000" stroke-width="2" x="308" y="686" width="154" height="131"></rect>
                <rect id="Rectangle-Copy-10" stroke="#000000" stroke-width="2" x="616" y="32" width="154" height="130"></rect>
                <rect id="Rectangle-Copy-13" stroke="#000000" stroke-width="2" x="616" y="162" width="154" height="131"></rect>
                <rect id="Rectangle-Copy-18" stroke="#000000" stroke-width="2" x="616" y="293" width="154" height="131"></rect>
                <rect id="Rectangle-Copy-24" stroke="#000000" stroke-width="2" x="616" y="424" width="154" height="131"></rect>
                <rect id="Rectangle-Copy-30" stroke="#000000" stroke-width="2" x="616" y="555" width="154" height="131"></rect>
                <rect id="Rectangle-Copy-36" stroke="#000000" stroke-width="2" x="616" y="686" width="154" height="131"></rect>
                <rect id="Rectangle-Copy-6" stroke="#000000" stroke-width="2" x="154" y="32" width="154" height="130"></rect>
                <rect id="Rectangle-Copy-14" stroke="#000000" stroke-width="2" x="154" y="162" width="154" height="131"></rect>
                <rect id="Rectangle-Copy-19" stroke="#000000" stroke-width="2" x="154" y="293" width="154" height="131"></rect>
                <rect id="Rectangle-Copy-25" stroke="#000000" stroke-width="2" x="154" y="424" width="154" height="131"></rect>
                <rect id="Rectangle-Copy-31" stroke="#000000" stroke-width="2" x="154" y="555" width="154" height="131"></rect>
                <rect id="Rectangle-Copy-37" stroke="#000000" stroke-width="2" x="154" y="686" width="154" height="131"></rect>
                <rect id="Rectangle-Copy-9" stroke="#000000" stroke-width="2" x="462" y="32" width="154" height="130"></rect>
                <rect id="Rectangle-Copy-15" stroke="#000000" stroke-width="2" x="462" y="162" width="154" height="131"></rect>
                <rect id="Rectangle-Copy-20" stroke="#000000" stroke-width="2" x="462" y="293" width="154" height="131"></rect>
                <rect id="Rectangle-Copy-26" stroke="#000000" stroke-width="2" x="462" y="424" width="154" height="131"></rect>
                <rect id="Rectangle-Copy-32" stroke="#000000" stroke-width="2" x="462" y="555" width="154" height="131"></rect>
                <rect id="Rectangle-Copy-38" stroke="#000000" stroke-width="2" x="462" y="686" width="154" height="131"></rect>
                <rect id="Rectangle-Copy-11" stroke="#000000" stroke-width="2" x="770" y="32" width="154" height="130"></rect>
                <rect id="Rectangle-Copy-16" stroke="#000000" stroke-width="2" x="770" y="162" width="154" height="131"></rect>
                <rect id="Rectangle-Copy-21" stroke="#000000" stroke-width="2" x="770" y="293" width="154" height="131"></rect>
                <rect id="Rectangle-Copy-27" stroke="#000000" stroke-width="2" x="770" y="424" width="154" height="131"></rect>
                <rect id="Rectangle-Copy-33" stroke="#000000" stroke-width="2" x="770" y="555" width="154" height="131"></rect>
                <rect id="Rectangle-Copy-39" stroke="#000000" stroke-width="2" x="770" y="686" width="154" height="131"></rect>
                <rect id="Rectangle-Copy-7" stroke="#000000" stroke-width="2" fill-opacity="0.0711046766" fill="#0A7FFF" x="0" y="162" width="154" height="131"></rect>
                <rect id="Rectangle-Copy-22" stroke="#000000" stroke-width="2" fill-opacity="0.0711046766" fill="#0A7FFF" x="0" y="293" width="154" height="131"></rect>
                <rect id="Rectangle-Copy-28" stroke="#000000" stroke-width="2" fill-opacity="0.0711046766" fill="#0A7FFF" x="0" y="424" width="154" height="131"></rect>
                <rect id="Rectangle-Copy-34" stroke="#000000" stroke-width="2" fill-opacity="0.0711046766" fill="#0A7FFF" x="0" y="555" width="154" height="131"></rect>
                <rect id="Rectangle-Copy-40" stroke="#000000" stroke-width="2" fill-opacity="0.0711046766" fill="#0A7FFF" x="0" y="686" width="154" height="131"></rect>
                <rect id="Rectangle-Copy" stroke="#000000" stroke-width="2" fill="#0A7FFF" x="308" y="0" width="154" height="32"></rect>
                <rect id="Rectangle-Copy-2" stroke="#000000" stroke-width="2" fill="#0A7FFF" x="616" y="0" width="154" height="32"></rect>
                <rect id="Rectangle-Copy-3" stroke="#000000" stroke-width="2" fill="#0A7FFF" x="462" y="0" width="154" height="32"></rect>
                <rect id="Rectangle-Copy-4" stroke="#000000" stroke-width="2" fill="#0A7FFF" x="154" y="0" width="154" height="32"></rect>
                <rect id="Rectangle-Copy-5" stroke="#000000" stroke-width="2" fill="#0A7FFF" x="770" y="0" width="154" height="32"></rect>
                <path d="M26.853,20.21 C28.827,20.21 30.507,19.202 31.067,17.634 C31.137,17.424 31.165,17.298 31.165,17.088 C31.165,16.402 30.675,15.954 29.961,15.954 C29.471,15.954 29.205,16.136 28.925,16.64 C28.379,17.606 27.749,17.984 26.685,17.984 C25.131,17.984 24.095,16.822 24.095,15.1 C24.095,13.378 25.131,12.216 26.685,12.216 C27.749,12.216 28.379,12.58 28.925,13.546 C29.205,14.036 29.471,14.232 29.961,14.232 C30.675,14.232 31.151,13.784 31.151,13.098 C31.151,12.86 31.123,12.678 31.025,12.468 C30.465,11.068 28.799,9.99 26.853,9.99 C23.829,9.99 21.631,12.118 21.631,15.1 C21.631,18.082 23.829,20.21 26.853,20.21 Z M37.933,20.21 C41.027,20.21 43.141,18.138 43.141,15.072 C43.141,12.16 40.915,9.99 37.933,9.99 C34.937,9.99 32.725,12.132 32.725,15.058 C32.725,18.138 34.811,20.21 37.933,20.21 Z M37.933,17.984 C36.239,17.984 35.189,16.864 35.189,15.058 C35.189,13.336 36.281,12.216 37.933,12.216 C39.557,12.216 40.663,13.35 40.663,15.072 C40.663,16.878 39.627,17.984 37.933,17.984 Z M56.307,20.07 C57.021,20.07 57.441,19.636 57.441,18.922 C57.441,18.684 57.441,18.586 57.399,18.292 L56.321,11.25 C56.209,10.536 55.803,10.13 55.145,10.13 C54.641,10.13 54.319,10.354 53.997,11.026 L51.183,16.794 L48.355,11.04 C48.019,10.368 47.739,10.13 47.193,10.13 C46.577,10.13 46.143,10.522 46.045,11.236 L44.967,18.334 C44.925,18.6 44.911,18.684 44.911,18.922 C44.911,19.636 45.331,20.07 46.045,20.07 C46.675,20.07 47.067,19.706 47.165,19.09 L47.697,14.792 L50.021,19.23 C50.343,19.86 50.651,20.07 51.169,20.07 C51.729,20.07 52.037,19.846 52.359,19.23 L54.683,14.792 L55.215,19.09 C55.285,19.706 55.677,20.07 56.307,20.07 Z M61.017,20.084 C61.759,20.084 62.235,19.58 62.235,18.754 L62.235,16.71 L65.371,16.71 C67.555,16.71 68.829,15.506 68.829,13.448 C68.829,11.39 67.569,10.2 65.371,10.2 L61.171,10.2 C60.233,10.2 59.771,10.676 59.771,11.614 L59.771,18.754 C59.771,19.58 60.247,20.084 61.017,20.084 Z M65.245,14.484 L62.235,14.484 L62.235,12.426 L65.245,12.426 C65.987,12.426 66.365,12.762 66.365,13.448 C66.365,14.106 65.959,14.484 65.245,14.484 Z M78.117,20 C78.901,20 79.363,19.566 79.363,18.852 C79.363,18.138 78.887,17.69 78.117,17.69 L73.441,17.69 L73.441,16.178 L77.585,16.178 C78.369,16.178 78.761,15.814 78.761,15.086 C78.761,14.372 78.355,13.994 77.585,13.994 L73.441,13.994 L73.441,12.51 L78.089,12.51 C78.873,12.51 79.335,12.076 79.335,11.362 C79.335,10.648 78.859,10.2 78.089,10.2 L72.377,10.2 C71.439,10.2 70.977,10.676 70.977,11.614 L70.977,18.586 C70.977,19.524 71.453,20 72.391,20 L78.117,20 Z M85.501,20.07 C86.243,20.07 86.719,19.566 86.719,18.74 L86.719,12.51 L88.917,12.51 C89.715,12.51 90.177,12.09 90.177,11.362 C90.177,10.648 89.701,10.2 88.917,10.2 L82.029,10.2 C81.259,10.2 80.783,10.648 80.783,11.362 C80.783,12.076 81.245,12.51 82.029,12.51 L84.255,12.51 L84.255,18.74 C84.255,19.566 84.731,20.07 85.501,20.07 Z M97.757,20 C98.555,20 99.017,19.58 99.017,18.852 C99.017,18.138 98.541,17.69 97.757,17.69 L96.511,17.69 L96.511,12.51 L97.617,12.51 C98.415,12.51 98.877,12.09 98.877,11.362 C98.877,10.648 98.401,10.2 97.617,10.2 L92.913,10.2 C92.143,10.2 91.667,10.648 91.667,11.362 C91.667,12.076 92.129,12.51 92.913,12.51 L94.033,12.51 L94.033,17.69 L92.773,17.69 C92.003,17.69 91.527,18.138 91.527,18.852 C91.527,19.566 91.989,20 92.773,20 L97.757,20 Z M105.085,20.07 C105.827,20.07 106.303,19.566 106.303,18.74 L106.303,12.51 L108.501,12.51 C109.299,12.51 109.761,12.09 109.761,11.362 C109.761,10.648 109.285,10.2 108.501,10.2 L101.613,10.2 C100.843,10.2 100.367,10.648 100.367,11.362 C100.367,12.076 100.829,12.51 101.613,12.51 L103.839,12.51 L103.839,18.74 C103.839,19.566 104.315,20.07 105.085,20.07 Z M115.549,20.21 C118.643,20.21 120.757,18.138 120.757,15.072 C120.757,12.16 118.531,9.99 115.549,9.99 C112.553,9.99 110.341,12.132 110.341,15.058 C110.341,18.138 112.427,20.21 115.549,20.21 Z M115.549,17.984 C113.855,17.984 112.805,16.864 112.805,15.058 C112.805,13.336 113.897,12.216 115.549,12.216 C117.173,12.216 118.279,13.35 118.279,15.072 C118.279,16.878 117.243,17.984 115.549,17.984 Z M130.969,20.07 C131.627,20.07 132.117,19.622 132.117,19.006 C132.117,18.628 131.991,18.39 131.711,18.068 L130.255,16.458 C131.487,15.996 132.159,14.96 132.159,13.448 C132.159,11.39 130.885,10.2 128.701,10.2 L124.277,10.2 C123.339,10.2 122.877,10.676 122.877,11.614 L122.877,18.74 C122.877,19.566 123.353,20.07 124.123,20.07 C124.865,20.07 125.341,19.566 125.341,18.74 L125.341,16.71 L127.301,16.71 L130.073,19.664 C130.339,19.944 130.591,20.07 130.969,20.07 Z M128.575,14.484 L125.341,14.484 L125.341,12.426 L128.575,12.426 C129.317,12.426 129.681,12.762 129.681,13.448 C129.681,14.106 129.261,14.484 128.575,14.484 Z" id="COMPETITOR" fill="#FFFFFF" fill-rule="nonzero"></path>
                <path d="M56.548,102.21 C58.844,102.21 60.426,100.88 60.426,98.976 C60.426,96.68 58.144,96.26 56.394,95.924 C55.288,95.742 54.378,95.546 54.378,94.986 C54.378,94.482 54.966,94.146 55.82,94.146 C56.604,94.146 57.22,94.426 57.878,95.098 C58.2,95.42 58.452,95.546 58.83,95.546 C59.502,95.546 60.006,95.07 60.006,94.44 C60.006,94.216 59.936,93.992 59.81,93.768 C59.18,92.732 57.584,91.99 55.904,91.99 C53.664,91.99 52.04,93.25 52.04,94.986 C52.04,97.31 54.21,97.688 55.946,98.024 C57.108,98.248 58.074,98.388 58.074,99.074 C58.074,99.676 57.528,100.026 56.576,100.026 C55.442,100.026 54.672,99.648 54.168,98.808 C53.846,98.29 53.468,98.08 52.95,98.08 C52.264,98.08 51.718,98.584 51.718,99.242 C51.718,99.508 51.788,99.732 51.942,100.026 C52.656,101.384 54.434,102.21 56.548,102.21 Z M66.214,102.07 C66.956,102.07 67.432,101.566 67.432,100.74 L67.432,94.51 L69.63,94.51 C70.428,94.51 70.89,94.09 70.89,93.362 C70.89,92.648 70.414,92.2 69.63,92.2 L62.742,92.2 C61.972,92.2 61.496,92.648 61.496,93.362 C61.496,94.076 61.958,94.51 62.742,94.51 L64.968,94.51 L64.968,100.74 C64.968,101.566 65.444,102.07 66.214,102.07 Z M79.702,102.07 C80.374,102.07 80.864,101.58 80.864,100.922 C80.864,100.684 80.822,100.516 80.654,100.194 L76.776,92.97 C76.454,92.368 76.104,92.13 75.544,92.13 C74.942,92.13 74.62,92.354 74.298,92.956 L70.434,100.18 C70.266,100.502 70.21,100.684 70.21,100.922 C70.21,101.58 70.714,102.07 71.372,102.07 C71.834,102.07 72.212,101.818 72.478,101.314 L73.206,99.914 L77.882,99.914 L78.61,101.314 C78.876,101.818 79.24,102.07 79.702,102.07 Z M76.832,97.912 L74.256,97.912 L75.544,95.448 L76.832,97.912 Z M90.796,102.07 C91.454,102.07 91.944,101.622 91.944,101.006 C91.944,100.628 91.818,100.39 91.538,100.068 L90.082,98.458 C91.314,97.996 91.986,96.96 91.986,95.448 C91.986,93.39 90.712,92.2 88.528,92.2 L84.104,92.2 C83.166,92.2 82.704,92.676 82.704,93.614 L82.704,100.74 C82.704,101.566 83.18,102.07 83.95,102.07 C84.692,102.07 85.168,101.566 85.168,100.74 L85.168,98.71 L87.128,98.71 L89.9,101.664 C90.166,101.944 90.418,102.07 90.796,102.07 Z M88.402,96.484 L85.168,96.484 L85.168,94.426 L88.402,94.426 C89.144,94.426 89.508,94.762 89.508,95.448 C89.508,96.106 89.088,96.484 88.402,96.484 Z M101.47,102.07 C102.128,102.07 102.646,101.622 102.646,100.95 C102.646,100.642 102.534,100.348 102.31,100.054 L99.622,96.54 L101.862,94.258 C102.212,93.908 102.394,93.544 102.394,93.194 C102.394,92.592 101.932,92.116 101.246,92.116 C100.924,92.116 100.644,92.242 100.378,92.508 L96.78,96.288 L96.78,93.46 C96.78,92.634 96.304,92.13 95.562,92.13 C94.792,92.13 94.316,92.634 94.316,93.46 L94.316,100.74 C94.316,101.566 94.792,102.07 95.562,102.07 C96.304,102.07 96.78,101.566 96.78,100.74 L96.78,99.41 L97.97,98.206 L100.42,101.496 C100.742,101.902 101.022,102.07 101.47,102.07 Z" id="STARK" fill="#000000" fill-rule="nonzero"></path>
                <path d="M45.365,213.21 C47.661,213.21 49.243,211.88 49.243,209.976 C49.243,207.68 46.961,207.26 45.211,206.924 C44.105,206.742 43.195,206.546 43.195,205.986 C43.195,205.482 43.783,205.146 44.637,205.146 C45.421,205.146 46.037,205.426 46.695,206.098 C47.017,206.42 47.269,206.546 47.647,206.546 C48.319,206.546 48.823,206.07 48.823,205.44 C48.823,205.216 48.753,204.992 48.627,204.768 C47.997,203.732 46.401,202.99 44.721,202.99 C42.481,202.99 40.857,204.25 40.857,205.986 C40.857,208.31 43.027,208.688 44.763,209.024 C45.925,209.248 46.891,209.388 46.891,210.074 C46.891,210.676 46.345,211.026 45.393,211.026 C44.259,211.026 43.489,210.648 42.985,209.808 C42.663,209.29 42.285,209.08 41.767,209.08 C41.081,209.08 40.535,209.584 40.535,210.242 C40.535,210.508 40.605,210.732 40.759,211.026 C41.473,212.384 43.251,213.21 45.365,213.21 Z M58.447,213.07 C59.105,213.07 59.623,212.622 59.623,211.95 C59.623,211.642 59.511,211.348 59.287,211.054 L56.599,207.54 L58.839,205.258 C59.189,204.908 59.371,204.544 59.371,204.194 C59.371,203.592 58.909,203.116 58.223,203.116 C57.901,203.116 57.621,203.242 57.355,203.508 L53.757,207.288 L53.757,204.46 C53.757,203.634 53.281,203.13 52.539,203.13 C51.769,203.13 51.293,203.634 51.293,204.46 L51.293,211.74 C51.293,212.566 51.769,213.07 52.539,213.07 C53.281,213.07 53.757,212.566 53.757,211.74 L53.757,210.41 L54.947,209.206 L57.397,212.496 C57.719,212.902 57.999,213.07 58.447,213.07 Z M68.659,213 C69.443,213 69.905,212.566 69.905,211.852 C69.905,211.138 69.429,210.69 68.659,210.69 L63.983,210.69 L63.983,209.178 L68.127,209.178 C68.911,209.178 69.303,208.814 69.303,208.086 C69.303,207.372 68.897,206.994 68.127,206.994 L63.983,206.994 L63.983,205.51 L68.631,205.51 C69.415,205.51 69.877,205.076 69.877,204.362 C69.877,203.648 69.401,203.2 68.631,203.2 L62.919,203.2 C61.981,203.2 61.519,203.676 61.519,204.614 L61.519,211.586 C61.519,212.524 61.995,213 62.933,213 L68.659,213 Z M76.043,213.07 C76.785,213.07 77.261,212.566 77.261,211.74 L77.261,205.51 L79.459,205.51 C80.257,205.51 80.719,205.09 80.719,204.362 C80.719,203.648 80.243,203.2 79.459,203.2 L72.571,203.2 C71.801,203.2 71.325,203.648 71.325,204.362 C71.325,205.076 71.787,205.51 72.571,205.51 L74.797,205.51 L74.797,211.74 C74.797,212.566 75.273,213.07 76.043,213.07 Z M86.801,213.21 C88.775,213.21 90.455,212.202 91.015,210.634 C91.085,210.424 91.113,210.298 91.113,210.088 C91.113,209.402 90.623,208.954 89.909,208.954 C89.419,208.954 89.153,209.136 88.873,209.64 C88.327,210.606 87.697,210.984 86.633,210.984 C85.079,210.984 84.043,209.822 84.043,208.1 C84.043,206.378 85.079,205.216 86.633,205.216 C87.697,205.216 88.327,205.58 88.873,206.546 C89.153,207.036 89.419,207.232 89.909,207.232 C90.623,207.232 91.099,206.784 91.099,206.098 C91.099,205.86 91.071,205.678 90.973,205.468 C90.413,204.068 88.747,202.99 86.801,202.99 C83.777,202.99 81.579,205.118 81.579,208.1 C81.579,211.082 83.777,213.21 86.801,213.21 Z M101.143,213.07 C101.885,213.07 102.361,212.566 102.361,211.74 L102.361,204.46 C102.361,203.634 101.885,203.13 101.143,203.13 C100.373,203.13 99.897,203.634 99.897,204.46 L99.897,206.91 L95.697,206.91 L95.697,204.46 C95.697,203.634 95.221,203.13 94.479,203.13 C93.709,203.13 93.233,203.634 93.233,204.46 L93.233,211.74 C93.233,212.566 93.709,213.07 94.479,213.07 C95.221,213.07 95.697,212.566 95.697,211.74 L95.697,209.052 L99.897,209.052 L99.897,211.74 C99.897,212.566 100.373,213.07 101.143,213.07 Z M107.897,209.948 C108.667,209.948 109.115,209.514 109.115,208.828 C109.115,208.142 108.667,207.722 107.897,207.722 L106.189,207.722 C105.419,207.722 104.971,208.142 104.971,208.828 C104.971,209.542 105.419,209.948 106.189,209.948 L107.897,209.948 Z M49.96,232.21 C51.934,232.21 53.614,231.202 54.174,229.634 C54.244,229.424 54.272,229.298 54.272,229.088 C54.272,228.402 53.782,227.954 53.068,227.954 C52.578,227.954 52.312,228.136 52.032,228.64 C51.486,229.606 50.856,229.984 49.792,229.984 C48.238,229.984 47.202,228.822 47.202,227.1 C47.202,225.378 48.238,224.216 49.792,224.216 C50.856,224.216 51.486,224.58 52.032,225.546 C52.312,226.036 52.578,226.232 53.068,226.232 C53.782,226.232 54.258,225.784 54.258,225.098 C54.258,224.86 54.23,224.678 54.132,224.468 C53.572,223.068 51.906,221.99 49.96,221.99 C46.936,221.99 44.738,224.118 44.738,227.1 C44.738,230.082 46.936,232.21 49.96,232.21 Z M61.04,232.21 C64.134,232.21 66.248,230.138 66.248,227.072 C66.248,224.16 64.022,221.99 61.04,221.99 C58.044,221.99 55.832,224.132 55.832,227.058 C55.832,230.138 57.918,232.21 61.04,232.21 Z M61.04,229.984 C59.346,229.984 58.296,228.864 58.296,227.058 C58.296,225.336 59.388,224.216 61.04,224.216 C62.664,224.216 63.77,225.35 63.77,227.072 C63.77,228.878 62.734,229.984 61.04,229.984 Z M74.85,232 C75.62,232 76.11,231.524 76.11,230.838 C76.11,230.166 75.592,229.676 74.85,229.676 L70.832,229.676 L70.832,223.46 C70.832,222.634 70.356,222.13 69.614,222.13 C68.844,222.13 68.368,222.634 68.368,223.46 L68.368,230.838 C68.368,231.496 68.872,232 69.53,232 L74.85,232 Z M82.038,232.21 C85.132,232.21 87.246,230.138 87.246,227.072 C87.246,224.16 85.02,221.99 82.038,221.99 C79.042,221.99 76.83,224.132 76.83,227.058 C76.83,230.138 78.916,232.21 82.038,232.21 Z M82.038,229.984 C80.344,229.984 79.294,228.864 79.294,227.058 C79.294,225.336 80.386,224.216 82.038,224.216 C83.662,224.216 84.768,225.35 84.768,227.072 C84.768,228.878 83.732,229.984 82.038,229.984 Z M97.458,232.07 C98.116,232.07 98.606,231.622 98.606,231.006 C98.606,230.628 98.48,230.39 98.2,230.068 L96.744,228.458 C97.976,227.996 98.648,226.96 98.648,225.448 C98.648,223.39 97.374,222.2 95.19,222.2 L90.766,222.2 C89.828,222.2 89.366,222.676 89.366,223.614 L89.366,230.74 C89.366,231.566 89.842,232.07 90.612,232.07 C91.354,232.07 91.83,231.566 91.83,230.74 L91.83,228.71 L93.79,228.71 L96.562,231.664 C96.828,231.944 97.08,232.07 97.458,232.07 Z M95.064,226.484 L91.83,226.484 L91.83,224.426 L95.064,224.426 C95.806,224.426 96.17,224.762 96.17,225.448 C96.17,226.106 95.75,226.484 95.064,226.484 Z M103.554,228.948 C104.324,228.948 104.772,228.514 104.772,227.828 C104.772,227.142 104.324,226.722 103.554,226.722 L101.846,226.722 C101.076,226.722 100.628,227.142 100.628,227.828 C100.628,228.542 101.076,228.948 101.846,228.948 L103.554,228.948 Z M36.206,251.21 C38.18,251.21 39.86,250.202 40.42,248.634 C40.49,248.424 40.518,248.298 40.518,248.088 C40.518,247.402 40.028,246.954 39.314,246.954 C38.824,246.954 38.558,247.136 38.278,247.64 C37.732,248.606 37.102,248.984 36.038,248.984 C34.484,248.984 33.448,247.822 33.448,246.1 C33.448,244.378 34.484,243.216 36.038,243.216 C37.102,243.216 37.732,243.58 38.278,244.546 C38.558,245.036 38.824,245.232 39.314,245.232 C40.028,245.232 40.504,244.784 40.504,244.098 C40.504,243.86 40.476,243.678 40.378,243.468 C39.818,242.068 38.152,240.99 36.206,240.99 C33.182,240.99 30.984,243.118 30.984,246.1 C30.984,249.082 33.182,251.21 36.206,251.21 Z M47.286,251.21 C50.38,251.21 52.494,249.138 52.494,246.072 C52.494,243.16 50.268,240.99 47.286,240.99 C44.29,240.99 42.078,243.132 42.078,246.058 C42.078,249.138 44.164,251.21 47.286,251.21 Z M47.286,248.984 C45.592,248.984 44.542,247.864 44.542,246.058 C44.542,244.336 45.634,243.216 47.286,243.216 C48.91,243.216 50.016,244.35 50.016,246.072 C50.016,247.878 48.98,248.984 47.286,248.984 Z M63.182,251.07 C64.008,251.07 64.484,250.552 64.484,249.698 L64.484,242.46 C64.484,241.634 64.008,241.13 63.238,241.13 C62.496,241.13 62.006,241.634 62.006,242.46 L62.006,247.01 L57.12,241.746 C56.728,241.312 56.364,241.13 55.916,241.13 C55.09,241.13 54.614,241.648 54.614,242.502 L54.614,249.74 C54.614,250.566 55.09,251.07 55.86,251.07 C56.602,251.07 57.092,250.566 57.092,249.74 L57.092,245.19 L61.978,250.454 C62.37,250.888 62.734,251.07 63.182,251.07 Z M71.042,251.07 C71.784,251.07 72.26,250.566 72.26,249.74 L72.26,243.51 L74.458,243.51 C75.256,243.51 75.718,243.09 75.718,242.362 C75.718,241.648 75.242,241.2 74.458,241.2 L67.57,241.2 C66.8,241.2 66.324,241.648 66.324,242.362 C66.324,243.076 66.786,243.51 67.57,243.51 L69.796,243.51 L69.796,249.74 C69.796,250.566 70.272,251.07 71.042,251.07 Z M85.65,251.07 C86.308,251.07 86.798,250.622 86.798,250.006 C86.798,249.628 86.672,249.39 86.392,249.068 L84.936,247.458 C86.168,246.996 86.84,245.96 86.84,244.448 C86.84,242.39 85.566,241.2 83.382,241.2 L78.958,241.2 C78.02,241.2 77.558,241.676 77.558,242.614 L77.558,249.74 C77.558,250.566 78.034,251.07 78.804,251.07 C79.546,251.07 80.022,250.566 80.022,249.74 L80.022,247.71 L81.982,247.71 L84.754,250.664 C85.02,250.944 85.272,251.07 85.65,251.07 Z M83.256,245.484 L80.022,245.484 L80.022,243.426 L83.256,243.426 C83.998,243.426 84.362,243.762 84.362,244.448 C84.362,245.106 83.942,245.484 83.256,245.484 Z M97.822,251.07 C98.494,251.07 98.984,250.58 98.984,249.922 C98.984,249.684 98.942,249.516 98.774,249.194 L94.896,241.97 C94.574,241.368 94.224,241.13 93.664,241.13 C93.062,241.13 92.74,241.354 92.418,241.956 L88.554,249.18 C88.386,249.502 88.33,249.684 88.33,249.922 C88.33,250.58 88.834,251.07 89.492,251.07 C89.954,251.07 90.332,250.818 90.598,250.314 L91.326,248.914 L96.002,248.914 L96.73,250.314 C96.996,250.818 97.36,251.07 97.822,251.07 Z M94.952,246.912 L92.376,246.912 L93.664,244.448 L94.952,246.912 Z M104.954,251.21 C107.25,251.21 108.832,249.88 108.832,247.976 C108.832,245.68 106.55,245.26 104.8,244.924 C103.694,244.742 102.784,244.546 102.784,243.986 C102.784,243.482 103.372,243.146 104.226,243.146 C105.01,243.146 105.626,243.426 106.284,244.098 C106.606,244.42 106.858,244.546 107.236,244.546 C107.908,244.546 108.412,244.07 108.412,243.44 C108.412,243.216 108.342,242.992 108.216,242.768 C107.586,241.732 105.99,240.99 104.31,240.99 C102.07,240.99 100.446,242.25 100.446,243.986 C100.446,246.31 102.616,246.688 104.352,247.024 C105.514,247.248 106.48,247.388 106.48,248.074 C106.48,248.676 105.934,249.026 104.982,249.026 C103.848,249.026 103.078,248.648 102.574,247.808 C102.252,247.29 101.874,247.08 101.356,247.08 C100.67,247.08 100.124,247.584 100.124,248.242 C100.124,248.508 100.194,248.732 100.348,249.026 C101.062,250.384 102.84,251.21 104.954,251.21 Z M114.62,251.07 C115.362,251.07 115.838,250.566 115.838,249.74 L115.838,243.51 L118.036,243.51 C118.834,243.51 119.296,243.09 119.296,242.362 C119.296,241.648 118.82,241.2 118.036,241.2 L111.148,241.2 C110.378,241.2 109.902,241.648 109.902,242.362 C109.902,243.076 110.364,243.51 111.148,243.51 L113.374,243.51 L113.374,249.74 C113.374,250.566 113.85,251.07 114.62,251.07 Z" id="SKETCH-COLOR-CONTRAST" fill="#000000" fill-rule="nonzero"></path>
                <path d="M53.778,354.21 C55.752,354.21 57.432,353.202 57.992,351.634 C58.062,351.424 58.09,351.298 58.09,351.088 C58.09,350.402 57.6,349.954 56.886,349.954 C56.396,349.954 56.13,350.136 55.85,350.64 C55.304,351.606 54.674,351.984 53.61,351.984 C52.056,351.984 51.02,350.822 51.02,349.1 C51.02,347.378 52.056,346.216 53.61,346.216 C54.674,346.216 55.304,346.58 55.85,347.546 C56.13,348.036 56.396,348.232 56.886,348.232 C57.6,348.232 58.076,347.784 58.076,347.098 C58.076,346.86 58.048,346.678 57.95,346.468 C57.39,345.068 55.724,343.99 53.778,343.99 C50.754,343.99 48.556,346.118 48.556,349.1 C48.556,352.082 50.754,354.21 53.778,354.21 Z M68.12,354.07 C68.862,354.07 69.338,353.566 69.338,352.74 L69.338,345.46 C69.338,344.634 68.862,344.13 68.12,344.13 C67.35,344.13 66.874,344.634 66.874,345.46 L66.874,347.91 L62.674,347.91 L62.674,345.46 C62.674,344.634 62.198,344.13 61.456,344.13 C60.686,344.13 60.21,344.634 60.21,345.46 L60.21,352.74 C60.21,353.566 60.686,354.07 61.456,354.07 C62.198,354.07 62.674,353.566 62.674,352.74 L62.674,350.052 L66.874,350.052 L66.874,352.74 C66.874,353.566 67.35,354.07 68.12,354.07 Z M79.158,354 C79.942,354 80.404,353.566 80.404,352.852 C80.404,352.138 79.928,351.69 79.158,351.69 L74.482,351.69 L74.482,350.178 L78.626,350.178 C79.41,350.178 79.802,349.814 79.802,349.086 C79.802,348.372 79.396,347.994 78.626,347.994 L74.482,347.994 L74.482,346.51 L79.13,346.51 C79.914,346.51 80.376,346.076 80.376,345.362 C80.376,344.648 79.9,344.2 79.13,344.2 L73.418,344.2 C72.48,344.2 72.018,344.676 72.018,345.614 L72.018,352.586 C72.018,353.524 72.494,354 73.432,354 L79.158,354 Z M86.906,354.21 C88.88,354.21 90.56,353.202 91.12,351.634 C91.19,351.424 91.218,351.298 91.218,351.088 C91.218,350.402 90.728,349.954 90.014,349.954 C89.524,349.954 89.258,350.136 88.978,350.64 C88.432,351.606 87.802,351.984 86.738,351.984 C85.184,351.984 84.148,350.822 84.148,349.1 C84.148,347.378 85.184,346.216 86.738,346.216 C87.802,346.216 88.432,346.58 88.978,347.546 C89.258,348.036 89.524,348.232 90.014,348.232 C90.728,348.232 91.204,347.784 91.204,347.098 C91.204,346.86 91.176,346.678 91.078,346.468 C90.518,345.068 88.852,343.99 86.906,343.99 C83.882,343.99 81.684,346.118 81.684,349.1 C81.684,352.082 83.882,354.21 86.906,354.21 Z M100.492,354.07 C101.15,354.07 101.668,353.622 101.668,352.95 C101.668,352.642 101.556,352.348 101.332,352.054 L98.644,348.54 L100.884,346.258 C101.234,345.908 101.416,345.544 101.416,345.194 C101.416,344.592 100.954,344.116 100.268,344.116 C99.946,344.116 99.666,344.242 99.4,344.508 L95.802,348.288 L95.802,345.46 C95.802,344.634 95.326,344.13 94.584,344.13 C93.814,344.13 93.338,344.634 93.338,345.46 L93.338,352.74 C93.338,353.566 93.814,354.07 94.584,354.07 C95.326,354.07 95.802,353.566 95.802,352.74 L95.802,351.41 L96.992,350.206 L99.442,353.496 C99.764,353.902 100.044,354.07 100.492,354.07 Z M36.206,373.21 C38.18,373.21 39.86,372.202 40.42,370.634 C40.49,370.424 40.518,370.298 40.518,370.088 C40.518,369.402 40.028,368.954 39.314,368.954 C38.824,368.954 38.558,369.136 38.278,369.64 C37.732,370.606 37.102,370.984 36.038,370.984 C34.484,370.984 33.448,369.822 33.448,368.1 C33.448,366.378 34.484,365.216 36.038,365.216 C37.102,365.216 37.732,365.58 38.278,366.546 C38.558,367.036 38.824,367.232 39.314,367.232 C40.028,367.232 40.504,366.784 40.504,366.098 C40.504,365.86 40.476,365.678 40.378,365.468 C39.818,364.068 38.152,362.99 36.206,362.99 C33.182,362.99 30.984,365.118 30.984,368.1 C30.984,371.082 33.182,373.21 36.206,373.21 Z M47.286,373.21 C50.38,373.21 52.494,371.138 52.494,368.072 C52.494,365.16 50.268,362.99 47.286,362.99 C44.29,362.99 42.078,365.132 42.078,368.058 C42.078,371.138 44.164,373.21 47.286,373.21 Z M47.286,370.984 C45.592,370.984 44.542,369.864 44.542,368.058 C44.542,366.336 45.634,365.216 47.286,365.216 C48.91,365.216 50.016,366.35 50.016,368.072 C50.016,369.878 48.98,370.984 47.286,370.984 Z M63.182,373.07 C64.008,373.07 64.484,372.552 64.484,371.698 L64.484,364.46 C64.484,363.634 64.008,363.13 63.238,363.13 C62.496,363.13 62.006,363.634 62.006,364.46 L62.006,369.01 L57.12,363.746 C56.728,363.312 56.364,363.13 55.916,363.13 C55.09,363.13 54.614,363.648 54.614,364.502 L54.614,371.74 C54.614,372.566 55.09,373.07 55.86,373.07 C56.602,373.07 57.092,372.566 57.092,371.74 L57.092,367.19 L61.978,372.454 C62.37,372.888 62.734,373.07 63.182,373.07 Z M71.042,373.07 C71.784,373.07 72.26,372.566 72.26,371.74 L72.26,365.51 L74.458,365.51 C75.256,365.51 75.718,365.09 75.718,364.362 C75.718,363.648 75.242,363.2 74.458,363.2 L67.57,363.2 C66.8,363.2 66.324,363.648 66.324,364.362 C66.324,365.076 66.786,365.51 67.57,365.51 L69.796,365.51 L69.796,371.74 C69.796,372.566 70.272,373.07 71.042,373.07 Z M85.65,373.07 C86.308,373.07 86.798,372.622 86.798,372.006 C86.798,371.628 86.672,371.39 86.392,371.068 L84.936,369.458 C86.168,368.996 86.84,367.96 86.84,366.448 C86.84,364.39 85.566,363.2 83.382,363.2 L78.958,363.2 C78.02,363.2 77.558,363.676 77.558,364.614 L77.558,371.74 C77.558,372.566 78.034,373.07 78.804,373.07 C79.546,373.07 80.022,372.566 80.022,371.74 L80.022,369.71 L81.982,369.71 L84.754,372.664 C85.02,372.944 85.272,373.07 85.65,373.07 Z M83.256,367.484 L80.022,367.484 L80.022,365.426 L83.256,365.426 C83.998,365.426 84.362,365.762 84.362,366.448 C84.362,367.106 83.942,367.484 83.256,367.484 Z M97.822,373.07 C98.494,373.07 98.984,372.58 98.984,371.922 C98.984,371.684 98.942,371.516 98.774,371.194 L94.896,363.97 C94.574,363.368 94.224,363.13 93.664,363.13 C93.062,363.13 92.74,363.354 92.418,363.956 L88.554,371.18 C88.386,371.502 88.33,371.684 88.33,371.922 C88.33,372.58 88.834,373.07 89.492,373.07 C89.954,373.07 90.332,372.818 90.598,372.314 L91.326,370.914 L96.002,370.914 L96.73,372.314 C96.996,372.818 97.36,373.07 97.822,373.07 Z M94.952,368.912 L92.376,368.912 L93.664,366.448 L94.952,368.912 Z M104.954,373.21 C107.25,373.21 108.832,371.88 108.832,369.976 C108.832,367.68 106.55,367.26 104.8,366.924 C103.694,366.742 102.784,366.546 102.784,365.986 C102.784,365.482 103.372,365.146 104.226,365.146 C105.01,365.146 105.626,365.426 106.284,366.098 C106.606,366.42 106.858,366.546 107.236,366.546 C107.908,366.546 108.412,366.07 108.412,365.44 C108.412,365.216 108.342,364.992 108.216,364.768 C107.586,363.732 105.99,362.99 104.31,362.99 C102.07,362.99 100.446,364.25 100.446,365.986 C100.446,368.31 102.616,368.688 104.352,369.024 C105.514,369.248 106.48,369.388 106.48,370.074 C106.48,370.676 105.934,371.026 104.982,371.026 C103.848,371.026 103.078,370.648 102.574,369.808 C102.252,369.29 101.874,369.08 101.356,369.08 C100.67,369.08 100.124,369.584 100.124,370.242 C100.124,370.508 100.194,370.732 100.348,371.026 C101.062,372.384 102.84,373.21 104.954,373.21 Z M114.62,373.07 C115.362,373.07 115.838,372.566 115.838,371.74 L115.838,365.51 L118.036,365.51 C118.834,365.51 119.296,365.09 119.296,364.362 C119.296,363.648 118.82,363.2 118.036,363.2 L111.148,363.2 C110.378,363.2 109.902,363.648 109.902,364.362 C109.902,365.076 110.364,365.51 111.148,365.51 L113.374,365.51 L113.374,371.74 C113.374,372.566 113.85,373.07 114.62,373.07 Z" id="CHECKCONTRAST" fill="#000000" fill-rule="nonzero"></path>
                <path d="M50.17,485.21 C52.144,485.21 53.824,484.202 54.384,482.634 C54.454,482.424 54.482,482.298 54.482,482.088 C54.482,481.402 53.992,480.954 53.278,480.954 C52.788,480.954 52.522,481.136 52.242,481.64 C51.696,482.606 51.066,482.984 50.002,482.984 C48.448,482.984 47.412,481.822 47.412,480.1 C47.412,478.378 48.448,477.216 50.002,477.216 C51.066,477.216 51.696,477.58 52.242,478.546 C52.522,479.036 52.788,479.232 53.278,479.232 C53.992,479.232 54.468,478.784 54.468,478.098 C54.468,477.86 54.44,477.678 54.342,477.468 C53.782,476.068 52.116,474.99 50.17,474.99 C47.146,474.99 44.948,477.118 44.948,480.1 C44.948,483.082 47.146,485.21 50.17,485.21 Z M61.25,485.21 C64.344,485.21 66.458,483.138 66.458,480.072 C66.458,477.16 64.232,474.99 61.25,474.99 C58.254,474.99 56.042,477.132 56.042,480.058 C56.042,483.138 58.128,485.21 61.25,485.21 Z M61.25,482.984 C59.556,482.984 58.506,481.864 58.506,480.058 C58.506,478.336 59.598,477.216 61.25,477.216 C62.874,477.216 63.98,478.35 63.98,480.072 C63.98,481.878 62.944,482.984 61.25,482.984 Z M75.06,485 C75.83,485 76.32,484.524 76.32,483.838 C76.32,483.166 75.802,482.676 75.06,482.676 L71.042,482.676 L71.042,476.46 C71.042,475.634 70.566,475.13 69.824,475.13 C69.054,475.13 68.578,475.634 68.578,476.46 L68.578,483.838 C68.578,484.496 69.082,485 69.74,485 L75.06,485 Z M82.248,485.21 C85.342,485.21 87.456,483.138 87.456,480.072 C87.456,477.16 85.23,474.99 82.248,474.99 C79.252,474.99 77.04,477.132 77.04,480.058 C77.04,483.138 79.126,485.21 82.248,485.21 Z M82.248,482.984 C80.554,482.984 79.504,481.864 79.504,480.058 C79.504,478.336 80.596,477.216 82.248,477.216 C83.872,477.216 84.978,478.35 84.978,480.072 C84.978,481.878 83.942,482.984 82.248,482.984 Z M97.668,485.07 C98.326,485.07 98.816,484.622 98.816,484.006 C98.816,483.628 98.69,483.39 98.41,483.068 L96.954,481.458 C98.186,480.996 98.858,479.96 98.858,478.448 C98.858,476.39 97.584,475.2 95.4,475.2 L90.976,475.2 C90.038,475.2 89.576,475.676 89.576,476.614 L89.576,483.74 C89.576,484.566 90.052,485.07 90.822,485.07 C91.564,485.07 92.04,484.566 92.04,483.74 L92.04,481.71 L94,481.71 L96.772,484.664 C97.038,484.944 97.29,485.07 97.668,485.07 Z M95.274,479.484 L92.04,479.484 L92.04,477.426 L95.274,477.426 C96.016,477.426 96.38,477.762 96.38,478.448 C96.38,479.106 95.96,479.484 95.274,479.484 Z M103.764,481.948 C104.534,481.948 104.982,481.514 104.982,480.828 C104.982,480.142 104.534,479.722 103.764,479.722 L102.056,479.722 C101.286,479.722 100.838,480.142 100.838,480.828 C100.838,481.542 101.286,481.948 102.056,481.948 L103.764,481.948 Z M36.626,504.21 C38.922,504.21 40.504,502.88 40.504,500.976 C40.504,498.68 38.222,498.26 36.472,497.924 C35.366,497.742 34.456,497.546 34.456,496.986 C34.456,496.482 35.044,496.146 35.898,496.146 C36.682,496.146 37.298,496.426 37.956,497.098 C38.278,497.42 38.53,497.546 38.908,497.546 C39.58,497.546 40.084,497.07 40.084,496.44 C40.084,496.216 40.014,495.992 39.888,495.768 C39.258,494.732 37.662,493.99 35.982,493.99 C33.742,493.99 32.118,495.25 32.118,496.986 C32.118,499.31 34.288,499.688 36.024,500.024 C37.186,500.248 38.152,500.388 38.152,501.074 C38.152,501.676 37.606,502.026 36.654,502.026 C35.52,502.026 34.75,501.648 34.246,500.808 C33.924,500.29 33.546,500.08 33.028,500.08 C32.342,500.08 31.796,500.584 31.796,501.242 C31.796,501.508 31.866,501.732 32.02,502.026 C32.734,503.384 34.512,504.21 36.626,504.21 Z M51.192,504.07 C51.766,504.07 52.158,503.734 52.368,503.076 L54.608,495.796 C54.678,495.614 54.706,495.418 54.706,495.222 C54.706,494.592 54.244,494.13 53.572,494.13 C52.97,494.13 52.592,494.438 52.41,495.04 L51.08,499.674 L49.4,494.956 C49.19,494.41 48.812,494.13 48.238,494.13 C47.692,494.13 47.272,494.41 47.09,494.956 L45.41,499.674 L44.066,495.04 C43.884,494.438 43.506,494.13 42.904,494.13 C42.246,494.13 41.784,494.592 41.784,495.222 C41.784,495.404 41.812,495.6 41.882,495.81 L44.122,503.076 C44.332,503.734 44.724,504.07 45.284,504.07 C45.858,504.07 46.25,503.79 46.432,503.23 L48.252,498.008 L50.058,503.23 C50.24,503.79 50.618,504.07 51.192,504.07 Z M64.288,504.07 C64.96,504.07 65.45,503.58 65.45,502.922 C65.45,502.684 65.408,502.516 65.24,502.194 L61.362,494.97 C61.04,494.368 60.69,494.13 60.13,494.13 C59.528,494.13 59.206,494.354 58.884,494.956 L55.02,502.18 C54.852,502.502 54.796,502.684 54.796,502.922 C54.796,503.58 55.3,504.07 55.958,504.07 C56.42,504.07 56.798,503.818 57.064,503.314 L57.792,501.914 L62.468,501.914 L63.196,503.314 C63.462,503.818 63.826,504.07 64.288,504.07 Z M61.418,499.912 L58.842,499.912 L60.13,497.448 L61.418,499.912 Z M69.488,504.07 C70.23,504.07 70.706,503.566 70.706,502.74 L70.706,496.51 L72.904,496.51 C73.702,496.51 74.164,496.09 74.164,495.362 C74.164,494.648 73.688,494.2 72.904,494.2 L66.016,494.2 C65.246,494.2 64.77,494.648 64.77,495.362 C64.77,496.076 65.232,496.51 66.016,496.51 L68.242,496.51 L68.242,502.74 C68.242,503.566 68.718,504.07 69.488,504.07 Z M80.246,504.21 C82.22,504.21 83.9,503.202 84.46,501.634 C84.53,501.424 84.558,501.298 84.558,501.088 C84.558,500.402 84.068,499.954 83.354,499.954 C82.864,499.954 82.598,500.136 82.318,500.64 C81.772,501.606 81.142,501.984 80.078,501.984 C78.524,501.984 77.488,500.822 77.488,499.1 C77.488,497.378 78.524,496.216 80.078,496.216 C81.142,496.216 81.772,496.58 82.318,497.546 C82.598,498.036 82.864,498.232 83.354,498.232 C84.068,498.232 84.544,497.784 84.544,497.098 C84.544,496.86 84.516,496.678 84.418,496.468 C83.858,495.068 82.192,493.99 80.246,493.99 C77.222,493.99 75.024,496.118 75.024,499.1 C75.024,502.082 77.222,504.21 80.246,504.21 Z M94.588,504.07 C95.33,504.07 95.806,503.566 95.806,502.74 L95.806,495.46 C95.806,494.634 95.33,494.13 94.588,494.13 C93.818,494.13 93.342,494.634 93.342,495.46 L93.342,497.91 L89.142,497.91 L89.142,495.46 C89.142,494.634 88.666,494.13 87.924,494.13 C87.154,494.13 86.678,494.634 86.678,495.46 L86.678,502.74 C86.678,503.566 87.154,504.07 87.924,504.07 C88.666,504.07 89.142,503.566 89.142,502.74 L89.142,500.052 L93.342,500.052 L93.342,502.74 C93.342,503.566 93.818,504.07 94.588,504.07 Z M105.626,504 C106.41,504 106.872,503.566 106.872,502.852 C106.872,502.138 106.396,501.69 105.626,501.69 L100.95,501.69 L100.95,500.178 L105.094,500.178 C105.878,500.178 106.27,499.814 106.27,499.086 C106.27,498.372 105.864,497.994 105.094,497.994 L100.95,497.994 L100.95,496.51 L105.598,496.51 C106.382,496.51 106.844,496.076 106.844,495.362 C106.844,494.648 106.368,494.2 105.598,494.2 L99.886,494.2 C98.948,494.2 98.486,494.676 98.486,495.614 L98.486,502.586 C98.486,503.524 98.962,504 99.9,504 L105.626,504 Z M116.944,504.07 C117.602,504.07 118.092,503.622 118.092,503.006 C118.092,502.628 117.966,502.39 117.686,502.068 L116.23,500.458 C117.462,499.996 118.134,498.96 118.134,497.448 C118.134,495.39 116.86,494.2 114.676,494.2 L110.252,494.2 C109.314,494.2 108.852,494.676 108.852,495.614 L108.852,502.74 C108.852,503.566 109.328,504.07 110.098,504.07 C110.84,504.07 111.316,503.566 111.316,502.74 L111.316,500.71 L113.276,500.71 L116.048,503.664 C116.314,503.944 116.566,504.07 116.944,504.07 Z M114.55,498.484 L111.316,498.484 L111.316,496.426 L114.55,496.426 C115.292,496.426 115.656,496.762 115.656,497.448 C115.656,498.106 115.236,498.484 114.55,498.484 Z" id="COLOR-SWATCHER" fill="#000000" fill-rule="nonzero"></path>
                <path d="M22.995,625.21 C25.291,625.21 26.873,623.88 26.873,621.976 C26.873,619.68 24.591,619.26 22.841,618.924 C21.735,618.742 20.825,618.546 20.825,617.986 C20.825,617.482 21.413,617.146 22.267,617.146 C23.051,617.146 23.667,617.426 24.325,618.098 C24.647,618.42 24.899,618.546 25.277,618.546 C25.949,618.546 26.453,618.07 26.453,617.44 C26.453,617.216 26.383,616.992 26.257,616.768 C25.627,615.732 24.031,614.99 22.351,614.99 C20.111,614.99 18.487,616.25 18.487,617.986 C18.487,620.31 20.657,620.688 22.393,621.024 C23.555,621.248 24.521,621.388 24.521,622.074 C24.521,622.676 23.975,623.026 23.023,623.026 C21.889,623.026 21.119,622.648 20.615,621.808 C20.293,621.29 19.915,621.08 19.397,621.08 C18.711,621.08 18.165,621.584 18.165,622.242 C18.165,622.508 18.235,622.732 18.389,623.026 C19.103,624.384 20.881,625.21 22.995,625.21 Z M36.077,625.07 C36.735,625.07 37.253,624.622 37.253,623.95 C37.253,623.642 37.141,623.348 36.917,623.054 L34.229,619.54 L36.469,617.258 C36.819,616.908 37.001,616.544 37.001,616.194 C37.001,615.592 36.539,615.116 35.853,615.116 C35.531,615.116 35.251,615.242 34.985,615.508 L31.387,619.288 L31.387,616.46 C31.387,615.634 30.911,615.13 30.169,615.13 C29.399,615.13 28.923,615.634 28.923,616.46 L28.923,623.74 C28.923,624.566 29.399,625.07 30.169,625.07 C30.911,625.07 31.387,624.566 31.387,623.74 L31.387,622.41 L32.577,621.206 L35.027,624.496 C35.349,624.902 35.629,625.07 36.077,625.07 Z M46.289,625 C47.073,625 47.535,624.566 47.535,623.852 C47.535,623.138 47.059,622.69 46.289,622.69 L41.613,622.69 L41.613,621.178 L45.757,621.178 C46.541,621.178 46.933,620.814 46.933,620.086 C46.933,619.372 46.527,618.994 45.757,618.994 L41.613,618.994 L41.613,617.51 L46.261,617.51 C47.045,617.51 47.507,617.076 47.507,616.362 C47.507,615.648 47.031,615.2 46.261,615.2 L40.549,615.2 C39.611,615.2 39.149,615.676 39.149,616.614 L39.149,623.586 C39.149,624.524 39.625,625 40.563,625 L46.289,625 Z M53.673,625.07 C54.415,625.07 54.891,624.566 54.891,623.74 L54.891,617.51 L57.089,617.51 C57.887,617.51 58.349,617.09 58.349,616.362 C58.349,615.648 57.873,615.2 57.089,615.2 L50.201,615.2 C49.431,615.2 48.955,615.648 48.955,616.362 C48.955,617.076 49.417,617.51 50.201,617.51 L52.427,617.51 L52.427,623.74 C52.427,624.566 52.903,625.07 53.673,625.07 Z M64.431,625.21 C66.405,625.21 68.085,624.202 68.645,622.634 C68.715,622.424 68.743,622.298 68.743,622.088 C68.743,621.402 68.253,620.954 67.539,620.954 C67.049,620.954 66.783,621.136 66.503,621.64 C65.957,622.606 65.327,622.984 64.263,622.984 C62.709,622.984 61.673,621.822 61.673,620.1 C61.673,618.378 62.709,617.216 64.263,617.216 C65.327,617.216 65.957,617.58 66.503,618.546 C66.783,619.036 67.049,619.232 67.539,619.232 C68.253,619.232 68.729,618.784 68.729,618.098 C68.729,617.86 68.701,617.678 68.603,617.468 C68.043,616.068 66.377,614.99 64.431,614.99 C61.407,614.99 59.209,617.118 59.209,620.1 C59.209,623.082 61.407,625.21 64.431,625.21 Z M78.773,625.07 C79.515,625.07 79.991,624.566 79.991,623.74 L79.991,616.46 C79.991,615.634 79.515,615.13 78.773,615.13 C78.003,615.13 77.527,615.634 77.527,616.46 L77.527,618.91 L73.327,618.91 L73.327,616.46 C73.327,615.634 72.851,615.13 72.109,615.13 C71.339,615.13 70.863,615.634 70.863,616.46 L70.863,623.74 C70.863,624.566 71.339,625.07 72.109,625.07 C72.851,625.07 73.327,624.566 73.327,623.74 L73.327,621.052 L77.527,621.052 L77.527,623.74 C77.527,624.566 78.003,625.07 78.773,625.07 Z M95.459,625.07 C96.033,625.07 96.425,624.734 96.635,624.076 L98.875,616.796 C98.945,616.614 98.973,616.418 98.973,616.222 C98.973,615.592 98.511,615.13 97.839,615.13 C97.237,615.13 96.859,615.438 96.677,616.04 L95.347,620.674 L93.667,615.956 C93.457,615.41 93.079,615.13 92.505,615.13 C91.959,615.13 91.539,615.41 91.357,615.956 L89.677,620.674 L88.333,616.04 C88.151,615.438 87.773,615.13 87.171,615.13 C86.513,615.13 86.051,615.592 86.051,616.222 C86.051,616.404 86.079,616.6 86.149,616.81 L88.389,624.076 C88.599,624.734 88.991,625.07 89.551,625.07 C90.125,625.07 90.517,624.79 90.699,624.23 L92.519,619.008 L94.325,624.23 C94.507,624.79 94.885,625.07 95.459,625.07 Z M105.545,625.21 C107.519,625.21 109.199,624.202 109.759,622.634 C109.829,622.424 109.857,622.298 109.857,622.088 C109.857,621.402 109.367,620.954 108.653,620.954 C108.163,620.954 107.897,621.136 107.617,621.64 C107.071,622.606 106.441,622.984 105.377,622.984 C103.823,622.984 102.787,621.822 102.787,620.1 C102.787,618.378 103.823,617.216 105.377,617.216 C106.441,617.216 107.071,617.58 107.617,618.546 C107.897,619.036 108.163,619.232 108.653,619.232 C109.367,619.232 109.843,618.784 109.843,618.098 C109.843,617.86 109.815,617.678 109.717,617.468 C109.157,616.068 107.491,614.99 105.545,614.99 C102.521,614.99 100.323,617.118 100.323,620.1 C100.323,623.082 102.521,625.21 105.545,625.21 Z M120.489,625.07 C121.161,625.07 121.651,624.58 121.651,623.922 C121.651,623.684 121.609,623.516 121.441,623.194 L117.563,615.97 C117.241,615.368 116.891,615.13 116.331,615.13 C115.729,615.13 115.407,615.354 115.085,615.956 L111.221,623.18 C111.053,623.502 110.997,623.684 110.997,623.922 C110.997,624.58 111.501,625.07 112.159,625.07 C112.621,625.07 112.999,624.818 113.265,624.314 L113.993,622.914 L118.669,622.914 L119.397,624.314 C119.663,624.818 120.027,625.07 120.489,625.07 Z M117.619,620.912 L115.043,620.912 L116.331,618.448 L117.619,620.912 Z M127.439,625.21 C130.197,625.21 132.045,623.516 132.045,620.982 C132.045,620.086 131.709,619.708 130.925,619.708 L127.425,619.708 C126.655,619.708 126.263,620.072 126.263,620.786 C126.263,621.5 126.655,621.85 127.425,621.85 L129.567,621.85 C129.245,622.676 128.657,622.984 127.439,622.984 C125.801,622.984 124.835,621.934 124.835,620.1 C124.835,618.378 125.857,617.216 127.355,617.216 C128.419,617.216 129.049,617.58 129.595,618.546 C129.875,619.036 130.141,619.232 130.631,619.232 C131.345,619.232 131.821,618.784 131.821,618.098 C131.821,617.86 131.793,617.678 131.695,617.468 C131.135,616.068 129.469,614.99 127.523,614.99 C124.499,614.99 122.371,617.09 122.371,620.1 C122.371,623.194 124.359,625.21 127.439,625.21 Z" id="SKETCHWCAG" fill="#000000" fill-rule="nonzero"></path>
                <path d="M53.162,737.21 C55.136,737.21 56.816,736.202 57.376,734.634 C57.446,734.424 57.474,734.298 57.474,734.088 C57.474,733.402 56.984,732.954 56.27,732.954 C55.78,732.954 55.514,733.136 55.234,733.64 C54.688,734.606 54.058,734.984 52.994,734.984 C51.44,734.984 50.404,733.822 50.404,732.1 C50.404,730.378 51.44,729.216 52.994,729.216 C54.058,729.216 54.688,729.58 55.234,730.546 C55.514,731.036 55.78,731.232 56.27,731.232 C56.984,731.232 57.46,730.784 57.46,730.098 C57.46,729.86 57.432,729.678 57.334,729.468 C56.774,728.068 55.108,726.99 53.162,726.99 C50.138,726.99 47.94,729.118 47.94,732.1 C47.94,735.082 50.138,737.21 53.162,737.21 Z M64.242,737.21 C67.336,737.21 69.45,735.138 69.45,732.072 C69.45,729.16 67.224,726.99 64.242,726.99 C61.246,726.99 59.034,729.132 59.034,732.058 C59.034,735.138 61.12,737.21 64.242,737.21 Z M64.242,734.984 C62.548,734.984 61.498,733.864 61.498,732.058 C61.498,730.336 62.59,729.216 64.242,729.216 C65.866,729.216 66.972,730.35 66.972,732.072 C66.972,733.878 65.936,734.984 64.242,734.984 Z M78.052,737 C78.822,737 79.312,736.524 79.312,735.838 C79.312,735.166 78.794,734.676 78.052,734.676 L74.034,734.676 L74.034,728.46 C74.034,727.634 73.558,727.13 72.816,727.13 C72.046,727.13 71.57,727.634 71.57,728.46 L71.57,735.838 C71.57,736.496 72.074,737 72.732,737 L78.052,737 Z M85.24,737.21 C88.334,737.21 90.448,735.138 90.448,732.072 C90.448,729.16 88.222,726.99 85.24,726.99 C82.244,726.99 80.032,729.132 80.032,732.058 C80.032,735.138 82.118,737.21 85.24,737.21 Z M85.24,734.984 C83.546,734.984 82.496,733.864 82.496,732.058 C82.496,730.336 83.588,729.216 85.24,729.216 C86.864,729.216 87.97,730.35 87.97,732.072 C87.97,733.878 86.934,734.984 85.24,734.984 Z M100.66,737.07 C101.318,737.07 101.808,736.622 101.808,736.006 C101.808,735.628 101.682,735.39 101.402,735.068 L99.946,733.458 C101.178,732.996 101.85,731.96 101.85,730.448 C101.85,728.39 100.576,727.2 98.392,727.2 L93.968,727.2 C93.03,727.2 92.568,727.676 92.568,728.614 L92.568,735.74 C92.568,736.566 93.044,737.07 93.814,737.07 C94.556,737.07 95.032,736.566 95.032,735.74 L95.032,733.71 L96.992,733.71 L99.764,736.664 C100.03,736.944 100.282,737.07 100.66,737.07 Z M98.266,731.484 L95.032,731.484 L95.032,729.426 L98.266,729.426 C99.008,729.426 99.372,729.762 99.372,730.448 C99.372,731.106 98.952,731.484 98.266,731.484 Z M36.206,756.21 C38.18,756.21 39.86,755.202 40.42,753.634 C40.49,753.424 40.518,753.298 40.518,753.088 C40.518,752.402 40.028,751.954 39.314,751.954 C38.824,751.954 38.558,752.136 38.278,752.64 C37.732,753.606 37.102,753.984 36.038,753.984 C34.484,753.984 33.448,752.822 33.448,751.1 C33.448,749.378 34.484,748.216 36.038,748.216 C37.102,748.216 37.732,748.58 38.278,749.546 C38.558,750.036 38.824,750.232 39.314,750.232 C40.028,750.232 40.504,749.784 40.504,749.098 C40.504,748.86 40.476,748.678 40.378,748.468 C39.818,747.068 38.152,745.99 36.206,745.99 C33.182,745.99 30.984,748.118 30.984,751.1 C30.984,754.082 33.182,756.21 36.206,756.21 Z M47.286,756.21 C50.38,756.21 52.494,754.138 52.494,751.072 C52.494,748.16 50.268,745.99 47.286,745.99 C44.29,745.99 42.078,748.132 42.078,751.058 C42.078,754.138 44.164,756.21 47.286,756.21 Z M47.286,753.984 C45.592,753.984 44.542,752.864 44.542,751.058 C44.542,749.336 45.634,748.216 47.286,748.216 C48.91,748.216 50.016,749.35 50.016,751.072 C50.016,752.878 48.98,753.984 47.286,753.984 Z M63.182,756.07 C64.008,756.07 64.484,755.552 64.484,754.698 L64.484,747.46 C64.484,746.634 64.008,746.13 63.238,746.13 C62.496,746.13 62.006,746.634 62.006,747.46 L62.006,752.01 L57.12,746.746 C56.728,746.312 56.364,746.13 55.916,746.13 C55.09,746.13 54.614,746.648 54.614,747.502 L54.614,754.74 C54.614,755.566 55.09,756.07 55.86,756.07 C56.602,756.07 57.092,755.566 57.092,754.74 L57.092,750.19 L61.978,755.454 C62.37,755.888 62.734,756.07 63.182,756.07 Z M71.042,756.07 C71.784,756.07 72.26,755.566 72.26,754.74 L72.26,748.51 L74.458,748.51 C75.256,748.51 75.718,748.09 75.718,747.362 C75.718,746.648 75.242,746.2 74.458,746.2 L67.57,746.2 C66.8,746.2 66.324,746.648 66.324,747.362 C66.324,748.076 66.786,748.51 67.57,748.51 L69.796,748.51 L69.796,754.74 C69.796,755.566 70.272,756.07 71.042,756.07 Z M85.65,756.07 C86.308,756.07 86.798,755.622 86.798,755.006 C86.798,754.628 86.672,754.39 86.392,754.068 L84.936,752.458 C86.168,751.996 86.84,750.96 86.84,749.448 C86.84,747.39 85.566,746.2 83.382,746.2 L78.958,746.2 C78.02,746.2 77.558,746.676 77.558,747.614 L77.558,754.74 C77.558,755.566 78.034,756.07 78.804,756.07 C79.546,756.07 80.022,755.566 80.022,754.74 L80.022,752.71 L81.982,752.71 L84.754,755.664 C85.02,755.944 85.272,756.07 85.65,756.07 Z M83.256,750.484 L80.022,750.484 L80.022,748.426 L83.256,748.426 C83.998,748.426 84.362,748.762 84.362,749.448 C84.362,750.106 83.942,750.484 83.256,750.484 Z M97.822,756.07 C98.494,756.07 98.984,755.58 98.984,754.922 C98.984,754.684 98.942,754.516 98.774,754.194 L94.896,746.97 C94.574,746.368 94.224,746.13 93.664,746.13 C93.062,746.13 92.74,746.354 92.418,746.956 L88.554,754.18 C88.386,754.502 88.33,754.684 88.33,754.922 C88.33,755.58 88.834,756.07 89.492,756.07 C89.954,756.07 90.332,755.818 90.598,755.314 L91.326,753.914 L96.002,753.914 L96.73,755.314 C96.996,755.818 97.36,756.07 97.822,756.07 Z M94.952,751.912 L92.376,751.912 L93.664,749.448 L94.952,751.912 Z M104.954,756.21 C107.25,756.21 108.832,754.88 108.832,752.976 C108.832,750.68 106.55,750.26 104.8,749.924 C103.694,749.742 102.784,749.546 102.784,748.986 C102.784,748.482 103.372,748.146 104.226,748.146 C105.01,748.146 105.626,748.426 106.284,749.098 C106.606,749.42 106.858,749.546 107.236,749.546 C107.908,749.546 108.412,749.07 108.412,748.44 C108.412,748.216 108.342,747.992 108.216,747.768 C107.586,746.732 105.99,745.99 104.31,745.99 C102.07,745.99 100.446,747.25 100.446,748.986 C100.446,751.31 102.616,751.688 104.352,752.024 C105.514,752.248 106.48,752.388 106.48,753.074 C106.48,753.676 105.934,754.026 104.982,754.026 C103.848,754.026 103.078,753.648 102.574,752.808 C102.252,752.29 101.874,752.08 101.356,752.08 C100.67,752.08 100.124,752.584 100.124,753.242 C100.124,753.508 100.194,753.732 100.348,754.026 C101.062,755.384 102.84,756.21 104.954,756.21 Z M114.62,756.07 C115.362,756.07 115.838,755.566 115.838,754.74 L115.838,748.51 L118.036,748.51 C118.834,748.51 119.296,748.09 119.296,747.362 C119.296,746.648 118.82,746.2 118.036,746.2 L111.148,746.2 C110.378,746.2 109.902,746.648 109.902,747.362 C109.902,748.076 110.364,748.51 111.148,748.51 L113.374,748.51 L113.374,754.74 C113.374,755.566 113.85,756.07 114.62,756.07 Z M42.198,775.07 C42.87,775.07 43.36,774.58 43.36,773.922 C43.36,773.684 43.318,773.516 43.15,773.194 L39.272,765.97 C38.95,765.368 38.6,765.13 38.04,765.13 C37.438,765.13 37.116,765.354 36.794,765.956 L32.93,773.18 C32.762,773.502 32.706,773.684 32.706,773.922 C32.706,774.58 33.21,775.07 33.868,775.07 C34.33,775.07 34.708,774.818 34.974,774.314 L35.702,772.914 L40.378,772.914 L41.106,774.314 C41.372,774.818 41.736,775.07 42.198,775.07 Z M39.328,770.912 L36.752,770.912 L38.04,768.448 L39.328,770.912 Z M53.768,775.07 C54.594,775.07 55.07,774.552 55.07,773.698 L55.07,766.46 C55.07,765.634 54.594,765.13 53.824,765.13 C53.082,765.13 52.592,765.634 52.592,766.46 L52.592,771.01 L47.706,765.746 C47.314,765.312 46.95,765.13 46.502,765.13 C45.676,765.13 45.2,765.648 45.2,766.502 L45.2,773.74 C45.2,774.566 45.676,775.07 46.446,775.07 C47.188,775.07 47.678,774.566 47.678,773.74 L47.678,769.19 L52.564,774.454 C52.956,774.888 53.32,775.07 53.768,775.07 Z M66.402,775.07 C67.074,775.07 67.564,774.58 67.564,773.922 C67.564,773.684 67.522,773.516 67.354,773.194 L63.476,765.97 C63.154,765.368 62.804,765.13 62.244,765.13 C61.642,765.13 61.32,765.354 60.998,765.956 L57.134,773.18 C56.966,773.502 56.91,773.684 56.91,773.922 C56.91,774.58 57.414,775.07 58.072,775.07 C58.534,775.07 58.912,774.818 59.178,774.314 L59.906,772.914 L64.582,772.914 L65.31,774.314 C65.576,774.818 65.94,775.07 66.402,775.07 Z M63.532,770.912 L60.956,770.912 L62.244,768.448 L63.532,770.912 Z M75.886,775 C76.656,775 77.146,774.524 77.146,773.838 C77.146,773.166 76.628,772.676 75.886,772.676 L71.868,772.676 L71.868,766.46 C71.868,765.634 71.392,765.13 70.65,765.13 C69.88,765.13 69.404,765.634 69.404,766.46 L69.404,773.838 C69.404,774.496 69.908,775 70.566,775 L75.886,775 Z M80.652,775.07 C81.422,775.07 81.898,774.566 81.898,773.74 L81.898,771.234 L84.894,767.062 C85.09,766.782 85.188,766.488 85.188,766.194 C85.188,765.592 84.642,765.13 84.012,765.13 C83.606,765.13 83.27,765.298 83.032,765.648 L80.652,768.994 L78.272,765.648 C78.034,765.298 77.698,765.13 77.292,765.13 C76.662,765.13 76.116,765.592 76.116,766.194 C76.116,766.488 76.214,766.782 76.41,767.062 L79.406,771.234 L79.406,773.74 C79.406,774.566 79.882,775.07 80.652,775.07 Z M91.228,775.21 C93.524,775.21 95.106,773.88 95.106,771.976 C95.106,769.68 92.824,769.26 91.074,768.924 C89.968,768.742 89.058,768.546 89.058,767.986 C89.058,767.482 89.646,767.146 90.5,767.146 C91.284,767.146 91.9,767.426 92.558,768.098 C92.88,768.42 93.132,768.546 93.51,768.546 C94.182,768.546 94.686,768.07 94.686,767.44 C94.686,767.216 94.616,766.992 94.49,766.768 C93.86,765.732 92.264,764.99 90.584,764.99 C88.344,764.99 86.72,766.25 86.72,767.986 C86.72,770.31 88.89,770.688 90.626,771.024 C91.788,771.248 92.754,771.388 92.754,772.074 C92.754,772.676 92.208,773.026 91.256,773.026 C90.122,773.026 89.352,772.648 88.848,771.808 C88.526,771.29 88.148,771.08 87.63,771.08 C86.944,771.08 86.398,771.584 86.398,772.242 C86.398,772.508 86.468,772.732 86.622,773.026 C87.336,774.384 89.114,775.21 91.228,775.21 Z M104.296,775 C105.08,775 105.542,774.566 105.542,773.852 C105.542,773.138 105.066,772.69 104.296,772.69 L99.62,772.69 L99.62,771.178 L103.764,771.178 C104.548,771.178 104.94,770.814 104.94,770.086 C104.94,769.372 104.534,768.994 103.764,768.994 L99.62,768.994 L99.62,767.51 L104.268,767.51 C105.052,767.51 105.514,767.076 105.514,766.362 C105.514,765.648 105.038,765.2 104.268,765.2 L98.556,765.2 C97.618,765.2 97.156,765.676 97.156,766.614 L97.156,773.586 C97.156,774.524 97.632,775 98.57,775 L104.296,775 Z M115.614,775.07 C116.272,775.07 116.762,774.622 116.762,774.006 C116.762,773.628 116.636,773.39 116.356,773.068 L114.9,771.458 C116.132,770.996 116.804,769.96 116.804,768.448 C116.804,766.39 115.53,765.2 113.346,765.2 L108.922,765.2 C107.984,765.2 107.522,765.676 107.522,766.614 L107.522,773.74 C107.522,774.566 107.998,775.07 108.768,775.07 C109.51,775.07 109.986,774.566 109.986,773.74 L109.986,771.71 L111.946,771.71 L114.718,774.664 C114.984,774.944 115.236,775.07 115.614,775.07 Z M113.22,769.484 L109.986,769.484 L109.986,767.426 L113.22,767.426 C113.962,767.426 114.326,767.762 114.326,768.448 C114.326,769.106 113.906,769.484 113.22,769.484 Z" id="COLORCONTRASTANALYSER" fill="#000000" fill-rule="nonzero"></path>
                <path d="M344.206,20.21 C346.18,20.21 347.86,19.202 348.42,17.634 C348.49,17.424 348.518,17.298 348.518,17.088 C348.518,16.402 348.028,15.954 347.314,15.954 C346.824,15.954 346.558,16.136 346.278,16.64 C345.732,17.606 345.102,17.984 344.038,17.984 C342.484,17.984 341.448,16.822 341.448,15.1 C341.448,13.378 342.484,12.216 344.038,12.216 C345.102,12.216 345.732,12.58 346.278,13.546 C346.558,14.036 346.824,14.232 347.314,14.232 C348.028,14.232 348.504,13.784 348.504,13.098 C348.504,12.86 348.476,12.678 348.378,12.468 C347.818,11.068 346.152,9.99 344.206,9.99 C341.182,9.99 338.984,12.118 338.984,15.1 C338.984,18.082 341.182,20.21 344.206,20.21 Z M355.286,20.21 C358.38,20.21 360.494,18.138 360.494,15.072 C360.494,12.16 358.268,9.99 355.286,9.99 C352.29,9.99 350.078,12.132 350.078,15.058 C350.078,18.138 352.164,20.21 355.286,20.21 Z M355.286,17.984 C353.592,17.984 352.542,16.864 352.542,15.058 C352.542,13.336 353.634,12.216 355.286,12.216 C356.91,12.216 358.016,13.35 358.016,15.072 C358.016,16.878 356.98,17.984 355.286,17.984 Z M371.182,20.07 C372.008,20.07 372.484,19.552 372.484,18.698 L372.484,11.46 C372.484,10.634 372.008,10.13 371.238,10.13 C370.496,10.13 370.006,10.634 370.006,11.46 L370.006,16.01 L365.12,10.746 C364.728,10.312 364.364,10.13 363.916,10.13 C363.09,10.13 362.614,10.648 362.614,11.502 L362.614,18.74 C362.614,19.566 363.09,20.07 363.86,20.07 C364.602,20.07 365.092,19.566 365.092,18.74 L365.092,14.19 L369.978,19.454 C370.37,19.888 370.734,20.07 371.182,20.07 Z M379.042,20.07 C379.784,20.07 380.26,19.566 380.26,18.74 L380.26,12.51 L382.458,12.51 C383.256,12.51 383.718,12.09 383.718,11.362 C383.718,10.648 383.242,10.2 382.458,10.2 L375.57,10.2 C374.8,10.2 374.324,10.648 374.324,11.362 C374.324,12.076 374.786,12.51 375.57,12.51 L377.796,12.51 L377.796,18.74 C377.796,19.566 378.272,20.07 379.042,20.07 Z M393.65,20.07 C394.308,20.07 394.798,19.622 394.798,19.006 C394.798,18.628 394.672,18.39 394.392,18.068 L392.936,16.458 C394.168,15.996 394.84,14.96 394.84,13.448 C394.84,11.39 393.566,10.2 391.382,10.2 L386.958,10.2 C386.02,10.2 385.558,10.676 385.558,11.614 L385.558,18.74 C385.558,19.566 386.034,20.07 386.804,20.07 C387.546,20.07 388.022,19.566 388.022,18.74 L388.022,16.71 L389.982,16.71 L392.754,19.664 C393.02,19.944 393.272,20.07 393.65,20.07 Z M391.256,14.484 L388.022,14.484 L388.022,12.426 L391.256,12.426 C391.998,12.426 392.362,12.762 392.362,13.448 C392.362,14.106 391.942,14.484 391.256,14.484 Z M405.822,20.07 C406.494,20.07 406.984,19.58 406.984,18.922 C406.984,18.684 406.942,18.516 406.774,18.194 L402.896,10.97 C402.574,10.368 402.224,10.13 401.664,10.13 C401.062,10.13 400.74,10.354 400.418,10.956 L396.554,18.18 C396.386,18.502 396.33,18.684 396.33,18.922 C396.33,19.58 396.834,20.07 397.492,20.07 C397.954,20.07 398.332,19.818 398.598,19.314 L399.326,17.914 L404.002,17.914 L404.73,19.314 C404.996,19.818 405.36,20.07 405.822,20.07 Z M402.952,15.912 L400.376,15.912 L401.664,13.448 L402.952,15.912 Z M412.954,20.21 C415.25,20.21 416.832,18.88 416.832,16.976 C416.832,14.68 414.55,14.26 412.8,13.924 C411.694,13.742 410.784,13.546 410.784,12.986 C410.784,12.482 411.372,12.146 412.226,12.146 C413.01,12.146 413.626,12.426 414.284,13.098 C414.606,13.42 414.858,13.546 415.236,13.546 C415.908,13.546 416.412,13.07 416.412,12.44 C416.412,12.216 416.342,11.992 416.216,11.768 C415.586,10.732 413.99,9.99 412.31,9.99 C410.07,9.99 408.446,11.25 408.446,12.986 C408.446,15.31 410.616,15.688 412.352,16.024 C413.514,16.248 414.48,16.388 414.48,17.074 C414.48,17.676 413.934,18.026 412.982,18.026 C411.848,18.026 411.078,17.648 410.574,16.808 C410.252,16.29 409.874,16.08 409.356,16.08 C408.67,16.08 408.124,16.584 408.124,17.242 C408.124,17.508 408.194,17.732 408.348,18.026 C409.062,19.384 410.84,20.21 412.954,20.21 Z M422.62,20.07 C423.362,20.07 423.838,19.566 423.838,18.74 L423.838,12.51 L426.036,12.51 C426.834,12.51 427.296,12.09 427.296,11.362 C427.296,10.648 426.82,10.2 426.036,10.2 L419.148,10.2 C418.378,10.2 417.902,10.648 417.902,11.362 C417.902,12.076 418.364,12.51 419.148,12.51 L421.374,12.51 L421.374,18.74 C421.374,19.566 421.85,20.07 422.62,20.07 Z" id="CONTRAST" fill="#FFFFFF" fill-rule="nonzero"></path>
                <path d="M641.646,20.21 C643.62,20.21 645.3,19.202 645.86,17.634 C645.93,17.424 645.958,17.298 645.958,17.088 C645.958,16.402 645.468,15.954 644.754,15.954 C644.264,15.954 643.998,16.136 643.718,16.64 C643.172,17.606 642.542,17.984 641.478,17.984 C639.924,17.984 638.888,16.822 638.888,15.1 C638.888,13.378 639.924,12.216 641.478,12.216 C642.542,12.216 643.172,12.58 643.718,13.546 C643.998,14.036 644.264,14.232 644.754,14.232 C645.468,14.232 645.944,13.784 645.944,13.098 C645.944,12.86 645.916,12.678 645.818,12.468 C645.258,11.068 643.592,9.99 641.646,9.99 C638.622,9.99 636.424,12.118 636.424,15.1 C636.424,18.082 638.622,20.21 641.646,20.21 Z M652.726,20.21 C655.82,20.21 657.934,18.138 657.934,15.072 C657.934,12.16 655.708,9.99 652.726,9.99 C649.73,9.99 647.518,12.132 647.518,15.058 C647.518,18.138 649.604,20.21 652.726,20.21 Z M652.726,17.984 C651.032,17.984 649.982,16.864 649.982,15.058 C649.982,13.336 651.074,12.216 652.726,12.216 C654.35,12.216 655.456,13.35 655.456,15.072 C655.456,16.878 654.42,17.984 652.726,17.984 Z M666.536,20 C667.306,20 667.796,19.524 667.796,18.838 C667.796,18.166 667.278,17.676 666.536,17.676 L662.518,17.676 L662.518,11.46 C662.518,10.634 662.042,10.13 661.3,10.13 C660.53,10.13 660.054,10.634 660.054,11.46 L660.054,18.838 C660.054,19.496 660.558,20 661.216,20 L666.536,20 Z M673.724,20.21 C676.818,20.21 678.932,18.138 678.932,15.072 C678.932,12.16 676.706,9.99 673.724,9.99 C670.728,9.99 668.516,12.132 668.516,15.058 C668.516,18.138 670.602,20.21 673.724,20.21 Z M673.724,17.984 C672.03,17.984 670.98,16.864 670.98,15.058 C670.98,13.336 672.072,12.216 673.724,12.216 C675.348,12.216 676.454,13.35 676.454,15.072 C676.454,16.878 675.418,17.984 673.724,17.984 Z M689.144,20.07 C689.802,20.07 690.292,19.622 690.292,19.006 C690.292,18.628 690.166,18.39 689.886,18.068 L688.43,16.458 C689.662,15.996 690.334,14.96 690.334,13.448 C690.334,11.39 689.06,10.2 686.876,10.2 L682.452,10.2 C681.514,10.2 681.052,10.676 681.052,11.614 L681.052,18.74 C681.052,19.566 681.528,20.07 682.298,20.07 C683.04,20.07 683.516,19.566 683.516,18.74 L683.516,16.71 L685.476,16.71 L688.248,19.664 C688.514,19.944 688.766,20.07 689.144,20.07 Z M686.75,14.484 L683.516,14.484 L683.516,12.426 L686.75,12.426 C687.492,12.426 687.856,12.762 687.856,13.448 C687.856,14.106 687.436,14.484 686.75,14.484 Z M703.24,20 C705.13,20 706.376,18.838 706.376,17.102 C706.376,15.982 705.732,15.058 704.724,14.68 C705.382,14.33 705.844,13.644 705.844,12.818 C705.844,11.25 704.64,10.2 702.834,10.2 L698.83,10.2 C697.808,10.2 697.374,10.62 697.374,11.684 L697.374,18.516 C697.374,19.566 697.794,20 698.844,20 L703.24,20 Z M702.456,14.036 L699.838,14.036 L699.838,12.426 L702.456,12.426 C703.072,12.426 703.38,12.678 703.38,13.196 C703.38,13.714 703.03,14.036 702.456,14.036 Z M702.694,17.928 L699.838,17.928 L699.838,16.024 L702.694,16.024 C703.534,16.024 703.912,16.318 703.912,16.976 C703.912,17.634 703.534,17.928 702.694,17.928 Z M715.048,20 C715.818,20 716.308,19.524 716.308,18.838 C716.308,18.166 715.79,17.676 715.048,17.676 L711.03,17.676 L711.03,11.46 C711.03,10.634 710.554,10.13 709.812,10.13 C709.042,10.13 708.566,10.634 708.566,11.46 L708.566,18.838 C708.566,19.496 709.07,20 709.728,20 L715.048,20 Z M724.028,20 C724.826,20 725.288,19.58 725.288,18.852 C725.288,18.138 724.812,17.69 724.028,17.69 L722.782,17.69 L722.782,12.51 L723.888,12.51 C724.686,12.51 725.148,12.09 725.148,11.362 C725.148,10.648 724.672,10.2 723.888,10.2 L719.184,10.2 C718.414,10.2 717.938,10.648 717.938,11.362 C717.938,12.076 718.4,12.51 719.184,12.51 L720.304,12.51 L720.304,17.69 L719.044,17.69 C718.274,17.69 717.798,18.138 717.798,18.852 C717.798,19.566 718.26,20 719.044,20 L724.028,20 Z M735.906,20.07 C736.732,20.07 737.208,19.552 737.208,18.698 L737.208,11.46 C737.208,10.634 736.732,10.13 735.962,10.13 C735.22,10.13 734.73,10.634 734.73,11.46 L734.73,16.01 L729.844,10.746 C729.452,10.312 729.088,10.13 728.64,10.13 C727.814,10.13 727.338,10.648 727.338,11.502 L727.338,18.74 C727.338,19.566 727.814,20.07 728.584,20.07 C729.326,20.07 729.816,19.566 729.816,18.74 L729.816,14.19 L734.702,19.454 C735.094,19.888 735.458,20.07 735.906,20.07 Z M744.704,20 C747.49,20 749.576,17.928 749.576,15.1 C749.576,12.3 747.504,10.2 744.746,10.2 L741.358,10.2 C740.308,10.2 739.888,10.634 739.888,11.684 L739.888,18.516 C739.888,19.566 740.322,20 741.372,20 L744.704,20 Z M744.508,17.774 L742.352,17.774 L742.352,12.426 L744.55,12.426 C746.16,12.426 747.098,13.406 747.098,15.1 C747.098,16.794 746.174,17.774 744.508,17.774 Z" id="COLORBLIND" fill="#FFFFFF" fill-rule="nonzero"></path>
                <path d="M483.359,20.21 C485.333,20.21 487.013,19.202 487.573,17.634 C487.643,17.424 487.671,17.298 487.671,17.088 C487.671,16.402 487.181,15.954 486.467,15.954 C485.977,15.954 485.711,16.136 485.431,16.64 C484.885,17.606 484.255,17.984 483.191,17.984 C481.637,17.984 480.601,16.822 480.601,15.1 C480.601,13.378 481.637,12.216 483.191,12.216 C484.255,12.216 484.885,12.58 485.431,13.546 C485.711,14.036 485.977,14.232 486.467,14.232 C487.181,14.232 487.657,13.784 487.657,13.098 C487.657,12.86 487.629,12.678 487.531,12.468 C486.971,11.068 485.305,9.99 483.359,9.99 C480.335,9.99 478.137,12.118 478.137,15.1 C478.137,18.082 480.335,20.21 483.359,20.21 Z M494.439,20.21 C497.533,20.21 499.647,18.138 499.647,15.072 C499.647,12.16 497.421,9.99 494.439,9.99 C491.443,9.99 489.231,12.132 489.231,15.058 C489.231,18.138 491.317,20.21 494.439,20.21 Z M494.439,17.984 C492.745,17.984 491.695,16.864 491.695,15.058 C491.695,13.336 492.787,12.216 494.439,12.216 C496.063,12.216 497.169,13.35 497.169,15.072 C497.169,16.878 496.133,17.984 494.439,17.984 Z M508.249,20 C509.019,20 509.509,19.524 509.509,18.838 C509.509,18.166 508.991,17.676 508.249,17.676 L504.231,17.676 L504.231,11.46 C504.231,10.634 503.755,10.13 503.013,10.13 C502.243,10.13 501.767,10.634 501.767,11.46 L501.767,18.838 C501.767,19.496 502.271,20 502.929,20 L508.249,20 Z M515.437,20.21 C518.531,20.21 520.645,18.138 520.645,15.072 C520.645,12.16 518.419,9.99 515.437,9.99 C512.441,9.99 510.229,12.132 510.229,15.058 C510.229,18.138 512.315,20.21 515.437,20.21 Z M515.437,17.984 C513.743,17.984 512.693,16.864 512.693,15.058 C512.693,13.336 513.785,12.216 515.437,12.216 C517.061,12.216 518.167,13.35 518.167,15.072 C518.167,16.878 517.131,17.984 515.437,17.984 Z M530.857,20.07 C531.515,20.07 532.005,19.622 532.005,19.006 C532.005,18.628 531.879,18.39 531.599,18.068 L530.143,16.458 C531.375,15.996 532.047,14.96 532.047,13.448 C532.047,11.39 530.773,10.2 528.589,10.2 L524.165,10.2 C523.227,10.2 522.765,10.676 522.765,11.614 L522.765,18.74 C522.765,19.566 523.241,20.07 524.011,20.07 C524.753,20.07 525.229,19.566 525.229,18.74 L525.229,16.71 L527.189,16.71 L529.961,19.664 C530.227,19.944 530.479,20.07 530.857,20.07 Z M528.463,14.484 L525.229,14.484 L525.229,12.426 L528.463,12.426 C529.205,12.426 529.569,12.762 529.569,13.448 C529.569,14.106 529.149,14.484 528.463,14.484 Z M543.497,20.21 C545.793,20.21 547.375,18.88 547.375,16.976 C547.375,14.68 545.093,14.26 543.343,13.924 C542.237,13.742 541.327,13.546 541.327,12.986 C541.327,12.482 541.915,12.146 542.769,12.146 C543.553,12.146 544.169,12.426 544.827,13.098 C545.149,13.42 545.401,13.546 545.779,13.546 C546.451,13.546 546.955,13.07 546.955,12.44 C546.955,12.216 546.885,11.992 546.759,11.768 C546.129,10.732 544.533,9.99 542.853,9.99 C540.613,9.99 538.989,11.25 538.989,12.986 C538.989,15.31 541.159,15.688 542.895,16.024 C544.057,16.248 545.023,16.388 545.023,17.074 C545.023,17.676 544.477,18.026 543.525,18.026 C542.391,18.026 541.621,17.648 541.117,16.808 C540.795,16.29 540.417,16.08 539.899,16.08 C539.213,16.08 538.667,16.584 538.667,17.242 C538.667,17.508 538.737,17.732 538.891,18.026 C539.605,19.384 541.383,20.21 543.497,20.21 Z M555.907,20 C556.677,20 557.167,19.524 557.167,18.838 C557.167,18.166 556.649,17.676 555.907,17.676 L551.889,17.676 L551.889,11.46 C551.889,10.634 551.413,10.13 550.671,10.13 C549.901,10.13 549.425,10.634 549.425,11.46 L549.425,18.838 C549.425,19.496 549.929,20 550.587,20 L555.907,20 Z M564.887,20 C565.685,20 566.147,19.58 566.147,18.852 C566.147,18.138 565.671,17.69 564.887,17.69 L563.641,17.69 L563.641,12.51 L564.747,12.51 C565.545,12.51 566.007,12.09 566.007,11.362 C566.007,10.648 565.531,10.2 564.747,10.2 L560.043,10.2 C559.273,10.2 558.797,10.648 558.797,11.362 C558.797,12.076 559.259,12.51 560.043,12.51 L561.163,12.51 L561.163,17.69 L559.903,17.69 C559.133,17.69 558.657,18.138 558.657,18.852 C558.657,19.566 559.119,20 559.903,20 L564.887,20 Z M573.013,20 C575.799,20 577.885,17.928 577.885,15.1 C577.885,12.3 575.813,10.2 573.055,10.2 L569.667,10.2 C568.617,10.2 568.197,10.634 568.197,11.684 L568.197,18.516 C568.197,19.566 568.631,20 569.681,20 L573.013,20 Z M572.817,17.774 L570.661,17.774 L570.661,12.426 L572.859,12.426 C574.469,12.426 575.407,13.406 575.407,15.1 C575.407,16.794 574.483,17.774 572.817,17.774 Z M587.145,20 C587.929,20 588.391,19.566 588.391,18.852 C588.391,18.138 587.915,17.69 587.145,17.69 L582.469,17.69 L582.469,16.178 L586.613,16.178 C587.397,16.178 587.789,15.814 587.789,15.086 C587.789,14.372 587.383,13.994 586.613,13.994 L582.469,13.994 L582.469,12.51 L587.117,12.51 C587.901,12.51 588.363,12.076 588.363,11.362 C588.363,10.648 587.887,10.2 587.117,10.2 L581.405,10.2 C580.467,10.2 580.005,10.676 580.005,11.614 L580.005,18.586 C580.005,19.524 580.481,20 581.419,20 L587.145,20 Z M598.463,20.07 C599.121,20.07 599.611,19.622 599.611,19.006 C599.611,18.628 599.485,18.39 599.205,18.068 L597.749,16.458 C598.981,15.996 599.653,14.96 599.653,13.448 C599.653,11.39 598.379,10.2 596.195,10.2 L591.771,10.2 C590.833,10.2 590.371,10.676 590.371,11.614 L590.371,18.74 C590.371,19.566 590.847,20.07 591.617,20.07 C592.359,20.07 592.835,19.566 592.835,18.74 L592.835,16.71 L594.795,16.71 L597.567,19.664 C597.833,19.944 598.085,20.07 598.463,20.07 Z M596.069,14.484 L592.835,14.484 L592.835,12.426 L596.069,12.426 C596.811,12.426 597.175,12.762 597.175,13.448 C597.175,14.106 596.755,14.484 596.069,14.484 Z" id="COLORSLIDER" fill="#FFFFFF" fill-rule="nonzero"></path>
                <path d="M212.245,20.07 C213.015,20.07 213.477,19.566 213.477,18.74 L213.477,16.668 L217.495,16.668 C218.279,16.668 218.671,16.304 218.671,15.59 C218.671,14.876 218.265,14.498 217.495,14.498 L213.463,14.498 L213.463,12.51 L218.181,12.51 C218.965,12.51 219.427,12.076 219.427,11.362 C219.427,10.648 218.951,10.2 218.181,10.2 L212.399,10.2 C211.461,10.2 210.999,10.676 210.999,11.614 L210.999,18.74 C210.999,19.566 211.475,20.07 212.245,20.07 Z M229.429,20.07 C230.087,20.07 230.577,19.622 230.577,19.006 C230.577,18.628 230.451,18.39 230.171,18.068 L228.715,16.458 C229.947,15.996 230.619,14.96 230.619,13.448 C230.619,11.39 229.345,10.2 227.161,10.2 L222.737,10.2 C221.799,10.2 221.337,10.676 221.337,11.614 L221.337,18.74 C221.337,19.566 221.813,20.07 222.583,20.07 C223.325,20.07 223.801,19.566 223.801,18.74 L223.801,16.71 L225.761,16.71 L228.533,19.664 C228.799,19.944 229.051,20.07 229.429,20.07 Z M227.035,14.484 L223.801,14.484 L223.801,12.426 L227.035,12.426 C227.777,12.426 228.141,12.762 228.141,13.448 C228.141,14.106 227.721,14.484 227.035,14.484 Z M240.089,20 C240.873,20 241.335,19.566 241.335,18.852 C241.335,18.138 240.859,17.69 240.089,17.69 L235.413,17.69 L235.413,16.178 L239.557,16.178 C240.341,16.178 240.733,15.814 240.733,15.086 C240.733,14.372 240.327,13.994 239.557,13.994 L235.413,13.994 L235.413,12.51 L240.061,12.51 C240.845,12.51 241.307,12.076 241.307,11.362 C241.307,10.648 240.831,10.2 240.061,10.2 L234.349,10.2 C233.411,10.2 232.949,10.676 232.949,11.614 L232.949,18.586 C232.949,19.524 233.425,20 234.363,20 L240.089,20 Z M250.455,20 C251.239,20 251.701,19.566 251.701,18.852 C251.701,18.138 251.225,17.69 250.455,17.69 L245.779,17.69 L245.779,16.178 L249.923,16.178 C250.707,16.178 251.099,15.814 251.099,15.086 C251.099,14.372 250.693,13.994 249.923,13.994 L245.779,13.994 L245.779,12.51 L250.427,12.51 C251.211,12.51 251.673,12.076 251.673,11.362 C251.673,10.648 251.197,10.2 250.427,10.2 L244.715,10.2 C243.777,10.2 243.315,10.676 243.315,11.614 L243.315,18.586 C243.315,19.524 243.791,20 244.729,20 L250.455,20 Z" id="FREE" fill="#FFFFFF" fill-rule="nonzero"></path>
                <path d="M793.329,20.21 C796.423,20.21 798.537,18.138 798.537,15.072 C798.537,12.16 796.311,9.99 793.329,9.99 C790.333,9.99 788.121,12.132 788.121,15.058 C788.121,18.138 790.207,20.21 793.329,20.21 Z M793.329,17.984 C791.635,17.984 790.585,16.864 790.585,15.058 C790.585,13.336 791.677,12.216 793.329,12.216 C794.953,12.216 796.059,13.35 796.059,15.072 C796.059,16.878 795.023,17.984 793.329,17.984 Z M801.903,20.084 C802.645,20.084 803.121,19.58 803.121,18.754 L803.121,16.71 L806.257,16.71 C808.441,16.71 809.715,15.506 809.715,13.448 C809.715,11.39 808.455,10.2 806.257,10.2 L802.057,10.2 C801.119,10.2 800.657,10.676 800.657,11.614 L800.657,18.754 C800.657,19.58 801.133,20.084 801.903,20.084 Z M806.131,14.484 L803.121,14.484 L803.121,12.426 L806.131,12.426 C806.873,12.426 807.251,12.762 807.251,13.448 C807.251,14.106 806.845,14.484 806.131,14.484 Z M819.003,20 C819.787,20 820.249,19.566 820.249,18.852 C820.249,18.138 819.773,17.69 819.003,17.69 L814.327,17.69 L814.327,16.178 L818.471,16.178 C819.255,16.178 819.647,15.814 819.647,15.086 C819.647,14.372 819.241,13.994 818.471,13.994 L814.327,13.994 L814.327,12.51 L818.975,12.51 C819.759,12.51 820.221,12.076 820.221,11.362 C820.221,10.648 819.745,10.2 818.975,10.2 L813.263,10.2 C812.325,10.2 811.863,10.676 811.863,11.614 L811.863,18.586 C811.863,19.524 812.339,20 813.277,20 L819.003,20 Z M830.797,20.07 C831.623,20.07 832.099,19.552 832.099,18.698 L832.099,11.46 C832.099,10.634 831.623,10.13 830.853,10.13 C830.111,10.13 829.621,10.634 829.621,11.46 L829.621,16.01 L824.735,10.746 C824.343,10.312 823.979,10.13 823.531,10.13 C822.705,10.13 822.229,10.648 822.229,11.502 L822.229,18.74 C822.229,19.566 822.705,20.07 823.475,20.07 C824.217,20.07 824.707,19.566 824.707,18.74 L824.707,14.19 L829.593,19.454 C829.985,19.888 830.349,20.07 830.797,20.07 Z M837.635,16.948 C838.405,16.948 838.853,16.514 838.853,15.828 C838.853,15.142 838.405,14.722 837.635,14.722 L835.927,14.722 C835.157,14.722 834.709,15.142 834.709,15.828 C834.709,16.542 835.157,16.948 835.927,16.948 L837.635,16.948 Z M845.453,20.21 C847.749,20.21 849.331,18.88 849.331,16.976 C849.331,14.68 847.049,14.26 845.299,13.924 C844.193,13.742 843.283,13.546 843.283,12.986 C843.283,12.482 843.871,12.146 844.725,12.146 C845.509,12.146 846.125,12.426 846.783,13.098 C847.105,13.42 847.357,13.546 847.735,13.546 C848.407,13.546 848.911,13.07 848.911,12.44 C848.911,12.216 848.841,11.992 848.715,11.768 C848.085,10.732 846.489,9.99 844.809,9.99 C842.569,9.99 840.945,11.25 840.945,12.986 C840.945,15.31 843.115,15.688 844.851,16.024 C846.013,16.248 846.979,16.388 846.979,17.074 C846.979,17.676 846.433,18.026 845.481,18.026 C844.347,18.026 843.577,17.648 843.073,16.808 C842.751,16.29 842.373,16.08 841.855,16.08 C841.169,16.08 840.623,16.584 840.623,17.242 C840.623,17.508 840.693,17.732 840.847,18.026 C841.561,19.384 843.339,20.21 845.453,20.21 Z M856.029,20.21 C859.123,20.21 861.237,18.138 861.237,15.072 C861.237,12.16 859.011,9.99 856.029,9.99 C853.033,9.99 850.821,12.132 850.821,15.058 C850.821,18.138 852.907,20.21 856.029,20.21 Z M856.029,17.984 C854.335,17.984 853.285,16.864 853.285,15.058 C853.285,13.336 854.377,12.216 856.029,12.216 C857.653,12.216 858.759,13.35 858.759,15.072 C858.759,16.878 857.723,17.984 856.029,17.984 Z M867.865,20.21 C870.735,20.21 872.457,18.6 872.457,15.856 L872.457,11.46 C872.457,10.634 871.981,10.13 871.239,10.13 C870.469,10.13 869.993,10.634 869.993,11.46 L869.993,15.772 C869.993,17.06 869.335,17.956 867.865,17.956 C866.395,17.956 865.751,17.06 865.751,15.772 L865.751,11.46 C865.751,10.634 865.275,10.13 864.533,10.13 C863.763,10.13 863.287,10.634 863.287,11.46 L863.287,15.856 C863.287,18.6 864.981,20.21 867.865,20.21 Z M883.159,20.07 C883.817,20.07 884.307,19.622 884.307,19.006 C884.307,18.628 884.181,18.39 883.901,18.068 L882.445,16.458 C883.677,15.996 884.349,14.96 884.349,13.448 C884.349,11.39 883.075,10.2 880.891,10.2 L876.467,10.2 C875.529,10.2 875.067,10.676 875.067,11.614 L875.067,18.74 C875.067,19.566 875.543,20.07 876.313,20.07 C877.055,20.07 877.531,19.566 877.531,18.74 L877.531,16.71 L879.491,16.71 L882.263,19.664 C882.529,19.944 882.781,20.07 883.159,20.07 Z M880.765,14.484 L877.531,14.484 L877.531,12.426 L880.765,12.426 C881.507,12.426 881.871,12.762 881.871,13.448 C881.871,14.106 881.451,14.484 880.765,14.484 Z M891.201,20.21 C893.175,20.21 894.855,19.202 895.415,17.634 C895.485,17.424 895.513,17.298 895.513,17.088 C895.513,16.402 895.023,15.954 894.309,15.954 C893.819,15.954 893.553,16.136 893.273,16.64 C892.727,17.606 892.097,17.984 891.033,17.984 C889.479,17.984 888.443,16.822 888.443,15.1 C888.443,13.378 889.479,12.216 891.033,12.216 C892.097,12.216 892.727,12.58 893.273,13.546 C893.553,14.036 893.819,14.232 894.309,14.232 C895.023,14.232 895.499,13.784 895.499,13.098 C895.499,12.86 895.471,12.678 895.373,12.468 C894.813,11.068 893.147,9.99 891.201,9.99 C888.177,9.99 885.979,12.118 885.979,15.1 C885.979,18.082 888.177,20.21 891.201,20.21 Z M904.773,20 C905.557,20 906.019,19.566 906.019,18.852 C906.019,18.138 905.543,17.69 904.773,17.69 L900.097,17.69 L900.097,16.178 L904.241,16.178 C905.025,16.178 905.417,15.814 905.417,15.086 C905.417,14.372 905.011,13.994 904.241,13.994 L900.097,13.994 L900.097,12.51 L904.745,12.51 C905.529,12.51 905.991,12.076 905.991,11.362 C905.991,10.648 905.515,10.2 904.745,10.2 L899.033,10.2 C898.095,10.2 897.633,10.676 897.633,11.614 L897.633,18.586 C897.633,19.524 898.109,20 899.047,20 L904.773,20 Z" id="OPEN-SOURCE" fill="#FFFFFF" fill-rule="nonzero"></path>
                <path d="M393.96502,82.732233 C394.888078,81.7559223 396.38465,81.7559223 397.307707,82.732233 C398.230764,83.7085438 398.230764,85.2914562 397.307707,86.267767 L383.125889,101.267767 C382.202831,102.244078 380.70626,102.244078 379.783202,101.267767 L372.692293,93.767767 C371.769236,92.7914562 371.769236,91.2085438 372.692293,90.232233 C373.61535,89.2559223 375.111922,89.2559223 376.03498,90.232233 L381.454545,95.9644661 L393.96502,82.732233 Z" id="Checkmark" fill="#47CF73"></path>
                <path d="M238.96502,222.732233 C239.888078,221.755922 241.38465,221.755922 242.307707,222.732233 C243.230764,223.708544 243.230764,225.291456 242.307707,226.267767 L228.125889,241.267767 C227.202831,242.244078 225.70626,242.244078 224.783202,241.267767 L217.692293,233.767767 C216.769236,232.791456 216.769236,231.208544 217.692293,230.232233 C218.61535,229.255922 220.111922,229.255922 221.03498,230.232233 L226.454545,235.964466 L238.96502,222.732233 Z" id="Checkmark-Copy-2" fill="#47CF73"></path>
                <path d="M238.96502,348.732233 C239.888078,347.755922 241.38465,347.755922 242.307707,348.732233 C243.230764,349.708544 243.230764,351.291456 242.307707,352.267767 L228.125889,367.267767 C227.202831,368.244078 225.70626,368.244078 224.783202,367.267767 L217.692293,359.767767 C216.769236,358.791456 216.769236,357.208544 217.692293,356.232233 C218.61535,355.255922 220.111922,355.255922 221.03498,356.232233 L226.454545,361.964466 L238.96502,348.732233 Z" id="Checkmark-Copy-3" fill="#47CF73"></path>
                <path d="M238.96502,479.732233 C239.888078,478.755922 241.38465,478.755922 242.307707,479.732233 C243.230764,480.708544 243.230764,482.291456 242.307707,483.267767 L228.125889,498.267767 C227.202831,499.244078 225.70626,499.244078 224.783202,498.267767 L217.692293,490.767767 C216.769236,489.791456 216.769236,488.208544 217.692293,487.232233 C218.61535,486.255922 220.111922,486.255922 221.03498,487.232233 L226.454545,492.964466 L238.96502,479.732233 Z" id="Checkmark-Copy-4" fill="#47CF73"></path>
                <path d="M238.96502,610.732233 C239.888078,609.755922 241.38465,609.755922 242.307707,610.732233 C243.230764,611.708544 243.230764,613.291456 242.307707,614.267767 L228.125889,629.267767 C227.202831,630.244078 225.70626,630.244078 224.783202,629.267767 L217.692293,621.767767 C216.769236,620.791456 216.769236,619.208544 217.692293,618.232233 C218.61535,617.255922 220.111922,617.255922 221.03498,618.232233 L226.454545,623.964466 L238.96502,610.732233 Z" id="Checkmark-Copy-5" fill="#47CF73"></path>
                <path d="M238.96502,741.732233 C239.888078,740.755922 241.38465,740.755922 242.307707,741.732233 C243.230764,742.708544 243.230764,744.291456 242.307707,745.267767 L228.125889,760.267767 C227.202831,761.244078 225.70626,761.244078 224.783202,760.267767 L217.692293,752.767767 C216.769236,751.791456 216.769236,750.208544 217.692293,749.232233 C218.61535,748.255922 220.111922,748.255922 221.03498,749.232233 L226.454545,754.964466 L238.96502,741.732233 Z" id="Checkmark-Copy-6" fill="#47CF73"></path>
                <path d="M856.96502,222.732233 C857.888078,221.755922 859.38465,221.755922 860.307707,222.732233 C861.230764,223.708544 861.230764,225.291456 860.307707,226.267767 L846.125889,241.267767 C845.202831,242.244078 843.70626,242.244078 842.783202,241.267767 L835.692293,233.767767 C834.769236,232.791456 834.769236,231.208544 835.692293,230.232233 C836.61535,229.255922 838.111922,229.255922 839.03498,230.232233 L844.454545,235.964466 L856.96502,222.732233 Z" id="Checkmark-Copy-2" fill="#47CF73"></path>
                <path d="M856.96502,348.732233 C857.888078,347.755922 859.38465,347.755922 860.307707,348.732233 C861.230764,349.708544 861.230764,351.291456 860.307707,352.267767 L846.125889,367.267767 C845.202831,368.244078 843.70626,368.244078 842.783202,367.267767 L835.692293,359.767767 C834.769236,358.791456 834.769236,357.208544 835.692293,356.232233 C836.61535,355.255922 838.111922,355.255922 839.03498,356.232233 L844.454545,361.964466 L856.96502,348.732233 Z" id="Checkmark-Copy-3" fill="#47CF73"></path>
                <path d="M856.96502,479.732233 C857.888078,478.755922 859.38465,478.755922 860.307707,479.732233 C861.230764,480.708544 861.230764,482.291456 860.307707,483.267767 L846.125889,498.267767 C845.202831,499.244078 843.70626,499.244078 842.783202,498.267767 L835.692293,490.767767 C834.769236,489.791456 834.769236,488.208544 835.692293,487.232233 C836.61535,486.255922 838.111922,486.255922 839.03498,487.232233 L844.454545,492.964466 L856.96502,479.732233 Z" id="Checkmark-Copy-4" fill="#47CF73"></path>
                <path d="M856.96502,610.732233 C857.888078,609.755922 859.38465,609.755922 860.307707,610.732233 C861.230764,611.708544 861.230764,613.291456 860.307707,614.267767 L846.125889,629.267767 C845.202831,630.244078 843.70626,630.244078 842.783202,629.267767 L835.692293,621.767767 C834.769236,620.791456 834.769236,619.208544 835.692293,618.232233 C836.61535,617.255922 838.111922,617.255922 839.03498,618.232233 L844.454545,623.964466 L856.96502,610.732233 Z" id="Checkmark-Copy-5" fill="#47CF73"></path>
                <path d="M856.96502,741.732233 C857.888078,740.755922 859.38465,740.755922 860.307707,741.732233 C861.230764,742.708544 861.230764,744.291456 860.307707,745.267767 L846.125889,760.267767 C845.202831,761.244078 843.70626,761.244078 842.783202,760.267767 L835.692293,752.767767 C834.769236,751.791456 834.769236,750.208544 835.692293,749.232233 C836.61535,748.255922 838.111922,748.255922 839.03498,749.232233 L844.454545,754.964466 L856.96502,741.732233 Z" id="Checkmark-Copy-6" fill="#47CF73"></path>
                <path d="M702.96502,82.732233 C703.888078,81.7559223 705.38465,81.7559223 706.307707,82.732233 C707.230764,83.7085438 707.230764,85.2914562 706.307707,86.267767 L692.125889,101.267767 C691.202831,102.244078 689.70626,102.244078 688.783202,101.267767 L681.692293,93.767767 C680.769236,92.7914562 680.769236,91.2085438 681.692293,90.232233 C682.61535,89.2559223 684.111922,89.2559223 685.03498,90.232233 L690.454545,95.9644661 L702.96502,82.732233 Z" id="Checkmark-Copy" fill="#47CF73"></path>
                <path d="M393.96502,222.732233 C394.888078,221.755922 396.38465,221.755922 397.307707,222.732233 C398.230764,223.708544 398.230764,225.291456 397.307707,226.267767 L383.125889,241.267767 C382.202831,242.244078 380.70626,242.244078 379.783202,241.267767 L372.692293,233.767767 C371.769236,232.791456 371.769236,231.208544 372.692293,230.232233 C373.61535,229.255922 375.111922,229.255922 376.03498,230.232233 L381.454545,235.964466 L393.96502,222.732233 Z" id="Checkmark-Copy-2" fill="#47CF73"></path>
                <path d="M393.96502,348.732233 C394.888078,347.755922 396.38465,347.755922 397.307707,348.732233 C398.230764,349.708544 398.230764,351.291456 397.307707,352.267767 L383.125889,367.267767 C382.202831,368.244078 380.70626,368.244078 379.783202,367.267767 L372.692293,359.767767 C371.769236,358.791456 371.769236,357.208544 372.692293,356.232233 C373.61535,355.255922 375.111922,355.255922 376.03498,356.232233 L381.454545,361.964466 L393.96502,348.732233 Z" id="Checkmark-Copy-3" fill="#47CF73"></path>
                <path d="M393.96502,479.732233 C394.888078,478.755922 396.38465,478.755922 397.307707,479.732233 C398.230764,480.708544 398.230764,482.291456 397.307707,483.267767 L383.125889,498.267767 C382.202831,499.244078 380.70626,499.244078 379.783202,498.267767 L372.692293,490.767767 C371.769236,489.791456 371.769236,488.208544 372.692293,487.232233 C373.61535,486.255922 375.111922,486.255922 376.03498,487.232233 L381.454545,492.964466 L393.96502,479.732233 Z" id="Checkmark-Copy-4" fill="#47CF73"></path>
                <path d="M393.96502,610.732233 C394.888078,609.755922 396.38465,609.755922 397.307707,610.732233 C398.230764,611.708544 398.230764,613.291456 397.307707,614.267767 L383.125889,629.267767 C382.202831,630.244078 380.70626,630.244078 379.783202,629.267767 L372.692293,621.767767 C371.769236,620.791456 371.769236,619.208544 372.692293,618.232233 C373.61535,617.255922 375.111922,617.255922 376.03498,618.232233 L381.454545,623.964466 L393.96502,610.732233 Z" id="Checkmark-Copy-5" fill="#47CF73"></path>
                <path d="M393.96502,741.732233 C394.888078,740.755922 396.38465,740.755922 397.307707,741.732233 C398.230764,742.708544 398.230764,744.291456 397.307707,745.267767 L383.125889,760.267767 C382.202831,761.244078 380.70626,761.244078 379.783202,760.267767 L372.692293,752.767767 C371.769236,751.791456 371.769236,750.208544 372.692293,749.232233 C373.61535,748.255922 375.111922,748.255922 376.03498,749.232233 L381.454545,754.964466 L393.96502,741.732233 Z" id="Checkmark-Copy-6" fill="#47CF73"></path>
                <path d="M693.5,488.341126 L702.186902,479.654224 C703.059201,478.781925 704.473477,478.781925 705.345776,479.654224 C706.218075,480.526523 706.218075,481.940799 705.345776,482.813098 L696.658874,491.5 L705.345776,500.186902 C706.218075,501.059201 706.218075,502.473477 705.345776,503.345776 C704.473477,504.218075 703.059201,504.218075 702.186902,503.345776 L693.5,494.658874 L684.813098,503.345776 C683.940799,504.218075 682.526523,504.218075 681.654224,503.345776 C680.781925,502.473477 680.781925,501.059201 681.654224,500.186902 L690.341126,491.5 L681.654224,482.813098 C680.781925,481.940799 680.781925,480.526523 681.654224,479.654224 C682.526523,478.781925 683.940799,478.781925 684.813098,479.654224 L693.5,488.341126 Z" id="Xmark" fill="#FF0030"></path>
                <path d="M693.5,352.341126 L702.186902,343.654224 C703.059201,342.781925 704.473477,342.781925 705.345776,343.654224 C706.218075,344.526523 706.218075,345.940799 705.345776,346.813098 L696.658874,355.5 L705.345776,364.186902 C706.218075,365.059201 706.218075,366.473477 705.345776,367.345776 C704.473477,368.218075 703.059201,368.218075 702.186902,367.345776 L693.5,358.658874 L684.813098,367.345776 C683.940799,368.218075 682.526523,368.218075 681.654224,367.345776 C680.781925,366.473477 680.781925,365.059201 681.654224,364.186902 L690.341126,355.5 L681.654224,346.813098 C680.781925,345.940799 680.781925,344.526523 681.654224,343.654224 C682.526523,342.781925 683.940799,342.781925 684.813098,343.654224 L693.5,352.341126 Z" id="Xmark-Copy" fill="#FF0030"></path>
                <path d="M693.5,224.341126 L702.186902,215.654224 C703.059201,214.781925 704.473477,214.781925 705.345776,215.654224 C706.218075,216.526523 706.218075,217.940799 705.345776,218.813098 L696.658874,227.5 L705.345776,236.186902 C706.218075,237.059201 706.218075,238.473477 705.345776,239.345776 C704.473477,240.218075 703.059201,240.218075 702.186902,239.345776 L693.5,230.658874 L684.813098,239.345776 C683.940799,240.218075 682.526523,240.218075 681.654224,239.345776 C680.781925,238.473477 680.781925,237.059201 681.654224,236.186902 L690.341126,227.5 L681.654224,218.813098 C680.781925,217.940799 680.781925,216.526523 681.654224,215.654224 C682.526523,214.781925 683.940799,214.781925 684.813098,215.654224 L693.5,224.341126 Z" id="Xmark-Copy-2" fill="#FF0030"></path>
                <path d="M693.5,614.341126 L702.186902,605.654224 C703.059201,604.781925 704.473477,604.781925 705.345776,605.654224 C706.218075,606.526523 706.218075,607.940799 705.345776,608.813098 L696.658874,617.5 L705.345776,626.186902 C706.218075,627.059201 706.218075,628.473477 705.345776,629.345776 C704.473477,630.218075 703.059201,630.218075 702.186902,629.345776 L693.5,620.658874 L684.813098,629.345776 C683.940799,630.218075 682.526523,630.218075 681.654224,629.345776 C680.781925,628.473477 680.781925,627.059201 681.654224,626.186902 L690.341126,617.5 L681.654224,608.813098 C680.781925,607.940799 680.781925,606.526523 681.654224,605.654224 C682.526523,604.781925 683.940799,604.781925 684.813098,605.654224 L693.5,614.341126 Z" id="Xmark-Copy-3" fill="#FF0030"></path>
                <path d="M693.5,748.341126 L702.186902,739.654224 C703.059201,738.781925 704.473477,738.781925 705.345776,739.654224 C706.218075,740.526523 706.218075,741.940799 705.345776,742.813098 L696.658874,751.5 L705.345776,760.186902 C706.218075,761.059201 706.218075,762.473477 705.345776,763.345776 C704.473477,764.218075 703.059201,764.218075 702.186902,763.345776 L693.5,754.658874 L684.813098,763.345776 C683.940799,764.218075 682.526523,764.218075 681.654224,763.345776 C680.781925,762.473477 680.781925,761.059201 681.654224,760.186902 L690.341126,751.5 L681.654224,742.813098 C680.781925,741.940799 680.781925,740.526523 681.654224,739.654224 C682.526523,738.781925 683.940799,738.781925 684.813098,739.654224 L693.5,748.341126 Z" id="Xmark-Copy-4" fill="#FF0030"></path>
                <path d="M539.5,488.341126 L548.186902,479.654224 C549.059201,478.781925 550.473477,478.781925 551.345776,479.654224 C552.218075,480.526523 552.218075,481.940799 551.345776,482.813098 L542.658874,491.5 L551.345776,500.186902 C552.218075,501.059201 552.218075,502.473477 551.345776,503.345776 C550.473477,504.218075 549.059201,504.218075 548.186902,503.345776 L539.5,494.658874 L530.813098,503.345776 C529.940799,504.218075 528.526523,504.218075 527.654224,503.345776 C526.781925,502.473477 526.781925,501.059201 527.654224,500.186902 L536.341126,491.5 L527.654224,482.813098 C526.781925,481.940799 526.781925,480.526523 527.654224,479.654224 C528.526523,478.781925 529.940799,478.781925 530.813098,479.654224 L539.5,488.341126 Z" id="Xmark" fill="#FF0030"></path>
                <path d="M539.5,352.341126 L548.186902,343.654224 C549.059201,342.781925 550.473477,342.781925 551.345776,343.654224 C552.218075,344.526523 552.218075,345.940799 551.345776,346.813098 L542.658874,355.5 L551.345776,364.186902 C552.218075,365.059201 552.218075,366.473477 551.345776,367.345776 C550.473477,368.218075 549.059201,368.218075 548.186902,367.345776 L539.5,358.658874 L530.813098,367.345776 C529.940799,368.218075 528.526523,368.218075 527.654224,367.345776 C526.781925,366.473477 526.781925,365.059201 527.654224,364.186902 L536.341126,355.5 L527.654224,346.813098 C526.781925,345.940799 526.781925,344.526523 527.654224,343.654224 C528.526523,342.781925 529.940799,342.781925 530.813098,343.654224 L539.5,352.341126 Z" id="Xmark-Copy" fill="#FF0030"></path>
                <path d="M539.5,224.341126 L548.186902,215.654224 C549.059201,214.781925 550.473477,214.781925 551.345776,215.654224 C552.218075,216.526523 552.218075,217.940799 551.345776,218.813098 L542.658874,227.5 L551.345776,236.186902 C552.218075,237.059201 552.218075,238.473477 551.345776,239.345776 C550.473477,240.218075 549.059201,240.218075 548.186902,239.345776 L539.5,230.658874 L530.813098,239.345776 C529.940799,240.218075 528.526523,240.218075 527.654224,239.345776 C526.781925,238.473477 526.781925,237.059201 527.654224,236.186902 L536.341126,227.5 L527.654224,218.813098 C526.781925,217.940799 526.781925,216.526523 527.654224,215.654224 C528.526523,214.781925 529.940799,214.781925 530.813098,215.654224 L539.5,224.341126 Z" id="Xmark-Copy-2" fill="#FF0030"></path>
                <path d="M539.5,88.3411264 L548.186902,79.6542241 C549.059201,78.7819253 550.473477,78.7819253 551.345776,79.6542241 C552.218075,80.526523 552.218075,81.9407989 551.345776,82.8130977 L542.658874,91.5 L551.345776,100.186902 C552.218075,101.059201 552.218075,102.473477 551.345776,103.345776 C550.473477,104.218075 549.059201,104.218075 548.186902,103.345776 L539.5,94.6588736 L530.813098,103.345776 C529.940799,104.218075 528.526523,104.218075 527.654224,103.345776 C526.781925,102.473477 526.781925,101.059201 527.654224,100.186902 L536.341126,91.5 L527.654224,82.8130977 C526.781925,81.9407989 526.781925,80.526523 527.654224,79.6542241 C528.526523,78.7819253 529.940799,78.7819253 530.813098,79.6542241 L539.5,88.3411264 Z" id="Xmark-Copy-5" fill="#FF0030"></path>
                <path d="M230.5,88.3411264 L239.186902,79.6542241 C240.059201,78.7819253 241.473477,78.7819253 242.345776,79.6542241 C243.218075,80.526523 243.218075,81.9407989 242.345776,82.8130977 L233.658874,91.5 L242.345776,100.186902 C243.218075,101.059201 243.218075,102.473477 242.345776,103.345776 C241.473477,104.218075 240.059201,104.218075 239.186902,103.345776 L230.5,94.6588736 L221.813098,103.345776 C220.940799,104.218075 219.526523,104.218075 218.654224,103.345776 C217.781925,102.473477 217.781925,101.059201 218.654224,100.186902 L227.341126,91.5 L218.654224,82.8130977 C217.781925,81.9407989 217.781925,80.526523 218.654224,79.6542241 C219.526523,78.7819253 220.940799,78.7819253 221.813098,79.6542241 L230.5,88.3411264 Z" id="Xmark-Copy-6" fill="#FF0030"></path>
                <path d="M845.5,88.3411264 L854.186902,79.6542241 C855.059201,78.7819253 856.473477,78.7819253 857.345776,79.6542241 C858.218075,80.526523 858.218075,81.9407989 857.345776,82.8130977 L848.658874,91.5 L857.345776,100.186902 C858.218075,101.059201 858.218075,102.473477 857.345776,103.345776 C856.473477,104.218075 855.059201,104.218075 854.186902,103.345776 L845.5,94.6588736 L836.813098,103.345776 C835.940799,104.218075 834.526523,104.218075 833.654224,103.345776 C832.781925,102.473477 832.781925,101.059201 833.654224,100.186902 L842.341126,91.5 L833.654224,82.8130977 C832.781925,81.9407989 832.781925,80.526523 833.654224,79.6542241 C834.526523,78.7819253 835.940799,78.7819253 836.813098,79.6542241 L845.5,88.3411264 Z" id="Xmark-Copy-7" fill="#FF0030"></path>
                <path d="M539.5,614.341126 L548.186902,605.654224 C549.059201,604.781925 550.473477,604.781925 551.345776,605.654224 C552.218075,606.526523 552.218075,607.940799 551.345776,608.813098 L542.658874,617.5 L551.345776,626.186902 C552.218075,627.059201 552.218075,628.473477 551.345776,629.345776 C550.473477,630.218075 549.059201,630.218075 548.186902,629.345776 L539.5,620.658874 L530.813098,629.345776 C529.940799,630.218075 528.526523,630.218075 527.654224,629.345776 C526.781925,628.473477 526.781925,627.059201 527.654224,626.186902 L536.341126,617.5 L527.654224,608.813098 C526.781925,607.940799 526.781925,606.526523 527.654224,605.654224 C528.526523,604.781925 529.940799,604.781925 530.813098,605.654224 L539.5,614.341126 Z" id="Xmark-Copy-3" fill="#FF0030"></path>
                <path d="M539.5,748.341126 L548.186902,739.654224 C549.059201,738.781925 550.473477,738.781925 551.345776,739.654224 C552.218075,740.526523 552.218075,741.940799 551.345776,742.813098 L542.658874,751.5 L551.345776,760.186902 C552.218075,761.059201 552.218075,762.473477 551.345776,763.345776 C550.473477,764.218075 549.059201,764.218075 548.186902,763.345776 L539.5,754.658874 L530.813098,763.345776 C529.940799,764.218075 528.526523,764.218075 527.654224,763.345776 C526.781925,762.473477 526.781925,761.059201 527.654224,760.186902 L536.341126,751.5 L527.654224,742.813098 C526.781925,741.940799 526.781925,740.526523 527.654224,739.654224 C528.526523,738.781925 529.940799,738.781925 530.813098,739.654224 L539.5,748.341126 Z" id="Xmark-Copy-4" fill="#FF0030"></path>
            </g>
        </g>
    </g>
</svg>