<?xml version="1.0" encoding="UTF-8"?>
<svg width="661px" height="199px" viewBox="0 0 661 199" version="1.1" xmlns="http://www.w3.org/2000/svg" xmlns:xlink="http://www.w3.org/1999/xlink">
    <title>Group 2</title>
    <g id="_experiments" stroke="none" stroke-width="1" fill="none" fill-rule="evenodd">
        <g id="MICA-Phisher-Copy-5" transform="translate(-636.000000, -2786.000000)">
            <g id="Statistics-Image" transform="translate(636.000000, 2786.000000)">
                <g id="Group-2">
                    <rect id="Rectangle" fill="#FEDB00" x="0" y="0" width="661" height="199"></rect>
                    <path d="M531.75,118.75 C539.9,118.75 545.45,114.75 545.45,108.75 C545.45,104.15 543.3,100.95 539.45,99.55 C542.6,98.35 544.4,95.75 544.4,92.15 C544.4,86.45 539.05,82.25 531.8,82.25 C524.55,82.25 519.2,86.45 519.2,92.15 C519.2,95.75 521,98.35 524.15,99.55 C520.3,100.95 518.15,104.15 518.15,108.75 C518.15,114.75 523.55,118.75 531.75,118.75 Z M531.85,95.95 C529.05,95.9 527.65,94.8 527.65,92.75 C527.65,90.7 529.05,89.7 531.85,89.7 C534.6,89.7 536.05,90.8 536.05,92.75 C536.05,94.75 534.6,95.9 531.85,95.95 Z M531.85,110.9 C528.15,110.9 526.3,109.7 526.3,107.3 C526.3,104.75 528.15,103.45 531.85,103.45 C535.45,103.45 537.4,104.75 537.4,107.3 C537.4,109.7 535.55,110.9 531.85,110.9 Z M570.3,118.25 C572.85,118.25 574.4,116.6 574.4,113.95 L574.4,111.7 L576,111.7 C578.6,111.7 580.2,110.25 580.2,107.8 C580.2,105.45 578.6,104 576,104 L574.4,104 L574.4,87.45 C574.4,84.8 572.5,82.9 569.9,82.9 C568.25,82.9 567.4,83.4 565.85,85.05 L548.85,103.5 C547.6,104.85 547.2,105.85 547.2,107.2 C547.2,110 549,111.7 551.8,111.7 L566.15,111.7 L566.15,113.95 C566.15,116.55 567.75,118.25 570.3,118.25 Z M566.35,104.15 L557.75,104.15 L566.35,94.65 L566.35,104.15 Z M594.6,118.2 C596,118.2 596.8,117.65 597.55,116.6 L618.25,88.7 C618.9,87.8 619.2,86.95 619.2,86.1 C619.2,84.15 617.75,82.75 615.75,82.75 C614.35,82.75 613.55,83.3 612.8,84.35 L592.1,112.25 C591.45,113.15 591.15,114 591.15,114.85 C591.15,116.8 592.6,118.2 594.6,118.2 Z M592.6,102.65 C598.05,102.65 602,98.5 602,92.75 C602,87 598.05,82.85 592.6,82.85 C587.15,82.85 583.2,87 583.2,92.75 C583.2,98.5 587.15,102.65 592.6,102.65 Z M592.6,96.35 C590.85,96.35 590.15,95.3 590.15,92.75 C590.15,90.2 590.85,89.15 592.6,89.15 C594.35,89.15 595.05,90.2 595.05,92.75 C595.05,95.3 594.35,96.35 592.6,96.35 Z M617.85,118.15 C623.3,118.15 627.25,114 627.25,108.25 C627.25,102.5 623.3,98.35 617.85,98.35 C612.4,98.35 608.45,102.5 608.45,108.25 C608.45,114 612.4,118.15 617.85,118.15 Z M617.85,111.85 C616.1,111.85 615.4,110.8 615.4,108.25 C615.4,105.7 616.1,104.65 617.85,104.65 C619.6,104.65 620.3,105.7 620.3,108.25 C620.3,110.8 619.6,111.85 617.85,111.85 Z" id="84%" fill="#000000" fill-rule="nonzero"></path>
                    <path d="M39.85,118.25 C42.4,118.25 43.95,116.6 43.95,113.95 L43.95,86.7 C43.95,84.25 42.45,82.75 40,82.75 C38.35,82.75 37.3,83.35 35.3,85.7 C32.95,88.35 30.1,90.75 27.15,92.35 C25.4,93.3 24.75,94.4 24.75,96.15 C24.75,98.5 26.4,100.15 28.75,100.15 C29.55,100.15 30.25,100 30.9,99.65 C32.5,98.8 34.5,97.35 35.7,95.9 L35.7,113.95 C35.7,116.55 37.3,118.25 39.85,118.25 Z M75.3,118 C78.1,118 79.75,116.45 79.75,113.9 C79.75,111.35 78.1,109.8 75.3,109.8 L60.2,109.8 C60.2,108.25 61.15,107.45 64.1,106.65 C75.35,103.55 79,100.5 79,93.6 C79,86.9 73.5,82.25 65.6,82.25 C59.75,82.25 54.7,85.05 52.15,89.85 C51.6,90.9 51.35,91.95 51.35,93.1 C51.35,95.45 53.1,97.2 55.45,97.2 C57.25,97.2 58.75,96.3 59.3,94.75 C60.5,91.45 62.6,89.8 65.65,89.8 C68.65,89.8 70.5,91.2 70.5,93.45 C70.5,96.15 68.5,97.55 61.9,99.55 C54.15,101.8 50.95,105.95 50.95,113.5 C50.95,116.5 52.5,118 55.6,118 L75.3,118 Z M95.15,118.2 C96.55,118.2 97.35,117.65 98.1,116.6 L118.8,88.7 C119.45,87.8 119.75,86.95 119.75,86.1 C119.75,84.15 118.3,82.75 116.3,82.75 C114.9,82.75 114.1,83.3 113.35,84.35 L92.65,112.25 C92,113.15 91.7,114 91.7,114.85 C91.7,116.8 93.15,118.2 95.15,118.2 Z M93.15,102.65 C98.6,102.65 102.55,98.5 102.55,92.75 C102.55,87 98.6,82.85 93.15,82.85 C87.7,82.85 83.75,87 83.75,92.75 C83.75,98.5 87.7,102.65 93.15,102.65 Z M93.15,96.35 C91.4,96.35 90.7,95.3 90.7,92.75 C90.7,90.2 91.4,89.15 93.15,89.15 C94.9,89.15 95.6,90.2 95.6,92.75 C95.6,95.3 94.9,96.35 93.15,96.35 Z M118.4,118.15 C123.85,118.15 127.8,114 127.8,108.25 C127.8,102.5 123.85,98.35 118.4,98.35 C112.95,98.35 109,102.5 109,108.25 C109,114 112.95,118.15 118.4,118.15 Z M118.4,111.85 C116.65,111.85 115.95,110.8 115.95,108.25 C115.95,105.7 116.65,104.65 118.4,104.65 C120.15,104.65 120.85,105.7 120.85,108.25 C120.85,110.8 120.15,111.85 118.4,111.85 Z" id="12%" stroke="#000000" fill-opacity="0" fill="#000000" fill-rule="nonzero"></path>
                    <path d="M31.264,173 C31.936,173 32.332,172.628 32.332,172.016 C32.332,171.404 31.936,171.032 31.264,171.032 L27.64,171.032 C27.64,170.66 27.868,170.468 28.576,170.276 C31.276,169.532 32.152,168.8 32.152,167.144 C32.152,165.536 30.832,164.42 28.936,164.42 C27.532,164.42 26.32,165.092 25.708,166.244 C25.576,166.496 25.516,166.748 25.516,167.024 C25.516,167.588 25.936,168.008 26.5,168.008 C26.932,168.008 27.292,167.792 27.424,167.42 C27.712,166.628 28.216,166.232 28.948,166.232 C29.668,166.232 30.112,166.568 30.112,167.108 C30.112,167.756 29.632,168.092 28.048,168.572 C26.188,169.112 25.42,170.108 25.42,171.92 C25.42,172.64 25.792,173 26.536,173 L31.264,173 Z M37.94,173.18 C40.292,173.18 41.816,171.452 41.816,168.8 C41.816,166.112 40.292,164.42 37.94,164.42 C35.576,164.42 34.052,166.112 34.052,168.8 C34.052,171.452 35.576,173.18 37.94,173.18 Z M37.94,171.272 C36.776,171.272 36.104,170.372 36.104,168.8 C36.104,167.216 36.776,166.328 37.94,166.328 C39.092,166.328 39.764,167.216 39.764,168.8 C39.764,170.372 39.092,171.272 37.94,171.272 Z M46.848,173.06 C47.46,173.06 47.832,172.664 47.832,172.028 L47.832,165.488 C47.832,164.9 47.472,164.54 46.884,164.54 C46.488,164.54 46.236,164.684 45.756,165.248 C45.192,165.884 44.508,166.46 43.8,166.844 C43.38,167.072 43.224,167.336 43.224,167.756 C43.224,168.32 43.62,168.716 44.184,168.716 C44.376,168.716 44.544,168.68 44.7,168.596 C45.084,168.392 45.564,168.044 45.852,167.696 L45.852,172.028 C45.852,172.652 46.236,173.06 46.848,173.06 Z M54.244,173.18 C56.248,173.18 57.532,172.04 57.532,170.252 C57.532,168.644 56.284,167.456 54.592,167.456 C53.86,167.456 53.26,167.624 52.792,167.972 C52.876,166.88 53.368,166.34 54.292,166.34 C54.724,166.34 55.036,166.448 55.408,166.784 C55.648,166.988 55.9,167.096 56.176,167.096 C56.74,167.096 57.136,166.712 57.136,166.136 C57.136,165.908 57.064,165.728 56.884,165.5 C56.368,164.792 55.42,164.42 54.304,164.42 C52.048,164.42 50.512,166.256 50.512,168.956 C50.512,171.608 51.928,173.18 54.244,173.18 Z M54.172,171.26 C53.356,171.26 52.864,170.852 52.876,170.228 C52.888,169.556 53.392,169.148 54.208,169.148 C55.06,169.148 55.564,169.532 55.564,170.204 C55.564,170.864 55.036,171.26 54.172,171.26 Z" id="2016" fill="#292429" fill-rule="nonzero"></path>
                    <path d="M596.264,173 C596.936,173 597.332,172.628 597.332,172.016 C597.332,171.404 596.936,171.032 596.264,171.032 L592.64,171.032 C592.64,170.66 592.868,170.468 593.576,170.276 C596.276,169.532 597.152,168.8 597.152,167.144 C597.152,165.536 595.832,164.42 593.936,164.42 C592.532,164.42 591.32,165.092 590.708,166.244 C590.576,166.496 590.516,166.748 590.516,167.024 C590.516,167.588 590.936,168.008 591.5,168.008 C591.932,168.008 592.292,167.792 592.424,167.42 C592.712,166.628 593.216,166.232 593.948,166.232 C594.668,166.232 595.112,166.568 595.112,167.108 C595.112,167.756 594.632,168.092 593.048,168.572 C591.188,169.112 590.42,170.108 590.42,171.92 C590.42,172.64 590.792,173 591.536,173 L596.264,173 Z M602.94,173.18 C605.292,173.18 606.816,171.452 606.816,168.8 C606.816,166.112 605.292,164.42 602.94,164.42 C600.576,164.42 599.052,166.112 599.052,168.8 C599.052,171.452 600.576,173.18 602.94,173.18 Z M602.94,171.272 C601.776,171.272 601.104,170.372 601.104,168.8 C601.104,167.216 601.776,166.328 602.94,166.328 C604.092,166.328 604.764,167.216 604.764,168.8 C604.764,170.372 604.092,171.272 602.94,171.272 Z M611.848,173.06 C612.46,173.06 612.832,172.664 612.832,172.028 L612.832,165.488 C612.832,164.9 612.472,164.54 611.884,164.54 C611.488,164.54 611.236,164.684 610.756,165.248 C610.192,165.884 609.508,166.46 608.8,166.844 C608.38,167.072 608.224,167.336 608.224,167.756 C608.224,168.32 608.62,168.716 609.184,168.716 C609.376,168.716 609.544,168.68 609.7,168.596 C610.084,168.392 610.564,168.044 610.852,167.696 L610.852,172.028 C610.852,172.652 611.236,173.06 611.848,173.06 Z M618.704,173.18 C620.9,173.18 622.028,171.62 622.028,168.548 C622.028,166.052 620.66,164.42 618.596,164.42 C616.724,164.42 615.392,165.692 615.392,167.48 C615.392,169.088 616.64,170.204 618.44,170.204 C619.112,170.204 619.64,170.036 619.988,169.748 C619.928,170.768 619.52,171.272 618.764,171.272 C618.332,171.272 617.984,171.152 617.552,170.828 C617.3,170.648 617.048,170.552 616.82,170.552 C616.256,170.552 615.812,171.02 615.848,171.608 C615.86,171.884 615.98,172.136 616.22,172.352 C616.796,172.88 617.708,173.18 618.704,173.18 Z M618.644,168.464 C617.792,168.464 617.336,168.08 617.336,167.396 C617.336,166.676 617.816,166.196 618.632,166.196 C619.4,166.196 619.916,166.7 619.916,167.36 C619.916,168.08 619.46,168.464 618.644,168.464 Z" id="2019" fill="#292429" fill-rule="nonzero"></path>
                    <g id="Arrows" transform="translate(65.000000, 169.000000)" fill="#000000" fill-rule="nonzero">
                        <path id="Angled-Arrow" d="M489.745131,-4.93578777 L497.745131,-0.435787769 L498.519864,0 L497.745131,0.435787769 L489.745131,4.93578777 L489.254869,4.06421223 L495.591,0.5 L0,0.5 L0,-0.5 L495.591,-0.5 L489.254869,-4.06421223 L489.745131,-4.93578777 Z"></path>
                    </g>
                    <path d="M33.136,28.06 C33.712,28.06 34.132,27.64 34.132,27.076 C34.132,26.872 34.096,26.728 33.952,26.452 L30.628,20.26 C30.352,19.744 30.052,19.54 29.572,19.54 C29.056,19.54 28.78,19.732 28.504,20.248 L25.192,26.44 C25.048,26.716 25,26.872 25,27.076 C25,27.64 25.432,28.06 25.996,28.06 C26.392,28.06 26.716,27.844 26.944,27.412 L27.568,26.212 L31.576,26.212 L32.2,27.412 C32.428,27.844 32.74,28.06 33.136,28.06 Z M30.676,24.496 L28.468,24.496 L29.572,22.384 L30.676,24.496 Z M45.32,28.06 C45.932,28.06 46.292,27.688 46.292,27.076 C46.292,26.872 46.292,26.788 46.256,26.536 L45.332,20.5 C45.236,19.888 44.888,19.54 44.324,19.54 C43.892,19.54 43.616,19.732 43.34,20.308 L40.928,25.252 L38.504,20.32 C38.216,19.744 37.976,19.54 37.508,19.54 C36.98,19.54 36.608,19.876 36.524,20.488 L35.6,26.572 C35.564,26.8 35.552,26.872 35.552,27.076 C35.552,27.688 35.912,28.06 36.524,28.06 C37.064,28.06 37.4,27.748 37.484,27.22 L37.94,23.536 L39.932,27.34 C40.208,27.88 40.472,28.06 40.916,28.06 C41.396,28.06 41.66,27.868 41.936,27.34 L43.928,23.536 L44.384,27.22 C44.444,27.748 44.78,28.06 45.32,28.06 Z M54.552,28 C55.224,28 55.62,27.628 55.62,27.016 C55.62,26.404 55.212,26.02 54.552,26.02 L50.544,26.02 L50.544,24.724 L54.096,24.724 C54.768,24.724 55.104,24.412 55.104,23.788 C55.104,23.176 54.756,22.852 54.096,22.852 L50.544,22.852 L50.544,21.58 L54.528,21.58 C55.2,21.58 55.596,21.208 55.596,20.596 C55.596,19.984 55.188,19.6 54.528,19.6 L49.632,19.6 C48.828,19.6 48.432,20.008 48.432,20.812 L48.432,26.788 C48.432,27.592 48.84,28 49.644,28 L54.552,28 Z M64.396,28.06 C64.96,28.06 65.38,27.676 65.38,27.148 C65.38,26.824 65.272,26.62 65.032,26.344 L63.784,24.964 C64.84,24.568 65.416,23.68 65.416,22.384 C65.416,20.62 64.324,19.6 62.452,19.6 L58.66,19.6 C57.856,19.6 57.46,20.008 57.46,20.812 L57.46,26.92 C57.46,27.628 57.868,28.06 58.528,28.06 C59.164,28.06 59.572,27.628 59.572,26.92 L59.572,25.18 L61.252,25.18 L63.628,27.712 C63.856,27.952 64.072,28.06 64.396,28.06 Z M62.344,23.272 L59.572,23.272 L59.572,21.508 L62.344,21.508 C62.98,21.508 63.292,21.796 63.292,22.384 C63.292,22.948 62.932,23.272 62.344,23.272 Z M72.236,28 C72.92,28 73.316,27.64 73.316,27.016 C73.316,26.404 72.908,26.02 72.236,26.02 L71.168,26.02 L71.168,21.58 L72.116,21.58 C72.8,21.58 73.196,21.22 73.196,20.596 C73.196,19.984 72.788,19.6 72.116,19.6 L68.084,19.6 C67.424,19.6 67.016,19.984 67.016,20.596 C67.016,21.208 67.412,21.58 68.084,21.58 L69.044,21.58 L69.044,26.02 L67.964,26.02 C67.304,26.02 66.896,26.404 66.896,27.016 C66.896,27.628 67.292,28 67.964,28 L72.236,28 Z M78.852,28.18 C80.544,28.18 81.984,27.316 82.464,25.972 C82.524,25.792 82.548,25.684 82.548,25.504 C82.548,24.916 82.128,24.532 81.516,24.532 C81.096,24.532 80.868,24.688 80.628,25.12 C80.16,25.948 79.62,26.272 78.708,26.272 C77.376,26.272 76.488,25.276 76.488,23.8 C76.488,22.324 77.376,21.328 78.708,21.328 C79.62,21.328 80.16,21.64 80.628,22.468 C80.868,22.888 81.096,23.056 81.516,23.056 C82.128,23.056 82.536,22.672 82.536,22.084 C82.536,21.88 82.512,21.724 82.428,21.544 C81.948,20.344 80.52,19.42 78.852,19.42 C76.26,19.42 74.376,21.244 74.376,23.8 C74.376,26.356 76.26,28.18 78.852,28.18 Z M91.804,28.06 C92.38,28.06 92.8,27.64 92.8,27.076 C92.8,26.872 92.764,26.728 92.62,26.452 L89.296,20.26 C89.02,19.744 88.72,19.54 88.24,19.54 C87.724,19.54 87.448,19.732 87.172,20.248 L83.86,26.44 C83.716,26.716 83.668,26.872 83.668,27.076 C83.668,27.64 84.1,28.06 84.664,28.06 C85.06,28.06 85.384,27.844 85.612,27.412 L86.236,26.212 L90.244,26.212 L90.868,27.412 C91.096,27.844 91.408,28.06 91.804,28.06 Z M89.344,24.496 L87.136,24.496 L88.24,22.384 L89.344,24.496 Z M101.864,28.06 C102.572,28.06 102.98,27.616 102.98,26.884 L102.98,20.68 C102.98,19.972 102.572,19.54 101.912,19.54 C101.276,19.54 100.856,19.972 100.856,20.68 L100.856,24.58 L96.668,20.068 C96.332,19.696 96.02,19.54 95.636,19.54 C94.928,19.54 94.52,19.984 94.52,20.716 L94.52,26.92 C94.52,27.628 94.928,28.06 95.588,28.06 C96.224,28.06 96.644,27.628 96.644,26.92 L96.644,23.02 L100.832,27.532 C101.168,27.904 101.48,28.06 101.864,28.06 Z M109.2,28.18 C111.168,28.18 112.524,27.04 112.524,25.408 C112.524,23.44 110.568,23.08 109.068,22.792 C108.12,22.636 107.34,22.468 107.34,21.988 C107.34,21.556 107.844,21.268 108.576,21.268 C109.248,21.268 109.776,21.508 110.34,22.084 C110.616,22.36 110.832,22.468 111.156,22.468 C111.732,22.468 112.164,22.06 112.164,21.52 C112.164,21.328 112.104,21.136 111.996,20.944 C111.456,20.056 110.088,19.42 108.648,19.42 C106.728,19.42 105.336,20.5 105.336,21.988 C105.336,23.98 107.196,24.304 108.684,24.592 C109.68,24.784 110.508,24.904 110.508,25.492 C110.508,26.008 110.04,26.308 109.224,26.308 C108.252,26.308 107.592,25.984 107.16,25.264 C106.884,24.82 106.56,24.64 106.116,24.64 C105.528,24.64 105.06,25.072 105.06,25.636 C105.06,25.864 105.12,26.056 105.252,26.308 C105.864,27.472 107.388,28.18 109.2,28.18 Z M122.468,28.18 C124.928,28.18 126.404,26.8 126.404,24.448 L126.404,20.68 C126.404,19.972 125.996,19.54 125.36,19.54 C124.7,19.54 124.292,19.972 124.292,20.68 L124.292,24.376 C124.292,25.48 123.728,26.248 122.468,26.248 C121.208,26.248 120.656,25.48 120.656,24.376 L120.656,20.68 C120.656,19.972 120.248,19.54 119.612,19.54 C118.952,19.54 118.544,19.972 118.544,20.68 L118.544,24.448 C118.544,26.8 119.996,28.18 122.468,28.18 Z M132.324,28.18 C134.292,28.18 135.648,27.04 135.648,25.408 C135.648,23.44 133.692,23.08 132.192,22.792 C131.244,22.636 130.464,22.468 130.464,21.988 C130.464,21.556 130.968,21.268 131.7,21.268 C132.372,21.268 132.9,21.508 133.464,22.084 C133.74,22.36 133.956,22.468 134.28,22.468 C134.856,22.468 135.288,22.06 135.288,21.52 C135.288,21.328 135.228,21.136 135.12,20.944 C134.58,20.056 133.212,19.42 131.772,19.42 C129.852,19.42 128.46,20.5 128.46,21.988 C128.46,23.98 130.32,24.304 131.808,24.592 C132.804,24.784 133.632,24.904 133.632,25.492 C133.632,26.008 133.164,26.308 132.348,26.308 C131.376,26.308 130.716,25.984 130.284,25.264 C130.008,24.82 129.684,24.64 129.24,24.64 C128.652,24.64 128.184,25.072 128.184,25.636 C128.184,25.864 128.244,26.056 128.376,26.308 C128.988,27.472 130.512,28.18 132.324,28.18 Z M142.108,28 C142.792,28 143.188,27.64 143.188,27.016 C143.188,26.404 142.78,26.02 142.108,26.02 L141.04,26.02 L141.04,21.58 L141.988,21.58 C142.672,21.58 143.068,21.22 143.068,20.596 C143.068,19.984 142.66,19.6 141.988,19.6 L137.956,19.6 C137.296,19.6 136.888,19.984 136.888,20.596 C136.888,21.208 137.284,21.58 137.956,21.58 L138.916,21.58 L138.916,26.02 L137.836,26.02 C137.176,26.02 136.768,26.404 136.768,27.016 C136.768,27.628 137.164,28 137.836,28 L142.108,28 Z M152.432,28.06 C153.14,28.06 153.548,27.616 153.548,26.884 L153.548,20.68 C153.548,19.972 153.14,19.54 152.48,19.54 C151.844,19.54 151.424,19.972 151.424,20.68 L151.424,24.58 L147.236,20.068 C146.9,19.696 146.588,19.54 146.204,19.54 C145.496,19.54 145.088,19.984 145.088,20.716 L145.088,26.92 C145.088,27.628 145.496,28.06 146.156,28.06 C146.792,28.06 147.212,27.628 147.212,26.92 L147.212,23.02 L151.4,27.532 C151.736,27.904 152.048,28.06 152.432,28.06 Z M159.852,28.18 C162.216,28.18 163.8,26.728 163.8,24.556 C163.8,23.788 163.512,23.464 162.84,23.464 L159.84,23.464 C159.18,23.464 158.844,23.776 158.844,24.388 C158.844,25 159.18,25.3 159.84,25.3 L161.676,25.3 C161.4,26.008 160.896,26.272 159.852,26.272 C158.448,26.272 157.62,25.372 157.62,23.8 C157.62,22.324 158.496,21.328 159.78,21.328 C160.692,21.328 161.232,21.64 161.7,22.468 C161.94,22.888 162.168,23.056 162.588,23.056 C163.2,23.056 163.608,22.672 163.608,22.084 C163.608,21.88 163.584,21.724 163.5,21.544 C163.02,20.344 161.592,19.42 159.924,19.42 C157.332,19.42 155.508,21.22 155.508,23.8 C155.508,26.452 157.212,28.18 159.852,28.18 Z M170.948,28.072 C171.584,28.072 171.992,27.64 171.992,26.932 L171.992,25.18 L174.68,25.18 C176.552,25.18 177.644,24.148 177.644,22.384 C177.644,20.62 176.564,19.6 174.68,19.6 L171.08,19.6 C170.276,19.6 169.88,20.008 169.88,20.812 L169.88,26.932 C169.88,27.64 170.288,28.072 170.948,28.072 Z M174.572,23.272 L171.992,23.272 L171.992,21.508 L174.572,21.508 C175.208,21.508 175.532,21.796 175.532,22.384 C175.532,22.948 175.184,23.272 174.572,23.272 Z M185.844,28.06 C186.42,28.06 186.84,27.64 186.84,27.076 C186.84,26.872 186.804,26.728 186.66,26.452 L183.336,20.26 C183.06,19.744 182.76,19.54 182.28,19.54 C181.764,19.54 181.488,19.732 181.212,20.248 L177.9,26.44 C177.756,26.716 177.708,26.872 177.708,27.076 C177.708,27.64 178.14,28.06 178.704,28.06 C179.1,28.06 179.424,27.844 179.652,27.412 L180.276,26.212 L184.284,26.212 L184.908,27.412 C185.136,27.844 185.448,28.06 185.844,28.06 Z M183.384,24.496 L181.176,24.496 L182.28,22.384 L183.384,24.496 Z M192.1,28.18 C194.068,28.18 195.424,27.04 195.424,25.408 C195.424,23.44 193.468,23.08 191.968,22.792 C191.02,22.636 190.24,22.468 190.24,21.988 C190.24,21.556 190.744,21.268 191.476,21.268 C192.148,21.268 192.676,21.508 193.24,22.084 C193.516,22.36 193.732,22.468 194.056,22.468 C194.632,22.468 195.064,22.06 195.064,21.52 C195.064,21.328 195.004,21.136 194.896,20.944 C194.356,20.056 192.988,19.42 191.548,19.42 C189.628,19.42 188.236,20.5 188.236,21.988 C188.236,23.98 190.096,24.304 191.584,24.592 C192.58,24.784 193.408,24.904 193.408,25.492 C193.408,26.008 192.94,26.308 192.124,26.308 C191.152,26.308 190.492,25.984 190.06,25.264 C189.784,24.82 189.46,24.64 189.016,24.64 C188.428,24.64 187.96,25.072 187.96,25.636 C187.96,25.864 188.02,26.056 188.152,26.308 C188.764,27.472 190.288,28.18 192.1,28.18 Z M201.104,28.18 C203.072,28.18 204.428,27.04 204.428,25.408 C204.428,23.44 202.472,23.08 200.972,22.792 C200.024,22.636 199.244,22.468 199.244,21.988 C199.244,21.556 199.748,21.268 200.48,21.268 C201.152,21.268 201.68,21.508 202.244,22.084 C202.52,22.36 202.736,22.468 203.06,22.468 C203.636,22.468 204.068,22.06 204.068,21.52 C204.068,21.328 204.008,21.136 203.9,20.944 C203.36,20.056 201.992,19.42 200.552,19.42 C198.632,19.42 197.24,20.5 197.24,21.988 C197.24,23.98 199.1,24.304 200.588,24.592 C201.584,24.784 202.412,24.904 202.412,25.492 C202.412,26.008 201.944,26.308 201.128,26.308 C200.156,26.308 199.496,25.984 199.064,25.264 C198.788,24.82 198.464,24.64 198.02,24.64 C197.432,24.64 196.964,25.072 196.964,25.636 C196.964,25.864 197.024,26.056 197.156,26.308 C197.768,27.472 199.292,28.18 201.104,28.18 Z M213.732,28.06 C214.224,28.06 214.56,27.772 214.74,27.208 L216.66,20.968 C216.72,20.812 216.744,20.644 216.744,20.476 C216.744,19.936 216.348,19.54 215.772,19.54 C215.256,19.54 214.932,19.804 214.776,20.32 L213.636,24.292 L212.196,20.248 C212.016,19.78 211.692,19.54 211.2,19.54 C210.732,19.54 210.372,19.78 210.216,20.248 L208.776,24.292 L207.624,20.32 C207.468,19.804 207.144,19.54 206.628,19.54 C206.064,19.54 205.668,19.936 205.668,20.476 C205.668,20.632 205.692,20.8 205.752,20.98 L207.672,27.208 C207.852,27.772 208.188,28.06 208.668,28.06 C209.16,28.06 209.496,27.82 209.652,27.34 L211.212,22.864 L212.76,27.34 C212.916,27.82 213.24,28.06 213.732,28.06 Z M222.388,28.18 C225.04,28.18 226.852,26.404 226.852,23.776 C226.852,21.28 224.944,19.42 222.388,19.42 C219.82,19.42 217.924,21.256 217.924,23.764 C217.924,26.404 219.712,28.18 222.388,28.18 Z M222.388,26.272 C220.936,26.272 220.036,25.312 220.036,23.764 C220.036,22.288 220.972,21.328 222.388,21.328 C223.78,21.328 224.728,22.3 224.728,23.776 C224.728,25.324 223.84,26.272 222.388,26.272 Z M235.748,28.06 C236.312,28.06 236.732,27.676 236.732,27.148 C236.732,26.824 236.624,26.62 236.384,26.344 L235.136,24.964 C236.192,24.568 236.768,23.68 236.768,22.384 C236.768,20.62 235.676,19.6 233.804,19.6 L230.012,19.6 C229.208,19.6 228.812,20.008 228.812,20.812 L228.812,26.92 C228.812,27.628 229.22,28.06 229.88,28.06 C230.516,28.06 230.924,27.628 230.924,26.92 L230.924,25.18 L232.604,25.18 L234.98,27.712 C235.208,27.952 235.424,28.06 235.748,28.06 Z M233.696,23.272 L230.924,23.272 L230.924,21.508 L233.696,21.508 C234.332,21.508 234.644,21.796 234.644,22.384 C234.644,22.948 234.284,23.272 233.696,23.272 Z M243.036,28 C245.424,28 247.212,26.224 247.212,23.8 C247.212,21.4 245.436,19.6 243.072,19.6 L240.168,19.6 C239.268,19.6 238.908,19.972 238.908,20.872 L238.908,26.728 C238.908,27.628 239.28,28 240.18,28 L243.036,28 Z M242.868,26.092 L241.02,26.092 L241.02,21.508 L242.904,21.508 C244.284,21.508 245.088,22.348 245.088,23.8 C245.088,25.252 244.296,26.092 242.868,26.092 Z M262.82,28.06 C263.432,28.06 263.792,27.688 263.792,27.076 C263.792,26.872 263.792,26.788 263.756,26.536 L262.832,20.5 C262.736,19.888 262.388,19.54 261.824,19.54 C261.392,19.54 261.116,19.732 260.84,20.308 L258.428,25.252 L256.004,20.32 C255.716,19.744 255.476,19.54 255.008,19.54 C254.48,19.54 254.108,19.876 254.024,20.488 L253.1,26.572 C253.064,26.8 253.052,26.872 253.052,27.076 C253.052,27.688 253.412,28.06 254.024,28.06 C254.564,28.06 254.9,27.748 254.984,27.22 L255.44,23.536 L257.432,27.34 C257.708,27.88 257.972,28.06 258.416,28.06 C258.896,28.06 259.16,27.868 259.436,27.34 L261.428,23.536 L261.884,27.22 C261.944,27.748 262.28,28.06 262.82,28.06 Z M273.348,28.06 C273.924,28.06 274.344,27.64 274.344,27.076 C274.344,26.872 274.308,26.728 274.164,26.452 L270.84,20.26 C270.564,19.744 270.264,19.54 269.784,19.54 C269.268,19.54 268.992,19.732 268.716,20.248 L265.404,26.44 C265.26,26.716 265.212,26.872 265.212,27.076 C265.212,27.64 265.644,28.06 266.208,28.06 C266.604,28.06 266.928,27.844 267.156,27.412 L267.78,26.212 L271.788,26.212 L272.412,27.412 C272.64,27.844 272.952,28.06 273.348,28.06 Z M270.888,24.496 L268.68,24.496 L269.784,22.384 L270.888,24.496 Z M283.408,28.06 C284.116,28.06 284.524,27.616 284.524,26.884 L284.524,20.68 C284.524,19.972 284.116,19.54 283.456,19.54 C282.82,19.54 282.4,19.972 282.4,20.68 L282.4,24.58 L278.212,20.068 C277.876,19.696 277.564,19.54 277.18,19.54 C276.472,19.54 276.064,19.984 276.064,20.716 L276.064,26.92 C276.064,27.628 276.472,28.06 277.132,28.06 C277.768,28.06 278.188,27.628 278.188,26.92 L278.188,23.02 L282.376,27.532 C282.712,27.904 283.024,28.06 283.408,28.06 Z M294.38,28.06 C294.956,28.06 295.376,27.64 295.376,27.076 C295.376,26.872 295.34,26.728 295.196,26.452 L291.872,20.26 C291.596,19.744 291.296,19.54 290.816,19.54 C290.3,19.54 290.024,19.732 289.748,20.248 L286.436,26.44 C286.292,26.716 286.244,26.872 286.244,27.076 C286.244,27.64 286.676,28.06 287.24,28.06 C287.636,28.06 287.96,27.844 288.188,27.412 L288.812,26.212 L292.82,26.212 L293.444,27.412 C293.672,27.844 293.984,28.06 294.38,28.06 Z M291.92,24.496 L289.712,24.496 L290.816,22.384 L291.92,24.496 Z M300.48,28.18 C302.844,28.18 304.428,26.728 304.428,24.556 C304.428,23.788 304.14,23.464 303.468,23.464 L300.468,23.464 C299.808,23.464 299.472,23.776 299.472,24.388 C299.472,25 299.808,25.3 300.468,25.3 L302.304,25.3 C302.028,26.008 301.524,26.272 300.48,26.272 C299.076,26.272 298.248,25.372 298.248,23.8 C298.248,22.324 299.124,21.328 300.408,21.328 C301.32,21.328 301.86,21.64 302.328,22.468 C302.568,22.888 302.796,23.056 303.216,23.056 C303.828,23.056 304.236,22.672 304.236,22.084 C304.236,21.88 304.212,21.724 304.128,21.544 C303.648,20.344 302.22,19.42 300.552,19.42 C297.96,19.42 296.136,21.22 296.136,23.8 C296.136,26.452 297.84,28.18 300.48,28.18 Z M312.448,28 C313.12,28 313.516,27.628 313.516,27.016 C313.516,26.404 313.108,26.02 312.448,26.02 L308.44,26.02 L308.44,24.724 L311.992,24.724 C312.664,24.724 313,24.412 313,23.788 C313,23.176 312.652,22.852 311.992,22.852 L308.44,22.852 L308.44,21.58 L312.424,21.58 C313.096,21.58 313.492,21.208 313.492,20.596 C313.492,19.984 313.084,19.6 312.424,19.6 L307.528,19.6 C306.724,19.6 306.328,20.008 306.328,20.812 L306.328,26.788 C306.328,27.592 306.736,28 307.54,28 L312.448,28 Z M322.292,28.06 C322.856,28.06 323.276,27.676 323.276,27.148 C323.276,26.824 323.168,26.62 322.928,26.344 L321.68,24.964 C322.736,24.568 323.312,23.68 323.312,22.384 C323.312,20.62 322.22,19.6 320.348,19.6 L316.556,19.6 C315.752,19.6 315.356,20.008 315.356,20.812 L315.356,26.92 C315.356,27.628 315.764,28.06 316.424,28.06 C317.06,28.06 317.468,27.628 317.468,26.92 L317.468,25.18 L319.148,25.18 L321.524,27.712 C321.752,27.952 321.968,28.06 322.292,28.06 Z M320.24,23.272 L317.468,23.272 L317.468,21.508 L320.24,21.508 C320.876,21.508 321.188,21.796 321.188,22.384 C321.188,22.948 320.828,23.272 320.24,23.272 Z M328.992,28.18 C330.96,28.18 332.316,27.04 332.316,25.408 C332.316,23.44 330.36,23.08 328.86,22.792 C327.912,22.636 327.132,22.468 327.132,21.988 C327.132,21.556 327.636,21.268 328.368,21.268 C329.04,21.268 329.568,21.508 330.132,22.084 C330.408,22.36 330.624,22.468 330.948,22.468 C331.524,22.468 331.956,22.06 331.956,21.52 C331.956,21.328 331.896,21.136 331.788,20.944 C331.248,20.056 329.88,19.42 328.44,19.42 C326.52,19.42 325.128,20.5 325.128,21.988 C325.128,23.98 326.988,24.304 328.476,24.592 C329.472,24.784 330.3,24.904 330.3,25.492 C330.3,26.008 329.832,26.308 329.016,26.308 C328.044,26.308 327.384,25.984 326.952,25.264 C326.676,24.82 326.352,24.64 325.908,24.64 C325.32,24.64 324.852,25.072 324.852,25.636 C324.852,25.864 324.912,26.056 325.044,26.308 C325.656,27.472 327.18,28.18 328.992,28.18 Z" id="AMERICANSUSINGPASSWORDMANAGERS" fill="#292429" fill-rule="nonzero"></path>
                </g>
            </g>
        </g>
    </g>
</svg>