<svg xmlns="http://www.w3.org/2000/svg" width="147.57" height="45.05" viewBox="0 0 147.57 45.05"><defs><style>.ea386fb5-2a64-49ed-9ea1-656e1b775098{fill:#010101;}.e15d2596-a44c-40b0-b58a-d1cab627daf1{fill:#231f20;}</style></defs><title>Asset 6</title><g id="eaba29e0-0815-4372-85e2-262c23bfa5a9" data-name="Layer 2"><g id="a3d3dfb1-da55-441f-8704-73d36e071ae2" data-name="Layer 1"><path class="ea386fb5-2a64-49ed-9ea1-656e1b775098" d="M37.85,18.64a1,1,0,1,0-1.55,1.21,1.16,1.16,0,0,1,0,1.43,21.58,21.58,0,0,1-9,6.79,11,11,0,0,0,0-15,21.57,21.57,0,0,1,5.62,3.32l.63.53A1,1,0,0,0,35,16.86a1,1,0,0,0-.08-1.39l-.68-.58A23.58,23.58,0,0,0,.66,18.64a3.14,3.14,0,0,0,0,3.85,23.58,23.58,0,0,0,37.19,0A3.14,3.14,0,0,0,37.85,18.64ZM2.21,21.28a1.16,1.16,0,0,1,0-1.43,21.52,21.52,0,0,1,9-6.79,11,11,0,0,0,0,15A21.52,21.52,0,0,1,2.21,21.28Zm17.06,8.33h0a9,9,0,0,1,0-18.09h0a9,9,0,0,1,0,18.09Z"/><path class="ea386fb5-2a64-49ed-9ea1-656e1b775098" d="M19.26,16.4a4.17,4.17,0,1,0,4.16,4.16A4.17,4.17,0,0,0,19.26,16.4Zm0,6.37a2.21,2.21,0,1,1,2.2-2.21A2.21,2.21,0,0,1,19.26,22.77Z"/><path class="ea386fb5-2a64-49ed-9ea1-656e1b775098" d="M19.26,0a1,1,0,0,0-1,1V4.66a1,1,0,0,0,2,0V1A1,1,0,0,0,19.26,0Z"/><path class="ea386fb5-2a64-49ed-9ea1-656e1b775098" d="M33.8,6a1,1,0,0,0-1.39,0L30.58,7.85a1,1,0,0,0,.69,1.68,1,1,0,0,0,.7-.29L33.8,7.41A1,1,0,0,0,33.8,6Z"/><path class="ea386fb5-2a64-49ed-9ea1-656e1b775098" d="M7.93,7.85,6.1,6A1,1,0,1,0,4.71,7.41L6.55,9.24A1,1,0,1,0,7.93,7.85Z"/><path class="e15d2596-a44c-40b0-b58a-d1cab627daf1" d="M69.28,16.88V29.77a1.82,1.82,0,0,1-.6,1.36,2,2,0,0,1-2.84,0,1.82,1.82,0,0,1-.6-1.36V23.32H53.44v6.45a1.82,1.82,0,0,1-.6,1.36,1.94,1.94,0,0,1-1.42.58A2,2,0,0,1,50,31.15a1.86,1.86,0,0,1-.58-1.38V16.88A10.09,10.09,0,0,1,52.72,9a9.34,9.34,0,0,1,6.62-2.45A9.34,9.34,0,0,1,66,9,10,10,0,0,1,69.28,16.88Zm-9.94-6.63A5.54,5.54,0,0,0,55.16,12a7.32,7.32,0,0,0-1.72,5.11v2.7h11.8v-2.7A7.4,7.4,0,0,0,63.55,12,5.56,5.56,0,0,0,59.34,10.25Z"/><path class="e15d2596-a44c-40b0-b58a-d1cab627daf1" d="M82.24,26.49,89.32,7.88a2,2,0,0,1,2-1.37,2.07,2.07,0,0,1,1.45.54,1.79,1.79,0,0,1,.6,1.4,2.08,2.08,0,0,1-.18.79L85.06,29.61a2.92,2.92,0,0,1-2.82,2.1,2.88,2.88,0,0,1-2.88-2.09l-8-20.37a2.62,2.62,0,0,1-.14-.76,1.89,1.89,0,0,1,.59-1.4,2.06,2.06,0,0,1,1.5-.58,1.91,1.91,0,0,1,1.94,1.4Z"/><path class="e15d2596-a44c-40b0-b58a-d1cab627daf1" d="M114.82,16.88V29.77a1.82,1.82,0,0,1-.6,1.36,2,2,0,0,1-2.84,0,1.82,1.82,0,0,1-.6-1.36V23.32H99v6.45a1.82,1.82,0,0,1-.6,1.36,1.94,1.94,0,0,1-1.42.58,2,2,0,0,1-1.44-.56,1.86,1.86,0,0,1-.58-1.38V16.88A10.09,10.09,0,0,1,98.26,9,10.17,10.17,0,0,1,111.5,9,10,10,0,0,1,114.82,16.88Zm-9.94-6.63A5.54,5.54,0,0,0,100.7,12,7.32,7.32,0,0,0,99,17.06v2.7h11.8v-2.7A7.4,7.4,0,0,0,109.09,12,5.56,5.56,0,0,0,104.88,10.25Z"/><path class="e15d2596-a44c-40b0-b58a-d1cab627daf1" d="M119.89,9a2.43,2.43,0,0,1,2.52-2.45,2.39,2.39,0,0,1,2.21,1.25L132.4,20.9l7.82-13.09a2.28,2.28,0,0,1,2.14-1.3A2.44,2.44,0,0,1,144.88,9V29.84a1.78,1.78,0,0,1-.56,1.33,2,2,0,0,1-1.42.54,1.91,1.91,0,0,1-1.41-.54,1.8,1.8,0,0,1-.54-1.33v-16l-6.6,10.9a2.19,2.19,0,0,1-2,1.23,2.21,2.21,0,0,1-2-1.22l-6.58-10.91v16a1.78,1.78,0,0,1-.56,1.33,2,2,0,0,1-1.42.54,1.91,1.91,0,0,1-1.39-.54,1.78,1.78,0,0,1-.56-1.33Z"/><path class="e15d2596-a44c-40b0-b58a-d1cab627daf1" d="M2.58,38.8h.77L5.89,45H5l-.69-1.71H1.56L.87,45H0Zm-.74,3.73H4.05l-.5-1.27c-.19-.5-.4-1-.58-1.53H3c-.19.51-.39,1-.6,1.55Z"/><path class="e15d2596-a44c-40b0-b58a-d1cab627daf1" d="M8.23,41.36c-.28-.4-.55-.81-.83-1.22h0c0,.37,0,.83,0,1.33V45H6.62V38.8H7.4l2.19,3.13,2.18-3.13h.78V45h-.81V41.48c0-.5,0-1,0-1.33h0c-.27.41-.55.82-.83,1.22L9.57,43.28Z"/><path class="e15d2596-a44c-40b0-b58a-d1cab627daf1" d="M13.92,38.8h3.56v.73H14.73V41.4h2.41v.71H14.73v2.11h2.82V45H13.92Z"/><path class="e15d2596-a44c-40b0-b58a-d1cab627daf1" d="M18.61,38.8h1.66a3.37,3.37,0,0,1,1.72.31,1.55,1.55,0,0,1,.85,1.43A1.64,1.64,0,0,1,22.05,42a1.94,1.94,0,0,1-.71.25l2,2.71h-1l-1.88-2.63H19.41V45h-.8Zm1.85,2.85a1.91,1.91,0,0,0,1.21-.28.89.89,0,0,0,.36-.76,1,1,0,0,0-.5-.88,2.84,2.84,0,0,0-1.32-.2h-.8v2.12Z"/><path class="e15d2596-a44c-40b0-b58a-d1cab627daf1" d="M24.1,38.8h.81V45H24.1Z"/><path class="e15d2596-a44c-40b0-b58a-d1cab627daf1" d="M29.15,38.71a3.58,3.58,0,0,1,1.73.43V40a3,3,0,0,0-1.74-.57,2.43,2.43,0,0,0,.07,4.85A2.75,2.75,0,0,0,31,43.68v.89a3.49,3.49,0,0,1-1.81.48,3.17,3.17,0,1,1,0-6.34Z"/><path class="e15d2596-a44c-40b0-b58a-d1cab627daf1" d="M34,38.8h.77L37.27,45h-.86l-.69-1.71H33L32.25,45h-.82Zm-.73,3.73h2.21l-.5-1.27c-.2-.5-.4-1-.59-1.53h0c-.19.51-.39,1-.6,1.55Z"/><path class="e15d2596-a44c-40b0-b58a-d1cab627daf1" d="M38,45V38.8h.77l2.57,3.42c.36.46.72,1,1.07,1.43h0c0-.53,0-1.15,0-1.75V38.8h.78V45h-.77l-2.57-3.41c-.36-.47-.72-1-1.06-1.44h0c0,.53,0,1.15,0,1.75V45Z"/><path class="e15d2596-a44c-40b0-b58a-d1cab627daf1" d="M46,38.8h.86l1.31,3.45c.21.53.4,1.06.61,1.63h0l.62-1.66,1.32-3.42h.83L49.17,45h-.82Z"/><path class="e15d2596-a44c-40b0-b58a-d1cab627daf1" d="M52.27,38.8h.8V45h-.8Z"/><path class="e15d2596-a44c-40b0-b58a-d1cab627daf1" d="M54.31,43.69a3.19,3.19,0,0,0,1.83.62c.73,0,1.25-.34,1.25-1s-.72-.92-1.53-1.15-1.71-.61-1.71-1.73.79-1.71,2-1.71a3.51,3.51,0,0,1,1.77.45V40a3.3,3.3,0,0,0-1.78-.57c-.69,0-1.18.3-1.18.93s.72.89,1.47,1.11,1.77.61,1.77,1.78-.82,1.79-2.06,1.79a3.88,3.88,0,0,1-1.82-.47Z"/><path class="e15d2596-a44c-40b0-b58a-d1cab627daf1" d="M59.22,38.8H60V45h-.81Z"/><path class="e15d2596-a44c-40b0-b58a-d1cab627daf1" d="M64.18,38.71a3.17,3.17,0,1,1-3.12,3.17A3.09,3.09,0,0,1,64.18,38.71Zm0,5.59a2.43,2.43,0,1,0-2.32-2.42A2.32,2.32,0,0,0,64.18,44.3Z"/><path class="e15d2596-a44c-40b0-b58a-d1cab627daf1" d="M68.34,45V38.8h.77l2.57,3.42c.36.46.72,1,1.06,1.43h0c0-.53,0-1.15,0-1.75V38.8h.79V45h-.77l-2.57-3.41c-.36-.47-.72-1-1.07-1.44h0c0,.53,0,1.15,0,1.75V45Z"/><path class="e15d2596-a44c-40b0-b58a-d1cab627daf1" d="M76.79,38.8h.77L80.1,45h-.86l-.69-1.71H75.78L75.08,45h-.82Zm-.73,3.73h2.21l-.5-1.27c-.2-.5-.4-1-.59-1.53h0c-.18.51-.39,1-.6,1.55Z"/><path class="e15d2596-a44c-40b0-b58a-d1cab627daf1" d="M80.84,38.8H82.5a3.37,3.37,0,0,1,1.72.31,1.55,1.55,0,0,1,.85,1.43A1.64,1.64,0,0,1,84.28,42a1.94,1.94,0,0,1-.71.25l2,2.71h-1l-1.88-2.63h-1V45h-.8Zm1.85,2.85a1.91,1.91,0,0,0,1.21-.28.89.89,0,0,0,.36-.76,1,1,0,0,0-.5-.88,2.84,2.84,0,0,0-1.32-.2h-.8v2.12Z"/><path class="e15d2596-a44c-40b0-b58a-d1cab627daf1" d="M87.8,42.17,85.43,38.8h.93l1,1.5.8,1.18h0l.8-1.19,1-1.49H91l-2.35,3.36V45H87.8Z"/><path class="e15d2596-a44c-40b0-b58a-d1cab627daf1" d="M95.61,38.8h.77L98.92,45h-.86l-.69-1.71H94.6L93.9,45h-.82Zm-.73,3.73h2.21l-.5-1.27c-.2-.5-.4-1-.59-1.53h0c-.18.51-.39,1-.6,1.55Z"/><path class="e15d2596-a44c-40b0-b58a-d1cab627daf1" d="M99.66,38.8h1.66a3.37,3.37,0,0,1,1.72.31,1.55,1.55,0,0,1,.85,1.43A1.64,1.64,0,0,1,103.1,42a1.94,1.94,0,0,1-.71.25l2,2.71h-1l-1.88-2.63h-1.05V45h-.8Zm1.85,2.85a1.93,1.93,0,0,0,1.21-.28.92.92,0,0,0,.36-.76,1,1,0,0,0-.5-.88,2.84,2.84,0,0,0-1.32-.2h-.8v2.12Z"/><path class="e15d2596-a44c-40b0-b58a-d1cab627daf1" d="M106.69,39.53h-2.06V38.8h4.94v.73H107.5V45h-.81Z"/><path class="e15d2596-a44c-40b0-b58a-d1cab627daf1" d="M114.09,41.36c-.28-.4-.55-.81-.83-1.22h0c0,.37,0,.83,0,1.33V45h-.78V38.8h.78l2.19,3.13,2.18-3.13h.78V45h-.81V41.48c0-.5,0-1,0-1.33h0c-.27.41-.55.82-.83,1.22l-1.34,1.92Z"/><path class="e15d2596-a44c-40b0-b58a-d1cab627daf1" d="M119.72,42.05V38.8h.8V42a3.43,3.43,0,0,0,.24,1.59,1.52,1.52,0,0,0,1.46.74,1.5,1.5,0,0,0,1.45-.74A3.49,3.49,0,0,0,123.9,42V38.8h.78V42a3.8,3.8,0,0,1-.41,2.13,2.72,2.72,0,0,1-4.15,0A3.82,3.82,0,0,1,119.72,42.05Z"/><path class="e15d2596-a44c-40b0-b58a-d1cab627daf1" d="M125.84,43.69a3.22,3.22,0,0,0,1.84.62c.73,0,1.25-.34,1.25-1s-.72-.92-1.53-1.15-1.71-.61-1.71-1.73.79-1.71,2-1.71a3.53,3.53,0,0,1,1.77.45V40a3.3,3.3,0,0,0-1.79-.57c-.69,0-1.17.3-1.17.93s.71.89,1.46,1.11,1.78.61,1.78,1.78-.83,1.79-2.06,1.79a4,4,0,0,1-1.83-.47Z"/><path class="e15d2596-a44c-40b0-b58a-d1cab627daf1" d="M130.76,38.8h3.55v.73h-2.75V41.4H134v.71h-2.41v2.11h2.83V45h-3.63Z"/><path class="e15d2596-a44c-40b0-b58a-d1cab627daf1" d="M135.37,42.05V38.8h.81V42a3.43,3.43,0,0,0,.24,1.59,1.51,1.51,0,0,0,1.46.74,1.47,1.47,0,0,0,1.44-.74,3.35,3.35,0,0,0,.23-1.56V38.8h.79V42a3.89,3.89,0,0,1-.41,2.13,2.72,2.72,0,0,1-4.15,0A3.73,3.73,0,0,1,135.37,42.05Z"/><path class="e15d2596-a44c-40b0-b58a-d1cab627daf1" d="M143.25,41.36c-.28-.4-.55-.81-.82-1.22h0c0,.37,0,.83,0,1.33V45h-.78V38.8h.78l2.18,3.13,2.19-3.13h.77V45h-.81V41.48c0-.5,0-1,0-1.33h0c-.27.41-.54.82-.82,1.22l-1.35,1.92Z"/></g></g></svg>