<svg xmlns="http://www.w3.org/2000/svg" width="705.74" height="705.83" viewBox="0 0 705.74 705.83"><defs><style>.a3ba9962-45ba-43e4-abff-f74ad4270438{fill:#f1753a;}.a3ba9962-45ba-43e4-abff-f74ad4270438,.a55a0c09-ec18-4728-a3c3-43b3593df768,.adb79b4b-945a-4ab3-a501-7e3c7a488943,.b7cf672d-cb5f-4663-958b-e0432bade3d2,.ec47272d-0984-489f-8004-c318565a716f,.f5b9c7a5-09bb-4c15-9342-19094e8f1574{stroke:#fff;stroke-miterlimit:10;}.a3ba9962-45ba-43e4-abff-f74ad4270438,.b7cf672d-cb5f-4663-958b-e0432bade3d2,.ec47272d-0984-489f-8004-c318565a716f{stroke-width:0.5px;}.adb79b4b-945a-4ab3-a501-7e3c7a488943,.ec47272d-0984-489f-8004-c318565a716f{fill:#f7c84a;}.a55a0c09-ec18-4728-a3c3-43b3593df768,.b7cf672d-cb5f-4663-958b-e0432bade3d2{fill:#f7a13e;}.f5b9c7a5-09bb-4c15-9342-19094e8f1574{fill:#fff;}</style></defs><title>faviconAsset 6</title><g id="a518bb77-d720-48ff-b833-e6d5e245a91f" data-name="Layer 2"><g id="ac6e2a63-ec73-463d-af66-e750107a00e8" data-name="Layer 1"><path class="a3ba9962-45ba-43e4-abff-f74ad4270438" d="M384.45,299.42,536.87,52.16c-4.37-2.66-8.73-5.32-13.21-7.78L383.84,299.08Z"/><path class="a3ba9962-45ba-43e4-abff-f74ad4270438" d="M550.05,60.46c-3.85-2.64-8-5.19-12.17-7.74L385.36,300.18a4.57,4.57,0,0,1,1.31,1Z"/><path class="a3ba9962-45ba-43e4-abff-f74ad4270438" d="M562,69.12c-3.53-2.73-7.37-5.37-11.22-8L387.69,301.72c.4.23.7.65,1.1.88Z"/><path class="a3ba9962-45ba-43e4-abff-f74ad4270438" d="M616.07,118.15c-4.78-5.28-9.57-10.55-14.78-15.53L396.22,309.32c.7.65,1.29,1.51,1.79,2Z"/><path class="a3ba9962-45ba-43e4-abff-f74ad4270438" d="M626.5,130.49c-3.17-3.86-6.35-7.72-9.64-11.38L399,312.44c.3.43.59.86.89,1.28Z"/><path class="a3ba9962-45ba-43e4-abff-f74ad4270438" d="M638.87,146.55c-3.75-5.24-7.61-10.27-11.67-15.41L400.6,314.37a9.53,9.53,0,0,1,1.27,2Z"/><path class="a3ba9962-45ba-43e4-abff-f74ad4270438" d="M650.75,164.45c-3.53-5.64-7.25-11.39-11.2-16.74l-237,169.85a20,20,0,0,0,1.37,2.34Z"/><path class="a3ba9962-45ba-43e4-abff-f74ad4270438" d="M663.52,186c-3.77-7.11-7.78-13.81-12-20.61l-247,155.33a10.2,10.2,0,0,1,1.34,2.86Z"/><path class="a3ba9962-45ba-43e4-abff-f74ad4270438" d="M669.22,197.36c-1.74-3.6-3.38-6.88-5.22-10.28L406.44,324.46a3.28,3.28,0,0,0,.48,1.06Z"/><path class="a3ba9962-45ba-43e4-abff-f74ad4270438" d="M673.93,207.09c-1.34-2.85-2.58-5.91-4.12-8.88L407.51,326.37c.09.32.3.43.18.63Z"/><path class="a3ba9962-45ba-43e4-abff-f74ad4270438" d="M679.54,220.5c-1.71-4.12-3.42-8.23-5.33-12.46L408,328a3.86,3.86,0,0,1,.37,1.26Z"/><path class="a3ba9962-45ba-43e4-abff-f74ad4270438" d="M686.6,239.47c-2.05-5.9-4.32-11.91-6.58-17.91l-271.11,109,.64,2.21Z"/><path class="a3ba9962-45ba-43e4-abff-f74ad4270438" d="M691.23,254.19c-1.28-4.42-2.66-9.14-4.26-13.46l-277,93.32a5.06,5.06,0,0,1,.25,1.46Z"/><path class="a3ba9962-45ba-43e4-abff-f74ad4270438" d="M700.66,295.37q-3.58-20.24-9.06-39.92l-281,81.12c.55,1.89.79,3.87,1.22,6Z"/><path class="a3ba9962-45ba-43e4-abff-f74ad4270438" d="M702.64,308.63c-.47-4-1-8.24-1.71-12.32L412,343.37c.09.32.07.83.16,1.15Z"/><path class="a3ba9962-45ba-43e4-abff-f74ad4270438" d="M703.87,319.9c-.29-3.34-.57-6.67-1.18-9.92L412.05,346.07c.09.32,0,.52.07.84Z"/><path class="a3ba9962-45ba-43e4-abff-f74ad4270438" d="M705.48,353.61c-.1-10.91-.51-21.73-1.44-32.56L412.4,347.85c-.06,1.56.19,3,.13,4.58Z"/><path class="a3ba9962-45ba-43e4-abff-f74ad4270438" d="M705.2,363.78c.12-3.11.12-6,.24-9.13l-293.26-1.09a.83.83,0,0,0,0,.52Z"/><path class="a3ba9962-45ba-43e4-abff-f74ad4270438" d="M704.76,375.19c.23-3.32.26-6.75.6-10.26l-293-9.7c-.11.2,0,.51-.13.72Z"/><path class="a3ba9962-45ba-43e4-abff-f74ad4270438" d="M704.22,383.89c.3-2.48.4-5.07.7-7.56L412,357.19l-.11.2Z"/><path class="a3ba9962-45ba-43e4-abff-f74ad4270438" d="M700.94,409.63q2-12.39,3.13-24.5L411.66,358.84c0,1-.39,2.16-.43,3.2Z"/><path class="a3ba9962-45ba-43e4-abff-f74ad4270438" d="M697.05,429.73c1.39-6.39,2.78-12.77,3.65-19.18L411,363c-.14.73-.27,1.45-.51,2.37Z"/><path class="a3ba9962-45ba-43e4-abff-f74ad4270438" d="M690.84,453.59c2.26-7.5,4.32-15.11,5.86-22.73L410,366.15c-.13.72-.58,1.53-.71,2.25Z"/><path class="a3ba9962-45ba-43e4-abff-f74ad4270438" d="M684.49,472.87q3.3-8.91,6-18.15L409.06,369.85c-.24.92-.69,1.74-.93,2.66Z"/><path class="a3ba9962-45ba-43e4-abff-f74ad4270438" d="M678.82,488c2-4.7,3.79-9.3,5.52-13.91L408,373.75a4.43,4.43,0,0,0-.58,1.54Z"/><path class="a3ba9962-45ba-43e4-abff-f74ad4270438" d="M650.13,542.69c4.09-6.49,8-13.09,11.78-20l2-3.67L404.4,380.26c-.56,1-1.43,2.13-2,3.15Z"/><path class="a3ba9962-45ba-43e4-abff-f74ad4270438" d="M635.72,563.64c4.93-6.56,9.33-13.14,14-20.13L402,384.22c-.76.91-1.32,1.92-2.08,2.83Z"/><path class="a3ba9962-45ba-43e4-abff-f74ad4270438" d="M624.9,577.56c3.39-4.23,6.77-8.47,10.26-12.9L399,388.16a4.37,4.37,0,0,1-1.19,1.2Z"/><path class="a3ba9962-45ba-43e4-abff-f74ad4270438" d="M614,590.12c3.48-3.91,7-7.83,10.22-11.86L396.86,390.15a13.53,13.53,0,0,0-1.19,1.2Z"/><path class="a3ba9962-45ba-43e4-abff-f74ad4270438" d="M604.51,600.25c2.91-2.9,5.94-6,8.76-9.22L394.9,392.26c-.22.4-.53.5-1,.79Z"/><path class="a3ba9962-45ba-43e4-abff-f74ad4270438" d="M595,609.33c2.8-2.69,5.72-5.59,8.63-8.49L393.2,393.44a1.76,1.76,0,0,1-.86.59Z"/><path class="a3ba9962-45ba-43e4-abff-f74ad4270438" d="M574.37,627.65c6.76-5.56,13.51-11.11,19.88-17.41L391.47,395.14c-.85.59-1.82,1.38-2.67,2Z"/><path class="a3ba9962-45ba-43e4-abff-f74ad4270438" d="M550.43,645.22c7.89-5.2,15.59-11,23.09-17L388.15,397.81c-1.28.89-2.45,1.57-3.73,2.46Z"/><path class="a3ba9962-45ba-43e4-abff-f74ad4270438" d="M526.5,659.88c7.75-4.48,15.51-9,22.87-14.18l-166-245a20.09,20.09,0,0,0-2.34,1.36Z"/><path class="a3ba9962-45ba-43e4-abff-f74ad4270438" d="M402.42,702.16c10.14-1.58,20.38-3.37,30.33-5.58L364.89,408.35c-1.26.36-2.61.42-3.87.78Z"/><path class="a3ba9962-45ba-43e4-abff-f74ad4270438" d="M384.06,704.26c5.83-.5,11.47-1.12,17.21-1.94L359.78,409a4.94,4.94,0,0,1-1.67.14Z"/><path class="a3ba9962-45ba-43e4-abff-f74ad4270438" d="M370.31,705.19c4.38-.25,8.43-.41,12.71-1L356.87,409a1.8,1.8,0,0,1-1,0Z"/><path class="a3ba9962-45ba-43e4-abff-f74ad4270438" d="M359,705.58c3.42,0,6.76-.26,10.19-.23l-14.6-296a.22.22,0,0,0-.31.09Z"/><path class="a3ba9962-45ba-43e4-abff-f74ad4270438" d="M320.61,704.11c12.42,1,25.07,1.58,37.33,1.43l-4.61-296.39c-2.07-.08-3.94,0-6-.13Z"/><path class="a3ba9962-45ba-43e4-abff-f74ad4270438" d="M309.13,702.83c3.4.55,6.72.78,10.23,1.13l26.71-295.09h0Z"/><path class="a3ba9962-45ba-43e4-abff-f74ad4270438" d="M301.48,701.81c2.16.4,4.24.48,6.4.87l36.95-294h0Z"/><path class="a3ba9962-45ba-43e4-abff-f74ad4270438" d="M290.22,700.14l10.22,1.63,43.15-293.2c-.2-.12-.52,0-.72-.14Z"/><path class="a3ba9962-45ba-43e4-abff-f74ad4270438" d="M280,698c3.09.64,6.19,1.27,9.07,1.8L342,408.19c-.21-.11-.21-.11-.52,0Z"/><path class="ec47272d-0984-489f-8004-c318565a716f" d="M234.2,685a362,362,0,0,0,44.38,12.71L340,407.91a63.18,63.18,0,0,1-6.27-1.59Z"/><path class="ec47272d-0984-489f-8004-c318565a716f" d="M212.4,676.48q10.28,4.44,20.87,8.28L332.9,405.87a9.5,9.5,0,0,1-2.35-1Z"/><path class="ec47272d-0984-489f-8004-c318565a716f" d="M188.34,664.85c7.64,3.93,15.39,7.66,23,11.07l118-271.43c-.82-.45-1.95-.8-2.76-1.25Z"/><path class="ec47272d-0984-489f-8004-c318565a716f" d="M325.33,402.78l-.82-.45-.81-.45L171.45,655.58c4,2.44,7.83,4.56,11.89,6.8l4.07,2.23Z"/><path class="ec47272d-0984-489f-8004-c318565a716f" d="M154.33,644.33c5.16,3.63,10.63,7.16,16,10.38L322.59,401a6.54,6.54,0,0,1-1.72-1.21Z"/><path class="ec47272d-0984-489f-8004-c318565a716f" d="M139.88,634c4.54,3.29,8.89,6.47,13.44,9.76L320,399.56c-.41-.23-.91-.77-1.32-1Z"/><path class="ec47272d-0984-489f-8004-c318565a716f" d="M127,623.76c4,3.27,7.85,6.43,12,9.49L317.53,397.7c-.41-.23-.71-.65-1.11-.88Z"/><path class="ec47272d-0984-489f-8004-c318565a716f" d="M115.72,613.87c3.31,3.14,6.93,6.19,10.35,9.12L315.51,396.06c-.41-.22-.5-.54-.9-.76Z"/><path class="ec47272d-0984-489f-8004-c318565a716f" d="M95.4,594c6.19,6.57,12.69,13.06,19.42,19.13l199-218.77c-.9-.77-1.7-1.73-2.4-2.38Z"/><path class="ec47272d-0984-489f-8004-c318565a716f" d="M77.9,573.78c5.35,6.65,10.82,13.09,16.71,19.24L310.51,391.2a15.84,15.84,0,0,1-2.09-2.47Z"/><path class="ec47272d-0984-489f-8004-c318565a716f" d="M62.79,553.57c4.63,6.51,9.26,13,14.32,19.25L307.51,388c-.59-.86-1.29-1.51-1.88-2.36Z"/><path class="ec47272d-0984-489f-8004-c318565a716f" d="M50.83,534.83c3.62,6,7.23,11.91,11.27,17.57L305.15,384.55c-.39-.74-.88-1.28-1.27-2Z"/><path class="ec47272d-0984-489f-8004-c318565a716f" d="M40.53,516.47c3.1,5.93,6.3,11.66,9.71,17.51l252.94-152.1a12.31,12.31,0,0,1-1.07-1.91Z"/><path class="ec47272d-0984-489f-8004-c318565a716f" d="M12.53,445a356.34,356.34,0,0,0,11.73,35.56L298.74,373.09c-.66-1.69-1.24-3.06-1.79-4.95Z"/><path class="ec47272d-0984-489f-8004-c318565a716f" d="M6.4,418.05c1.65,8.58,3.49,17.27,5.77,25.66l284.31-76.63-.92-3.15Z"/><path class="ec47272d-0984-489f-8004-c318565a716f" d="M1.15,327.79C.6,336.5.17,345,.26,353.52l293.83.07c-.06-1.35-.2-3-.14-4.57Z"/><path class="ec47272d-0984-489f-8004-c318565a716f" d="M3,308.44c-.64,6-1.4,12.21-1.73,18.11l292.8,21.22c.13-.72-.05-1.35.08-2.07Z"/><path class="ec47272d-0984-489f-8004-c318565a716f" d="M6.59,286c-1.4,6.91-2.41,14-3.41,21.16L294,344.55c0-.52.13-.72.15-1.24Z"/><path class="ec47272d-0984-489f-8004-c318565a716f" d="M10.83,267.72C9.46,273.59,8.2,279.25,7,284.91l287.57,57.27c0-1,.4-2.16.44-3.2Z"/><path class="ec47272d-0984-489f-8004-c318565a716f" d="M15,252c-1.32,4.83-3,9.75-4,14.49l281.56,70.64Z"/><path class="ec47272d-0984-489f-8004-c318565a716f" d="M24.3,225.34c-3.34,8.49-6.16,17-8.78,25.63l280,86a39.49,39.49,0,0,1,1.44-5Z"/><path class="b7cf672d-cb5f-4663-958b-e0432bade3d2" d="M31.16,209c-2.28,5.1-4.44,10-6.51,15.22l272.5,106.44c.33-.61.35-1.13.69-1.74Z"/><path class="b7cf672d-cb5f-4663-958b-e0432bade3d2" d="M46.67,178.32l253.8,144.36.55-1L53,167.76A108.75,108.75,0,0,0,46.67,178.32Z"/><path class="b7cf672d-cb5f-4663-958b-e0432bade3d2" d="M46.11,179.34l-2.23,4.07c-4.47,8.13-8.53,16.49-12.28,24.76L298.4,327.89c.46-1.33,1.24-2.75,1.71-4.08Z"/><path class="b7cf672d-cb5f-4663-958b-e0432bade3d2" d="M359.64,291.09c.51,0,.92.24,1.44.26l31-289c-4.44-.59-9-1-13.35-1.24Z"/><path class="b7cf672d-cb5f-4663-958b-e0432bade3d2" d="M352.69,290.72a11,11,0,0,1,2.59.1L359.9.29c-6.85-.06-13.7-.11-20.58.35Z"/><path class="b7cf672d-cb5f-4663-958b-e0432bade3d2" d="M356.52,291c.52,0,1.24.15,1.76.17l19.14-290c-5.39-.31-11-.74-16.48-.84Z"/><path class="b7cf672d-cb5f-4663-958b-e0432bade3d2" d="M343.41,291.71l3.45-.49L311.09,2.88c-8.76,1-17.23,2.45-25.81,4.09Z"/><path class="b7cf672d-cb5f-4663-958b-e0432bade3d2" d="M348,291.06a21.65,21.65,0,0,1,3.54-.18L338.08.49c-8.63.29-17.28,1.1-26,2.11Z"/><path class="b7cf672d-cb5f-4663-958b-e0432bade3d2" d="M338.28,292.87c1.26-.37,2.72-.63,4-1L284.13,7.14C274.61,9.06,265.38,11.4,256,14Z"/><path class="b7cf672d-cb5f-4663-958b-e0432bade3d2" d="M491,28.59c-10.52-4.46-21.27-8.5-31.84-11.92L373.33,294.11a35.27,35.27,0,0,1,4.5,1.94Z"/><path class="b7cf672d-cb5f-4663-958b-e0432bade3d2" d="M371.48,293.62a.84.84,0,0,0,.72.14L458.06,16.31c-3.18-.95-6.57-2-9.75-3Z"/><path class="b7cf672d-cb5f-4663-958b-e0432bade3d2" d="M362.12,291.39c1.24.16,2.16.4,3.4.55l53-285.66c-8.35-1.67-16.92-2.94-25.19-3.77Z"/><path class="b7cf672d-cb5f-4663-958b-e0432bade3d2" d="M366.65,292.3c.21.11.72.13.93.24L431.13,8.94c-3.81-.77-7.51-1.74-11.44-2.31Z"/><path class="b7cf672d-cb5f-4663-958b-e0432bade3d2" d="M368.82,292.69c.52,0,1.13.36,1.65.38L447.18,13c-4.83-1.33-10-2.57-14.81-3.9Z"/><path class="b7cf672d-cb5f-4663-958b-e0432bade3d2" d="M316.69,303.25c.74-.38,1.39-1.08,2.13-1.47L156.32,60.08c-7.57,5.11-15,10.53-22.23,16.39Z"/><path class="b7cf672d-cb5f-4663-958b-e0432bade3d2" d="M306.55,313,80.46,128.83l-7.87,10L305.79,314C306.1,313.86,306.33,313.45,306.55,313Z"/><path class="b7cf672d-cb5f-4663-958b-e0432bade3d2" d="M334.49,294a15.34,15.34,0,0,0,2.64-.94l-82-278.8c-6.93,2-13.66,4.15-20.61,6.68Z"/><path class="b7cf672d-cb5f-4663-958b-e0432bade3d2" d="M307.31,312.14c.65-.7,1.41-1.61,2.06-2.31l-213-199c-5.2,5.62-10.19,11.35-15.3,17.28Z"/><path class="b7cf672d-cb5f-4663-958b-e0432bade3d2" d="M310.34,309c.54-.49,1.08-1,1.73-1.69L114.76,92.86c-5.92,5.49-11.75,11.29-17.38,17.2Z"/><path class="b7cf672d-cb5f-4663-958b-e0432bade3d2" d="M326.37,297.19a33.11,33.11,0,0,1,3.92-1.83L215.08,28.27c-9,3.81-18,8.14-26.87,12.78Z"/><path class="b7cf672d-cb5f-4663-958b-e0432bade3d2" d="M331.23,295.09c.63-.18,1.37-.57,2-.75L233.33,21.08c-5.7,2.17-11.59,4.23-17.19,6.71Z"/><path class="b7cf672d-cb5f-4663-958b-e0432bade3d2" d="M319.79,301c1.7-1.18,3.62-2.24,5.53-3.31l-138-256c-10.19,5.53-20.28,11.37-30,18Z"/><path class="b7cf672d-cb5f-4663-958b-e0432bade3d2" d="M312.72,306.63c1.07-1,2-1.79,3-2.58l-182.49-227c-6.1,4.85-12,9.82-17.5,15Z"/><path class="b7cf672d-cb5f-4663-958b-e0432bade3d2" d="M302.7,318.61a25.13,25.13,0,0,1,2.42-3.44L72,139.83q-5.58,7.26-10.55,14.86Z"/><path class="b7cf672d-cb5f-4663-958b-e0432bade3d2" d="M60.73,155.59c-2.53,3.65-4.74,7.2-7.07,10.95l248,153.9.55-1Z"/><path class="a3ba9962-45ba-43e4-abff-f74ad4270438" d="M387.81,303.91l136.82-184.6a321.54,321.54,0,0,0-31.12-20L383.06,300.51A23.37,23.37,0,0,1,387.81,303.91Z"/><path class="a3ba9962-45ba-43e4-abff-f74ad4270438" d="M394.24,309.56l161.87-163.7a316.44,316.44,0,0,0-30.47-26L388.83,304.47A64.51,64.51,0,0,1,394.24,309.56Z"/><path class="a3ba9962-45ba-43e4-abff-f74ad4270438" d="M399,314.31l178.9-144.56c-6.44-8-13.42-15.57-20.72-23L395.57,310C396.66,311.42,398,312.92,399,314.31Z"/><path class="a3ba9962-45ba-43e4-abff-f74ad4270438" d="M597.85,197.63a293.44,293.44,0,0,0-19.32-27L399.63,315.17a23.15,23.15,0,0,1,3.34,5Z"/><path class="a3ba9962-45ba-43e4-abff-f74ad4270438" d="M608,214.84c-3-5.62-6.12-11-9.55-16.36L403.56,321c.59.85.87,1.8,1.46,2.65Z"/><path class="a3ba9962-45ba-43e4-abff-f74ad4270438" d="M621.8,244.66a242.9,242.9,0,0,0-13.24-28.44l-203,108.83c.86,1.8,1.53,3.49,2.19,5.18Z"/><path class="a3ba9962-45ba-43e4-abff-f74ad4270438" d="M409.67,335l221.85-62.2c-2.66-9.14-5.84-18.3-9.24-27L408.37,331.08C408.74,332.34,409.31,333.71,409.67,335Z"/><path class="a3ba9962-45ba-43e4-abff-f74ad4270438" d="M639.08,305.77A306.64,306.64,0,0,0,632,273.82L410.15,336c.55,1.89.9,3.67,1.25,5.45Z"/><path class="a3ba9962-45ba-43e4-abff-f74ad4270438" d="M641.66,325.19c-.59-6.15-1.5-12.21-2.41-18.27L411.56,342.63a20.27,20.27,0,0,1,.31,2.81Z"/><path class="a3ba9962-45ba-43e4-abff-f74ad4270438" d="M642,378.07a274.61,274.61,0,0,0-.31-51.53L411.92,346.8a48.29,48.29,0,0,1,.05,9.55Z"/><path class="a3ba9962-45ba-43e4-abff-f74ad4270438" d="M631.08,435.61a289.79,289.79,0,0,0,10.9-56.5L412,357.19a64.42,64.42,0,0,1-2.22,11.75Z"/><path class="a3ba9962-45ba-43e4-abff-f74ad4270438" d="M621,464.2a289.07,289.07,0,0,0,9.78-27.46L409.47,370.07c-.36,1.13-.82,2.46-1.18,3.59Z"/><path class="a3ba9962-45ba-43e4-abff-f74ad4270438" d="M609.42,488.58c3.93-7.64,7.65-15.39,11-23.37L407.73,374.68a24.6,24.6,0,0,1-1.8,3.77Z"/><path class="a3ba9962-45ba-43e4-abff-f74ad4270438" d="M403.36,383.13,597.31,509.19c3.42-5.27,6.75-10.85,9.76-16.34l1.68-3.05-203.29-110-.34.61A14.68,14.68,0,0,1,403.36,383.13Z"/><path class="a3ba9962-45ba-43e4-abff-f74ad4270438" d="M552.63,563.56A288.72,288.72,0,0,0,596.86,510L402.91,384a53.3,53.3,0,0,1-8.72,10.57Z"/><path class="a3ba9962-45ba-43e4-abff-f74ad4270438" d="M515.23,593.6a282.65,282.65,0,0,0,36.64-29.13L393.32,395.62a65,65,0,0,1-6.11,4.86Z"/><path class="a3ba9962-45ba-43e4-abff-f74ad4270438" d="M495.77,605.42c6.16-3.51,12.43-7.21,18.4-11.34L386.16,401c-.86.59-2,1.27-2.88,1.86Z"/><path class="a3ba9962-45ba-43e4-abff-f74ad4270438" d="M419.21,635.4a285.17,285.17,0,0,0,75.5-29.5L382.22,403.3a55.69,55.69,0,0,1-14.55,5.78Z"/><path class="a3ba9962-45ba-43e4-abff-f74ad4270438" d="M357.85,643a297.84,297.84,0,0,0,60.22-7.45L366.52,409.24A69.15,69.15,0,0,1,355,410.88Z"/><path class="a3ba9962-45ba-43e4-abff-f74ad4270438" d="M325.9,641.89a304.56,304.56,0,0,0,30.8,1.29l-2.61-232c-1.87,0-3.63-.14-5.5-.11Z"/><path class="a3ba9962-45ba-43e4-abff-f74ad4270438" d="M310.3,639.94c4.85.81,9.6,1.3,14.36,1.8l22.69-230.85a16.53,16.53,0,0,0-2-.28Z"/><path class="a3ba9962-45ba-43e4-abff-f74ad4270438" d="M293,636.78c5.46,1.15,10.72,2.18,16.09,3l35.29-229.22c-.72-.13-1.65-.38-2.37-.51Z"/><path class="ec47272d-0984-489f-8004-c318565a716f" d="M255.36,626.2a321.45,321.45,0,0,0,36.57,10.54l48.81-226.83a68.33,68.33,0,0,1-7.41-2Z"/><path class="ec47272d-0984-489f-8004-c318565a716f" d="M217.16,609.46a288.6,288.6,0,0,0,37.07,16.38l78.09-218.43a66.46,66.46,0,0,1-6.64-2.86Z"/><path class="ec47272d-0984-489f-8004-c318565a716f" d="M324.66,404l-.21-.12c-2.44-1.34-4.56-2.77-6.69-4.2L177.92,584.48a279.89,279.89,0,0,0,35.58,23l2.85,1.56Z"/><path class="ec47272d-0984-489f-8004-c318565a716f" d="M157.89,567.92c6,5.43,12.36,10.76,19.13,15.8l139.84-184.8a25.58,25.58,0,0,1-3-2.71Z"/><path class="ec47272d-0984-489f-8004-c318565a716f" d="M114.32,518.06A290.83,290.83,0,0,0,157,567.16L312.62,395.54a72.73,72.73,0,0,1-7.07-7.86Z"/><path class="ec47272d-0984-489f-8004-c318565a716f" d="M95.47,486.8a308.47,308.47,0,0,0,18,30.29L305,386.83c-1.18-1.71-2.16-3.3-3.13-4.9Z"/><path class="ec47272d-0984-489f-8004-c318565a716f" d="M83,459.31a241.3,241.3,0,0,0,12,26.43L301.35,380.87c-.78-1.48-1.35-2.85-2.12-4.34Z"/><path class="ec47272d-0984-489f-8004-c318565a716f" d="M295.57,366.32,67.72,406.17a300.34,300.34,0,0,0,15,52.2l216-82.89A64.74,64.74,0,0,1,295.57,366.32Z"/><path class="ec47272d-0984-489f-8004-c318565a716f" d="M63.62,375.06a296.5,296.5,0,0,0,3.94,30l227.85-39.85a26.34,26.34,0,0,1-1-5Z"/><path class="ec47272d-0984-489f-8004-c318565a716f" d="M62.84,354.78c0,6.33.25,12.58.73,18.93l230.52-14.82c-.07-.84-.24-2-.31-2.82Z"/><path class="ec47272d-0984-489f-8004-c318565a716f" d="M68,298.06a288.87,288.87,0,0,0-5.15,55.68L293.82,355a49.71,49.71,0,0,1,.4-10.37Z"/><path class="ec47272d-0984-489f-8004-c318565a716f" d="M74.81,270.28a250.41,250.41,0,0,0-6.63,26.54l226,46.49a31.31,31.31,0,0,1,.9-4.53Z"/><path class="ec47272d-0984-489f-8004-c318565a716f" d="M82.65,247.32c-2.87,7.16-5.33,14.54-7.48,21.83l220.05,68.39a44.12,44.12,0,0,1,1.55-5.24Z"/><path class="b7cf672d-cb5f-4663-958b-e0432bade3d2" d="M100.39,210.19l-1.79,3.26A271.06,271.06,0,0,0,83.1,246.5L297,331.37l2.07-5.21Z"/><path class="b7cf672d-cb5f-4663-958b-e0432bade3d2" d="M301.54,321.68,112.8,190c-4.19,6.18-8.17,12.46-11.74,19L299.87,324.73l1-1.83Z"/><path class="b7cf672d-cb5f-4663-958b-e0432bade3d2" d="M122.22,177.17c-3,3.94-5.91,7.88-8.66,11.92L302.21,320.46a6.54,6.54,0,0,1,1.21-1.72Z"/><path class="b7cf672d-cb5f-4663-958b-e0432bade3d2" d="M129.21,168.3c-2.18,2.51-4.26,5.34-6.23,8l181.2,141.56c.34-.61.88-1.1,1.21-1.71Z"/><path class="b7cf672d-cb5f-4663-958b-e0432bade3d2" d="M157.46,138.54A302.08,302.08,0,0,0,130,167.4L306,315.41c1.53-1.81,2.94-3.42,4.35-5Z"/><path class="b7cf672d-cb5f-4663-958b-e0432bade3d2" d="M191.3,112.11a246.26,246.26,0,0,0-33,25.84L311.36,309.59a51.66,51.66,0,0,1,6.33-5.26Z"/><path class="b7cf672d-cb5f-4663-958b-e0432bade3d2" d="M255.26,80a291.72,291.72,0,0,0-62.8,31.45L318.65,303.54a65.83,65.83,0,0,1,12.09-6.6Z"/><path class="b7cf672d-cb5f-4663-958b-e0432bade3d2" d="M272.61,74.41c-5.35,1.56-10.82,3.33-16.09,5.2l75.49,217c.94-.27,1.68-.66,2.63-.93Z"/><path class="b7cf672d-cb5f-4663-958b-e0432bade3d2" d="M318.89,64.87a309.69,309.69,0,0,0-45.22,9.07L335.49,295a87.75,87.75,0,0,1,8.8-2.05Z"/><path class="b7cf672d-cb5f-4663-958b-e0432bade3d2" d="M358.53,63.07a299.23,299.23,0,0,0-38.6,1.84l25.29,228.33c2.5-.22,5-.43,7.39-.45Z"/><path class="b7cf672d-cb5f-4663-958b-e0432bade3d2" d="M386.2,64.76A223.12,223.12,0,0,0,359.88,63l-5.8,229.52c1.55.06,3.11.12,4.87.29Z"/><path class="b7cf672d-cb5f-4663-958b-e0432bade3d2" d="M417.87,70.23c-10.09-2.36-20.31-4-30.64-5.43l-27.45,228,5.89.85Z"/><path class="b7cf672d-cb5f-4663-958b-e0432bade3d2" d="M439.25,76.14C432.47,74,425.79,72.2,419,70.59L366.8,294c1.12.36,2.36.51,3.49.86Z"/><path class="b7cf672d-cb5f-4663-958b-e0432bade3d2" d="M466.6,86.13q-12.89-5.49-26.43-9.74l-68.86,219a38.57,38.57,0,0,1,4.81,1.85Z"/><path class="b7cf672d-cb5f-4663-958b-e0432bade3d2" d="M377.25,297.58a32.59,32.59,0,0,1,4.18,2l.61.34L492.49,98.75a276.18,276.18,0,0,0-24.88-12.07Z"/><path class="a3ba9962-45ba-43e4-abff-f74ad4270438" d="M381.16,322.77l131-132.49A224,224,0,0,0,463.47,154L374,317A38.09,38.09,0,0,1,381.16,322.77Z"/><path class="a3ba9962-45ba-43e4-abff-f74ad4270438" d="M552.85,244.4A227.18,227.18,0,0,0,513,191.05l-131,132.48a39.89,39.89,0,0,1,6.4,9.07Z"/><path class="a3ba9962-45ba-43e4-abff-f74ad4270438" d="M392.86,348.25l186.59-17.76a231.68,231.68,0,0,0-25.81-85.12L389,333.66A42.3,42.3,0,0,1,392.86,348.25Z"/><path class="a3ba9962-45ba-43e4-abff-f74ad4270438" d="M571.35,417.11a224.49,224.49,0,0,0,8.27-85.47L393,349.39a38.73,38.73,0,0,1-1.69,14.17Z"/><path class="a3ba9962-45ba-43e4-abff-f74ad4270438" d="M386.38,373.55,545.15,474.47c2.44-4,4.87-7.91,7.11-12a228.41,228.41,0,0,0,18.42-44.16L390.46,364.67a32.72,32.72,0,0,1-2.63,6.23A6.62,6.62,0,0,1,386.38,373.55Z"/><path class="a3ba9962-45ba-43e4-abff-f74ad4270438" d="M510.16,517.48a223.76,223.76,0,0,0,34.43-42L385.82,374.56a35.51,35.51,0,0,1-5.65,6.43Z"/><path class="a3ba9962-45ba-43e4-abff-f74ad4270438" d="M466,550.68a230.56,230.56,0,0,0,43.41-32.3l-130-136.48a58,58,0,0,1-6.94,4.93Z"/><path class="a3ba9962-45ba-43e4-abff-f74ad4270438" d="M371.41,387.3a41.87,41.87,0,0,1-26.64,4.17L306,575.9a227.92,227.92,0,0,0,158.92-24.74Z"/><path class="ec47272d-0984-489f-8004-c318565a716f" d="M246.3,554a225,225,0,0,0,58.58,21.57l38.76-184.42a43.16,43.16,0,0,1-9.33-3.27Z"/><path class="ec47272d-0984-489f-8004-c318565a716f" d="M333.3,387.29l-.41-.22a32.18,32.18,0,0,1-6.67-4.72L200.08,521.46a232.47,232.47,0,0,0,43.37,30.95l1.83,1Z"/><path class="ec47272d-0984-489f-8004-c318565a716f" d="M141.34,436.52a224.14,224.14,0,0,0,58,84.29L325.31,381.59a41,41,0,0,1-9.85-13.88Z"/><path class="ec47272d-0984-489f-8004-c318565a716f" d="M313.12,360.87,129.3,395.76a232.89,232.89,0,0,0,11.45,39.91L315,367.17C314.11,364.85,313.68,362.76,313.12,360.87Z"/><path class="ec47272d-0984-489f-8004-c318565a716f" d="M125.35,355.21a223.27,223.27,0,0,0,3.9,39.2l183.82-34.9a31.3,31.3,0,0,1-.7-5.94Z"/><path class="ec47272d-0984-489f-8004-c318565a716f" d="M129.25,310.49a247.1,247.1,0,0,0-4.06,43.57l186.7-1.55a39.08,39.08,0,0,1,.37-6.95Z"/><path class="ec47272d-0984-489f-8004-c318565a716f" d="M141,270.33a223.89,223.89,0,0,0-11.36,39l183,35.08a31.69,31.69,0,0,1,1.82-6.69Z"/><path class="b7cf672d-cb5f-4663-958b-e0432bade3d2" d="M320.14,326.86,176.88,208.77a223.21,223.21,0,0,0-23.24,34.63,232,232,0,0,0-12.11,25.91l173.25,67.32a37.93,37.93,0,0,1,2.05-4.7A55.78,55.78,0,0,1,320.14,326.86Z"/><path class="b7cf672d-cb5f-4663-958b-e0432bade3d2" d="M225.53,164.52a228.91,228.91,0,0,0-47.88,43.34L320.91,326a37.72,37.72,0,0,1,8-7.27Z"/><path class="b7cf672d-cb5f-4663-958b-e0432bade3d2" d="M289.42,134.47a229.43,229.43,0,0,0-63.24,29.35L329.52,318a40,40,0,0,1,10.68-5Z"/><path class="b7cf672d-cb5f-4663-958b-e0432bade3d2" d="M378.3,126.87a227.62,227.62,0,0,0-87.73,7.44l50.89,178.31a46.24,46.24,0,0,1,15.12-1.5Z"/><path class="b7cf672d-cb5f-4663-958b-e0432bade3d2" d="M422.4,136.25a217,217,0,0,0-43.06-9.34L357.82,311.27a33,33,0,0,1,6.91,1.41Z"/><path class="b7cf672d-cb5f-4663-958b-e0432bade3d2" d="M423.53,136.61,366.06,313.15a30.83,30.83,0,0,1,6,2.52l1,.55,89.34-162.74A230,230,0,0,0,423.53,136.61Z"/><circle class="f5b9c7a5-09bb-4c15-9342-19094e8f1574" cx="352.89" cy="353.05" r="46.41"/><path class="a3ba9962-45ba-43e4-abff-f74ad4270438" d="M495.66,275.75a161,161,0,0,0-63.57-64.55L363.18,336.72a18.56,18.56,0,0,1,6.09,6.26Z"/><path class="a3ba9962-45ba-43e4-abff-f74ad4270438" d="M370.59,357.46,509,398.51a162.4,162.4,0,0,0-12.56-121.79L369.75,344A18.28,18.28,0,0,1,370.59,357.46Z"/><path class="a3ba9962-45ba-43e4-abff-f74ad4270438" d="M362.06,368.67l71.21,125.39a163.94,163.94,0,0,0,75.08-94.33L370,358.48A20.31,20.31,0,0,1,362.06,368.67Z"/><path class="ec47272d-0984-489f-8004-c318565a716f" d="M347.84,370.92a28.34,28.34,0,0,1-4.29-1.82,20.28,20.28,0,0,1-3.23-2.31L244,473.29a162.71,162.71,0,0,0,73.84,38.15Z"/><path class="a3ba9962-45ba-43e4-abff-f74ad4270438" d="M361.2,369.26a16,16,0,0,1-12.12,1.82L319.16,511.91a163,163,0,0,0,113.25-17.26Z"/><path class="ec47272d-0984-489f-8004-c318565a716f" d="M202,412.89a163.74,163.74,0,0,0,41.21,59.95l96.32-106.5a19,19,0,0,1-4.13-6Z"/><path class="ec47272d-0984-489f-8004-c318565a716f" d="M190.4,354.38a162.71,162.71,0,0,0,11.09,57.45L334.8,359a20.74,20.74,0,0,1-.93-5.54Z"/><path class="b7cf672d-cb5f-4663-958b-e0432bade3d2" d="M346.65,334.53,307.79,197a162.23,162.23,0,0,0-97.3,77.9A184.48,184.48,0,0,0,202,292.72l133.83,52.82A21.07,21.07,0,0,1,346.65,334.53Z"/><path class="ec47272d-0984-489f-8004-c318565a716f" d="M201.66,293.85a161.74,161.74,0,0,0-11.22,59.5L334,352.22a25.06,25.06,0,0,1,1.26-5.67Z"/><path class="b7cf672d-cb5f-4663-958b-e0432bade3d2" d="M370.31,191.59a163.76,163.76,0,0,0-61.37,5.22l38.85,137.55a20.68,20.68,0,0,1,6.27-.8Z"/><path class="b7cf672d-cb5f-4663-958b-e0432bade3d2" d="M371.35,191.63l-16.26,142a22,22,0,0,1,6.67,2.34l.4.22,68.91-125.52A159.58,159.58,0,0,0,371.35,191.63Z"/><path class="adb79b4b-945a-4ab3-a501-7e3c7a488943" d="M346.24,353.1a2.31,2.31,0,0,1-1.25-2.54l-85.11-34a100,100,0,0,0,44.88,124.18,107.12,107.12,0,0,0,25.79,9.92l21-94.64A53.28,53.28,0,0,0,346.24,353.1Z"/><path class="a55a0c09-ec18-4728-a3c3-43b3593df768" d="M348.81,348.42a20.56,20.56,0,0,0,4.79,2.37l47.13-85.85c-48.32-26.27-108.73-8.33-135.2,39.88a99,99,0,0,0-5,10.51l85.11,34A2.32,2.32,0,0,1,348.81,348.42Z"/><path class="a3ba9962-45ba-43e4-abff-f74ad4270438" d="M401.64,265.7l-47,85.65c2.64,1.45.84,5.22-1.53,4.72l-21,94.64a100.11,100.11,0,0,0,108.78-49.62C467,353,449.54,292.26,401.64,265.7Z"/><circle class="f5b9c7a5-09bb-4c15-9342-19094e8f1574" cx="352.49" cy="352.82" r="46.41"/></g></g></svg>