<?xml version="1.0" encoding="UTF-8"?>
<svg width="412px" height="358px" viewBox="0 0 412 358" version="1.1" xmlns="http://www.w3.org/2000/svg" xmlns:xlink="http://www.w3.org/1999/xlink">
    <!-- Generator: Sketch 63.1 (92452) - https://sketch.com -->
    <title>Group 2</title>
    <desc>Created with Sketch.</desc>
    <g id="Pages" stroke="none" stroke-width="1" fill="none" fill-rule="evenodd">
        <g id="Group-2" transform="translate(-76.000000, -103.000000)">
            <polygon id="Polygon" fill="#FFFFFF" transform="translate(282.000000, 282.000000) rotate(-330.000000) translate(-282.000000, -282.000000) " points="282 76 460.401233 179 460.401233 385 282 488 103.598767 385 103.598767 179"></polygon>
            <path d="M253.309598,387 C339.20743,387 378,348.049724 378,286.723757 C378,222.635359 335.051084,187 255.249226,187 L199,187 L199,387 L253.309598,387 Z M255.207317,348 L243,348 L243,225 L254.929878,225 C277.402439,225 296.545732,227.206278 310.695122,237.134529 C325.676829,247.61435 334,265.264574 334,286.224215 C334,325.661435 310.695122,348 255.207317,348 Z" id="D" fill="#000000" fill-rule="nonzero"></path>
        </g>
    </g>
</svg>