<?xml version="1.0" encoding="UTF-8"?>
<svg width="12px" height="15px" viewBox="0 0 12 15" version="1.1" xmlns="http://www.w3.org/2000/svg" xmlns:xlink="http://www.w3.org/1999/xlink">
    <!-- Generator: Sketch 62 (91390) - https://sketch.com -->
    <title>↑</title>
    <desc>Created with Sketch.</desc>
    <g id="_experiments" stroke="none" stroke-width="1" fill="none" fill-rule="evenodd">
        <g id="Mobile" transform="translate(-332.000000, -2340.000000)" fill="#292429" fill-rule="nonzero">
            <path d="M338,2355.01277 C338.714894,2355.01277 339.148936,2354.52766 339.148936,2353.73617 L339.148936,2343.80426 L342.417021,2346.25532 C342.621277,2346.40851 342.851064,2346.48511 343.080851,2346.48511 C343.591489,2346.48511 344,2346.0766 344,2345.56596 C344,2345.28511 343.897872,2345.02979 343.668085,2344.82553 L338.970213,2340.43404 C338.66383,2340.15319 338.331915,2340 338,2340 C337.668085,2340 337.33617,2340.15319 337.029787,2340.43404 L332.331915,2344.82553 C332.102128,2345.02979 332,2345.28511 332,2345.56596 C332,2346.0766 332.408511,2346.48511 332.919149,2346.48511 C333.148936,2346.48511 333.378723,2346.40851 333.582979,2346.25532 L336.851064,2343.80426 L336.851064,2353.73617 C336.851064,2354.52766 337.285106,2355.01277 338,2355.01277 Z" id="↑"></path>
        </g>
    </g>
</svg>