<svg xmlns="http://www.w3.org/2000/svg" width="465.27" height="89.52" viewBox="0 0 465.27 89.52"><defs><style>.b154964f-2f56-4bc9-bf5f-443487a61392{fill:#666;}</style></defs><title>faviconAsset 5</title><g id="e2b3920c-b7b3-4509-b7f4-4593a0215e3a" data-name="Layer 2"><g id="a5854af2-69db-4c38-8217-4749b9860bcc" data-name="Layer 1"><path class="b154964f-2f56-4bc9-bf5f-443487a61392" d="M0,1.32H35C53,1.32,77.28,6,77.28,28.56c0,9.6-3.84,16.44-10.08,21,1.08,4.68,4.68,8.28,12,8.28A31.21,31.21,0,0,0,97.32,51.6V83.28c-5.28,3.48-14,6.24-23,6.24C53.76,89.52,39.48,76.68,36,59.4h-.24V88.2H0Zm38.4,38.4c5.64,0,8.16-3,8.16-6.72s-2.64-6.6-8.16-6.6H35.76V39.72Z"/><path class="b154964f-2f56-4bc9-bf5f-443487a61392" d="M150.07.09c25.19,0,44.84,19.54,44.84,44.71s-19.65,44.72-44.84,44.72S105.23,70,105.23,44.8,124.87.09,150.07.09Zm0,58.74c6.88,0,12.43-6,12.43-13.43S157,32,150.07,32s-12.43,6-12.43,13.42S143.19,58.83,150.07,58.83Z"/><path class="b154964f-2f56-4bc9-bf5f-443487a61392" d="M246,.09c25.2,0,44.84,19.54,44.84,44.71S271.17,89.52,246,89.52,201.13,70,201.13,44.8,220.78.09,246,.09Zm0,58.74c6.88,0,12.43-6,12.43-13.43S252.85,32,246,32s-12.43,6-12.43,13.42S239.09,58.83,246,58.83Z"/><path class="b154964f-2f56-4bc9-bf5f-443487a61392" d="M323.91,30.84H299.67V1.32h84.24V30.84H359.67V88.2H323.91Z"/><path class="b154964f-2f56-4bc9-bf5f-443487a61392" d="M396.51,52.92c11.64,7.56,23.4,10.32,28.56,10.32,3.6,0,4.44-1.44,4.44-2.88,0-1.68-1.08-2.4-2.64-2.76-4.2-1.08-16.32-2.4-25.2-10.2-4.56-4.08-7.68-9.72-7.68-18.12C394,11.88,407.43,0,429.39,0c10.56,0,23,2.76,31,6.84V35.28c-11.28-5.64-21.84-7.68-26.28-7.68-3.48,0-4.44,1.32-4.44,2.64,0,1.8,1.32,2.52,2.76,3,3.6,1.08,15.6,2.52,24.12,9.24a22.82,22.82,0,0,1,8.76,18.72c0,16.68-13.44,28.32-36.24,28.32-10.92,0-24-2.64-32.52-7.08Z"/></g></g></svg>