<svg width="545" height="445" viewBox="0 0 545 445" fill="none" xmlns="http://www.w3.org/2000/svg">
<path d="M274.936 444.683C281.601 443.417 286.044 437.404 286.044 430.757V379.801C286.044 373.154 281.601 367.141 274.936 365.875C266.049 363.976 258.114 370.939 258.114 379.484V431.39C258.432 439.619 266.049 446.266 274.936 444.683Z" fill="#010101"/>
<path d="M64.8262 357.646C69.9044 365.242 80.0607 365.875 86.4085 359.861L111.799 334.541C116.243 330.11 117.512 321.881 113.704 316.501C110.847 312.386 106.721 310.487 102.278 310.487C98.7865 310.487 95.2953 311.753 92.4388 314.602L67.0479 339.922C62.2871 344.669 61.0176 352.265 64.8262 357.646Z" fill="#010101"/>
<path d="M432.677 334.541L457.75 359.545C462.511 364.292 469.811 365.558 475.524 361.76C483.141 356.696 483.776 346.568 477.745 340.238L451.72 314.285C448.863 311.437 445.372 310.171 441.881 310.171C437.437 310.171 433.311 312.07 430.455 316.184C426.964 321.881 428.233 330.11 432.677 334.541Z" fill="#010101"/>
<path d="M534.875 127.866C471.398 46.5256 375.547 0 272.079 0C168.929 0 73.0782 46.5256 9.28355 127.866C-3.09452 143.691 -3.09452 166.163 9.28355 181.988C15.6313 190.217 44.8308 220.917 51.4959 226.614C54.6698 229.463 57.8436 231.995 61.0175 234.844C120.369 283.585 195.272 310.171 272.079 310.171C375.547 310.171 471.08 263.645 534.875 182.304C547.253 166.163 547.253 144.008 534.875 127.866Z" fill="#010101"/>
<path d="M168.869 151.32C168.869 163.8 164.549 173.92 155.909 181.68C147.349 189.36 136.949 193.2 124.709 193.2C112.469 193.2 102.029 189.32 93.3893 181.56C84.7493 173.72 80.4293 163.64 80.4293 151.32C80.4293 138.84 84.7493 128.72 93.3893 120.96C102.029 113.12 112.469 109.2 124.709 109.2C136.869 109.2 147.269 113.12 155.909 120.96C164.549 128.8 168.869 138.92 168.869 151.32ZM140.309 167.28C144.389 163.12 146.429 157.8 146.429 151.32C146.429 144.84 144.389 139.52 140.309 135.36C136.229 131.12 131.029 129 124.709 129C118.389 129 113.149 131.12 108.989 135.36C104.909 139.52 102.869 144.84 102.869 151.32C102.869 157.8 104.909 163.12 108.989 167.28C113.069 171.44 118.309 173.52 124.709 173.52C131.029 173.52 136.229 171.44 140.309 167.28ZM278.135 151.32C278.135 163.8 273.815 173.92 265.175 181.68C256.615 189.36 246.215 193.2 233.975 193.2C221.735 193.2 211.295 189.32 202.655 181.56C194.015 173.72 189.695 163.64 189.695 151.32C189.695 138.84 194.015 128.72 202.655 120.96C211.295 113.12 221.735 109.2 233.975 109.2C246.135 109.2 256.535 113.12 265.175 120.96C273.815 128.8 278.135 138.92 278.135 151.32ZM249.575 167.28C253.655 163.12 255.695 157.8 255.695 151.32C255.695 144.84 253.655 139.52 249.575 135.36C245.495 131.12 240.295 129 233.975 129C227.655 129 222.415 131.12 218.255 135.36C214.175 139.52 212.135 144.84 212.135 151.32C212.135 157.8 214.175 163.12 218.255 167.28C222.335 171.44 227.575 173.52 233.975 173.52C240.295 173.52 245.495 171.44 249.575 167.28ZM312.761 110.28H339.281C347.521 110.28 354.161 112.4 359.201 116.64C366.001 122.24 369.401 129.92 369.401 139.68C369.401 149.76 365.721 157.64 358.361 163.32C353.481 167.16 347.321 169.08 339.881 169.08H323.321V183C323.321 185.8 322.281 188.2 320.201 190.2C318.121 192.2 315.641 193.2 312.761 193.2C309.881 193.2 307.401 192.2 305.321 190.2C303.241 188.2 302.201 185.8 302.201 183V120.6C302.201 117.72 303.241 115.28 305.321 113.28C307.401 111.28 309.881 110.28 312.761 110.28ZM347.921 139.68C347.921 135.36 346.521 132.32 343.721 130.56C341.881 129.36 339.521 128.76 336.641 128.76H323.321V150.6H336.641C339.521 150.6 341.841 150.04 343.601 148.92C346.481 147.24 347.921 144.16 347.921 139.68ZM449.588 122.76C449.588 125.56 448.628 127.92 446.708 129.84C444.868 131.68 442.508 132.6 439.628 132.6C437.868 132.6 434.588 131.6 429.788 129.6C426.268 128.16 423.108 127.44 420.308 127.44C414.548 127.44 411.668 129 411.668 132.12C411.668 133.8 412.468 135.2 414.068 136.32C415.748 137.36 418.188 138.36 421.388 139.32C421.948 139.48 423.668 139.96 426.548 140.76C429.428 141.56 431.508 142.2 432.788 142.68C434.148 143.16 435.868 143.92 437.948 144.96C440.108 145.92 441.948 146.96 443.468 148.08C449.308 152.48 452.228 158.72 452.228 166.8C452.228 174.88 449.108 181.32 442.868 186.12C436.708 190.84 428.948 193.2 419.588 193.2C411.828 193.2 404.908 192.04 398.828 189.72C392.268 187.16 388.988 183.56 388.988 178.92C388.988 176.04 389.948 173.64 391.868 171.72C393.868 169.8 396.228 168.84 398.948 168.84C400.548 168.84 403.348 169.8 407.348 171.72C411.828 173.88 415.828 174.96 419.348 174.96C425.908 174.96 429.188 172.8 429.188 168.48C429.188 166.56 428.308 165 426.548 163.8C424.868 162.6 422.388 161.48 419.108 160.44C418.388 160.2 416.788 159.72 414.308 159C411.828 158.2 409.908 157.6 408.548 157.2C407.268 156.72 405.628 156.04 403.628 155.16C401.708 154.2 400.028 153.2 398.588 152.16C392.428 147.52 389.348 141 389.348 132.6C389.348 125.8 392.148 120.2 397.748 115.8C403.428 111.4 411.348 109.2 421.508 109.2C429.428 109.2 435.908 110.24 440.948 112.32C446.708 114.72 449.588 118.2 449.588 122.76Z" fill="white"/>
</svg>
