<?xml version="1.0" encoding="UTF-8"?>
<svg width="98px" height="110px" viewBox="0 0 98 110" version="1.1" xmlns="http://www.w3.org/2000/svg" xmlns:xlink="http://www.w3.org/1999/xlink">
    <!-- Generator: Sketch 61.2 (89653) - https://sketch.com -->
    <title>logo</title>
    <desc>Created with Sketch.</desc>
    <g id="logo" stroke="none" stroke-width="1" fill="none" fill-rule="evenodd">
        <g id="yg.is-logo" transform="translate(2.000000, 3.000000)" fill-rule="nonzero">
            <polygon id="otherside" stroke="#000000" stroke-width="3" fill="#FFFFFF" stroke-linejoin="round" points="0.41 23.95 46.91 47.91 46.91 104.47 0.41 80.92"></polygon>
            <path d="M46.91,47.91 C46.98,52.62 47.03,57.34 47.03,62.05 L47.09,76.19 L47,90.33 C47,95.05 46.95,99.76 46.88,104.47 C46.8133333,99.7633333 46.7733333,95.05 46.76,90.33 L46.7,76.19 L46.76,62.05 C46.7866667,57.35 46.8366667,52.6366667 46.91,47.91 Z" id="Path" fill="#DDF0DE"></path>
            <polygon id="side" stroke="#000000" stroke-width="3" fill="#FFFFFF" stroke-linejoin="round" points="93.41 23.95 46.91 47.91 46.91 104.47 93.41 80.92"></polygon>
            <polygon id="top" stroke="#000000" stroke-width="3" fill="#FFFFFF" stroke-linejoin="round" points="46.91 0 0.41 23.95 46.91 47.91 93.41 23.95"></polygon>
            <path d="M31.75,63.29 C31.772351,63.7411316 31.5607184,64.1719551 31.19,64.43 L24,69.49 L23.91,75.08 C23.91,76.41 23,76.82 21.51,76.08 C20.1660973,75.4768471 19.2737753,74.1711985 19.2,72.7 L19.25,67.08 L12.13,54.66 C11.8098634,54.1610416 11.6175335,53.5909208 11.57,53 C11.57,52 12.57,51.74 13.85,52.38 C14.6583054,52.7763727 15.314959,53.4260033 15.72,54.23 L21.6,64.57 L27.6,60.28 C28.11,59.9 28.6,59.92 29.49,60.36 C30.6769548,60.9085659 31.5208534,62.0026468 31.75,63.29 Z" id="Path" fill="#000000"></path>
            <path d="M61.34,70.3 C61.34,64 65.86,57.49 72.34,54.43 C76.45,52.5 80.16,52.86 81.34,55.35 C81.5346287,55.6767597 81.6382156,56.0496725 81.64,56.43 C81.5427473,57.7827872 80.6974668,58.9677238 79.45,59.5 C79.115483,59.7414286 78.6953791,59.8322793 78.2909969,59.7506435 C77.8866146,59.6690076 77.5346574,59.4222948 77.32,59.07 C76.25,57.56 74.43,57.31 71.99,58.45 C68.2519993,60.2657053 65.8487714,64.0250957 65.77,68.18 C65.77,72.42 68.15,73.84 72.16,71.95 C75.16,70.52 77.03,68.47 77.6,65.78 L72.25,68.29 C70.82,68.96 70.12,68.65 70.12,67.39 C70.1982027,66.1048669 71.0367025,64.9908038 72.25,64.56 L80.03,60.9 C81.46,60.22 82.03,60.55 82.03,62.16 C82.03,67.53 78.03,73.05 72.13,75.83 C65.61,79 61.35,76.75 61.34,70.3 Z" id="Path" fill="#000000"></path>
            <path d="M33.16,20 C34.239434,19.5386302 35.460566,19.5386302 36.54,20 C37.37,20.45 37.16,21.15 36.08,21.61 C34.9949125,22.0605603 33.7750875,22.0605603 32.69,21.61 C31.87,21.11 32.08,20.4 33.16,20 Z" id="Path" fill="#000000"></path>
            <path d="M38.27,24.43 C37.7,24.11 37.84,23.72 38.59,23.43 L44.77,20.82 L44.22,20.52 C43.59,20.18 43.68,19.78 44.43,19.46 C45.1246151,19.1229934 45.9353849,19.1229934 46.63,19.46 L48.32,20.39 C48.9,20.7 48.76,21.09 48.01,21.39 L41.83,24 L42.37,24.29 C43.01,24.64 42.93,25.03 42.18,25.35 C41.4806229,25.6814812 40.6693771,25.6814812 39.97,25.35 L38.27,24.43 Z M49.79,18.07 C50.7900221,17.6448503 51.9199779,17.6448503 52.92,18.07 C53.7,18.5 53.55,19.15 52.55,19.57 C51.5413098,20.0037007 50.3986902,20.0037007 49.39,19.57 C48.61,19.14 48.77,18.5 49.79,18.07 L49.79,18.07 Z" id="Shape" fill="#000000"></path>
            <path d="M43.15,25.55 C43.2846528,25.2933484 43.5143488,25.0995424 43.79,25.01 C44.5184373,24.6835812 45.3515627,24.6835812 46.08,25.01 C46.2171358,25.0658297 46.3216727,25.1806753 46.3643969,25.322442 C46.4071211,25.4642088 46.3834505,25.6176922 46.3,25.74 C45.99,26.38 46.22,26.84 47.04,27.29 C47.6833811,27.7159246 48.4854863,27.8263061 49.22,27.59 C50.03,27.25 49.37,26.75 48.54,26.15 C47.33,25.28 45.89,24.21 48.36,23.15 C50.4286473,22.4057227 52.7148936,22.5653971 54.66,23.59 C55.95,24.29 56.41,25.2 56.07,25.97 C55.99,26.22 55.76,26.37 55.43,26.51 C54.7694948,26.7953169 54.0205052,26.7953169 53.36,26.51 C53.02,26.33 52.93,26.15 53.02,25.82 C53.14,25.27 52.89,24.88 52.26,24.51 C51.7327477,24.188575 51.0976692,24.0947566 50.5,24.25 C49.94,24.49 50.5,24.93 51.16,25.48 C52.27,26.38 53.83,27.56 51.16,28.67 C48.9892218,29.465872 46.5793577,29.2760039 44.56,28.15 C43.31,27.47 42.72,26.42 43.15,25.55 Z" id="Path" fill="#000000"></path>
        </g>
    </g>
</svg>