<?xml version="1.0" encoding="UTF-8"?>
<svg width="1833px" height="101px" viewBox="0 0 1833 101" version="1.1" xmlns="http://www.w3.org/2000/svg" xmlns:xlink="http://www.w3.org/1999/xlink">
    <title>Fig3</title>
    <g id="Cluse" stroke="none" stroke-width="1" fill="none" fill-rule="evenodd">
        <g id="Artboard-Copy" transform="translate(-164.000000, -1720.000000)">
            <g id="Fig3" transform="translate(164.000000, 1720.000000)">
                <path d="M1805.49674,23 C1820.53447,23 1832.75344,35.0638843 1832.99632,50.045139 L1833,50.5 C1833,65.6878306 1820.68838,78 1805.49674,78 L1579.50326,78 C1564.31363,78 1552,65.69117 1552,50.5 C1552,35.3121694 1564.31162,23 1579.50326,23 L1805.49674,23 Z M1805.49674,26 L1579.50326,26 C1565.96912,26 1555,36.9683741 1555,50.5 C1555,63.8976961 1565.75091,74.7804039 1579.09802,74.9967183 L1579.50326,75 L1805.49674,75 C1818.89554,75 1829.78036,64.2498966 1829.99681,50.9287507 L1830.0001,50.524301 L1829.99671,50.0937685 C1829.78227,36.8668221 1819.09655,26.2149271 1805.89747,26.0032119 L1805.49674,26 Z" id="Rectangle-2" fill="#000000" fill-rule="nonzero"></path>
                <path d="M1585.8275,55.6 L1585.8275,51.565 L1587.6575,51.565 L1589.7875,55.6 L1591.7525,55.6 L1589.4875,51.415 C1590.9275,51.04 1591.8275,49.975 1591.8275,48.37 C1591.8275,46.315 1590.4025,45.1 1588.2425,45.1 L1584.0575,45.1 L1584.0575,55.6 L1585.8275,55.6 Z M1588.1075,50.035 L1585.8275,50.035 L1585.8275,46.705 L1588.1075,46.705 C1589.3975,46.705 1590.0425,47.26 1590.0425,48.37 C1590.0425,49.48 1589.3975,50.035 1588.1075,50.035 Z M1595.2475,46.345 L1595.2475,44.65 L1593.4775,44.65 L1593.4775,46.345 L1595.2475,46.345 Z M1595.2175,55.6 L1595.2175,47.65 L1593.5075,47.65 L1593.5075,55.6 L1595.2175,55.6 Z M1599.2075,55.6 L1599.2075,50.665 C1599.2075,49.645 1599.8825,49 1600.9175,49 C1601.9525,49 1602.4625,49.615 1602.4625,50.845 L1602.4625,55.6 L1604.1575,55.6 L1604.1575,50.395 C1604.1575,48.535 1603.0775,47.425 1601.3225,47.425 C1600.4675,47.425 1599.6125,47.86 1599.1775,48.415 L1599.1475,48.415 L1599.1475,47.65 L1597.4975,47.65 L1597.4975,55.6 L1599.2075,55.6 Z M1609.2725,55.825 C1610.3075,55.825 1611.1025,55.585 1611.6275,55.09 C1612.1675,54.595 1612.4375,54.025 1612.4375,53.395 C1612.4375,52.78 1612.2575,52.285 1611.8975,51.91 C1611.5525,51.535 1610.8925,51.205 1609.9325,50.935 C1608.8975,50.65 1608.2525,50.44 1607.9825,50.305 C1607.7275,50.17 1607.5925,49.96 1607.5925,49.705 C1607.5925,49.24 1608.1025,48.85 1608.9575,48.85 C1609.8725,48.85 1610.4725,49.285 1610.7725,50.17 L1612.2125,49.75 C1611.7925,48.205 1610.7125,47.425 1608.9575,47.425 C1608.0425,47.425 1607.3375,47.665 1606.8125,48.13 C1606.2875,48.595 1606.0325,49.135 1606.0325,49.78 C1606.0325,50.935 1606.8425,51.58 1608.7025,52.105 C1609.6175,52.36 1610.2175,52.57 1610.4875,52.705 C1610.7575,52.84 1610.8925,53.065 1610.8925,53.365 C1610.8925,53.98 1610.2775,54.385 1609.2125,54.385 C1608.0725,54.385 1607.4275,53.785 1607.2925,52.57 L1605.7325,52.945 C1605.8375,53.755 1606.1825,54.445 1606.7675,55 C1607.3525,55.555 1608.1775,55.825 1609.2725,55.825 Z M1617.2975,55.825 C1618.7225,55.825 1619.8325,55.21 1620.5975,53.965 L1619.3675,52.96 C1619.1275,53.32 1619.0075,53.515 1618.6475,53.83 C1618.3025,54.145 1617.8525,54.31 1617.2675,54.31 C1616.0525,54.31 1615.3325,53.455 1615.2875,52.135 L1620.8375,52.135 L1620.8375,51.625 C1620.8375,50.35 1620.4925,49.33 1619.8175,48.565 C1619.1425,47.8 1618.2875,47.425 1617.2225,47.425 C1616.1575,47.425 1615.2875,47.815 1614.5975,48.58 C1613.9075,49.345 1613.5625,50.35 1613.5625,51.625 C1613.5625,52.9 1613.9075,53.92 1614.5975,54.685 C1615.3025,55.45 1616.2025,55.825 1617.2975,55.825 Z M1619.1725,50.845 L1615.3025,50.845 C1615.3625,49.825 1616.0825,48.94 1617.2225,48.94 C1618.4375,48.94 1619.1125,49.72 1619.1725,50.845 Z M1628.5925,55.825 C1629.3125,55.825 1629.9275,55.615 1630.2725,55.36 C1630.6325,55.075 1630.7675,54.925 1630.8425,54.805 L1630.8725,54.805 L1630.8725,55.6 L1632.3275,55.6 L1632.3275,50.455 C1632.3275,48.37 1631.0375,47.425 1629.1175,47.425 C1627.3775,47.425 1626.2825,48.37 1625.9375,49.735 L1627.3925,50.29 C1627.6325,49.435 1628.0675,48.895 1629.1625,48.895 C1630.1225,48.895 1630.6175,49.3 1630.6175,49.84 C1630.6175,50.125 1630.4825,50.335 1630.2125,50.485 C1629.9425,50.62 1629.3725,50.8 1628.4875,51.025 C1626.5225,51.505 1625.7875,52.135 1625.7875,53.5 C1625.7875,54.82 1626.7325,55.825 1628.5925,55.825 Z M1628.7425,54.34 C1627.8725,54.34 1627.4375,54.025 1627.4375,53.38 C1627.4375,52.855 1627.7075,52.525 1628.8325,52.24 C1630.3925,51.805 1630.5725,51.625 1630.6475,51.415 L1630.6775,51.415 L1630.6775,53.005 C1630.6775,53.74 1630.0175,54.34 1628.7425,54.34 Z M1636.1375,55.6 L1636.1375,50.665 C1636.1375,49.645 1636.8125,49 1637.8475,49 C1638.8825,49 1639.3925,49.615 1639.3925,50.845 L1639.3925,55.6 L1641.0875,55.6 L1641.0875,50.395 C1641.0875,48.535 1640.0075,47.425 1638.2525,47.425 C1637.3975,47.425 1636.5425,47.86 1636.1075,48.415 L1636.0775,48.415 L1636.0775,47.65 L1634.4275,47.65 L1634.4275,55.6 L1636.1375,55.6 Z M1646.1875,55.825 C1646.5925,55.825 1646.9825,55.75 1647.3275,55.585 C1647.6875,55.42 1647.9275,55.285 1648.0475,55.18 C1648.1825,55.06 1648.2875,54.94 1648.3625,54.835 L1648.3925,54.835 L1648.3925,55.6 L1649.9825,55.6 L1649.9825,44.65 L1648.2725,44.65 L1648.2725,48.415 L1648.2425,48.415 C1647.7025,47.755 1647.0125,47.425 1646.1725,47.425 C1645.2275,47.425 1644.4175,47.8 1643.7425,48.565 C1643.0675,49.33 1642.7375,50.35 1642.7375,51.625 C1642.7375,52.9 1643.0525,53.92 1643.6675,54.685 C1644.2975,55.45 1645.1375,55.825 1646.1875,55.825 Z M1646.4575,54.28 C1645.1825,54.28 1644.4475,53.35 1644.4475,51.625 C1644.4475,49.9 1645.1825,48.97 1646.4575,48.97 C1647.5825,48.97 1648.2725,49.78 1648.2725,50.755 L1648.2725,52.555 C1648.2725,53.515 1647.5375,54.28 1646.4575,54.28 Z M1657.6925,55.6 L1657.6925,51.175 C1657.6925,49.855 1658.1575,49.195 1659.0875,49.195 C1659.2225,49.195 1659.4325,49.24 1659.7175,49.315 L1659.9875,47.65 C1659.7475,47.545 1659.5075,47.5 1659.2825,47.5 C1658.6075,47.5 1657.9475,47.89 1657.6325,48.49 L1657.6025,48.49 L1657.6025,47.65 L1655.9825,47.65 L1655.9825,55.6 L1657.6925,55.6 Z M1664.6225,55.825 C1666.0475,55.825 1667.1575,55.21 1667.9225,53.965 L1666.6925,52.96 C1666.4525,53.32 1666.3325,53.515 1665.9725,53.83 C1665.6275,54.145 1665.1775,54.31 1664.5925,54.31 C1663.3775,54.31 1662.6575,53.455 1662.6125,52.135 L1668.1625,52.135 L1668.1625,51.625 C1668.1625,50.35 1667.8175,49.33 1667.1425,48.565 C1666.4675,47.8 1665.6125,47.425 1664.5475,47.425 C1663.4825,47.425 1662.6125,47.815 1661.9225,48.58 C1661.2325,49.345 1660.8875,50.35 1660.8875,51.625 C1660.8875,52.9 1661.2325,53.92 1661.9225,54.685 C1662.6275,55.45 1663.5275,55.825 1664.6225,55.825 Z M1666.4975,50.845 L1662.6275,50.845 C1662.6875,49.825 1663.4075,48.94 1664.5475,48.94 C1665.7625,48.94 1666.4375,49.72 1666.4975,50.845 Z M1671.5975,58.975 L1671.5975,54.835 L1671.6275,54.835 C1672.1375,55.495 1672.8425,55.825 1673.7575,55.825 C1674.7625,55.825 1675.5875,55.45 1676.2475,54.7 C1676.9225,53.935 1677.2525,52.915 1677.2525,51.625 C1677.2525,50.35 1676.9075,49.33 1676.2175,48.565 C1675.5275,47.8 1674.7025,47.425 1673.7425,47.425 C1672.7975,47.425 1672.0625,47.755 1671.5525,48.415 L1671.5225,48.415 L1671.5225,47.65 L1669.8875,47.65 L1669.8875,58.975 L1671.5975,58.975 Z M1673.4275,54.28 C1672.3475,54.28 1671.5975,53.53 1671.5975,52.615 L1671.5975,50.695 C1671.5975,49.75 1672.3325,48.97 1673.4275,48.97 C1674.7025,48.97 1675.5425,49.93 1675.5425,51.625 C1675.5425,53.32 1674.7325,54.28 1673.4275,54.28 Z M1682.1875,55.825 C1683.6125,55.825 1684.7225,55.21 1685.4875,53.965 L1684.2575,52.96 C1684.0175,53.32 1683.8975,53.515 1683.5375,53.83 C1683.1925,54.145 1682.7425,54.31 1682.1575,54.31 C1680.9425,54.31 1680.2225,53.455 1680.1775,52.135 L1685.7275,52.135 L1685.7275,51.625 C1685.7275,50.35 1685.3825,49.33 1684.7075,48.565 C1684.0325,47.8 1683.1775,47.425 1682.1125,47.425 C1681.0475,47.425 1680.1775,47.815 1679.4875,48.58 C1678.7975,49.345 1678.4525,50.35 1678.4525,51.625 C1678.4525,52.9 1678.7975,53.92 1679.4875,54.685 C1680.1925,55.45 1681.0925,55.825 1682.1875,55.825 Z M1684.0625,50.845 L1680.1925,50.845 C1680.2525,49.825 1680.9725,48.94 1682.1125,48.94 C1683.3275,48.94 1684.0025,49.72 1684.0625,50.845 Z M1689.7325,55.825 C1690.4525,55.825 1691.0675,55.615 1691.4125,55.36 C1691.7725,55.075 1691.9075,54.925 1691.9825,54.805 L1692.0125,54.805 L1692.0125,55.6 L1693.4675,55.6 L1693.4675,50.455 C1693.4675,48.37 1692.1775,47.425 1690.2575,47.425 C1688.5175,47.425 1687.4225,48.37 1687.0775,49.735 L1688.5325,50.29 C1688.7725,49.435 1689.2075,48.895 1690.3025,48.895 C1691.2625,48.895 1691.7575,49.3 1691.7575,49.84 C1691.7575,50.125 1691.6225,50.335 1691.3525,50.485 C1691.0825,50.62 1690.5125,50.8 1689.6275,51.025 C1687.6625,51.505 1686.9275,52.135 1686.9275,53.5 C1686.9275,54.82 1687.8725,55.825 1689.7325,55.825 Z M1689.8825,54.34 C1689.0125,54.34 1688.5775,54.025 1688.5775,53.38 C1688.5775,52.855 1688.8475,52.525 1689.9725,52.24 C1691.5325,51.805 1691.7125,51.625 1691.7875,51.415 L1691.8175,51.415 L1691.8175,53.005 C1691.8175,53.74 1691.1575,54.34 1689.8825,54.34 Z M1699.2875,55.6 L1699.2875,53.95 L1698.6575,53.95 C1697.8175,53.95 1697.6225,53.65 1697.6225,52.765 L1697.6225,49.12 L1699.6025,49.12 L1699.6025,47.65 L1697.6075,47.65 L1697.6075,45.7 L1695.9875,45.7 L1695.9875,47.65 L1694.7425,47.65 L1694.7425,49.12 L1695.9425,49.12 L1695.9425,52.945 C1695.9425,54.79 1696.6025,55.6 1698.5225,55.6 L1699.2875,55.6 Z M1707.0725,55.6 L1707.0725,49.12 L1709.0225,49.12 L1709.0225,47.65 L1707.0275,47.65 L1707.0275,46.885 C1707.0275,46.33 1707.1925,46.165 1707.7175,46.165 L1708.8425,46.165 L1708.8425,44.65 L1707.3725,44.65 C1706.0975,44.65 1705.4075,45.13 1705.4075,46.495 L1705.4075,47.65 L1704.1775,47.65 L1704.1775,49.12 L1705.3775,49.12 L1705.3775,55.6 L1707.0725,55.6 Z M1713.3875,55.825 C1714.4525,55.825 1715.3375,55.45 1716.0125,54.715 C1716.7025,53.98 1717.0475,52.945 1717.0475,51.625 C1717.0475,50.32 1716.6875,49.3 1715.9825,48.55 C1715.2775,47.8 1714.4225,47.425 1713.3875,47.425 C1712.3525,47.425 1711.4825,47.8 1710.7625,48.55 C1710.0575,49.3 1709.6975,50.32 1709.6975,51.625 C1709.6975,52.945 1710.0425,53.98 1710.7325,54.715 C1711.4375,55.45 1712.3225,55.825 1713.3875,55.825 Z M1713.3875,54.28 C1712.1875,54.28 1711.3925,53.35 1711.3925,51.625 C1711.3925,49.93 1712.1875,48.97 1713.3875,48.97 C1714.5725,48.97 1715.3675,49.945 1715.3675,51.625 C1715.3675,53.305 1714.5725,54.28 1713.3875,54.28 Z M1720.4825,55.6 L1720.4825,51.175 C1720.4825,49.855 1720.9475,49.195 1721.8775,49.195 C1722.0125,49.195 1722.2225,49.24 1722.5075,49.315 L1722.7775,47.65 C1722.5375,47.545 1722.2975,47.5 1722.0725,47.5 C1721.3975,47.5 1720.7375,47.89 1720.4225,48.49 L1720.3925,48.49 L1720.3925,47.65 L1718.7725,47.65 L1718.7725,55.6 L1720.4825,55.6 Z M1731.1625,55.825 C1732.5875,55.825 1733.6975,55.21 1734.4625,53.965 L1733.2325,52.96 C1732.9925,53.32 1732.8725,53.515 1732.5125,53.83 C1732.1675,54.145 1731.7175,54.31 1731.1325,54.31 C1729.9175,54.31 1729.1975,53.455 1729.1525,52.135 L1734.7025,52.135 L1734.7025,51.625 C1734.7025,50.35 1734.3575,49.33 1733.6825,48.565 C1733.0075,47.8 1732.1525,47.425 1731.0875,47.425 C1730.0225,47.425 1729.1525,47.815 1728.4625,48.58 C1727.7725,49.345 1727.4275,50.35 1727.4275,51.625 C1727.4275,52.9 1727.7725,53.92 1728.4625,54.685 C1729.1675,55.45 1730.0675,55.825 1731.1625,55.825 Z M1733.0375,50.845 L1729.1675,50.845 C1729.2275,49.825 1729.9475,48.94 1731.0875,48.94 C1732.3025,48.94 1732.9775,49.72 1733.0375,50.845 Z M1740.1475,55.6 L1743.3425,47.65 L1741.5875,47.65 L1739.4575,53.14 L1739.4275,53.14 L1737.2975,47.65 L1735.5275,47.65 L1738.7225,55.6 L1740.1475,55.6 Z M1747.9025,55.825 C1749.3275,55.825 1750.4375,55.21 1751.2025,53.965 L1749.9725,52.96 C1749.7325,53.32 1749.6125,53.515 1749.2525,53.83 C1748.9075,54.145 1748.4575,54.31 1747.8725,54.31 C1746.6575,54.31 1745.9375,53.455 1745.8925,52.135 L1751.4425,52.135 L1751.4425,51.625 C1751.4425,50.35 1751.0975,49.33 1750.4225,48.565 C1749.7475,47.8 1748.8925,47.425 1747.8275,47.425 C1746.7625,47.425 1745.8925,47.815 1745.2025,48.58 C1744.5125,49.345 1744.1675,50.35 1744.1675,51.625 C1744.1675,52.9 1744.5125,53.92 1745.2025,54.685 C1745.9075,55.45 1746.8075,55.825 1747.9025,55.825 Z M1749.7775,50.845 L1745.9075,50.845 C1745.9675,49.825 1746.6875,48.94 1747.8275,48.94 C1749.0425,48.94 1749.7175,49.72 1749.7775,50.845 Z M1754.8775,55.6 L1754.8775,51.175 C1754.8775,49.855 1755.3425,49.195 1756.2725,49.195 C1756.4075,49.195 1756.6175,49.24 1756.9025,49.315 L1757.1725,47.65 C1756.9325,47.545 1756.6925,47.5 1756.4675,47.5 C1755.7925,47.5 1755.1325,47.89 1754.8175,48.49 L1754.7875,48.49 L1754.7875,47.65 L1753.1675,47.65 L1753.1675,55.6 L1754.8775,55.6 Z M1760.8625,58.975 L1765.3925,47.65 L1763.6225,47.65 L1761.5375,53.125 L1761.5075,53.125 L1759.4225,47.65 L1757.6225,47.65 L1760.7125,55.24 L1759.2125,58.975 L1760.8625,58.975 Z M1772.4875,55.6 L1772.4875,49.12 L1774.4375,49.12 L1774.4375,47.65 L1772.4425,47.65 L1772.4425,46.885 C1772.4425,46.33 1772.6075,46.165 1773.1325,46.165 L1774.2575,46.165 L1774.2575,44.65 L1772.7875,44.65 C1771.5125,44.65 1770.8225,45.13 1770.8225,46.495 L1770.8225,47.65 L1769.5925,47.65 L1769.5925,49.12 L1770.7925,49.12 L1770.7925,55.6 L1772.4875,55.6 Z M1778.8025,55.825 C1779.8675,55.825 1780.7525,55.45 1781.4275,54.715 C1782.1175,53.98 1782.4625,52.945 1782.4625,51.625 C1782.4625,50.32 1782.1025,49.3 1781.3975,48.55 C1780.6925,47.8 1779.8375,47.425 1778.8025,47.425 C1777.7675,47.425 1776.8975,47.8 1776.1775,48.55 C1775.4725,49.3 1775.1125,50.32 1775.1125,51.625 C1775.1125,52.945 1775.4575,53.98 1776.1475,54.715 C1776.8525,55.45 1777.7375,55.825 1778.8025,55.825 Z M1778.8025,54.28 C1777.6025,54.28 1776.8075,53.35 1776.8075,51.625 C1776.8075,49.93 1777.6025,48.97 1778.8025,48.97 C1779.9875,48.97 1780.7825,49.945 1780.7825,51.625 C1780.7825,53.305 1779.9875,54.28 1778.8025,54.28 Z M1785.8975,55.6 L1785.8975,50.665 C1785.8975,49.645 1786.5725,49 1787.6075,49 C1788.6425,49 1789.1525,49.615 1789.1525,50.845 L1789.1525,55.6 L1790.8475,55.6 L1790.8475,50.395 C1790.8475,48.535 1789.7675,47.425 1788.0125,47.425 C1787.1575,47.425 1786.3025,47.86 1785.8675,48.415 L1785.8375,48.415 L1785.8375,47.65 L1784.1875,47.65 L1784.1875,55.6 L1785.8975,55.6 Z M1796.7425,55.6 L1796.7425,53.95 L1796.1125,53.95 C1795.2725,53.95 1795.0775,53.65 1795.0775,52.765 L1795.0775,49.12 L1797.0575,49.12 L1797.0575,47.65 L1795.0625,47.65 L1795.0625,45.7 L1793.4425,45.7 L1793.4425,47.65 L1792.1975,47.65 L1792.1975,49.12 L1793.3975,49.12 L1793.3975,52.945 C1793.3975,54.79 1794.0575,55.6 1795.9775,55.6 L1796.7425,55.6 Z M1800.9425,55.6 L1800.9425,53.605 L1798.8575,53.605 L1798.8575,55.6 L1800.9425,55.6 Z" id="Rinseandrepeatforeveryfont." fill="#000000" fill-rule="nonzero"></path>
                <g id="Mockup/Web/Small-Window" transform="translate(960.000000, 1.000000)">
                    <path d="M163.5,1.5 L10.5,1.5 C8.01471863,1.5 5.76471863,2.50735931 4.13603897,4.13603897 C2.50735931,5.76471863 1.5,8.01471863 1.5,10.5 L1.5,89.5 C1.5,91.9852814 2.50735931,94.2352814 4.13603897,95.863961 C5.76471863,97.4926407 8.01471863,98.5 10.5,98.5 L163.5,98.5 C165.985281,98.5 168.235281,97.4926407 169.863961,95.863961 C171.492641,94.2352814 172.5,91.9852814 172.5,89.5 L172.5,10.5 C172.5,8.01471863 171.492641,5.76471863 169.863961,4.13603897 C168.235281,2.50735931 165.985281,1.5 163.5,1.5 Z" id="Rectangle-8" stroke="#000000" stroke-width="3" fill="#FFFFFF"></path>
                    <circle id="Oval-6" fill="#000000" cx="14" cy="14" r="3"></circle>
                    <circle id="Oval-6-Copy" fill="#000000" cx="26" cy="14" r="3"></circle>
                    <circle id="Oval-6-Copy-2" fill="#000000" cx="38" cy="14" r="3"></circle>
                </g>
                <path d="M997.174062,56 C997.872305,56 998.468008,55.753418 998.961172,55.2602539 C999.454336,54.7670898 999.700918,54.1713867 999.700918,53.4731445 C999.700918,52.7749023 999.454336,52.1779785 998.961172,51.682373 C998.468008,51.1867676 997.872305,50.9389648 997.174062,50.9389648 L997.174062,50.9389648 L995.906973,50.9389648 L995.906973,49.671875 L997.174062,49.671875 C997.872305,49.671875 998.468008,49.425293 998.961172,48.9321289 C999.454336,48.4389648 999.700918,47.8432617 999.700918,47.1450195 C999.700918,46.4467773 999.454336,45.8510742 998.961172,45.3579102 C998.468008,44.8647461 997.872305,44.6181641 997.174062,44.6181641 C996.47582,44.6181641 995.880117,44.8647461 995.386953,45.3579102 C994.893789,45.8510742 994.647207,46.4467773 994.647207,47.1450195 L994.647207,47.1450195 L994.647207,48.4121094 L993.380117,48.4121094 L993.380117,47.1450195 C993.380117,46.4467773 993.132314,45.8510742 992.636709,45.3579102 C992.141104,44.8647461 991.54418,44.6181641 990.845937,44.6181641 C990.147695,44.6181641 989.551992,44.8647461 989.058828,45.3579102 C988.565664,45.8510742 988.319082,46.4467773 988.319082,47.1450195 C988.319082,47.8432617 988.565664,48.4389648 989.058828,48.9321289 C989.551992,49.425293 990.147695,49.671875 990.845937,49.671875 L990.845937,49.671875 L992.113027,49.671875 L992.113027,50.9389648 L990.845937,50.9389648 C990.147695,50.9389648 989.551992,51.1867676 989.058828,51.682373 C988.565664,52.1779785 988.319082,52.7749023 988.319082,53.4731445 C988.319082,54.1713867 988.565664,54.7670898 989.058828,55.2602539 C989.551992,55.753418 990.147695,56 990.845937,56 C991.54418,56 992.141104,55.753418 992.636709,55.2602539 C993.132314,54.7670898 993.380117,54.1713867 993.380117,53.4731445 L993.380117,53.4731445 L993.380117,52.2060547 L994.647207,52.2060547 L994.647207,53.4731445 C994.647207,54.1713867 994.893789,54.7670898 995.386953,55.2602539 C995.880117,55.753418 996.47582,56 997.174062,56 Z M992.113027,48.4121094 L990.845937,48.4121094 C990.499258,48.4121094 990.202627,48.2888184 989.956045,48.0422363 C989.709463,47.7956543 989.586172,47.496582 989.586172,47.1450195 C989.586172,46.7983398 989.709463,46.5004883 989.956045,46.2514648 C990.202627,46.0024414 990.499258,45.8779297 990.845937,45.8779297 C991.1975,45.8779297 991.496572,46.0024414 991.743154,46.2514648 C991.989736,46.5004883 992.113027,46.7983398 992.113027,47.1450195 L992.113027,47.1450195 L992.113027,48.4121094 Z M997.174062,48.4121094 L995.906973,48.4121094 L995.906973,47.1450195 C995.906973,46.7983398 996.030264,46.5004883 996.276846,46.2514648 C996.523428,46.0024414 996.8225,45.8779297 997.174062,45.8779297 C997.520742,45.8779297 997.818594,46.0024414 998.067617,46.2514648 C998.316641,46.5004883 998.441152,46.7983398 998.441152,47.1450195 C998.441152,47.4916992 998.317861,47.7895508 998.071279,48.0385742 C997.824697,48.2875977 997.525625,48.4121094 997.174062,48.4121094 L997.174062,48.4121094 Z M994.647207,50.9389648 L993.380117,50.9389648 L993.380117,49.671875 L994.647207,49.671875 L994.647207,50.9389648 Z M997.174062,54.7329102 C996.827383,54.7329102 996.529531,54.6096191 996.280508,54.3630371 C996.031484,54.1164551 995.906973,53.8198242 995.906973,53.4731445 L995.906973,53.4731445 L995.906973,52.2060547 L997.174062,52.2060547 C997.520742,52.2060547 997.818594,52.3293457 998.067617,52.5759277 C998.316641,52.8225098 998.441152,53.1191406 998.441152,53.4658203 C998.441152,53.8173828 998.317861,54.1164551 998.071279,54.3630371 C997.824697,54.6096191 997.525625,54.7329102 997.174062,54.7329102 Z M990.845937,54.7329102 C990.499258,54.7329102 990.202627,54.6096191 989.956045,54.3630371 C989.709463,54.1164551 989.586172,53.8198242 989.586172,53.4731445 C989.586172,53.121582 989.709463,52.8225098 989.956045,52.5759277 C990.202627,52.3293457 990.499258,52.2060547 990.845937,52.2060547 L990.845937,52.2060547 L992.113027,52.2060547 L992.113027,53.4731445 C992.113027,53.8198242 991.989736,54.1164551 991.743154,54.3630371 C991.496572,54.6096191 991.1975,54.7329102 990.845937,54.7329102 Z M1006.57801,51.695 L1006.57801,50.33 L1001.64301,50.33 L1001.64301,51.695 L1006.57801,51.695 Z M1012.38301,56 L1012.38301,47.135 L1015.50301,47.135 L1015.50301,45.5 L1007.47801,45.5 L1007.47801,47.135 L1010.61301,47.135 L1010.61301,56 L1012.38301,56 Z M1019.13301,56.225 C1019.85301,56.225 1020.46801,56.015 1020.81301,55.76 C1021.17301,55.475 1021.30801,55.325 1021.38301,55.205 L1021.41301,55.205 L1021.41301,56 L1022.86801,56 L1022.86801,50.855 C1022.86801,48.77 1021.57801,47.825 1019.65801,47.825 C1017.91801,47.825 1016.82301,48.77 1016.47801,50.135 L1017.93301,50.69 C1018.17301,49.835 1018.60801,49.295 1019.70301,49.295 C1020.66301,49.295 1021.15801,49.7 1021.15801,50.24 C1021.15801,50.525 1021.02301,50.735 1020.75301,50.885 C1020.48301,51.02 1019.91301,51.2 1019.02801,51.425 C1017.06301,51.905 1016.32801,52.535 1016.32801,53.9 C1016.32801,55.22 1017.27301,56.225 1019.13301,56.225 Z M1019.28301,54.74 C1018.41301,54.74 1017.97801,54.425 1017.97801,53.78 C1017.97801,53.255 1018.24801,52.925 1019.37301,52.64 C1020.93301,52.205 1021.11301,52.025 1021.18801,51.815 L1021.21801,51.815 L1021.21801,53.405 C1021.21801,54.14 1020.55801,54.74 1019.28301,54.74 Z M1028.76301,56.225 C1029.81301,56.225 1030.65301,55.85 1031.26801,55.085 C1031.89801,54.32 1032.21301,53.3 1032.21301,52.025 C1032.21301,50.765 1031.88301,49.745 1031.23801,48.98 C1030.59301,48.215 1029.78301,47.825 1028.79301,47.825 C1027.93801,47.825 1027.24801,48.155 1026.70801,48.815 L1026.67801,48.815 L1026.67801,45.05 L1024.96801,45.05 L1024.96801,56 L1026.55801,56 L1026.55801,55.235 L1026.58801,55.235 C1027.17301,55.895 1027.90801,56.225 1028.76301,56.225 Z M1028.50801,54.68 C1027.41301,54.68 1026.67801,53.915 1026.67801,52.955 L1026.67801,51.155 C1026.67801,50.18 1027.38301,49.37 1028.50801,49.37 C1029.78301,49.37 1030.50301,50.3 1030.50301,52.025 C1030.50301,53.75 1029.78301,54.68 1028.50801,54.68 Z M1041.40801,56 L1041.40801,54.35 L1040.77801,54.35 C1039.93801,54.35 1039.74301,54.05 1039.74301,53.165 L1039.74301,49.52 L1041.72301,49.52 L1041.72301,48.05 L1039.72801,48.05 L1039.72801,46.1 L1038.10801,46.1 L1038.10801,48.05 L1036.86301,48.05 L1036.86301,49.52 L1038.06301,49.52 L1038.06301,53.345 C1038.06301,55.19 1038.72301,56 1040.64301,56 L1041.40801,56 Z M1046.53801,56.225 C1047.60301,56.225 1048.48801,55.85 1049.16301,55.115 C1049.85301,54.38 1050.19801,53.345 1050.19801,52.025 C1050.19801,50.72 1049.83801,49.7 1049.13301,48.95 C1048.42801,48.2 1047.57301,47.825 1046.53801,47.825 C1045.50301,47.825 1044.63301,48.2 1043.91301,48.95 C1043.20801,49.7 1042.84801,50.72 1042.84801,52.025 C1042.84801,53.345 1043.19301,54.38 1043.88301,55.115 C1044.58801,55.85 1045.47301,56.225 1046.53801,56.225 Z M1046.53801,54.68 C1045.33801,54.68 1044.54301,53.75 1044.54301,52.025 C1044.54301,50.33 1045.33801,49.37 1046.53801,49.37 C1047.72301,49.37 1048.51801,50.345 1048.51801,52.025 C1048.51801,53.705 1047.72301,54.68 1046.53801,54.68 Z M1059.36301,56.225 C1060.51801,56.225 1061.44801,55.925 1062.12301,55.325 C1062.81301,54.725 1063.15801,53.975 1063.15801,53.06 C1063.15801,52.265 1062.93301,51.65 1062.48301,51.185 C1062.04801,50.72 1061.20801,50.285 1059.96301,49.865 C1058.80801,49.475 1058.08801,49.175 1057.77301,48.98 C1057.45801,48.785 1057.30801,48.515 1057.30801,48.17 C1057.30801,47.435 1057.87801,46.925 1059.01801,46.925 C1060.26301,46.925 1060.83301,47.54 1061.11801,48.575 L1062.84301,48.155 C1062.52801,46.25 1060.99801,45.275 1059.01801,45.275 C1057.95301,45.275 1057.11301,45.56 1056.49801,46.13 C1055.88301,46.7 1055.56801,47.39 1055.56801,48.185 C1055.56801,49.58 1056.43801,50.54 1058.64301,51.215 C1059.82801,51.575 1060.57801,51.875 1060.90801,52.13 C1061.25301,52.385 1061.41801,52.73 1061.41801,53.165 C1061.41801,54.05 1060.65301,54.59 1059.37801,54.59 C1057.83301,54.59 1057.29301,53.84 1057.00801,52.055 L1055.14801,52.46 C1055.46301,54.935 1056.94801,56.225 1059.36301,56.225 Z M1066.44301,56 L1066.44301,53.405 L1067.50801,52.235 L1067.53801,52.235 L1070.05801,56 L1071.99301,56 L1068.81301,51.245 L1071.69301,48.05 L1069.51801,48.05 L1066.47301,51.455 L1066.44301,51.455 L1066.44301,45.05 L1064.73301,45.05 L1064.73301,56 L1066.44301,56 Z M1076.40301,56.225 C1077.82801,56.225 1078.93801,55.61 1079.70301,54.365 L1078.47301,53.36 C1078.23301,53.72 1078.11301,53.915 1077.75301,54.23 C1077.40801,54.545 1076.95801,54.71 1076.37301,54.71 C1075.15801,54.71 1074.43801,53.855 1074.39301,52.535 L1079.94301,52.535 L1079.94301,52.025 C1079.94301,50.75 1079.59801,49.73 1078.92301,48.965 C1078.24801,48.2 1077.39301,47.825 1076.32801,47.825 C1075.26301,47.825 1074.39301,48.215 1073.70301,48.98 C1073.01301,49.745 1072.66801,50.75 1072.66801,52.025 C1072.66801,53.3 1073.01301,54.32 1073.70301,55.085 C1074.40801,55.85 1075.30801,56.225 1076.40301,56.225 Z M1078.27801,51.245 L1074.40801,51.245 C1074.46801,50.225 1075.18801,49.34 1076.32801,49.34 C1077.54301,49.34 1078.21801,50.12 1078.27801,51.245 Z M1085.38801,56 L1085.38801,54.35 L1084.75801,54.35 C1083.91801,54.35 1083.72301,54.05 1083.72301,53.165 L1083.72301,49.52 L1085.70301,49.52 L1085.70301,48.05 L1083.70801,48.05 L1083.70801,46.1 L1082.08801,46.1 L1082.08801,48.05 L1080.84301,48.05 L1080.84301,49.52 L1082.04301,49.52 L1082.04301,53.345 C1082.04301,55.19 1082.70301,56 1084.62301,56 L1085.38801,56 Z M1090.51801,56.225 C1092.39301,56.225 1093.56301,55.115 1093.87801,53.195 L1092.18301,52.835 C1092.00301,54.065 1091.44801,54.68 1090.51801,54.68 C1089.25801,54.68 1088.52301,53.705 1088.52301,52.025 C1088.52301,50.345 1089.30301,49.37 1090.51801,49.37 C1091.46301,49.37 1092.01801,49.925 1092.18301,51.035 L1093.78801,50.765 C1093.59301,49.025 1092.31801,47.825 1090.50301,47.825 C1089.43801,47.825 1088.56801,48.215 1087.86301,48.98 C1087.17301,49.745 1086.82801,50.75 1086.82801,52.025 C1086.82801,53.345 1087.17301,54.38 1087.86301,55.115 C1088.55301,55.85 1089.43801,56.225 1090.51801,56.225 Z M1097.23801,56 L1097.23801,51.005 C1097.23801,50.06 1097.91301,49.4 1098.93301,49.4 C1099.99801,49.4 1100.56801,50.105 1100.56801,51.14 L1100.56801,56 L1102.26301,56 L1102.26301,50.735 C1102.26301,48.935 1101.09301,47.825 1099.39801,47.825 C1098.55801,47.825 1097.62801,48.29 1097.26801,48.83 L1097.23801,48.83 L1097.23801,45.05 L1095.52801,45.05 L1095.52801,56 L1097.23801,56 Z M1106.67301,56 L1106.67301,54.005 L1104.58801,54.005 L1104.58801,56 L1106.67301,56 Z" id="⌘-TabtoSketch." fill="#000000" fill-rule="nonzero"></path>
                <g id="Mockup/Web/Small-Window" transform="translate(1257.000000, 1.000000)">
                    <path d="M163.5,1.5 L10.5,1.5 C8.01471863,1.5 5.76471863,2.50735931 4.13603897,4.13603897 C2.50735931,5.76471863 1.5,8.01471863 1.5,10.5 L1.5,89.5 C1.5,91.9852814 2.50735931,94.2352814 4.13603897,95.863961 C5.76471863,97.4926407 8.01471863,98.5 10.5,98.5 L163.5,98.5 C165.985281,98.5 168.235281,97.4926407 169.863961,95.863961 C171.492641,94.2352814 172.5,91.9852814 172.5,89.5 L172.5,10.5 C172.5,8.01471863 171.492641,5.76471863 169.863961,4.13603897 C168.235281,2.50735931 165.985281,1.5 163.5,1.5 Z" id="Rectangle-8" stroke="#000000" stroke-width="3" fill="#FFFFFF"></path>
                    <circle id="Oval-6" fill="#000000" cx="14" cy="14" r="3"></circle>
                    <circle id="Oval-6-Copy" fill="#000000" cx="26" cy="14" r="3"></circle>
                    <circle id="Oval-6-Copy-2" fill="#000000" cx="38" cy="14" r="3"></circle>
                </g>
                <path d="M1299.365,38 L1299.365,34.1 L1301.795,34.1 C1304,34.1 1305.365,32.855 1305.365,30.815 C1305.365,29.78 1305.035,28.97 1304.375,28.385 C1303.715,27.8 1302.845,27.5 1301.78,27.5 L1297.595,27.5 L1297.595,38 L1299.365,38 Z M1301.75,32.465 L1299.365,32.465 L1299.365,29.135 L1301.735,29.135 C1302.755,29.135 1303.55,29.66 1303.55,30.815 C1303.55,31.835 1302.785,32.465 1301.75,32.465 Z M1308.35,38 L1308.35,33.575 C1308.35,32.255 1308.815,31.595 1309.745,31.595 C1309.88,31.595 1310.09,31.64 1310.375,31.715 L1310.645,30.05 C1310.405,29.945 1310.165,29.9 1309.94,29.9 C1309.265,29.9 1308.605,30.29 1308.29,30.89 L1308.26,30.89 L1308.26,30.05 L1306.64,30.05 L1306.64,38 L1308.35,38 Z M1315.28,38.225 C1316.705,38.225 1317.815,37.61 1318.58,36.365 L1317.35,35.36 C1317.11,35.72 1316.99,35.915 1316.63,36.23 C1316.285,36.545 1315.835,36.71 1315.25,36.71 C1314.035,36.71 1313.315,35.855 1313.27,34.535 L1318.82,34.535 L1318.82,34.025 C1318.82,32.75 1318.475,31.73 1317.8,30.965 C1317.125,30.2 1316.27,29.825 1315.205,29.825 C1314.14,29.825 1313.27,30.215 1312.58,30.98 C1311.89,31.745 1311.545,32.75 1311.545,34.025 C1311.545,35.3 1311.89,36.32 1312.58,37.085 C1313.285,37.85 1314.185,38.225 1315.28,38.225 Z M1317.155,33.245 L1313.285,33.245 C1313.345,32.225 1314.065,31.34 1315.205,31.34 C1316.42,31.34 1317.095,32.12 1317.155,33.245 Z M1323.485,38.225 C1324.52,38.225 1325.315,37.985 1325.84,37.49 C1326.38,36.995 1326.65,36.425 1326.65,35.795 C1326.65,35.18 1326.47,34.685 1326.11,34.31 C1325.765,33.935 1325.105,33.605 1324.145,33.335 C1323.11,33.05 1322.465,32.84 1322.195,32.705 C1321.94,32.57 1321.805,32.36 1321.805,32.105 C1321.805,31.64 1322.315,31.25 1323.17,31.25 C1324.085,31.25 1324.685,31.685 1324.985,32.57 L1326.425,32.15 C1326.005,30.605 1324.925,29.825 1323.17,29.825 C1322.255,29.825 1321.55,30.065 1321.025,30.53 C1320.5,30.995 1320.245,31.535 1320.245,32.18 C1320.245,33.335 1321.055,33.98 1322.915,34.505 C1323.83,34.76 1324.43,34.97 1324.7,35.105 C1324.97,35.24 1325.105,35.465 1325.105,35.765 C1325.105,36.38 1324.49,36.785 1323.425,36.785 C1322.285,36.785 1321.64,36.185 1321.505,34.97 L1319.945,35.345 C1320.05,36.155 1320.395,36.845 1320.98,37.4 C1321.565,37.955 1322.39,38.225 1323.485,38.225 Z M1331.24,38.225 C1332.275,38.225 1333.07,37.985 1333.595,37.49 C1334.135,36.995 1334.405,36.425 1334.405,35.795 C1334.405,35.18 1334.225,34.685 1333.865,34.31 C1333.52,33.935 1332.86,33.605 1331.9,33.335 C1330.865,33.05 1330.22,32.84 1329.95,32.705 C1329.695,32.57 1329.56,32.36 1329.56,32.105 C1329.56,31.64 1330.07,31.25 1330.925,31.25 C1331.84,31.25 1332.44,31.685 1332.74,32.57 L1334.18,32.15 C1333.76,30.605 1332.68,29.825 1330.925,29.825 C1330.01,29.825 1329.305,30.065 1328.78,30.53 C1328.255,30.995 1328,31.535 1328,32.18 C1328,33.335 1328.81,33.98 1330.67,34.505 C1331.585,34.76 1332.185,34.97 1332.455,35.105 C1332.725,35.24 1332.86,35.465 1332.86,35.765 C1332.86,36.38 1332.245,36.785 1331.18,36.785 C1330.04,36.785 1329.395,36.185 1329.26,34.97 L1327.7,35.345 C1327.805,36.155 1328.15,36.845 1328.735,37.4 C1329.32,37.955 1330.145,38.225 1331.24,38.225 Z M1342.085,38.225 C1342.805,38.225 1343.42,38.015 1343.765,37.76 C1344.125,37.475 1344.26,37.325 1344.335,37.205 L1344.365,37.205 L1344.365,38 L1345.82,38 L1345.82,32.855 C1345.82,30.77 1344.53,29.825 1342.61,29.825 C1340.87,29.825 1339.775,30.77 1339.43,32.135 L1340.885,32.69 C1341.125,31.835 1341.56,31.295 1342.655,31.295 C1343.615,31.295 1344.11,31.7 1344.11,32.24 C1344.11,32.525 1343.975,32.735 1343.705,32.885 C1343.435,33.02 1342.865,33.2 1341.98,33.425 C1340.015,33.905 1339.28,34.535 1339.28,35.9 C1339.28,37.22 1340.225,38.225 1342.085,38.225 Z M1342.235,36.74 C1341.365,36.74 1340.93,36.425 1340.93,35.78 C1340.93,35.255 1341.2,34.925 1342.325,34.64 C1343.885,34.205 1344.065,34.025 1344.14,33.815 L1344.17,33.815 L1344.17,35.405 C1344.17,36.14 1343.51,36.74 1342.235,36.74 Z M1349.63,38 L1349.63,33.065 C1349.63,32.045 1350.305,31.4 1351.34,31.4 C1352.375,31.4 1352.885,32.015 1352.885,33.245 L1352.885,38 L1354.58,38 L1354.58,32.795 C1354.58,30.935 1353.5,29.825 1351.745,29.825 C1350.89,29.825 1350.035,30.26 1349.6,30.815 L1349.57,30.815 L1349.57,30.05 L1347.92,30.05 L1347.92,38 L1349.63,38 Z M1359.92,38.225 C1360.985,38.225 1361.87,37.85 1362.545,37.115 C1363.235,36.38 1363.58,35.345 1363.58,34.025 C1363.58,32.72 1363.22,31.7 1362.515,30.95 C1361.81,30.2 1360.955,29.825 1359.92,29.825 C1358.885,29.825 1358.015,30.2 1357.295,30.95 C1356.59,31.7 1356.23,32.72 1356.23,34.025 C1356.23,35.345 1356.575,36.38 1357.265,37.115 C1357.97,37.85 1358.855,38.225 1359.92,38.225 Z M1359.92,36.68 C1358.72,36.68 1357.925,35.75 1357.925,34.025 C1357.925,32.33 1358.72,31.37 1359.92,31.37 C1361.105,31.37 1361.9,32.345 1361.9,34.025 C1361.9,35.705 1361.105,36.68 1359.92,36.68 Z M1369.025,38 L1369.025,36.35 L1368.395,36.35 C1367.555,36.35 1367.36,36.05 1367.36,35.165 L1367.36,31.52 L1369.34,31.52 L1369.34,30.05 L1367.345,30.05 L1367.345,28.1 L1365.725,28.1 L1365.725,30.05 L1364.48,30.05 L1364.48,31.52 L1365.68,31.52 L1365.68,35.345 C1365.68,37.19 1366.34,38 1368.26,38 L1369.025,38 Z M1372.7,38 L1372.7,33.005 C1372.7,32.06 1373.375,31.4 1374.395,31.4 C1375.46,31.4 1376.03,32.105 1376.03,33.14 L1376.03,38 L1377.725,38 L1377.725,32.735 C1377.725,30.935 1376.555,29.825 1374.86,29.825 C1374.02,29.825 1373.09,30.29 1372.73,30.83 L1372.7,30.83 L1372.7,27.05 L1370.99,27.05 L1370.99,38 L1372.7,38 Z M1383.11,38.225 C1384.535,38.225 1385.645,37.61 1386.41,36.365 L1385.18,35.36 C1384.94,35.72 1384.82,35.915 1384.46,36.23 C1384.115,36.545 1383.665,36.71 1383.08,36.71 C1381.865,36.71 1381.145,35.855 1381.1,34.535 L1386.65,34.535 L1386.65,34.025 C1386.65,32.75 1386.305,31.73 1385.63,30.965 C1384.955,30.2 1384.1,29.825 1383.035,29.825 C1381.97,29.825 1381.1,30.215 1380.41,30.98 C1379.72,31.745 1379.375,32.75 1379.375,34.025 C1379.375,35.3 1379.72,36.32 1380.41,37.085 C1381.115,37.85 1382.015,38.225 1383.11,38.225 Z M1384.985,33.245 L1381.115,33.245 C1381.175,32.225 1381.895,31.34 1383.035,31.34 C1384.25,31.34 1384.925,32.12 1384.985,33.245 Z M1390.085,38 L1390.085,33.575 C1390.085,32.255 1390.55,31.595 1391.48,31.595 C1391.615,31.595 1391.825,31.64 1392.11,31.715 L1392.38,30.05 C1392.14,29.945 1391.9,29.9 1391.675,29.9 C1391,29.9 1390.34,30.29 1390.025,30.89 L1389.995,30.89 L1389.995,30.05 L1388.375,30.05 L1388.375,38 L1390.085,38 Z M1283.2475,56 L1283.2475,51.005 C1283.2475,50.06 1283.9225,49.4 1284.9425,49.4 C1286.0075,49.4 1286.5775,50.105 1286.5775,51.14 L1286.5775,56 L1288.2725,56 L1288.2725,50.735 C1288.2725,48.935 1287.1025,47.825 1285.4075,47.825 C1284.5675,47.825 1283.6375,48.29 1283.2775,48.83 L1283.2475,48.83 L1283.2475,45.05 L1281.5375,45.05 L1281.5375,56 L1283.2475,56 Z M1293.6125,56.225 C1294.6775,56.225 1295.5625,55.85 1296.2375,55.115 C1296.9275,54.38 1297.2725,53.345 1297.2725,52.025 C1297.2725,50.72 1296.9125,49.7 1296.2075,48.95 C1295.5025,48.2 1294.6475,47.825 1293.6125,47.825 C1292.5775,47.825 1291.7075,48.2 1290.9875,48.95 C1290.2825,49.7 1289.9225,50.72 1289.9225,52.025 C1289.9225,53.345 1290.2675,54.38 1290.9575,55.115 C1291.6625,55.85 1292.5475,56.225 1293.6125,56.225 Z M1293.6125,54.68 C1292.4125,54.68 1291.6175,53.75 1291.6175,52.025 C1291.6175,50.33 1292.4125,49.37 1293.6125,49.37 C1294.7975,49.37 1295.5925,50.345 1295.5925,52.025 C1295.5925,53.705 1294.7975,54.68 1293.6125,54.68 Z M1302.7175,56 L1302.7175,54.35 L1302.0875,54.35 C1301.2475,54.35 1301.0525,54.05 1301.0525,53.165 L1301.0525,49.52 L1303.0325,49.52 L1303.0325,48.05 L1301.0375,48.05 L1301.0375,46.1 L1299.4175,46.1 L1299.4175,48.05 L1298.1725,48.05 L1298.1725,49.52 L1299.3725,49.52 L1299.3725,53.345 C1299.3725,55.19 1300.0325,56 1301.9525,56 L1302.7175,56 Z M1306.3925,56 L1306.3925,53.405 L1307.4575,52.235 L1307.4875,52.235 L1310.0075,56 L1311.9425,56 L1308.7625,51.245 L1311.6425,48.05 L1309.4675,48.05 L1306.4225,51.455 L1306.3925,51.455 L1306.3925,45.05 L1304.6825,45.05 L1304.6825,56 L1306.3925,56 Z M1316.3525,56.225 C1317.7775,56.225 1318.8875,55.61 1319.6525,54.365 L1318.4225,53.36 C1318.1825,53.72 1318.0625,53.915 1317.7025,54.23 C1317.3575,54.545 1316.9075,54.71 1316.3225,54.71 C1315.1075,54.71 1314.3875,53.855 1314.3425,52.535 L1319.8925,52.535 L1319.8925,52.025 C1319.8925,50.75 1319.5475,49.73 1318.8725,48.965 C1318.1975,48.2 1317.3425,47.825 1316.2775,47.825 C1315.2125,47.825 1314.3425,48.215 1313.6525,48.98 C1312.9625,49.745 1312.6175,50.75 1312.6175,52.025 C1312.6175,53.3 1312.9625,54.32 1313.6525,55.085 C1314.3575,55.85 1315.2575,56.225 1316.3525,56.225 Z M1318.2275,51.245 L1314.3575,51.245 C1314.4175,50.225 1315.1375,49.34 1316.2775,49.34 C1317.4925,49.34 1318.1675,50.12 1318.2275,51.245 Z M1323.8825,59.375 L1328.4125,48.05 L1326.6425,48.05 L1324.5575,53.525 L1324.5275,53.525 L1322.4425,48.05 L1320.6425,48.05 L1323.7325,55.64 L1322.2325,59.375 L1323.8825,59.375 Z M1337.1575,56 L1337.1575,54.35 L1336.5275,54.35 C1335.6875,54.35 1335.4925,54.05 1335.4925,53.165 L1335.4925,49.52 L1337.4725,49.52 L1337.4725,48.05 L1335.4775,48.05 L1335.4775,46.1 L1333.8575,46.1 L1333.8575,48.05 L1332.6125,48.05 L1332.6125,49.52 L1333.8125,49.52 L1333.8125,53.345 C1333.8125,55.19 1334.4725,56 1336.3925,56 L1337.1575,56 Z M1342.2875,56.225 C1343.3525,56.225 1344.2375,55.85 1344.9125,55.115 C1345.6025,54.38 1345.9475,53.345 1345.9475,52.025 C1345.9475,50.72 1345.5875,49.7 1344.8825,48.95 C1344.1775,48.2 1343.3225,47.825 1342.2875,47.825 C1341.2525,47.825 1340.3825,48.2 1339.6625,48.95 C1338.9575,49.7 1338.5975,50.72 1338.5975,52.025 C1338.5975,53.345 1338.9425,54.38 1339.6325,55.115 C1340.3375,55.85 1341.2225,56.225 1342.2875,56.225 Z M1342.2875,54.68 C1341.0875,54.68 1340.2925,53.75 1340.2925,52.025 C1340.2925,50.33 1341.0875,49.37 1342.2875,49.37 C1343.4725,49.37 1344.2675,50.345 1344.2675,52.025 C1344.2675,53.705 1343.4725,54.68 1342.2875,54.68 Z M1353.7025,56.225 C1354.4225,56.225 1355.0375,56.015 1355.3825,55.76 C1355.7425,55.475 1355.8775,55.325 1355.9525,55.205 L1355.9825,55.205 L1355.9825,56 L1357.4375,56 L1357.4375,50.855 C1357.4375,48.77 1356.1475,47.825 1354.2275,47.825 C1352.4875,47.825 1351.3925,48.77 1351.0475,50.135 L1352.5025,50.69 C1352.7425,49.835 1353.1775,49.295 1354.2725,49.295 C1355.2325,49.295 1355.7275,49.7 1355.7275,50.24 C1355.7275,50.525 1355.5925,50.735 1355.3225,50.885 C1355.0525,51.02 1354.4825,51.2 1353.5975,51.425 C1351.6325,51.905 1350.8975,52.535 1350.8975,53.9 C1350.8975,55.22 1351.8425,56.225 1353.7025,56.225 Z M1353.8525,54.74 C1352.9825,54.74 1352.5475,54.425 1352.5475,53.78 C1352.5475,53.255 1352.8175,52.925 1353.9425,52.64 C1355.5025,52.205 1355.6825,52.025 1355.7575,51.815 L1355.7875,51.815 L1355.7875,53.405 C1355.7875,54.14 1355.1275,54.74 1353.8525,54.74 Z M1361.2475,59.375 L1361.2475,55.235 L1361.2775,55.235 C1361.7875,55.895 1362.4925,56.225 1363.4075,56.225 C1364.4125,56.225 1365.2375,55.85 1365.8975,55.1 C1366.5725,54.335 1366.9025,53.315 1366.9025,52.025 C1366.9025,50.75 1366.5575,49.73 1365.8675,48.965 C1365.1775,48.2 1364.3525,47.825 1363.3925,47.825 C1362.4475,47.825 1361.7125,48.155 1361.2025,48.815 L1361.1725,48.815 L1361.1725,48.05 L1359.5375,48.05 L1359.5375,59.375 L1361.2475,59.375 Z M1363.0775,54.68 C1361.9975,54.68 1361.2475,53.93 1361.2475,53.015 L1361.2475,51.095 C1361.2475,50.15 1361.9825,49.37 1363.0775,49.37 C1364.3525,49.37 1365.1925,50.33 1365.1925,52.025 C1365.1925,53.72 1364.3825,54.68 1363.0775,54.68 Z M1370.3375,59.375 L1370.3375,55.235 L1370.3675,55.235 C1370.8775,55.895 1371.5825,56.225 1372.4975,56.225 C1373.5025,56.225 1374.3275,55.85 1374.9875,55.1 C1375.6625,54.335 1375.9925,53.315 1375.9925,52.025 C1375.9925,50.75 1375.6475,49.73 1374.9575,48.965 C1374.2675,48.2 1373.4425,47.825 1372.4825,47.825 C1371.5375,47.825 1370.8025,48.155 1370.2925,48.815 L1370.2625,48.815 L1370.2625,48.05 L1368.6275,48.05 L1368.6275,59.375 L1370.3375,59.375 Z M1372.1675,54.68 C1371.0875,54.68 1370.3375,53.93 1370.3375,53.015 L1370.3375,51.095 C1370.3375,50.15 1371.0725,49.37 1372.1675,49.37 C1373.4425,49.37 1374.2825,50.33 1374.2825,52.025 C1374.2825,53.72 1373.4725,54.68 1372.1675,54.68 Z M1379.4875,56 L1379.4875,45.05 L1377.7175,45.05 L1377.7175,56 L1379.4875,56 Z M1384.0025,59.375 L1388.5325,48.05 L1386.7625,48.05 L1384.6775,53.525 L1384.6475,53.525 L1382.5625,48.05 L1380.7625,48.05 L1383.8525,55.64 L1382.3525,59.375 L1384.0025,59.375 Z M1395.8375,56.225 C1396.5575,56.225 1397.1725,56.015 1397.5175,55.76 C1397.8775,55.475 1398.0125,55.325 1398.0875,55.205 L1398.1175,55.205 L1398.1175,56 L1399.5725,56 L1399.5725,50.855 C1399.5725,48.77 1398.2825,47.825 1396.3625,47.825 C1394.6225,47.825 1393.5275,48.77 1393.1825,50.135 L1394.6375,50.69 C1394.8775,49.835 1395.3125,49.295 1396.4075,49.295 C1397.3675,49.295 1397.8625,49.7 1397.8625,50.24 C1397.8625,50.525 1397.7275,50.735 1397.4575,50.885 C1397.1875,51.02 1396.6175,51.2 1395.7325,51.425 C1393.7675,51.905 1393.0325,52.535 1393.0325,53.9 C1393.0325,55.22 1393.9775,56.225 1395.8375,56.225 Z M1395.9875,54.74 C1395.1175,54.74 1394.6825,54.425 1394.6825,53.78 C1394.6825,53.255 1394.9525,52.925 1396.0775,52.64 C1397.6375,52.205 1397.8175,52.025 1397.8925,51.815 L1397.9225,51.815 L1397.9225,53.405 C1397.9225,54.14 1397.2625,54.74 1395.9875,54.74 Z M1403.4425,56 L1403.4425,45.05 L1401.6725,45.05 L1401.6725,56 L1403.4425,56 Z M1407.4625,56 L1407.4625,45.05 L1405.6925,45.05 L1405.6925,56 L1407.4625,56 Z M1287.125,74.225 C1288.16,74.225 1288.955,73.985 1289.48,73.49 C1290.02,72.995 1290.29,72.425 1290.29,71.795 C1290.29,71.18 1290.11,70.685 1289.75,70.31 C1289.405,69.935 1288.745,69.605 1287.785,69.335 C1286.75,69.05 1286.105,68.84 1285.835,68.705 C1285.58,68.57 1285.445,68.36 1285.445,68.105 C1285.445,67.64 1285.955,67.25 1286.81,67.25 C1287.725,67.25 1288.325,67.685 1288.625,68.57 L1290.065,68.15 C1289.645,66.605 1288.565,65.825 1286.81,65.825 C1285.895,65.825 1285.19,66.065 1284.665,66.53 C1284.14,66.995 1283.885,67.535 1283.885,68.18 C1283.885,69.335 1284.695,69.98 1286.555,70.505 C1287.47,70.76 1288.07,70.97 1288.34,71.105 C1288.61,71.24 1288.745,71.465 1288.745,71.765 C1288.745,72.38 1288.13,72.785 1287.065,72.785 C1285.925,72.785 1285.28,72.185 1285.145,70.97 L1283.585,71.345 C1283.69,72.155 1284.035,72.845 1284.62,73.4 C1285.205,73.955 1286.03,74.225 1287.125,74.225 Z M1295.66,74 L1295.66,72.35 L1295.03,72.35 C1294.19,72.35 1293.995,72.05 1293.995,71.165 L1293.995,67.52 L1295.975,67.52 L1295.975,66.05 L1293.98,66.05 L1293.98,64.1 L1292.36,64.1 L1292.36,66.05 L1291.115,66.05 L1291.115,67.52 L1292.315,67.52 L1292.315,71.345 C1292.315,73.19 1292.975,74 1294.895,74 L1295.66,74 Z M1299.89,77.375 L1304.42,66.05 L1302.65,66.05 L1300.565,71.525 L1300.535,71.525 L1298.45,66.05 L1296.65,66.05 L1299.74,73.64 L1298.24,77.375 L1299.89,77.375 Z M1307.465,74 L1307.465,63.05 L1305.695,63.05 L1305.695,74 L1307.465,74 Z M1312.925,74.225 C1314.35,74.225 1315.46,73.61 1316.225,72.365 L1314.995,71.36 C1314.755,71.72 1314.635,71.915 1314.275,72.23 C1313.93,72.545 1313.48,72.71 1312.895,72.71 C1311.68,72.71 1310.96,71.855 1310.915,70.535 L1316.465,70.535 L1316.465,70.025 C1316.465,68.75 1316.12,67.73 1315.445,66.965 C1314.77,66.2 1313.915,65.825 1312.85,65.825 C1311.785,65.825 1310.915,66.215 1310.225,66.98 C1309.535,67.745 1309.19,68.75 1309.19,70.025 C1309.19,71.3 1309.535,72.32 1310.225,73.085 C1310.93,73.85 1311.83,74.225 1312.925,74.225 Z M1314.8,69.245 L1310.93,69.245 C1310.99,68.225 1311.71,67.34 1312.85,67.34 C1314.065,67.34 1314.74,68.12 1314.8,69.245 Z M1321.13,74.225 C1322.165,74.225 1322.96,73.985 1323.485,73.49 C1324.025,72.995 1324.295,72.425 1324.295,71.795 C1324.295,71.18 1324.115,70.685 1323.755,70.31 C1323.41,69.935 1322.75,69.605 1321.79,69.335 C1320.755,69.05 1320.11,68.84 1319.84,68.705 C1319.585,68.57 1319.45,68.36 1319.45,68.105 C1319.45,67.64 1319.96,67.25 1320.815,67.25 C1321.73,67.25 1322.33,67.685 1322.63,68.57 L1324.07,68.15 C1323.65,66.605 1322.57,65.825 1320.815,65.825 C1319.9,65.825 1319.195,66.065 1318.67,66.53 C1318.145,66.995 1317.89,67.535 1317.89,68.18 C1317.89,69.335 1318.7,69.98 1320.56,70.505 C1321.475,70.76 1322.075,70.97 1322.345,71.105 C1322.615,71.24 1322.75,71.465 1322.75,71.765 C1322.75,72.38 1322.135,72.785 1321.07,72.785 C1319.93,72.785 1319.285,72.185 1319.15,70.97 L1317.59,71.345 C1317.695,72.155 1318.04,72.845 1318.625,73.4 C1319.21,73.955 1320.035,74.225 1321.13,74.225 Z M1333.415,74 L1333.415,72.35 L1332.785,72.35 C1331.945,72.35 1331.75,72.05 1331.75,71.165 L1331.75,67.52 L1333.73,67.52 L1333.73,66.05 L1331.735,66.05 L1331.735,64.1 L1330.115,64.1 L1330.115,66.05 L1328.87,66.05 L1328.87,67.52 L1330.07,67.52 L1330.07,71.345 C1330.07,73.19 1330.73,74 1332.65,74 L1333.415,74 Z M1338.545,74.225 C1339.61,74.225 1340.495,73.85 1341.17,73.115 C1341.86,72.38 1342.205,71.345 1342.205,70.025 C1342.205,68.72 1341.845,67.7 1341.14,66.95 C1340.435,66.2 1339.58,65.825 1338.545,65.825 C1337.51,65.825 1336.64,66.2 1335.92,66.95 C1335.215,67.7 1334.855,68.72 1334.855,70.025 C1334.855,71.345 1335.2,72.38 1335.89,73.115 C1336.595,73.85 1337.48,74.225 1338.545,74.225 Z M1338.545,72.68 C1337.345,72.68 1336.55,71.75 1336.55,70.025 C1336.55,68.33 1337.345,67.37 1338.545,67.37 C1339.73,67.37 1340.525,68.345 1340.525,70.025 C1340.525,71.705 1339.73,72.68 1338.545,72.68 Z M1351.4,74 L1351.4,72.35 L1350.77,72.35 C1349.93,72.35 1349.735,72.05 1349.735,71.165 L1349.735,67.52 L1351.715,67.52 L1351.715,66.05 L1349.72,66.05 L1349.72,64.1 L1348.1,64.1 L1348.1,66.05 L1346.855,66.05 L1346.855,67.52 L1348.055,67.52 L1348.055,71.345 C1348.055,73.19 1348.715,74 1350.635,74 L1351.4,74 Z M1355.075,74 L1355.075,69.005 C1355.075,68.06 1355.75,67.4 1356.77,67.4 C1357.835,67.4 1358.405,68.105 1358.405,69.14 L1358.405,74 L1360.1,74 L1360.1,68.735 C1360.1,66.935 1358.93,65.825 1357.235,65.825 C1356.395,65.825 1355.465,66.29 1355.105,66.83 L1355.075,66.83 L1355.075,63.05 L1353.365,63.05 L1353.365,74 L1355.075,74 Z M1365.485,74.225 C1366.91,74.225 1368.02,73.61 1368.785,72.365 L1367.555,71.36 C1367.315,71.72 1367.195,71.915 1366.835,72.23 C1366.49,72.545 1366.04,72.71 1365.455,72.71 C1364.24,72.71 1363.52,71.855 1363.475,70.535 L1369.025,70.535 L1369.025,70.025 C1369.025,68.75 1368.68,67.73 1368.005,66.965 C1367.33,66.2 1366.475,65.825 1365.41,65.825 C1364.345,65.825 1363.475,66.215 1362.785,66.98 C1362.095,67.745 1361.75,68.75 1361.75,70.025 C1361.75,71.3 1362.095,72.32 1362.785,73.085 C1363.49,73.85 1364.39,74.225 1365.485,74.225 Z M1367.36,69.245 L1363.49,69.245 C1363.55,68.225 1364.27,67.34 1365.41,67.34 C1366.625,67.34 1367.3,68.12 1367.36,69.245 Z M1378.22,74 L1378.22,72.35 L1377.59,72.35 C1376.75,72.35 1376.555,72.05 1376.555,71.165 L1376.555,67.52 L1378.535,67.52 L1378.535,66.05 L1376.54,66.05 L1376.54,64.1 L1374.92,64.1 L1374.92,66.05 L1373.675,66.05 L1373.675,67.52 L1374.875,67.52 L1374.875,71.345 C1374.875,73.19 1375.535,74 1377.455,74 L1378.22,74 Z M1383.395,74.225 C1384.82,74.225 1385.93,73.61 1386.695,72.365 L1385.465,71.36 C1385.225,71.72 1385.105,71.915 1384.745,72.23 C1384.4,72.545 1383.95,72.71 1383.365,72.71 C1382.15,72.71 1381.43,71.855 1381.385,70.535 L1386.935,70.535 L1386.935,70.025 C1386.935,68.75 1386.59,67.73 1385.915,66.965 C1385.24,66.2 1384.385,65.825 1383.32,65.825 C1382.255,65.825 1381.385,66.215 1380.695,66.98 C1380.005,67.745 1379.66,68.75 1379.66,70.025 C1379.66,71.3 1380.005,72.32 1380.695,73.085 C1381.4,73.85 1382.3,74.225 1383.395,74.225 Z M1385.27,69.245 L1381.4,69.245 C1381.46,68.225 1382.18,67.34 1383.32,67.34 C1384.535,67.34 1385.21,68.12 1385.27,69.245 Z M1389.605,74 L1391.555,71.015 L1391.585,71.015 L1393.55,74 L1395.395,74 L1392.665,69.905 L1395.23,66.05 L1393.43,66.05 L1391.6,68.855 L1391.57,68.855 L1389.725,66.05 L1387.925,66.05 L1390.505,69.905 L1387.76,74 L1389.605,74 Z M1400.465,74 L1400.465,72.35 L1399.835,72.35 C1398.995,72.35 1398.8,72.05 1398.8,71.165 L1398.8,67.52 L1400.78,67.52 L1400.78,66.05 L1398.785,66.05 L1398.785,64.1 L1397.165,64.1 L1397.165,66.05 L1395.92,66.05 L1395.92,67.52 L1397.12,67.52 L1397.12,71.345 C1397.12,73.19 1397.78,74 1399.7,74 L1400.465,74 Z M1404.665,74 L1404.665,72.005 L1402.58,72.005 L1402.58,74 L1404.665,74 Z" id="Pressanotherhotkeytoapplyallstylestothetext." fill="#000000" fill-rule="nonzero"></path>
                <polygon id="Path-5" fill="#000000" fill-rule="nonzero" points="1248.95911 49.7673718 1248.95911 52.7673718 1141.95911 52.7673718 1141.95911 49.7673718"></polygon>
                <polygon id="Path-3" fill="#000000" points="1248.95911 46.2673718 1256.95911 51.2673718 1248.95911 56.2673718"></polygon>
                <circle id="Oval-9" fill="#000000" cx="1139.95911" cy="51.2673718" r="6"></circle>
                <polygon id="Path-5" fill="#000000" fill-rule="nonzero" points="1543 49.7673718 1543 52.7673718 1436 52.7673718 1436 49.7673718"></polygon>
                <polygon id="Path-3" fill="#000000" points="1543 46.2673718 1551 51.2673718 1543 56.2673718"></polygon>
                <circle id="Oval-9" fill="#000000" cx="1434" cy="51.2673718" r="6"></circle>
                <path d="M217.490186,23 C232.531504,23 244.753381,35.0638843 244.996314,50.045139 L245,50.5 C245,65.6878306 232.68251,78 217.490186,78 L27.5098137,78 C12.3165631,78 0,65.69117 0,50.5 C0,35.3121694 12.31749,23 27.5098137,23 L217.490186,23 Z M217.490186,26 L27.5098137,26 C13.9737689,26 3,36.9695989 3,50.5 C3,63.8975377 13.7536255,74.7804008 27.1044565,74.9967183 L27.5098137,75 L217.490186,75 C230.890871,75 241.780268,64.2486961 241.996812,50.9287203 L242.000098,50.5243068 L241.996709,50.0937801 C241.782225,36.8669838 231.093798,26.2149303 217.891032,26.0032119 L217.490186,26 Z" id="Rectangle-2" fill="#000000" fill-rule="nonzero"></path>
                <path d="M24.625,55.825 C25.825,55.825 26.875,55.42 27.73,54.58 C28.585,53.725 29.125,52.21 29.125,50.275 C29.125,48.565 28.675,47.245 27.79,46.3 C26.905,45.355 25.855,44.875 24.625,44.875 C23.38,44.875 22.315,45.34 21.43,46.285 C20.545,47.23 20.095,48.55 20.095,50.26 C20.095,52.195 20.635,53.71 21.49,54.565 C22.375,55.405 23.425,55.825 24.625,55.825 Z M24.625,54.19 C23.05,54.19 21.94,52.945 21.94,50.26 C21.94,49.045 22.195,48.115 22.705,47.485 C23.215,46.84 23.86,46.525 24.625,46.525 C25.39,46.525 26.02,46.84 26.53,47.485 C27.04,48.13 27.295,49.06 27.295,50.275 C27.295,52.96 26.2,54.19 24.625,54.19 Z M32.635,58.975 L32.635,54.835 L32.665,54.835 C33.175,55.495 33.88,55.825 34.795,55.825 C35.8,55.825 36.625,55.45 37.285,54.7 C37.96,53.935 38.29,52.915 38.29,51.625 C38.29,50.35 37.945,49.33 37.255,48.565 C36.565,47.8 35.74,47.425 34.78,47.425 C33.835,47.425 33.1,47.755 32.59,48.415 L32.56,48.415 L32.56,47.65 L30.925,47.65 L30.925,58.975 L32.635,58.975 Z M34.465,54.28 C33.385,54.28 32.635,53.53 32.635,52.615 L32.635,50.695 C32.635,49.75 33.37,48.97 34.465,48.97 C35.74,48.97 36.58,49.93 36.58,51.625 C36.58,53.32 35.77,54.28 34.465,54.28 Z M43.225,55.825 C44.65,55.825 45.76,55.21 46.525,53.965 L45.295,52.96 C45.055,53.32 44.935,53.515 44.575,53.83 C44.23,54.145 43.78,54.31 43.195,54.31 C41.98,54.31 41.26,53.455 41.215,52.135 L46.765,52.135 L46.765,51.625 C46.765,50.35 46.42,49.33 45.745,48.565 C45.07,47.8 44.215,47.425 43.15,47.425 C42.085,47.425 41.215,47.815 40.525,48.58 C39.835,49.345 39.49,50.35 39.49,51.625 C39.49,52.9 39.835,53.92 40.525,54.685 C41.23,55.45 42.13,55.825 43.225,55.825 Z M45.1,50.845 L41.23,50.845 C41.29,49.825 42.01,48.94 43.15,48.94 C44.365,48.94 45.04,49.72 45.1,50.845 Z M50.2,55.6 L50.2,50.665 C50.2,49.645 50.875,49 51.91,49 C52.945,49 53.455,49.615 53.455,50.845 L53.455,55.6 L55.15,55.6 L55.15,50.395 C55.15,48.535 54.07,47.425 52.315,47.425 C51.46,47.425 50.605,47.86 50.17,48.415 L50.14,48.415 L50.14,47.65 L48.49,47.65 L48.49,55.6 L50.2,55.6 Z M64.765,55.825 C65.92,55.825 66.85,55.525 67.525,54.925 C68.215,54.325 68.56,53.575 68.56,52.66 C68.56,51.865 68.335,51.25 67.885,50.785 C67.45,50.32 66.61,49.885 65.365,49.465 C64.21,49.075 63.49,48.775 63.175,48.58 C62.86,48.385 62.71,48.115 62.71,47.77 C62.71,47.035 63.28,46.525 64.42,46.525 C65.665,46.525 66.235,47.14 66.52,48.175 L68.245,47.755 C67.93,45.85 66.4,44.875 64.42,44.875 C63.355,44.875 62.515,45.16 61.9,45.73 C61.285,46.3 60.97,46.99 60.97,47.785 C60.97,49.18 61.84,50.14 64.045,50.815 C65.23,51.175 65.98,51.475 66.31,51.73 C66.655,51.985 66.82,52.33 66.82,52.765 C66.82,53.65 66.055,54.19 64.78,54.19 C63.235,54.19 62.695,53.44 62.41,51.655 L60.55,52.06 C60.865,54.535 62.35,55.825 64.765,55.825 Z M71.845,55.6 L71.845,53.005 L72.91,51.835 L72.94,51.835 L75.46,55.6 L77.395,55.6 L74.215,50.845 L77.095,47.65 L74.92,47.65 L71.875,51.055 L71.845,51.055 L71.845,44.65 L70.135,44.65 L70.135,55.6 L71.845,55.6 Z M81.805,55.825 C83.23,55.825 84.34,55.21 85.105,53.965 L83.875,52.96 C83.635,53.32 83.515,53.515 83.155,53.83 C82.81,54.145 82.36,54.31 81.775,54.31 C80.56,54.31 79.84,53.455 79.795,52.135 L85.345,52.135 L85.345,51.625 C85.345,50.35 85,49.33 84.325,48.565 C83.65,47.8 82.795,47.425 81.73,47.425 C80.665,47.425 79.795,47.815 79.105,48.58 C78.415,49.345 78.07,50.35 78.07,51.625 C78.07,52.9 78.415,53.92 79.105,54.685 C79.81,55.45 80.71,55.825 81.805,55.825 Z M83.68,50.845 L79.81,50.845 C79.87,49.825 80.59,48.94 81.73,48.94 C82.945,48.94 83.62,49.72 83.68,50.845 Z M90.79,55.6 L90.79,53.95 L90.16,53.95 C89.32,53.95 89.125,53.65 89.125,52.765 L89.125,49.12 L91.105,49.12 L91.105,47.65 L89.11,47.65 L89.11,45.7 L87.49,45.7 L87.49,47.65 L86.245,47.65 L86.245,49.12 L87.445,49.12 L87.445,52.945 C87.445,54.79 88.105,55.6 90.025,55.6 L90.79,55.6 Z M95.92,55.825 C97.795,55.825 98.965,54.715 99.28,52.795 L97.585,52.435 C97.405,53.665 96.85,54.28 95.92,54.28 C94.66,54.28 93.925,53.305 93.925,51.625 C93.925,49.945 94.705,48.97 95.92,48.97 C96.865,48.97 97.42,49.525 97.585,50.635 L99.19,50.365 C98.995,48.625 97.72,47.425 95.905,47.425 C94.84,47.425 93.97,47.815 93.265,48.58 C92.575,49.345 92.23,50.35 92.23,51.625 C92.23,52.945 92.575,53.98 93.265,54.715 C93.955,55.45 94.84,55.825 95.92,55.825 Z M102.64,55.6 L102.64,50.605 C102.64,49.66 103.315,49 104.335,49 C105.4,49 105.97,49.705 105.97,50.74 L105.97,55.6 L107.665,55.6 L107.665,50.335 C107.665,48.535 106.495,47.425 104.8,47.425 C103.96,47.425 103.03,47.89 102.67,48.43 L102.64,48.43 L102.64,44.65 L100.93,44.65 L100.93,55.6 L102.64,55.6 Z M115.675,55.6 L115.675,49.12 L118.585,49.12 L118.585,55.6 L120.295,55.6 L120.295,47.65 L115.63,47.65 L115.63,46.885 C115.63,46.33 115.795,46.165 116.32,46.165 L117.175,46.165 L117.175,44.65 L115.975,44.65 C114.7,44.65 114.01,45.13 114.01,46.495 L114.01,47.65 L112.765,47.65 L112.765,49.12 L113.965,49.12 L113.965,55.6 L115.675,55.6 Z M120.325,46.345 L120.325,44.65 L118.555,44.65 L118.555,46.345 L120.325,46.345 Z M124.345,55.6 L124.345,44.65 L122.575,44.65 L122.575,55.6 L124.345,55.6 Z M129.805,55.825 C131.23,55.825 132.34,55.21 133.105,53.965 L131.875,52.96 C131.635,53.32 131.515,53.515 131.155,53.83 C130.81,54.145 130.36,54.31 129.775,54.31 C128.56,54.31 127.84,53.455 127.795,52.135 L133.345,52.135 L133.345,51.625 C133.345,50.35 133,49.33 132.325,48.565 C131.65,47.8 130.795,47.425 129.73,47.425 C128.665,47.425 127.795,47.815 127.105,48.58 C126.415,49.345 126.07,50.35 126.07,51.625 C126.07,52.9 126.415,53.92 127.105,54.685 C127.81,55.45 128.71,55.825 129.805,55.825 Z M131.68,50.845 L127.81,50.845 C127.87,49.825 128.59,48.94 129.73,48.94 C130.945,48.94 131.62,49.72 131.68,50.845 Z M142.105,55.825 C143.095,55.825 143.86,55.63 144.415,55.24 C144.97,54.835 145.375,54.385 145.615,53.89 L147.025,55.105 L148.075,53.86 L146.11,52.165 L146.11,49.405 L144.61,49.405 L144.61,50.83 L144.58,50.83 L142,48.625 C141.445,48.145 141.235,47.89 141.235,47.41 C141.235,46.825 141.64,46.405 142.405,46.405 C143.245,46.405 143.62,46.855 143.86,47.815 L145.495,47.425 C145.21,45.76 144.04,44.875 142.3,44.875 C141.535,44.875 140.89,45.1 140.35,45.565 C139.825,46.03 139.555,46.63 139.555,47.365 C139.555,48.175 139.9,48.895 140.605,49.54 C140.065,49.825 139.585,50.23 139.15,50.755 C138.73,51.28 138.52,51.955 138.52,52.78 C138.52,53.71 138.85,54.445 139.495,55 C140.14,55.555 141.01,55.825 142.105,55.825 Z M142.225,54.22 C140.965,54.22 140.17,53.635 140.17,52.555 C140.17,51.535 140.89,50.725 141.715,50.425 L144.43,52.75 C144.25,53.605 143.425,54.22 142.225,54.22 Z M156.34,55.825 C158.215,55.825 159.385,54.715 159.7,52.795 L158.005,52.435 C157.825,53.665 157.27,54.28 156.34,54.28 C155.08,54.28 154.345,53.305 154.345,51.625 C154.345,49.945 155.125,48.97 156.34,48.97 C157.285,48.97 157.84,49.525 158.005,50.635 L159.61,50.365 C159.415,48.625 158.14,47.425 156.325,47.425 C155.26,47.425 154.39,47.815 153.685,48.58 C152.995,49.345 152.65,50.35 152.65,51.625 C152.65,52.945 152.995,53.98 153.685,54.715 C154.375,55.45 155.26,55.825 156.34,55.825 Z M163.12,55.6 L163.12,44.65 L161.35,44.65 L161.35,55.6 L163.12,55.6 Z M167.14,46.345 L167.14,44.65 L165.37,44.65 L165.37,46.345 L167.14,46.345 Z M167.11,55.6 L167.11,47.65 L165.4,47.65 L165.4,55.6 L167.11,55.6 Z M172.6,55.825 C174.025,55.825 175.135,55.21 175.9,53.965 L174.67,52.96 C174.43,53.32 174.31,53.515 173.95,53.83 C173.605,54.145 173.155,54.31 172.57,54.31 C171.355,54.31 170.635,53.455 170.59,52.135 L176.14,52.135 L176.14,51.625 C176.14,50.35 175.795,49.33 175.12,48.565 C174.445,47.8 173.59,47.425 172.525,47.425 C171.46,47.425 170.59,47.815 169.9,48.58 C169.21,49.345 168.865,50.35 168.865,51.625 C168.865,52.9 169.21,53.92 169.9,54.685 C170.605,55.45 171.505,55.825 172.6,55.825 Z M174.475,50.845 L170.605,50.845 C170.665,49.825 171.385,48.94 172.525,48.94 C173.74,48.94 174.415,49.72 174.475,50.845 Z M179.575,55.6 L179.575,50.665 C179.575,49.645 180.25,49 181.285,49 C182.32,49 182.83,49.615 182.83,50.845 L182.83,55.6 L184.525,55.6 L184.525,50.395 C184.525,48.535 183.445,47.425 181.69,47.425 C180.835,47.425 179.98,47.86 179.545,48.415 L179.515,48.415 L179.515,47.65 L177.865,47.65 L177.865,55.6 L179.575,55.6 Z M190.42,55.6 L190.42,53.95 L189.79,53.95 C188.95,53.95 188.755,53.65 188.755,52.765 L188.755,49.12 L190.735,49.12 L190.735,47.65 L188.74,47.65 L188.74,45.7 L187.12,45.7 L187.12,47.65 L185.875,47.65 L185.875,49.12 L187.075,49.12 L187.075,52.945 C187.075,54.79 187.735,55.6 189.655,55.6 L190.42,55.6 Z M199.075,55.825 C200.11,55.825 200.905,55.585 201.43,55.09 C201.97,54.595 202.24,54.025 202.24,53.395 C202.24,52.78 202.06,52.285 201.7,51.91 C201.355,51.535 200.695,51.205 199.735,50.935 C198.7,50.65 198.055,50.44 197.785,50.305 C197.53,50.17 197.395,49.96 197.395,49.705 C197.395,49.24 197.905,48.85 198.76,48.85 C199.675,48.85 200.275,49.285 200.575,50.17 L202.015,49.75 C201.595,48.205 200.515,47.425 198.76,47.425 C197.845,47.425 197.14,47.665 196.615,48.13 C196.09,48.595 195.835,49.135 195.835,49.78 C195.835,50.935 196.645,51.58 198.505,52.105 C199.42,52.36 200.02,52.57 200.29,52.705 C200.56,52.84 200.695,53.065 200.695,53.365 C200.695,53.98 200.08,54.385 199.015,54.385 C197.875,54.385 197.23,53.785 197.095,52.57 L195.535,52.945 C195.64,53.755 195.985,54.445 196.57,55 C197.155,55.555 197.98,55.825 199.075,55.825 Z M205.66,46.345 L205.66,44.65 L203.89,44.65 L203.89,46.345 L205.66,46.345 Z M205.63,55.6 L205.63,47.65 L203.92,47.65 L203.92,55.6 L205.63,55.6 Z M211.63,55.6 L211.63,53.95 L211,53.95 C210.16,53.95 209.965,53.65 209.965,52.765 L209.965,49.12 L211.945,49.12 L211.945,47.65 L209.95,47.65 L209.95,45.7 L208.33,45.7 L208.33,47.65 L207.085,47.65 L207.085,49.12 L208.285,49.12 L208.285,52.945 C208.285,54.79 208.945,55.6 210.865,55.6 L211.63,55.6 Z M216.805,55.825 C218.23,55.825 219.34,55.21 220.105,53.965 L218.875,52.96 C218.635,53.32 218.515,53.515 218.155,53.83 C217.81,54.145 217.36,54.31 216.775,54.31 C215.56,54.31 214.84,53.455 214.795,52.135 L220.345,52.135 L220.345,51.625 C220.345,50.35 220,49.33 219.325,48.565 C218.65,47.8 217.795,47.425 216.73,47.425 C215.665,47.425 214.795,47.815 214.105,48.58 C213.415,49.345 213.07,50.35 213.07,51.625 C213.07,52.9 213.415,53.92 214.105,54.685 C214.81,55.45 215.71,55.825 216.805,55.825 Z M218.68,50.845 L214.81,50.845 C214.87,49.825 215.59,48.94 216.73,48.94 C217.945,48.94 218.62,49.72 218.68,50.845 Z M224.305,55.6 L224.305,53.605 L222.22,53.605 L222.22,55.6 L224.305,55.6 Z" id="OpenSketchfle&amp;clientsite." fill="#000000" fill-rule="nonzero"></path>
                <g id="Mockup/Web/Small-Window" transform="translate(368.000000, 0.000000)">
                    <path d="M163.5,1.5 L10.5,1.5 C8.01471863,1.5 5.76471863,2.50735931 4.13603897,4.13603897 C2.50735931,5.76471863 1.5,8.01471863 1.5,10.5 L1.5,89.5 C1.5,91.9852814 2.50735931,94.2352814 4.13603897,95.863961 C5.76471863,97.4926407 8.01471863,98.5 10.5,98.5 L163.5,98.5 C165.985281,98.5 168.235281,97.4926407 169.863961,95.863961 C171.492641,94.2352814 172.5,91.9852814 172.5,89.5 L172.5,10.5 C172.5,8.01471863 171.492641,5.76471863 169.863961,4.13603897 C168.235281,2.50735931 165.985281,1.5 163.5,1.5 Z" id="Rectangle-8" stroke="#000000" stroke-width="3" fill="#FFFFFF"></path>
                    <circle id="Oval-6" fill="#000000" cx="14" cy="14" r="3"></circle>
                    <circle id="Oval-6-Copy" fill="#000000" cx="26" cy="14" r="3"></circle>
                    <circle id="Oval-6-Copy-2" fill="#000000" cx="38" cy="14" r="3"></circle>
                </g>
                <path d="M394.6225,46.225 C395.7775,46.225 396.7075,45.925 397.3825,45.325 C398.0725,44.725 398.4175,43.975 398.4175,43.06 C398.4175,42.265 398.1925,41.65 397.7425,41.185 C397.3075,40.72 396.4675,40.285 395.2225,39.865 C394.0675,39.475 393.3475,39.175 393.0325,38.98 C392.7175,38.785 392.5675,38.515 392.5675,38.17 C392.5675,37.435 393.1375,36.925 394.2775,36.925 C395.5225,36.925 396.0925,37.54 396.3775,38.575 L398.1025,38.155 C397.7875,36.25 396.2575,35.275 394.2775,35.275 C393.2125,35.275 392.3725,35.56 391.7575,36.13 C391.1425,36.7 390.8275,37.39 390.8275,38.185 C390.8275,39.58 391.6975,40.54 393.9025,41.215 C395.0875,41.575 395.8375,41.875 396.1675,42.13 C396.5125,42.385 396.6775,42.73 396.6775,43.165 C396.6775,44.05 395.9125,44.59 394.6375,44.59 C393.0925,44.59 392.5525,43.84 392.2675,42.055 L390.4075,42.46 C390.7225,44.935 392.2075,46.225 394.6225,46.225 Z M403.2025,46.225 C404.6275,46.225 405.7375,45.61 406.5025,44.365 L405.2725,43.36 C405.0325,43.72 404.9125,43.915 404.5525,44.23 C404.2075,44.545 403.7575,44.71 403.1725,44.71 C401.9575,44.71 401.2375,43.855 401.1925,42.535 L406.7425,42.535 L406.7425,42.025 C406.7425,40.75 406.3975,39.73 405.7225,38.965 C405.0475,38.2 404.1925,37.825 403.1275,37.825 C402.0625,37.825 401.1925,38.215 400.5025,38.98 C399.8125,39.745 399.4675,40.75 399.4675,42.025 C399.4675,43.3 399.8125,44.32 400.5025,45.085 C401.2075,45.85 402.1075,46.225 403.2025,46.225 Z M405.0775,41.245 L401.2075,41.245 C401.2675,40.225 401.9875,39.34 403.1275,39.34 C404.3425,39.34 405.0175,40.12 405.0775,41.245 Z M410.2375,46 L410.2375,35.05 L408.4675,35.05 L408.4675,46 L410.2375,46 Z M415.6975,46.225 C417.1225,46.225 418.2325,45.61 418.9975,44.365 L417.7675,43.36 C417.5275,43.72 417.4075,43.915 417.0475,44.23 C416.7025,44.545 416.2525,44.71 415.6675,44.71 C414.4525,44.71 413.7325,43.855 413.6875,42.535 L419.2375,42.535 L419.2375,42.025 C419.2375,40.75 418.8925,39.73 418.2175,38.965 C417.5425,38.2 416.6875,37.825 415.6225,37.825 C414.5575,37.825 413.6875,38.215 412.9975,38.98 C412.3075,39.745 411.9625,40.75 411.9625,42.025 C411.9625,43.3 412.3075,44.32 412.9975,45.085 C413.7025,45.85 414.6025,46.225 415.6975,46.225 Z M417.5725,41.245 L413.7025,41.245 C413.7625,40.225 414.4825,39.34 415.6225,39.34 C416.8375,39.34 417.5125,40.12 417.5725,41.245 Z M424.1275,46.225 C426.0025,46.225 427.1725,45.115 427.4875,43.195 L425.7925,42.835 C425.6125,44.065 425.0575,44.68 424.1275,44.68 C422.8675,44.68 422.1325,43.705 422.1325,42.025 C422.1325,40.345 422.9125,39.37 424.1275,39.37 C425.0725,39.37 425.6275,39.925 425.7925,41.035 L427.3975,40.765 C427.2025,39.025 425.9275,37.825 424.1125,37.825 C423.0475,37.825 422.1775,38.215 421.4725,38.98 C420.7825,39.745 420.4375,40.75 420.4375,42.025 C420.4375,43.345 420.7825,44.38 421.4725,45.115 C422.1625,45.85 423.0475,46.225 424.1275,46.225 Z M432.8575,46 L432.8575,44.35 L432.2275,44.35 C431.3875,44.35 431.1925,44.05 431.1925,43.165 L431.1925,39.52 L433.1725,39.52 L433.1725,38.05 L431.1775,38.05 L431.1775,36.1 L429.5575,36.1 L429.5575,38.05 L428.3125,38.05 L428.3125,39.52 L429.5125,39.52 L429.5125,43.345 C429.5125,45.19 430.1725,46 432.0925,46 L432.8575,46 Z M442.2925,46 L442.2925,44.35 L441.6625,44.35 C440.8225,44.35 440.6275,44.05 440.6275,43.165 L440.6275,39.52 L442.6075,39.52 L442.6075,38.05 L440.6125,38.05 L440.6125,36.1 L438.9925,36.1 L438.9925,38.05 L437.7475,38.05 L437.7475,39.52 L438.9475,39.52 L438.9475,43.345 C438.9475,45.19 439.6075,46 441.5275,46 L442.2925,46 Z M445.9675,46 L445.9675,41.005 C445.9675,40.06 446.6425,39.4 447.6625,39.4 C448.7275,39.4 449.2975,40.105 449.2975,41.14 L449.2975,46 L450.9925,46 L450.9925,40.735 C450.9925,38.935 449.8225,37.825 448.1275,37.825 C447.2875,37.825 446.3575,38.29 445.9975,38.83 L445.9675,38.83 L445.9675,35.05 L444.2575,35.05 L444.2575,46 L445.9675,46 Z M456.3775,46.225 C457.8025,46.225 458.9125,45.61 459.6775,44.365 L458.4475,43.36 C458.2075,43.72 458.0875,43.915 457.7275,44.23 C457.3825,44.545 456.9325,44.71 456.3475,44.71 C455.1325,44.71 454.4125,43.855 454.3675,42.535 L459.9175,42.535 L459.9175,42.025 C459.9175,40.75 459.5725,39.73 458.8975,38.965 C458.2225,38.2 457.3675,37.825 456.3025,37.825 C455.2375,37.825 454.3675,38.215 453.6775,38.98 C452.9875,39.745 452.6425,40.75 452.6425,42.025 C452.6425,43.3 452.9875,44.32 453.6775,45.085 C454.3825,45.85 455.2825,46.225 456.3775,46.225 Z M458.2525,41.245 L454.3825,41.245 C454.4425,40.225 455.1625,39.34 456.3025,39.34 C457.5175,39.34 458.1925,40.12 458.2525,41.245 Z M469.1125,46 L469.1125,44.35 L468.4825,44.35 C467.6425,44.35 467.4475,44.05 467.4475,43.165 L467.4475,39.52 L469.4275,39.52 L469.4275,38.05 L467.4325,38.05 L467.4325,36.1 L465.8125,36.1 L465.8125,38.05 L464.5675,38.05 L464.5675,39.52 L465.7675,39.52 L465.7675,43.345 C465.7675,45.19 466.4275,46 468.3475,46 L469.1125,46 Z M474.2875,46.225 C475.7125,46.225 476.8225,45.61 477.5875,44.365 L476.3575,43.36 C476.1175,43.72 475.9975,43.915 475.6375,44.23 C475.2925,44.545 474.8425,44.71 474.2575,44.71 C473.0425,44.71 472.3225,43.855 472.2775,42.535 L477.8275,42.535 L477.8275,42.025 C477.8275,40.75 477.4825,39.73 476.8075,38.965 C476.1325,38.2 475.2775,37.825 474.2125,37.825 C473.1475,37.825 472.2775,38.215 471.5875,38.98 C470.8975,39.745 470.5525,40.75 470.5525,42.025 C470.5525,43.3 470.8975,44.32 471.5875,45.085 C472.2925,45.85 473.1925,46.225 474.2875,46.225 Z M476.1625,41.245 L472.2925,41.245 C472.3525,40.225 473.0725,39.34 474.2125,39.34 C475.4275,39.34 476.1025,40.12 476.1625,41.245 Z M480.4975,46 L482.4475,43.015 L482.4775,43.015 L484.4425,46 L486.2875,46 L483.5575,41.905 L486.1225,38.05 L484.3225,38.05 L482.4925,40.855 L482.4625,40.855 L480.6175,38.05 L478.8175,38.05 L481.3975,41.905 L478.6525,46 L480.4975,46 Z M491.3575,46 L491.3575,44.35 L490.7275,44.35 C489.8875,44.35 489.6925,44.05 489.6925,43.165 L489.6925,39.52 L491.6725,39.52 L491.6725,38.05 L489.6775,38.05 L489.6775,36.1 L488.0575,36.1 L488.0575,38.05 L486.8125,38.05 L486.8125,39.52 L488.0125,39.52 L488.0125,43.345 C488.0125,45.19 488.6725,46 490.5925,46 L491.3575,46 Z M499.3375,49.375 L503.8675,38.05 L502.0975,38.05 L500.0125,43.525 L499.9825,43.525 L497.8975,38.05 L496.0975,38.05 L499.1875,45.64 L497.6875,49.375 L499.3375,49.375 Z M508.3075,46.225 C509.3725,46.225 510.2575,45.85 510.9325,45.115 C511.6225,44.38 511.9675,43.345 511.9675,42.025 C511.9675,40.72 511.6075,39.7 510.9025,38.95 C510.1975,38.2 509.3425,37.825 508.3075,37.825 C507.2725,37.825 506.4025,38.2 505.6825,38.95 C504.9775,39.7 504.6175,40.72 504.6175,42.025 C504.6175,43.345 504.9625,44.38 505.6525,45.115 C506.3575,45.85 507.2425,46.225 508.3075,46.225 Z M508.3075,44.68 C507.1075,44.68 506.3125,43.75 506.3125,42.025 C506.3125,40.33 507.1075,39.37 508.3075,39.37 C509.4925,39.37 510.2875,40.345 510.2875,42.025 C510.2875,43.705 509.4925,44.68 508.3075,44.68 Z M516.3325,46.225 C517.2325,46.225 517.9225,45.895 518.3875,45.235 L518.4175,45.235 L518.4175,46 L520.0675,46 L520.0675,38.05 L518.3575,38.05 L518.3575,42.88 C518.3575,44.035 517.7275,44.59 516.7225,44.59 C515.7175,44.59 515.3275,44.185 515.3275,43 L515.3275,38.05 L513.6175,38.05 L513.6175,43.195 C513.6175,45.115 514.5175,46.225 516.3325,46.225 Z M411.9475,64 L414.0325,58.03 L414.0625,58.03 L415.9975,64 L417.6475,64 L419.5525,56.05 L417.9025,56.05 L416.6275,61.57 L416.5975,61.57 L414.8275,56.05 L413.2825,56.05 L411.3925,61.585 L411.3625,61.585 L410.2375,56.05 L408.5575,56.05 L410.3125,64 L411.9475,64 Z M423.4825,64.225 C424.2025,64.225 424.8175,64.015 425.1625,63.76 C425.5225,63.475 425.6575,63.325 425.7325,63.205 L425.7625,63.205 L425.7625,64 L427.2175,64 L427.2175,58.855 C427.2175,56.77 425.9275,55.825 424.0075,55.825 C422.2675,55.825 421.1725,56.77 420.8275,58.135 L422.2825,58.69 C422.5225,57.835 422.9575,57.295 424.0525,57.295 C425.0125,57.295 425.5075,57.7 425.5075,58.24 C425.5075,58.525 425.3725,58.735 425.1025,58.885 C424.8325,59.02 424.2625,59.2 423.3775,59.425 C421.4125,59.905 420.6775,60.535 420.6775,61.9 C420.6775,63.22 421.6225,64.225 423.4825,64.225 Z M423.6325,62.74 C422.7625,62.74 422.3275,62.425 422.3275,61.78 C422.3275,61.255 422.5975,60.925 423.7225,60.64 C425.2825,60.205 425.4625,60.025 425.5375,59.815 L425.5675,59.815 L425.5675,61.405 C425.5675,62.14 424.9075,62.74 423.6325,62.74 Z M431.0275,64 L431.0275,59.065 C431.0275,58.045 431.7025,57.4 432.7375,57.4 C433.7725,57.4 434.2825,58.015 434.2825,59.245 L434.2825,64 L435.9775,64 L435.9775,58.795 C435.9775,56.935 434.8975,55.825 433.1425,55.825 C432.2875,55.825 431.4325,56.26 430.9975,56.815 L430.9675,56.815 L430.9675,56.05 L429.3175,56.05 L429.3175,64 L431.0275,64 Z M441.8725,64 L441.8725,62.35 L441.2425,62.35 C440.4025,62.35 440.2075,62.05 440.2075,61.165 L440.2075,57.52 L442.1875,57.52 L442.1875,56.05 L440.1925,56.05 L440.1925,54.1 L438.5725,54.1 L438.5725,56.05 L437.3275,56.05 L437.3275,57.52 L438.5275,57.52 L438.5275,61.345 C438.5275,63.19 439.1875,64 441.1075,64 L441.8725,64 Z M451.3075,64 L451.3075,62.35 L450.6775,62.35 C449.8375,62.35 449.6425,62.05 449.6425,61.165 L449.6425,57.52 L451.6225,57.52 L451.6225,56.05 L449.6275,56.05 L449.6275,54.1 L448.0075,54.1 L448.0075,56.05 L446.7625,56.05 L446.7625,57.52 L447.9625,57.52 L447.9625,61.345 C447.9625,63.19 448.6225,64 450.5425,64 L451.3075,64 Z M456.4375,64.225 C457.5025,64.225 458.3875,63.85 459.0625,63.115 C459.7525,62.38 460.0975,61.345 460.0975,60.025 C460.0975,58.72 459.7375,57.7 459.0325,56.95 C458.3275,56.2 457.4725,55.825 456.4375,55.825 C455.4025,55.825 454.5325,56.2 453.8125,56.95 C453.1075,57.7 452.7475,58.72 452.7475,60.025 C452.7475,61.345 453.0925,62.38 453.7825,63.115 C454.4875,63.85 455.3725,64.225 456.4375,64.225 Z M456.4375,62.68 C455.2375,62.68 454.4425,61.75 454.4425,60.025 C454.4425,58.33 455.2375,57.37 456.4375,57.37 C457.6225,57.37 458.4175,58.345 458.4175,60.025 C458.4175,61.705 457.6225,62.68 456.4375,62.68 Z M468.7375,64.225 C470.6125,64.225 471.7825,63.115 472.0975,61.195 L470.4025,60.835 C470.2225,62.065 469.6675,62.68 468.7375,62.68 C467.4775,62.68 466.7425,61.705 466.7425,60.025 C466.7425,58.345 467.5225,57.37 468.7375,57.37 C469.6825,57.37 470.2375,57.925 470.4025,59.035 L472.0075,58.765 C471.8125,57.025 470.5375,55.825 468.7225,55.825 C467.6575,55.825 466.7875,56.215 466.0825,56.98 C465.3925,57.745 465.0475,58.75 465.0475,60.025 C465.0475,61.345 465.3925,62.38 466.0825,63.115 C466.7725,63.85 467.6575,64.225 468.7375,64.225 Z M476.9125,64.225 C477.9775,64.225 478.8625,63.85 479.5375,63.115 C480.2275,62.38 480.5725,61.345 480.5725,60.025 C480.5725,58.72 480.2125,57.7 479.5075,56.95 C478.8025,56.2 477.9475,55.825 476.9125,55.825 C475.8775,55.825 475.0075,56.2 474.2875,56.95 C473.5825,57.7 473.2225,58.72 473.2225,60.025 C473.2225,61.345 473.5675,62.38 474.2575,63.115 C474.9625,63.85 475.8475,64.225 476.9125,64.225 Z M476.9125,62.68 C475.7125,62.68 474.9175,61.75 474.9175,60.025 C474.9175,58.33 475.7125,57.37 476.9125,57.37 C478.0975,57.37 478.8925,58.345 478.8925,60.025 C478.8925,61.705 478.0975,62.68 476.9125,62.68 Z M484.0075,67.375 L484.0075,63.235 L484.0375,63.235 C484.5475,63.895 485.2525,64.225 486.1675,64.225 C487.1725,64.225 487.9975,63.85 488.6575,63.1 C489.3325,62.335 489.6625,61.315 489.6625,60.025 C489.6625,58.75 489.3175,57.73 488.6275,56.965 C487.9375,56.2 487.1125,55.825 486.1525,55.825 C485.2075,55.825 484.4725,56.155 483.9625,56.815 L483.9325,56.815 L483.9325,56.05 L482.2975,56.05 L482.2975,67.375 L484.0075,67.375 Z M485.8375,62.68 C484.7575,62.68 484.0075,61.93 484.0075,61.015 L484.0075,59.095 C484.0075,58.15 484.7425,57.37 485.8375,57.37 C487.1125,57.37 487.9525,58.33 487.9525,60.025 C487.9525,61.72 487.1425,62.68 485.8375,62.68 Z M493.6525,67.375 L498.1825,56.05 L496.4125,56.05 L494.3275,61.525 L494.2975,61.525 L492.2125,56.05 L490.4125,56.05 L493.5025,63.64 L492.0025,67.375 L493.6525,67.375 Z M501.6925,64 L501.6925,62.005 L499.6075,62.005 L499.6075,64 L501.6925,64 Z" id="Selectthetextyouwanttocopy." fill="#000000" fill-rule="nonzero"></path>
                <g id="Mockup/Web/Small-Window" transform="translate(665.000000, 0.000000)">
                    <path d="M163.5,1.5 L10.5,1.5 C8.01471863,1.5 5.76471863,2.50735931 4.13603897,4.13603897 C2.50735931,5.76471863 1.5,8.01471863 1.5,10.5 L1.5,89.5 C1.5,91.9852814 2.50735931,94.2352814 4.13603897,95.863961 C5.76471863,97.4926407 8.01471863,98.5 10.5,98.5 L163.5,98.5 C165.985281,98.5 168.235281,97.4926407 169.863961,95.863961 C171.492641,94.2352814 172.5,91.9852814 172.5,89.5 L172.5,10.5 C172.5,8.01471863 171.492641,5.76471863 169.863961,4.13603897 C168.235281,2.50735931 165.985281,1.5 163.5,1.5 Z" id="Rectangle-8" stroke="#000000" stroke-width="3" fill="#FFFFFF"></path>
                    <circle id="Oval-6" fill="#000000" cx="14" cy="14" r="3"></circle>
                    <circle id="Oval-6-Copy" fill="#000000" cx="26" cy="14" r="3"></circle>
                    <circle id="Oval-6-Copy-2" fill="#000000" cx="38" cy="14" r="3"></circle>
                </g>
                <path d="M701.2975,37 L701.2975,33.1 L703.7275,33.1 C705.9325,33.1 707.2975,31.855 707.2975,29.815 C707.2975,28.78 706.9675,27.97 706.3075,27.385 C705.6475,26.8 704.7775,26.5 703.7125,26.5 L699.5275,26.5 L699.5275,37 L701.2975,37 Z M703.6825,31.465 L701.2975,31.465 L701.2975,28.135 L703.6675,28.135 C704.6875,28.135 705.4825,28.66 705.4825,29.815 C705.4825,30.835 704.7175,31.465 703.6825,31.465 Z M710.2825,37 L710.2825,32.575 C710.2825,31.255 710.7475,30.595 711.6775,30.595 C711.8125,30.595 712.0225,30.64 712.3075,30.715 L712.5775,29.05 C712.3375,28.945 712.0975,28.9 711.8725,28.9 C711.1975,28.9 710.5375,29.29 710.2225,29.89 L710.1925,29.89 L710.1925,29.05 L708.5725,29.05 L708.5725,37 L710.2825,37 Z M717.2125,37.225 C718.6375,37.225 719.7475,36.61 720.5125,35.365 L719.2825,34.36 C719.0425,34.72 718.9225,34.915 718.5625,35.23 C718.2175,35.545 717.7675,35.71 717.1825,35.71 C715.9675,35.71 715.2475,34.855 715.2025,33.535 L720.7525,33.535 L720.7525,33.025 C720.7525,31.75 720.4075,30.73 719.7325,29.965 C719.0575,29.2 718.2025,28.825 717.1375,28.825 C716.0725,28.825 715.2025,29.215 714.5125,29.98 C713.8225,30.745 713.4775,31.75 713.4775,33.025 C713.4775,34.3 713.8225,35.32 714.5125,36.085 C715.2175,36.85 716.1175,37.225 717.2125,37.225 Z M719.0875,32.245 L715.2175,32.245 C715.2775,31.225 715.9975,30.34 717.1375,30.34 C718.3525,30.34 719.0275,31.12 719.0875,32.245 Z M725.4175,37.225 C726.4525,37.225 727.2475,36.985 727.7725,36.49 C728.3125,35.995 728.5825,35.425 728.5825,34.795 C728.5825,34.18 728.4025,33.685 728.0425,33.31 C727.6975,32.935 727.0375,32.605 726.0775,32.335 C725.0425,32.05 724.3975,31.84 724.1275,31.705 C723.8725,31.57 723.7375,31.36 723.7375,31.105 C723.7375,30.64 724.2475,30.25 725.1025,30.25 C726.0175,30.25 726.6175,30.685 726.9175,31.57 L728.3575,31.15 C727.9375,29.605 726.8575,28.825 725.1025,28.825 C724.1875,28.825 723.4825,29.065 722.9575,29.53 C722.4325,29.995 722.1775,30.535 722.1775,31.18 C722.1775,32.335 722.9875,32.98 724.8475,33.505 C725.7625,33.76 726.3625,33.97 726.6325,34.105 C726.9025,34.24 727.0375,34.465 727.0375,34.765 C727.0375,35.38 726.4225,35.785 725.3575,35.785 C724.2175,35.785 723.5725,35.185 723.4375,33.97 L721.8775,34.345 C721.9825,35.155 722.3275,35.845 722.9125,36.4 C723.4975,36.955 724.3225,37.225 725.4175,37.225 Z M733.1725,37.225 C734.2075,37.225 735.0025,36.985 735.5275,36.49 C736.0675,35.995 736.3375,35.425 736.3375,34.795 C736.3375,34.18 736.1575,33.685 735.7975,33.31 C735.4525,32.935 734.7925,32.605 733.8325,32.335 C732.7975,32.05 732.1525,31.84 731.8825,31.705 C731.6275,31.57 731.4925,31.36 731.4925,31.105 C731.4925,30.64 732.0025,30.25 732.8575,30.25 C733.7725,30.25 734.3725,30.685 734.6725,31.57 L736.1125,31.15 C735.6925,29.605 734.6125,28.825 732.8575,28.825 C731.9425,28.825 731.2375,29.065 730.7125,29.53 C730.1875,29.995 729.9325,30.535 729.9325,31.18 C729.9325,32.335 730.7425,32.98 732.6025,33.505 C733.5175,33.76 734.1175,33.97 734.3875,34.105 C734.6575,34.24 734.7925,34.465 734.7925,34.765 C734.7925,35.38 734.1775,35.785 733.1125,35.785 C731.9725,35.785 731.3275,35.185 731.1925,33.97 L729.6325,34.345 C729.7375,35.155 730.0825,35.845 730.6675,36.4 C731.2525,36.955 732.0775,37.225 733.1725,37.225 Z M743.4475,37 L743.4475,32.005 C743.4475,31.06 744.1225,30.4 745.1425,30.4 C746.2075,30.4 746.7775,31.105 746.7775,32.14 L746.7775,37 L748.4725,37 L748.4725,31.735 C748.4725,29.935 747.3025,28.825 745.6075,28.825 C744.7675,28.825 743.8375,29.29 743.4775,29.83 L743.4475,29.83 L743.4475,26.05 L741.7375,26.05 L741.7375,37 L743.4475,37 Z M753.8125,37.225 C754.8775,37.225 755.7625,36.85 756.4375,36.115 C757.1275,35.38 757.4725,34.345 757.4725,33.025 C757.4725,31.72 757.1125,30.7 756.4075,29.95 C755.7025,29.2 754.8475,28.825 753.8125,28.825 C752.7775,28.825 751.9075,29.2 751.1875,29.95 C750.4825,30.7 750.1225,31.72 750.1225,33.025 C750.1225,34.345 750.4675,35.38 751.1575,36.115 C751.8625,36.85 752.7475,37.225 753.8125,37.225 Z M753.8125,35.68 C752.6125,35.68 751.8175,34.75 751.8175,33.025 C751.8175,31.33 752.6125,30.37 753.8125,30.37 C754.9975,30.37 755.7925,31.345 755.7925,33.025 C755.7925,34.705 754.9975,35.68 753.8125,35.68 Z M762.9175,37 L762.9175,35.35 L762.2875,35.35 C761.4475,35.35 761.2525,35.05 761.2525,34.165 L761.2525,30.52 L763.2325,30.52 L763.2325,29.05 L761.2375,29.05 L761.2375,27.1 L759.6175,27.1 L759.6175,29.05 L758.3725,29.05 L758.3725,30.52 L759.5725,30.52 L759.5725,34.345 C759.5725,36.19 760.2325,37 762.1525,37 L762.9175,37 Z M766.5925,37 L766.5925,34.405 L767.6575,33.235 L767.6875,33.235 L770.2075,37 L772.1425,37 L768.9625,32.245 L771.8425,29.05 L769.6675,29.05 L766.6225,32.455 L766.5925,32.455 L766.5925,26.05 L764.8825,26.05 L764.8825,37 L766.5925,37 Z M776.5525,37.225 C777.9775,37.225 779.0875,36.61 779.8525,35.365 L778.6225,34.36 C778.3825,34.72 778.2625,34.915 777.9025,35.23 C777.5575,35.545 777.1075,35.71 776.5225,35.71 C775.3075,35.71 774.5875,34.855 774.5425,33.535 L780.0925,33.535 L780.0925,33.025 C780.0925,31.75 779.7475,30.73 779.0725,29.965 C778.3975,29.2 777.5425,28.825 776.4775,28.825 C775.4125,28.825 774.5425,29.215 773.8525,29.98 C773.1625,30.745 772.8175,31.75 772.8175,33.025 C772.8175,34.3 773.1625,35.32 773.8525,36.085 C774.5575,36.85 775.4575,37.225 776.5525,37.225 Z M778.4275,32.245 L774.5575,32.245 C774.6175,31.225 775.3375,30.34 776.4775,30.34 C777.6925,30.34 778.3675,31.12 778.4275,32.245 Z M784.0825,40.375 L788.6125,29.05 L786.8425,29.05 L784.7575,34.525 L784.7275,34.525 L782.6425,29.05 L780.8425,29.05 L783.9325,36.64 L782.4325,40.375 L784.0825,40.375 Z M797.3575,37 L797.3575,35.35 L796.7275,35.35 C795.8875,35.35 795.6925,35.05 795.6925,34.165 L795.6925,30.52 L797.6725,30.52 L797.6725,29.05 L795.6775,29.05 L795.6775,27.1 L794.0575,27.1 L794.0575,29.05 L792.8125,29.05 L792.8125,30.52 L794.0125,30.52 L794.0125,34.345 C794.0125,36.19 794.6725,37 796.5925,37 L797.3575,37 Z M802.4875,37.225 C803.5525,37.225 804.4375,36.85 805.1125,36.115 C805.8025,35.38 806.1475,34.345 806.1475,33.025 C806.1475,31.72 805.7875,30.7 805.0825,29.95 C804.3775,29.2 803.5225,28.825 802.4875,28.825 C801.4525,28.825 800.5825,29.2 799.8625,29.95 C799.1575,30.7 798.7975,31.72 798.7975,33.025 C798.7975,34.345 799.1425,35.38 799.8325,36.115 C800.5375,36.85 801.4225,37.225 802.4875,37.225 Z M802.4875,35.68 C801.2875,35.68 800.4925,34.75 800.4925,33.025 C800.4925,31.33 801.2875,30.37 802.4875,30.37 C803.6725,30.37 804.4675,31.345 804.4675,33.025 C804.4675,34.705 803.6725,35.68 802.4875,35.68 Z M700.57,55.225 C702.445,55.225 703.615,54.115 703.93,52.195 L702.235,51.835 C702.055,53.065 701.5,53.68 700.57,53.68 C699.31,53.68 698.575,52.705 698.575,51.025 C698.575,49.345 699.355,48.37 700.57,48.37 C701.515,48.37 702.07,48.925 702.235,50.035 L703.84,49.765 C703.645,48.025 702.37,46.825 700.555,46.825 C699.49,46.825 698.62,47.215 697.915,47.98 C697.225,48.745 696.88,49.75 696.88,51.025 C696.88,52.345 697.225,53.38 697.915,54.115 C698.605,54.85 699.49,55.225 700.57,55.225 Z M708.745,55.225 C709.81,55.225 710.695,54.85 711.37,54.115 C712.06,53.38 712.405,52.345 712.405,51.025 C712.405,49.72 712.045,48.7 711.34,47.95 C710.635,47.2 709.78,46.825 708.745,46.825 C707.71,46.825 706.84,47.2 706.12,47.95 C705.415,48.7 705.055,49.72 705.055,51.025 C705.055,52.345 705.4,53.38 706.09,54.115 C706.795,54.85 707.68,55.225 708.745,55.225 Z M708.745,53.68 C707.545,53.68 706.75,52.75 706.75,51.025 C706.75,49.33 707.545,48.37 708.745,48.37 C709.93,48.37 710.725,49.345 710.725,51.025 C710.725,52.705 709.93,53.68 708.745,53.68 Z M715.84,58.375 L715.84,54.235 L715.87,54.235 C716.38,54.895 717.085,55.225 718,55.225 C719.005,55.225 719.83,54.85 720.49,54.1 C721.165,53.335 721.495,52.315 721.495,51.025 C721.495,49.75 721.15,48.73 720.46,47.965 C719.77,47.2 718.945,46.825 717.985,46.825 C717.04,46.825 716.305,47.155 715.795,47.815 L715.765,47.815 L715.765,47.05 L714.13,47.05 L714.13,58.375 L715.84,58.375 Z M717.67,53.68 C716.59,53.68 715.84,52.93 715.84,52.015 L715.84,50.095 C715.84,49.15 716.575,48.37 717.67,48.37 C718.945,48.37 719.785,49.33 719.785,51.025 C719.785,52.72 718.975,53.68 717.67,53.68 Z M725.485,58.375 L730.015,47.05 L728.245,47.05 L726.16,52.525 L726.13,52.525 L724.045,47.05 L722.245,47.05 L725.335,54.64 L723.835,58.375 L725.485,58.375 Z M737.32,55.225 C738.04,55.225 738.655,55.015 739,54.76 C739.36,54.475 739.495,54.325 739.57,54.205 L739.6,54.205 L739.6,55 L741.055,55 L741.055,49.855 C741.055,47.77 739.765,46.825 737.845,46.825 C736.105,46.825 735.01,47.77 734.665,49.135 L736.12,49.69 C736.36,48.835 736.795,48.295 737.89,48.295 C738.85,48.295 739.345,48.7 739.345,49.24 C739.345,49.525 739.21,49.735 738.94,49.885 C738.67,50.02 738.1,50.2 737.215,50.425 C735.25,50.905 734.515,51.535 734.515,52.9 C734.515,54.22 735.46,55.225 737.32,55.225 Z M737.47,53.74 C736.6,53.74 736.165,53.425 736.165,52.78 C736.165,52.255 736.435,51.925 737.56,51.64 C739.12,51.205 739.3,51.025 739.375,50.815 L739.405,50.815 L739.405,52.405 C739.405,53.14 738.745,53.74 737.47,53.74 Z M744.925,55 L744.925,44.05 L743.155,44.05 L743.155,55 L744.925,55 Z M748.945,55 L748.945,44.05 L747.175,44.05 L747.175,55 L748.945,55 Z M758.665,55 L758.665,53.35 L758.035,53.35 C757.195,53.35 757,53.05 757,52.165 L757,48.52 L758.98,48.52 L758.98,47.05 L756.985,47.05 L756.985,45.1 L755.365,45.1 L755.365,47.05 L754.12,47.05 L754.12,48.52 L755.32,48.52 L755.32,52.345 C755.32,54.19 755.98,55 757.9,55 L758.665,55 Z M762.34,55 L762.34,50.005 C762.34,49.06 763.015,48.4 764.035,48.4 C765.1,48.4 765.67,49.105 765.67,50.14 L765.67,55 L767.365,55 L767.365,49.735 C767.365,47.935 766.195,46.825 764.5,46.825 C763.66,46.825 762.73,47.29 762.37,47.83 L762.34,47.83 L762.34,44.05 L760.63,44.05 L760.63,55 L762.34,55 Z M772.75,55.225 C774.175,55.225 775.285,54.61 776.05,53.365 L774.82,52.36 C774.58,52.72 774.46,52.915 774.1,53.23 C773.755,53.545 773.305,53.71 772.72,53.71 C771.505,53.71 770.785,52.855 770.74,51.535 L776.29,51.535 L776.29,51.025 C776.29,49.75 775.945,48.73 775.27,47.965 C774.595,47.2 773.74,46.825 772.675,46.825 C771.61,46.825 770.74,47.215 770.05,47.98 C769.36,48.745 769.015,49.75 769.015,51.025 C769.015,52.3 769.36,53.32 770.05,54.085 C770.755,54.85 771.655,55.225 772.75,55.225 Z M774.625,50.245 L770.755,50.245 C770.815,49.225 771.535,48.34 772.675,48.34 C773.89,48.34 774.565,49.12 774.625,50.245 Z M785.845,55.225 C787.015,55.225 787.975,54.865 788.71,54.13 C789.445,53.395 789.88,52.45 790,51.265 L788.14,50.89 C787.915,52.69 787.15,53.59 785.845,53.59 C784.27,53.59 783.145,52.315 783.145,49.69 C783.145,48.415 783.4,47.455 783.91,46.84 C784.435,46.225 785.08,45.91 785.845,45.91 C787.075,45.91 787.825,46.705 788.08,48.295 L789.91,48.01 C789.775,46.885 789.34,45.985 788.59,45.31 C787.84,44.62 786.925,44.275 785.83,44.275 C784.585,44.275 783.52,44.74 782.635,45.685 C781.75,46.615 781.315,47.935 781.315,49.66 C781.315,51.505 781.735,52.9 782.575,53.83 C783.43,54.76 784.51,55.225 785.845,55.225 Z M795.415,55.225 C796.57,55.225 797.5,54.925 798.175,54.325 C798.865,53.725 799.21,52.975 799.21,52.06 C799.21,51.265 798.985,50.65 798.535,50.185 C798.1,49.72 797.26,49.285 796.015,48.865 C794.86,48.475 794.14,48.175 793.825,47.98 C793.51,47.785 793.36,47.515 793.36,47.17 C793.36,46.435 793.93,45.925 795.07,45.925 C796.315,45.925 796.885,46.54 797.17,47.575 L798.895,47.155 C798.58,45.25 797.05,44.275 795.07,44.275 C794.005,44.275 793.165,44.56 792.55,45.13 C791.935,45.7 791.62,46.39 791.62,47.185 C791.62,48.58 792.49,49.54 794.695,50.215 C795.88,50.575 796.63,50.875 796.96,51.13 C797.305,51.385 797.47,51.73 797.47,52.165 C797.47,53.05 796.705,53.59 795.43,53.59 C793.885,53.59 793.345,52.84 793.06,51.055 L791.2,51.46 C791.515,53.935 793,55.225 795.415,55.225 Z M804.475,55.225 C805.63,55.225 806.56,54.925 807.235,54.325 C807.925,53.725 808.27,52.975 808.27,52.06 C808.27,51.265 808.045,50.65 807.595,50.185 C807.16,49.72 806.32,49.285 805.075,48.865 C803.92,48.475 803.2,48.175 802.885,47.98 C802.57,47.785 802.42,47.515 802.42,47.17 C802.42,46.435 802.99,45.925 804.13,45.925 C805.375,45.925 805.945,46.54 806.23,47.575 L807.955,47.155 C807.64,45.25 806.11,44.275 804.13,44.275 C803.065,44.275 802.225,44.56 801.61,45.13 C800.995,45.7 800.68,46.39 800.68,47.185 C800.68,48.58 801.55,49.54 803.755,50.215 C804.94,50.575 805.69,50.875 806.02,51.13 C806.365,51.385 806.53,51.73 806.53,52.165 C806.53,53.05 805.765,53.59 804.49,53.59 C802.945,53.59 802.405,52.84 802.12,51.055 L800.26,51.46 C800.575,53.935 802.06,55.225 804.475,55.225 Z M700.09,73 L700.09,66.52 L702.04,66.52 L702.04,65.05 L700.045,65.05 L700.045,64.285 C700.045,63.73 700.21,63.565 700.735,63.565 L701.86,63.565 L701.86,62.05 L700.39,62.05 C699.115,62.05 698.425,62.53 698.425,63.895 L698.425,65.05 L697.195,65.05 L697.195,66.52 L698.395,66.52 L698.395,73 L700.09,73 Z M706.405,73.225 C707.47,73.225 708.355,72.85 709.03,72.115 C709.72,71.38 710.065,70.345 710.065,69.025 C710.065,67.72 709.705,66.7 709,65.95 C708.295,65.2 707.44,64.825 706.405,64.825 C705.37,64.825 704.5,65.2 703.78,65.95 C703.075,66.7 702.715,67.72 702.715,69.025 C702.715,70.345 703.06,71.38 703.75,72.115 C704.455,72.85 705.34,73.225 706.405,73.225 Z M706.405,71.68 C705.205,71.68 704.41,70.75 704.41,69.025 C704.41,67.33 705.205,66.37 706.405,66.37 C707.59,66.37 708.385,67.345 708.385,69.025 C708.385,70.705 707.59,71.68 706.405,71.68 Z M713.5,73 L713.5,68.065 C713.5,67.045 714.175,66.4 715.21,66.4 C716.245,66.4 716.755,67.015 716.755,68.245 L716.755,73 L718.45,73 L718.45,67.795 C718.45,65.935 717.37,64.825 715.615,64.825 C714.76,64.825 713.905,65.26 713.47,65.815 L713.44,65.815 L713.44,65.05 L711.79,65.05 L711.79,73 L713.5,73 Z M724.345,73 L724.345,71.35 L723.715,71.35 C722.875,71.35 722.68,71.05 722.68,70.165 L722.68,66.52 L724.66,66.52 L724.66,65.05 L722.665,65.05 L722.665,63.1 L721.045,63.1 L721.045,65.05 L719.8,65.05 L719.8,66.52 L721,66.52 L721,70.345 C721,72.19 721.66,73 723.58,73 L724.345,73 Z M730.795,68.695 L730.795,67.33 L725.86,67.33 L725.86,68.695 L730.795,68.695 Z M734.305,76.375 L734.305,72.235 L734.335,72.235 C734.845,72.895 735.55,73.225 736.465,73.225 C737.47,73.225 738.295,72.85 738.955,72.1 C739.63,71.335 739.96,70.315 739.96,69.025 C739.96,67.75 739.615,66.73 738.925,65.965 C738.235,65.2 737.41,64.825 736.45,64.825 C735.505,64.825 734.77,65.155 734.26,65.815 L734.23,65.815 L734.23,65.05 L732.595,65.05 L732.595,76.375 L734.305,76.375 Z M736.135,71.68 C735.055,71.68 734.305,70.93 734.305,70.015 L734.305,68.095 C734.305,67.15 735.04,66.37 736.135,66.37 C737.41,66.37 738.25,67.33 738.25,69.025 C738.25,70.72 737.44,71.68 736.135,71.68 Z M743.395,73 L743.395,68.575 C743.395,67.255 743.86,66.595 744.79,66.595 C744.925,66.595 745.135,66.64 745.42,66.715 L745.69,65.05 C745.45,64.945 745.21,64.9 744.985,64.9 C744.31,64.9 743.65,65.29 743.335,65.89 L743.305,65.89 L743.305,65.05 L741.685,65.05 L741.685,73 L743.395,73 Z M750.28,73.225 C751.345,73.225 752.23,72.85 752.905,72.115 C753.595,71.38 753.94,70.345 753.94,69.025 C753.94,67.72 753.58,66.7 752.875,65.95 C752.17,65.2 751.315,64.825 750.28,64.825 C749.245,64.825 748.375,65.2 747.655,65.95 C746.95,66.7 746.59,67.72 746.59,69.025 C746.59,70.345 746.935,71.38 747.625,72.115 C748.33,72.85 749.215,73.225 750.28,73.225 Z M750.28,71.68 C749.08,71.68 748.285,70.75 748.285,69.025 C748.285,67.33 749.08,66.37 750.28,66.37 C751.465,66.37 752.26,67.345 752.26,69.025 C752.26,70.705 751.465,71.68 750.28,71.68 Z M757.375,76.375 L757.375,72.235 L757.405,72.235 C757.915,72.895 758.62,73.225 759.535,73.225 C760.54,73.225 761.365,72.85 762.025,72.1 C762.7,71.335 763.03,70.315 763.03,69.025 C763.03,67.75 762.685,66.73 761.995,65.965 C761.305,65.2 760.48,64.825 759.52,64.825 C758.575,64.825 757.84,65.155 757.33,65.815 L757.3,65.815 L757.3,65.05 L755.665,65.05 L755.665,76.375 L757.375,76.375 Z M759.205,71.68 C758.125,71.68 757.375,70.93 757.375,70.015 L757.375,68.095 C757.375,67.15 758.11,66.37 759.205,66.37 C760.48,66.37 761.32,67.33 761.32,69.025 C761.32,70.72 760.51,71.68 759.205,71.68 Z M767.965,73.225 C769.39,73.225 770.5,72.61 771.265,71.365 L770.035,70.36 C769.795,70.72 769.675,70.915 769.315,71.23 C768.97,71.545 768.52,71.71 767.935,71.71 C766.72,71.71 766,70.855 765.955,69.535 L771.505,69.535 L771.505,69.025 C771.505,67.75 771.16,66.73 770.485,65.965 C769.81,65.2 768.955,64.825 767.89,64.825 C766.825,64.825 765.955,65.215 765.265,65.98 C764.575,66.745 764.23,67.75 764.23,69.025 C764.23,70.3 764.575,71.32 765.265,72.085 C765.97,72.85 766.87,73.225 767.965,73.225 Z M769.84,68.245 L765.97,68.245 C766.03,67.225 766.75,66.34 767.89,66.34 C769.105,66.34 769.78,67.12 769.84,68.245 Z M774.94,73 L774.94,68.575 C774.94,67.255 775.405,66.595 776.335,66.595 C776.47,66.595 776.68,66.64 776.965,66.715 L777.235,65.05 C776.995,64.945 776.755,64.9 776.53,64.9 C775.855,64.9 775.195,65.29 774.88,65.89 L774.85,65.89 L774.85,65.05 L773.23,65.05 L773.23,73 L774.94,73 Z M782.38,73 L782.38,71.35 L781.75,71.35 C780.91,71.35 780.715,71.05 780.715,70.165 L780.715,66.52 L782.695,66.52 L782.695,65.05 L780.7,65.05 L780.7,63.1 L779.08,63.1 L779.08,65.05 L777.835,65.05 L777.835,66.52 L779.035,66.52 L779.035,70.345 C779.035,72.19 779.695,73 781.615,73 L782.38,73 Z M786.115,63.745 L786.115,62.05 L784.345,62.05 L784.345,63.745 L786.115,63.745 Z M786.085,73 L786.085,65.05 L784.375,65.05 L784.375,73 L786.085,73 Z M791.575,73.225 C793,73.225 794.11,72.61 794.875,71.365 L793.645,70.36 C793.405,70.72 793.285,70.915 792.925,71.23 C792.58,71.545 792.13,71.71 791.545,71.71 C790.33,71.71 789.61,70.855 789.565,69.535 L795.115,69.535 L795.115,69.025 C795.115,67.75 794.77,66.73 794.095,65.965 C793.42,65.2 792.565,64.825 791.5,64.825 C790.435,64.825 789.565,65.215 788.875,65.98 C788.185,66.745 787.84,67.75 787.84,69.025 C787.84,70.3 788.185,71.32 788.875,72.085 C789.58,72.85 790.48,73.225 791.575,73.225 Z M793.45,68.245 L789.58,68.245 C789.64,67.225 790.36,66.34 791.5,66.34 C792.715,66.34 793.39,67.12 793.45,68.245 Z M799.78,73.225 C800.815,73.225 801.61,72.985 802.135,72.49 C802.675,71.995 802.945,71.425 802.945,70.795 C802.945,70.18 802.765,69.685 802.405,69.31 C802.06,68.935 801.4,68.605 800.44,68.335 C799.405,68.05 798.76,67.84 798.49,67.705 C798.235,67.57 798.1,67.36 798.1,67.105 C798.1,66.64 798.61,66.25 799.465,66.25 C800.38,66.25 800.98,66.685 801.28,67.57 L802.72,67.15 C802.3,65.605 801.22,64.825 799.465,64.825 C798.55,64.825 797.845,65.065 797.32,65.53 C796.795,65.995 796.54,66.535 796.54,67.18 C796.54,68.335 797.35,68.98 799.21,69.505 C800.125,69.76 800.725,69.97 800.995,70.105 C801.265,70.24 801.4,70.465 801.4,70.765 C801.4,71.38 800.785,71.785 799.72,71.785 C798.58,71.785 797.935,71.185 797.8,69.97 L796.24,70.345 C796.345,71.155 796.69,71.845 797.275,72.4 C797.86,72.955 798.685,73.225 799.78,73.225 Z M806.83,73 L806.83,71.005 L804.745,71.005 L804.745,73 L806.83,73 Z" id="PresshotkeytocopyalltheCSSfont-properties." fill="#000000" fill-rule="nonzero"></path>
                <polygon id="Path-5" fill="#000000" fill-rule="nonzero" points="359.95911 48.7673718 359.95911 51.7673718 252.95911 51.7673718 252.95911 48.7673718"></polygon>
                <polygon id="Path-3" fill="#000000" points="359.95911 45.2673718 367.95911 50.2673718 359.95911 55.2673718"></polygon>
                <circle id="Oval-9" fill="#000000" cx="250.95911" cy="50.2673718" r="6"></circle>
                <polygon id="Path-5" fill="#000000" fill-rule="nonzero" points="657 48.7673718 657 51.7673718 550 51.7673718 550 48.7673718"></polygon>
                <polygon id="Path-3" fill="#000000" points="657 45.2673718 665 50.2673718 657 55.2673718"></polygon>
                <circle id="Oval-9" fill="#000000" cx="548" cy="50.2673718" r="6"></circle>
                <polygon id="Path-5" fill="#000000" fill-rule="nonzero" points="951 48.7673718 951 51.7673718 844 51.7673718 844 48.7673718"></polygon>
                <polygon id="Path-3" fill="#000000" points="951 45.2673718 959 50.2673718 951 55.2673718"></polygon>
                <circle id="Oval-9" fill="#000000" cx="842" cy="50.2673718" r="6"></circle>
            </g>
        </g>
    </g>
</svg>