<?xml version="1.0" encoding="UTF-8"?>
<svg width="661px" height="199px" viewBox="0 0 661 199" version="1.1" xmlns="http://www.w3.org/2000/svg" xmlns:xlink="http://www.w3.org/1999/xlink">
    <title>Group 2</title>
    <g id="Pages" stroke="none" stroke-width="1" fill="none" fill-rule="evenodd">
        <g id="Fisqual-Copy" transform="translate(-636.000000, -1358.000000)">
            <g id="Statistics-Image" transform="translate(636.000000, 1358.000000)">
                <g id="Group-2">
                    <rect id="Rectangle" fill="#0ED1A1" x="0" y="0" width="661" height="199"></rect>
                    <path d="M41.3,118.75 C49.7,118.75 55.1,114.3 55.1,107.3 C55.1,103.7 52.75,100.45 49.5,98.9 C51.9,97.35 53.25,94.95 53.25,92.1 C53.25,86.3 48.3,82.25 41.1,82.25 C35.5,82.25 30.9,85.05 28.85,89.25 C28.5,89.95 28.3,90.65 28.3,91.4 C28.3,93.4 29.65,94.75 31.8,94.75 C33.25,94.75 34.05,94.1 34.8,92.5 C36.05,89.85 38.15,88.5 41.1,88.5 C44.5,88.5 46.6,89.95 46.6,92.35 C46.6,94.7 44.95,96.2 42.2,96.2 L40.2,96.2 C38,96.2 36.65,97.45 36.65,99.45 C36.65,101.45 38.05,102.7 40.2,102.7 L41.8,102.7 C46,102.7 47.85,104.1 47.85,107.3 C47.85,110.35 45.35,112.25 41.15,112.25 C37.4,112.25 35.2,110.95 33.45,107.6 C32.75,106.25 31.7,105.55 30.3,105.55 C28.3,105.55 26.75,107.05 26.75,109 C26.75,109.75 26.85,110.25 27.25,111 C29.8,115.75 34.65,118.75 41.3,118.75 Z M72.95,118.7 C81.1,118.7 86.3,113.65 86.3,106.3 C86.3,99.2 81.1,94.3 73.5,94.3 C71.15,94.3 69.2,94.7 67.15,95.65 L67.75,89.5 L80.5,89.5 C82.7,89.5 84.05,88.25 84.05,86.2 C84.05,84.25 82.7,83 80.5,83 L64.3,83 C62.7,83 61.5,84.2 61.35,85.8 L60.15,97.3 C60,98.3 60.1,98.55 60.1,98.9 C60.1,101.25 61.5,102.6 63.7,102.6 C65.05,102.6 66.15,102.25 67.75,101.45 C69.9,100.4 71.15,100.1 72.9,100.1 C76.85,100.1 79.35,102.5 79.35,106.3 C79.35,109.95 76.95,112.2 72.95,112.2 C69.75,112.2 67.3,110.85 65.75,108.05 C65,106.75 64,106.1 62.65,106.1 C60.65,106.1 59.1,107.55 59.1,109.5 C59.1,110.2 59.3,110.95 59.65,111.75 C61.6,115.95 67.05,118.7 72.95,118.7 Z M100.15,118.25 C101.3,118.25 102.05,117.8 102.8,116.85 L124.25,87.95 C124.8,87.2 125.1,86.4 125.1,85.6 C125.1,84 123.85,82.75 122.1,82.75 C121.05,82.75 120.15,83.2 119.45,84.15 L98,113.05 C97.45,113.8 97.15,114.6 97.15,115.4 C97.15,117 98.4,118.25 100.15,118.25 Z M99.35,102.65 C104.7,102.65 108.35,98.6 108.35,92.75 C108.35,86.9 104.7,82.85 99.35,82.85 C93.95,82.85 90.3,86.9 90.3,92.75 C90.3,98.6 93.95,102.65 99.35,102.65 Z M99.35,97.1 C97.3,97.1 96.3,95.65 96.3,92.75 C96.3,89.85 97.3,88.4 99.35,88.4 C101.3,88.4 102.4,89.95 102.4,92.75 C102.4,95.55 101.3,97.1 99.35,97.1 Z M123.3,118.15 C128.7,118.15 132.35,114.1 132.35,108.25 C132.35,102.4 128.7,98.35 123.3,98.35 C117.95,98.35 114.3,102.4 114.3,108.25 C114.3,114.1 117.95,118.15 123.3,118.15 Z M123.3,112.6 C121.35,112.6 120.25,111.05 120.25,108.25 C120.25,105.45 121.35,103.9 123.3,103.9 C125.35,103.9 126.35,105.35 126.35,108.25 C126.35,111.15 125.35,112.6 123.3,112.6 Z" id="35%" fill="#000000" fill-rule="nonzero"></path>
                    <path d="M531.75,118.7 C539.9,118.7 545.1,113.65 545.1,106.3 C545.1,99.2 539.9,94.3 532.3,94.3 C529.95,94.3 528,94.7 525.95,95.65 L526.55,89.5 L539.3,89.5 C541.5,89.5 542.85,88.25 542.85,86.2 C542.85,84.25 541.5,83 539.3,83 L523.1,83 C521.5,83 520.3,84.2 520.15,85.8 L518.95,97.3 C518.8,98.3 518.9,98.55 518.9,98.9 C518.9,101.25 520.3,102.6 522.5,102.6 C523.85,102.6 524.95,102.25 526.55,101.45 C528.7,100.4 529.95,100.1 531.7,100.1 C535.65,100.1 538.15,102.5 538.15,106.3 C538.15,109.95 535.75,112.2 531.75,112.2 C528.55,112.2 526.1,110.85 524.55,108.05 C523.8,106.75 522.8,106.1 521.45,106.1 C519.45,106.1 517.9,107.55 517.9,109.5 C517.9,110.2 518.1,110.95 518.45,111.75 C520.4,115.95 525.85,118.7 531.75,118.7 Z M564.05,118.75 C573.75,118.75 579.95,111.7 579.95,100.5 C579.95,89.3 573.75,82.25 564.05,82.25 C554.3,82.25 548.1,89.3 548.1,100.5 C548.1,111.7 554.3,118.75 564.05,118.75 Z M564.05,112 C558.65,112 555.35,107.7 555.35,100.5 C555.35,93.25 558.65,89 564.05,89 C569.45,89 572.7,93.25 572.7,100.5 C572.7,107.7 569.45,112 564.05,112 Z M594.8,118.25 C595.95,118.25 596.7,117.8 597.45,116.85 L618.9,87.95 C619.45,87.2 619.75,86.4 619.75,85.6 C619.75,84 618.5,82.75 616.75,82.75 C615.7,82.75 614.8,83.2 614.1,84.15 L592.65,113.05 C592.1,113.8 591.8,114.6 591.8,115.4 C591.8,117 593.05,118.25 594.8,118.25 Z M594,102.65 C599.35,102.65 603,98.6 603,92.75 C603,86.9 599.35,82.85 594,82.85 C588.6,82.85 584.95,86.9 584.95,92.75 C584.95,98.6 588.6,102.65 594,102.65 Z M594,97.1 C591.95,97.1 590.95,95.65 590.95,92.75 C590.95,89.85 591.95,88.4 594,88.4 C595.95,88.4 597.05,89.95 597.05,92.75 C597.05,95.55 595.95,97.1 594,97.1 Z M617.95,118.15 C623.35,118.15 627,114.1 627,108.25 C627,102.4 623.35,98.35 617.95,98.35 C612.6,98.35 608.95,102.4 608.95,108.25 C608.95,114.1 612.6,118.15 617.95,118.15 Z M617.95,112.6 C616,112.6 614.9,111.05 614.9,108.25 C614.9,105.45 616,103.9 617.95,103.9 C620,103.9 621,105.35 621,108.25 C621,111.15 620,112.6 617.95,112.6 Z" id="50%" stroke="#000000" fill-opacity="0" fill="#000000" fill-rule="nonzero"></path>
                    <path d="M31.264,173 C31.936,173 32.332,172.628 32.332,172.016 C32.332,171.404 31.936,171.032 31.264,171.032 L27.64,171.032 C27.64,170.66 27.868,170.468 28.576,170.276 C31.276,169.532 32.152,168.8 32.152,167.144 C32.152,165.536 30.832,164.42 28.936,164.42 C27.532,164.42 26.32,165.092 25.708,166.244 C25.576,166.496 25.516,166.748 25.516,167.024 C25.516,167.588 25.936,168.008 26.5,168.008 C26.932,168.008 27.292,167.792 27.424,167.42 C27.712,166.628 28.216,166.232 28.948,166.232 C29.668,166.232 30.112,166.568 30.112,167.108 C30.112,167.756 29.632,168.092 28.048,168.572 C26.188,169.112 25.42,170.108 25.42,171.92 C25.42,172.64 25.792,173 26.536,173 L31.264,173 Z M37.94,173.18 C40.292,173.18 41.816,171.452 41.816,168.8 C41.816,166.112 40.292,164.42 37.94,164.42 C35.576,164.42 34.052,166.112 34.052,168.8 C34.052,171.452 35.576,173.18 37.94,173.18 Z M37.94,171.272 C36.776,171.272 36.104,170.372 36.104,168.8 C36.104,167.216 36.776,166.328 37.94,166.328 C39.092,166.328 39.764,167.216 39.764,168.8 C39.764,170.372 39.092,171.272 37.94,171.272 Z M46.848,173.06 C47.46,173.06 47.832,172.664 47.832,172.028 L47.832,165.488 C47.832,164.9 47.472,164.54 46.884,164.54 C46.488,164.54 46.236,164.684 45.756,165.248 C45.192,165.884 44.508,166.46 43.8,166.844 C43.38,167.072 43.224,167.336 43.224,167.756 C43.224,168.32 43.62,168.716 44.184,168.716 C44.376,168.716 44.544,168.68 44.7,168.596 C45.084,168.392 45.564,168.044 45.852,167.696 L45.852,172.028 C45.852,172.652 46.236,173.06 46.848,173.06 Z M53.776,173.18 C55.732,173.18 57.064,172.22 57.064,170.78 C57.064,169.676 56.548,168.908 55.624,168.572 C56.38,168.284 56.812,167.66 56.812,166.796 C56.812,165.428 55.528,164.42 53.788,164.42 C52.048,164.42 50.764,165.428 50.764,166.796 C50.764,167.66 51.196,168.284 51.952,168.572 C51.028,168.908 50.512,169.676 50.512,170.78 C50.512,172.22 51.808,173.18 53.776,173.18 Z M53.8,167.708 C53.128,167.696 52.792,167.432 52.792,166.94 C52.792,166.448 53.128,166.208 53.8,166.208 C54.46,166.208 54.808,166.472 54.808,166.94 C54.808,167.42 54.46,167.696 53.8,167.708 Z M53.8,171.296 C52.912,171.296 52.468,171.008 52.468,170.432 C52.468,169.82 52.912,169.508 53.8,169.508 C54.664,169.508 55.132,169.82 55.132,170.432 C55.132,171.008 54.688,171.296 53.8,171.296 Z" id="2018" fill="#292429" fill-rule="nonzero"></path>
                    <path d="M596.264,173 C596.936,173 597.332,172.628 597.332,172.016 C597.332,171.404 596.936,171.032 596.264,171.032 L592.64,171.032 C592.64,170.66 592.868,170.468 593.576,170.276 C596.276,169.532 597.152,168.8 597.152,167.144 C597.152,165.536 595.832,164.42 593.936,164.42 C592.532,164.42 591.32,165.092 590.708,166.244 C590.576,166.496 590.516,166.748 590.516,167.024 C590.516,167.588 590.936,168.008 591.5,168.008 C591.932,168.008 592.292,167.792 592.424,167.42 C592.712,166.628 593.216,166.232 593.948,166.232 C594.668,166.232 595.112,166.568 595.112,167.108 C595.112,167.756 594.632,168.092 593.048,168.572 C591.188,169.112 590.42,170.108 590.42,171.92 C590.42,172.64 590.792,173 591.536,173 L596.264,173 Z M602.94,173.18 C605.292,173.18 606.816,171.452 606.816,168.8 C606.816,166.112 605.292,164.42 602.94,164.42 C600.576,164.42 599.052,166.112 599.052,168.8 C599.052,171.452 600.576,173.18 602.94,173.18 Z M602.94,171.272 C601.776,171.272 601.104,170.372 601.104,168.8 C601.104,167.216 601.776,166.328 602.94,166.328 C604.092,166.328 604.764,167.216 604.764,168.8 C604.764,170.372 604.092,171.272 602.94,171.272 Z M614.548,173 C615.22,173 615.616,172.628 615.616,172.016 C615.616,171.404 615.22,171.032 614.548,171.032 L610.924,171.032 C610.924,170.66 611.152,170.468 611.86,170.276 C614.56,169.532 615.436,168.8 615.436,167.144 C615.436,165.536 614.116,164.42 612.22,164.42 C610.816,164.42 609.604,165.092 608.992,166.244 C608.86,166.496 608.8,166.748 608.8,167.024 C608.8,167.588 609.22,168.008 609.784,168.008 C610.216,168.008 610.576,167.792 610.708,167.42 C610.996,166.628 611.5,166.232 612.232,166.232 C612.952,166.232 613.396,166.568 613.396,167.108 C613.396,167.756 612.916,168.092 611.332,168.572 C609.472,169.112 608.704,170.108 608.704,171.92 C608.704,172.64 609.076,173 609.82,173 L614.548,173 Z M619.364,173.072 C619.976,173.072 620.348,172.676 620.348,172.04 C620.348,170.108 621.056,168.596 623.036,166.424 C623.264,166.172 623.372,165.896 623.372,165.572 C623.372,165.008 622.904,164.6 622.232,164.6 L617.696,164.6 C617.072,164.6 616.676,164.96 616.676,165.524 C616.676,166.1 617.072,166.484 617.696,166.484 L620.66,166.484 C619.148,167.9 618.368,170.036 618.368,172.04 C618.368,172.664 618.752,173.072 619.364,173.072 Z" id="2027" fill="#292429" fill-rule="nonzero"></path>
                    <g id="Arrows" transform="translate(65.000000, 169.000000)" fill="#000000" fill-rule="nonzero">
                        <path id="Angled-Arrow" d="M489.745131,-4.93578777 L497.745131,-0.435787769 L498.519864,0 L497.745131,0.435787769 L489.745131,4.93578777 L489.254869,4.06421223 L495.591,0.5 L0,0.5 L0,-0.5 L495.591,-0.5 L489.254869,-4.06421223 L489.745131,-4.93578777 Z"></path>
                    </g>
                    <path d="M26.788,36.072 C27.424,36.072 27.832,35.64 27.832,34.932 L27.832,33.18 L30.52,33.18 C32.392,33.18 33.484,32.148 33.484,30.384 C33.484,28.62 32.404,27.6 30.52,27.6 L26.92,27.6 C26.116,27.6 25.72,28.008 25.72,28.812 L25.72,34.932 C25.72,35.64 26.128,36.072 26.788,36.072 Z M30.412,31.272 L27.832,31.272 L27.832,29.508 L30.412,29.508 C31.048,29.508 31.372,29.796 31.372,30.384 C31.372,30.948 31.024,31.272 30.412,31.272 Z M42.404,36.06 C42.968,36.06 43.388,35.676 43.388,35.148 C43.388,34.824 43.28,34.62 43.04,34.344 L41.792,32.964 C42.848,32.568 43.424,31.68 43.424,30.384 C43.424,28.62 42.332,27.6 40.46,27.6 L36.668,27.6 C35.864,27.6 35.468,28.008 35.468,28.812 L35.468,34.92 C35.468,35.628 35.876,36.06 36.536,36.06 C37.172,36.06 37.58,35.628 37.58,34.92 L37.58,33.18 L39.26,33.18 L41.636,35.712 C41.864,35.952 42.08,36.06 42.404,36.06 Z M40.352,31.272 L37.58,31.272 L37.58,29.508 L40.352,29.508 C40.988,29.508 41.3,29.796 41.3,30.384 C41.3,30.948 40.94,31.272 40.352,31.272 Z M49.428,36.18 C52.08,36.18 53.892,34.404 53.892,31.776 C53.892,29.28 51.984,27.42 49.428,27.42 C46.86,27.42 44.964,29.256 44.964,31.764 C44.964,34.404 46.752,36.18 49.428,36.18 Z M49.428,34.272 C47.976,34.272 47.076,33.312 47.076,31.764 C47.076,30.288 48.012,29.328 49.428,29.328 C50.82,29.328 51.768,30.3 51.768,31.776 C51.768,33.324 50.88,34.272 49.428,34.272 Z M58.588,36.18 C60.472,36.18 61.828,34.944 61.828,33.072 L61.828,28.68 C61.828,27.972 61.42,27.54 60.784,27.54 C60.124,27.54 59.716,27.972 59.716,28.68 L59.716,32.748 C59.716,33.804 59.32,34.272 58.6,34.272 C57.928,34.272 57.472,33.876 57.232,33.084 C57.076,32.616 56.752,32.376 56.26,32.376 C55.624,32.376 55.192,32.808 55.192,33.468 C55.192,33.66 55.228,33.936 55.36,34.236 C55.84,35.34 57.04,36.18 58.588,36.18 Z M70.328,36 C71,36 71.396,35.628 71.396,35.016 C71.396,34.404 70.988,34.02 70.328,34.02 L66.32,34.02 L66.32,32.724 L69.872,32.724 C70.544,32.724 70.88,32.412 70.88,31.788 C70.88,31.176 70.532,30.852 69.872,30.852 L66.32,30.852 L66.32,29.58 L70.304,29.58 C70.976,29.58 71.372,29.208 71.372,28.596 C71.372,27.984 70.964,27.6 70.304,27.6 L65.408,27.6 C64.604,27.6 64.208,28.008 64.208,28.812 L64.208,34.788 C64.208,35.592 64.616,36 65.42,36 L70.328,36 Z M77.112,36.18 C78.804,36.18 80.244,35.316 80.724,33.972 C80.784,33.792 80.808,33.684 80.808,33.504 C80.808,32.916 80.388,32.532 79.776,32.532 C79.356,32.532 79.128,32.688 78.888,33.12 C78.42,33.948 77.88,34.272 76.968,34.272 C75.636,34.272 74.748,33.276 74.748,31.8 C74.748,30.324 75.636,29.328 76.968,29.328 C77.88,29.328 78.42,29.64 78.888,30.468 C79.128,30.888 79.356,31.056 79.776,31.056 C80.388,31.056 80.796,30.672 80.796,30.084 C80.796,29.88 80.772,29.724 80.688,29.544 C80.208,28.344 78.78,27.42 77.112,27.42 C74.52,27.42 72.636,29.244 72.636,31.8 C72.636,34.356 74.52,36.18 77.112,36.18 Z M86.092,36.06 C86.728,36.06 87.136,35.628 87.136,34.92 L87.136,29.58 L89.02,29.58 C89.704,29.58 90.1,29.22 90.1,28.596 C90.1,27.984 89.692,27.6 89.02,27.6 L83.116,27.6 C82.456,27.6 82.048,27.984 82.048,28.596 C82.048,29.208 82.444,29.58 83.116,29.58 L85.024,29.58 L85.024,34.92 C85.024,35.628 85.432,36.06 86.092,36.06 Z M97.94,36 C98.612,36 99.008,35.628 99.008,35.016 C99.008,34.404 98.6,34.02 97.94,34.02 L93.932,34.02 L93.932,32.724 L97.484,32.724 C98.156,32.724 98.492,32.412 98.492,31.788 C98.492,31.176 98.144,30.852 97.484,30.852 L93.932,30.852 L93.932,29.58 L97.916,29.58 C98.588,29.58 98.984,29.208 98.984,28.596 C98.984,27.984 98.576,27.6 97.916,27.6 L93.02,27.6 C92.216,27.6 91.82,28.008 91.82,28.812 L91.82,34.788 C91.82,35.592 92.228,36 93.032,36 L97.94,36 Z M104.976,36 C107.364,36 109.152,34.224 109.152,31.8 C109.152,29.4 107.376,27.6 105.012,27.6 L102.108,27.6 C101.208,27.6 100.848,27.972 100.848,28.872 L100.848,34.728 C100.848,35.628 101.22,36 102.12,36 L104.976,36 Z M104.808,34.092 L102.96,34.092 L102.96,29.508 L104.844,29.508 C106.224,29.508 107.028,30.348 107.028,31.8 C107.028,33.252 106.236,34.092 104.808,34.092 Z M122.708,36.06 C123.284,36.06 123.704,35.64 123.704,35.076 C123.704,34.872 123.668,34.728 123.524,34.452 L120.2,28.26 C119.924,27.744 119.624,27.54 119.144,27.54 C118.628,27.54 118.352,27.732 118.076,28.248 L114.764,34.44 C114.62,34.716 114.572,34.872 114.572,35.076 C114.572,35.64 115.004,36.06 115.568,36.06 C115.964,36.06 116.288,35.844 116.516,35.412 L117.14,34.212 L121.148,34.212 L121.772,35.412 C122,35.844 122.312,36.06 122.708,36.06 Z M120.248,32.496 L118.04,32.496 L119.144,30.384 L120.248,32.496 Z M134.892,36.06 C135.504,36.06 135.864,35.688 135.864,35.076 C135.864,34.872 135.864,34.788 135.828,34.536 L134.904,28.5 C134.808,27.888 134.46,27.54 133.896,27.54 C133.464,27.54 133.188,27.732 132.912,28.308 L130.5,33.252 L128.076,28.32 C127.788,27.744 127.548,27.54 127.08,27.54 C126.552,27.54 126.18,27.876 126.096,28.488 L125.172,34.572 C125.136,34.8 125.124,34.872 125.124,35.076 C125.124,35.688 125.484,36.06 126.096,36.06 C126.636,36.06 126.972,35.748 127.056,35.22 L127.512,31.536 L129.504,35.34 C129.78,35.88 130.044,36.06 130.488,36.06 C130.968,36.06 131.232,35.868 131.508,35.34 L133.5,31.536 L133.956,35.22 C134.016,35.748 134.352,36.06 134.892,36.06 Z M144.124,36 C144.796,36 145.192,35.628 145.192,35.016 C145.192,34.404 144.784,34.02 144.124,34.02 L140.116,34.02 L140.116,32.724 L143.668,32.724 C144.34,32.724 144.676,32.412 144.676,31.788 C144.676,31.176 144.328,30.852 143.668,30.852 L140.116,30.852 L140.116,29.58 L144.1,29.58 C144.772,29.58 145.168,29.208 145.168,28.596 C145.168,27.984 144.76,27.6 144.1,27.6 L139.204,27.6 C138.4,27.6 138.004,28.008 138.004,28.812 L138.004,34.788 C138.004,35.592 138.412,36 139.216,36 L144.124,36 Z M153.968,36.06 C154.532,36.06 154.952,35.676 154.952,35.148 C154.952,34.824 154.844,34.62 154.604,34.344 L153.356,32.964 C154.412,32.568 154.988,31.68 154.988,30.384 C154.988,28.62 153.896,27.6 152.024,27.6 L148.232,27.6 C147.428,27.6 147.032,28.008 147.032,28.812 L147.032,34.92 C147.032,35.628 147.44,36.06 148.1,36.06 C148.736,36.06 149.144,35.628 149.144,34.92 L149.144,33.18 L150.824,33.18 L153.2,35.712 C153.428,35.952 153.644,36.06 153.968,36.06 Z M151.916,31.272 L149.144,31.272 L149.144,29.508 L151.916,29.508 C152.552,29.508 152.864,29.796 152.864,30.384 C152.864,30.948 152.504,31.272 151.916,31.272 Z M161.808,36 C162.492,36 162.888,35.64 162.888,35.016 C162.888,34.404 162.48,34.02 161.808,34.02 L160.74,34.02 L160.74,29.58 L161.688,29.58 C162.372,29.58 162.768,29.22 162.768,28.596 C162.768,27.984 162.36,27.6 161.688,27.6 L157.656,27.6 C156.996,27.6 156.588,27.984 156.588,28.596 C156.588,29.208 156.984,29.58 157.656,29.58 L158.616,29.58 L158.616,34.02 L157.536,34.02 C156.876,34.02 156.468,34.404 156.468,35.016 C156.468,35.628 156.864,36 157.536,36 L161.808,36 Z M168.424,36.18 C170.116,36.18 171.556,35.316 172.036,33.972 C172.096,33.792 172.12,33.684 172.12,33.504 C172.12,32.916 171.7,32.532 171.088,32.532 C170.668,32.532 170.44,32.688 170.2,33.12 C169.732,33.948 169.192,34.272 168.28,34.272 C166.948,34.272 166.06,33.276 166.06,31.8 C166.06,30.324 166.948,29.328 168.28,29.328 C169.192,29.328 169.732,29.64 170.2,30.468 C170.44,30.888 170.668,31.056 171.088,31.056 C171.7,31.056 172.108,30.672 172.108,30.084 C172.108,29.88 172.084,29.724 172,29.544 C171.52,28.344 170.092,27.42 168.424,27.42 C165.832,27.42 163.948,29.244 163.948,31.8 C163.948,34.356 165.832,36.18 168.424,36.18 Z M181.376,36.06 C181.952,36.06 182.372,35.64 182.372,35.076 C182.372,34.872 182.336,34.728 182.192,34.452 L178.868,28.26 C178.592,27.744 178.292,27.54 177.812,27.54 C177.296,27.54 177.02,27.732 176.744,28.248 L173.432,34.44 C173.288,34.716 173.24,34.872 173.24,35.076 C173.24,35.64 173.672,36.06 174.236,36.06 C174.632,36.06 174.956,35.844 175.184,35.412 L175.808,34.212 L179.816,34.212 L180.44,35.412 C180.668,35.844 180.98,36.06 181.376,36.06 Z M178.916,32.496 L176.708,32.496 L177.812,30.384 L178.916,32.496 Z M191.436,36.06 C192.144,36.06 192.552,35.616 192.552,34.884 L192.552,28.68 C192.552,27.972 192.144,27.54 191.484,27.54 C190.848,27.54 190.428,27.972 190.428,28.68 L190.428,32.58 L186.24,28.068 C185.904,27.696 185.592,27.54 185.208,27.54 C184.5,27.54 184.092,27.984 184.092,28.716 L184.092,34.92 C184.092,35.628 184.5,36.06 185.16,36.06 C185.796,36.06 186.216,35.628 186.216,34.92 L186.216,31.02 L190.404,35.532 C190.74,35.904 191.052,36.06 191.436,36.06 Z M200.24,36.06 C200.9,36.06 201.296,35.628 201.296,34.92 L201.296,33.144 L204.74,33.144 C205.412,33.144 205.748,32.832 205.748,32.22 C205.748,31.608 205.4,31.284 204.74,31.284 L201.284,31.284 L201.284,29.58 L205.328,29.58 C206,29.58 206.396,29.208 206.396,28.596 C206.396,27.984 205.988,27.6 205.328,27.6 L200.372,27.6 C199.568,27.6 199.172,28.008 199.172,28.812 L199.172,34.92 C199.172,35.628 199.58,36.06 200.24,36.06 Z M215.112,36.06 C215.676,36.06 216.096,35.676 216.096,35.148 C216.096,34.824 215.988,34.62 215.748,34.344 L214.5,32.964 C215.556,32.568 216.132,31.68 216.132,30.384 C216.132,28.62 215.04,27.6 213.168,27.6 L209.376,27.6 C208.572,27.6 208.176,28.008 208.176,28.812 L208.176,34.92 C208.176,35.628 208.584,36.06 209.244,36.06 C209.88,36.06 210.288,35.628 210.288,34.92 L210.288,33.18 L211.968,33.18 L214.344,35.712 C214.572,35.952 214.788,36.06 215.112,36.06 Z M213.06,31.272 L210.288,31.272 L210.288,29.508 L213.06,29.508 C213.696,29.508 214.008,29.796 214.008,30.384 C214.008,30.948 213.648,31.272 213.06,31.272 Z M224.392,36 C225.064,36 225.46,35.628 225.46,35.016 C225.46,34.404 225.052,34.02 224.392,34.02 L220.384,34.02 L220.384,32.724 L223.936,32.724 C224.608,32.724 224.944,32.412 224.944,31.788 C224.944,31.176 224.596,30.852 223.936,30.852 L220.384,30.852 L220.384,29.58 L224.368,29.58 C225.04,29.58 225.436,29.208 225.436,28.596 C225.436,27.984 225.028,27.6 224.368,27.6 L219.472,27.6 C218.668,27.6 218.272,28.008 218.272,28.812 L218.272,34.788 C218.272,35.592 218.68,36 219.484,36 L224.392,36 Z M233.42,36 C234.092,36 234.488,35.628 234.488,35.016 C234.488,34.404 234.08,34.02 233.42,34.02 L229.412,34.02 L229.412,32.724 L232.964,32.724 C233.636,32.724 233.972,32.412 233.972,31.788 C233.972,31.176 233.624,30.852 232.964,30.852 L229.412,30.852 L229.412,29.58 L233.396,29.58 C234.068,29.58 234.464,29.208 234.464,28.596 C234.464,27.984 234.056,27.6 233.396,27.6 L228.5,27.6 C227.696,27.6 227.3,28.008 227.3,28.812 L227.3,34.788 C227.3,35.592 227.708,36 228.512,36 L233.42,36 Z M241.884,36 C242.544,36 242.964,35.592 242.964,35.004 C242.964,34.428 242.52,34.008 241.884,34.008 L238.44,34.008 L238.44,28.68 C238.44,27.972 238.032,27.54 237.396,27.54 C236.736,27.54 236.328,27.972 236.328,28.68 L236.328,35.004 C236.328,35.568 236.76,36 237.324,36 L241.884,36 Z M252.46,36.06 C253.036,36.06 253.456,35.64 253.456,35.076 C253.456,34.872 253.42,34.728 253.276,34.452 L249.952,28.26 C249.676,27.744 249.376,27.54 248.896,27.54 C248.38,27.54 248.104,27.732 247.828,28.248 L244.516,34.44 C244.372,34.716 244.324,34.872 244.324,35.076 C244.324,35.64 244.756,36.06 245.32,36.06 C245.716,36.06 246.04,35.844 246.268,35.412 L246.892,34.212 L250.9,34.212 L251.524,35.412 C251.752,35.844 252.064,36.06 252.46,36.06 Z M250,32.496 L247.792,32.496 L248.896,30.384 L250,32.496 Z M262.52,36.06 C263.228,36.06 263.636,35.616 263.636,34.884 L263.636,28.68 C263.636,27.972 263.228,27.54 262.568,27.54 C261.932,27.54 261.512,27.972 261.512,28.68 L261.512,32.58 L257.324,28.068 C256.988,27.696 256.676,27.54 256.292,27.54 C255.584,27.54 255.176,27.984 255.176,28.716 L255.176,34.92 C255.176,35.628 255.584,36.06 256.244,36.06 C256.88,36.06 257.3,35.628 257.3,34.92 L257.3,31.02 L261.488,35.532 C261.824,35.904 262.136,36.06 262.52,36.06 Z M270.072,36.18 C271.764,36.18 273.204,35.316 273.684,33.972 C273.744,33.792 273.768,33.684 273.768,33.504 C273.768,32.916 273.348,32.532 272.736,32.532 C272.316,32.532 272.088,32.688 271.848,33.12 C271.38,33.948 270.84,34.272 269.928,34.272 C268.596,34.272 267.708,33.276 267.708,31.8 C267.708,30.324 268.596,29.328 269.928,29.328 C270.84,29.328 271.38,29.64 271.848,30.468 C272.088,30.888 272.316,31.056 272.736,31.056 C273.348,31.056 273.756,30.672 273.756,30.084 C273.756,29.88 273.732,29.724 273.648,29.544 C273.168,28.344 271.74,27.42 270.072,27.42 C267.48,27.42 265.596,29.244 265.596,31.8 C265.596,34.356 267.48,36.18 270.072,36.18 Z M280.408,36 C281.092,36 281.488,35.64 281.488,35.016 C281.488,34.404 281.08,34.02 280.408,34.02 L279.34,34.02 L279.34,29.58 L280.288,29.58 C280.972,29.58 281.368,29.22 281.368,28.596 C281.368,27.984 280.96,27.6 280.288,27.6 L276.256,27.6 C275.596,27.6 275.188,27.984 275.188,28.596 C275.188,29.208 275.584,29.58 276.256,29.58 L277.216,29.58 L277.216,34.02 L276.136,34.02 C275.476,34.02 275.068,34.404 275.068,35.016 C275.068,35.628 275.464,36 276.136,36 L280.408,36 Z M290.732,36.06 C291.44,36.06 291.848,35.616 291.848,34.884 L291.848,28.68 C291.848,27.972 291.44,27.54 290.78,27.54 C290.144,27.54 289.724,27.972 289.724,28.68 L289.724,32.58 L285.536,28.068 C285.2,27.696 284.888,27.54 284.504,27.54 C283.796,27.54 283.388,27.984 283.388,28.716 L283.388,34.92 C283.388,35.628 283.796,36.06 284.456,36.06 C285.092,36.06 285.512,35.628 285.512,34.92 L285.512,31.02 L289.7,35.532 C290.036,35.904 290.348,36.06 290.732,36.06 Z M298.152,36.18 C300.516,36.18 302.1,34.728 302.1,32.556 C302.1,31.788 301.812,31.464 301.14,31.464 L298.14,31.464 C297.48,31.464 297.144,31.776 297.144,32.388 C297.144,33 297.48,33.3 298.14,33.3 L299.976,33.3 C299.7,34.008 299.196,34.272 298.152,34.272 C296.748,34.272 295.92,33.372 295.92,31.8 C295.92,30.324 296.796,29.328 298.08,29.328 C298.992,29.328 299.532,29.64 300,30.468 C300.24,30.888 300.468,31.056 300.888,31.056 C301.5,31.056 301.908,30.672 301.908,30.084 C301.908,29.88 301.884,29.724 301.8,29.544 C301.32,28.344 299.892,27.42 298.224,27.42 C295.632,27.42 293.808,29.22 293.808,31.8 C293.808,34.452 295.512,36.18 298.152,36.18 Z M315.104,36.06 C315.596,36.06 315.932,35.772 316.112,35.208 L318.032,28.968 C318.092,28.812 318.116,28.644 318.116,28.476 C318.116,27.936 317.72,27.54 317.144,27.54 C316.628,27.54 316.304,27.804 316.148,28.32 L315.008,32.292 L313.568,28.248 C313.388,27.78 313.064,27.54 312.572,27.54 C312.104,27.54 311.744,27.78 311.588,28.248 L310.148,32.292 L308.996,28.32 C308.84,27.804 308.516,27.54 308,27.54 C307.436,27.54 307.04,27.936 307.04,28.476 C307.04,28.632 307.064,28.8 307.124,28.98 L309.044,35.208 C309.224,35.772 309.56,36.06 310.04,36.06 C310.532,36.06 310.868,35.82 311.024,35.34 L312.584,30.864 L314.132,35.34 C314.288,35.82 314.612,36.06 315.104,36.06 Z M323.76,36.18 C326.412,36.18 328.224,34.404 328.224,31.776 C328.224,29.28 326.316,27.42 323.76,27.42 C321.192,27.42 319.296,29.256 319.296,31.764 C319.296,34.404 321.084,36.18 323.76,36.18 Z M323.76,34.272 C322.308,34.272 321.408,33.312 321.408,31.764 C321.408,30.288 322.344,29.328 323.76,29.328 C325.152,29.328 326.1,30.3 326.1,31.776 C326.1,33.324 325.212,34.272 323.76,34.272 Z M337.12,36.06 C337.684,36.06 338.104,35.676 338.104,35.148 C338.104,34.824 337.996,34.62 337.756,34.344 L336.508,32.964 C337.564,32.568 338.14,31.68 338.14,30.384 C338.14,28.62 337.048,27.6 335.176,27.6 L331.384,27.6 C330.58,27.6 330.184,28.008 330.184,28.812 L330.184,34.92 C330.184,35.628 330.592,36.06 331.252,36.06 C331.888,36.06 332.296,35.628 332.296,34.92 L332.296,33.18 L333.976,33.18 L336.352,35.712 C336.58,35.952 336.796,36.06 337.12,36.06 Z M335.068,31.272 L332.296,31.272 L332.296,29.508 L335.068,29.508 C335.704,29.508 336.016,29.796 336.016,30.384 C336.016,30.948 335.656,31.272 335.068,31.272 Z M346.412,36.06 C346.976,36.06 347.42,35.676 347.42,35.1 C347.42,34.836 347.324,34.584 347.132,34.332 L344.828,31.32 L346.748,29.364 C347.048,29.064 347.204,28.752 347.204,28.452 C347.204,27.936 346.808,27.528 346.22,27.528 C345.944,27.528 345.704,27.636 345.476,27.864 L342.392,31.104 L342.392,28.68 C342.392,27.972 341.984,27.54 341.348,27.54 C340.688,27.54 340.28,27.972 340.28,28.68 L340.28,34.92 C340.28,35.628 340.688,36.06 341.348,36.06 C341.984,36.06 342.392,35.628 342.392,34.92 L342.392,33.78 L343.412,32.748 L345.512,35.568 C345.788,35.916 346.028,36.06 346.412,36.06 Z M350.256,36.06 C350.916,36.06 351.312,35.628 351.312,34.92 L351.312,33.144 L354.756,33.144 C355.428,33.144 355.764,32.832 355.764,32.22 C355.764,31.608 355.416,31.284 354.756,31.284 L351.3,31.284 L351.3,29.58 L355.344,29.58 C356.016,29.58 356.412,29.208 356.412,28.596 C356.412,27.984 356.004,27.6 355.344,27.6 L350.388,27.6 C349.584,27.6 349.188,28.008 349.188,28.812 L349.188,34.92 C349.188,35.628 349.596,36.06 350.256,36.06 Z M361.936,36.18 C364.588,36.18 366.4,34.404 366.4,31.776 C366.4,29.28 364.492,27.42 361.936,27.42 C359.368,27.42 357.472,29.256 357.472,31.764 C357.472,34.404 359.26,36.18 361.936,36.18 Z M361.936,34.272 C360.484,34.272 359.584,33.312 359.584,31.764 C359.584,30.288 360.52,29.328 361.936,29.328 C363.328,29.328 364.276,30.3 364.276,31.776 C364.276,33.324 363.388,34.272 361.936,34.272 Z M375.296,36.06 C375.86,36.06 376.28,35.676 376.28,35.148 C376.28,34.824 376.172,34.62 375.932,34.344 L374.684,32.964 C375.74,32.568 376.316,31.68 376.316,30.384 C376.316,28.62 375.224,27.6 373.352,27.6 L369.56,27.6 C368.756,27.6 368.36,28.008 368.36,28.812 L368.36,34.92 C368.36,35.628 368.768,36.06 369.428,36.06 C370.064,36.06 370.472,35.628 370.472,34.92 L370.472,33.18 L372.152,33.18 L374.528,35.712 C374.756,35.952 374.972,36.06 375.296,36.06 Z M373.244,31.272 L370.472,31.272 L370.472,29.508 L373.244,29.508 C373.88,29.508 374.192,29.796 374.192,30.384 C374.192,30.948 373.832,31.272 373.244,31.272 Z M382.332,36.18 C384.024,36.18 385.464,35.316 385.944,33.972 C386.004,33.792 386.028,33.684 386.028,33.504 C386.028,32.916 385.608,32.532 384.996,32.532 C384.576,32.532 384.348,32.688 384.108,33.12 C383.64,33.948 383.1,34.272 382.188,34.272 C380.856,34.272 379.968,33.276 379.968,31.8 C379.968,30.324 380.856,29.328 382.188,29.328 C383.1,29.328 383.64,29.64 384.108,30.468 C384.348,30.888 384.576,31.056 384.996,31.056 C385.608,31.056 386.016,30.672 386.016,30.084 C386.016,29.88 385.992,29.724 385.908,29.544 C385.428,28.344 384,27.42 382.332,27.42 C379.74,27.42 377.856,29.244 377.856,31.8 C377.856,34.356 379.74,36.18 382.332,36.18 Z M394.108,36 C394.78,36 395.176,35.628 395.176,35.016 C395.176,34.404 394.768,34.02 394.108,34.02 L390.1,34.02 L390.1,32.724 L393.652,32.724 C394.324,32.724 394.66,32.412 394.66,31.788 C394.66,31.176 394.312,30.852 393.652,30.852 L390.1,30.852 L390.1,29.58 L394.084,29.58 C394.756,29.58 395.152,29.208 395.152,28.596 C395.152,27.984 394.744,27.6 394.084,27.6 L389.188,27.6 C388.384,27.6 387.988,28.008 387.988,28.812 L387.988,34.788 C387.988,35.592 388.396,36 389.2,36 L394.108,36 Z" id="PROJECTEDAMERICANFREELANCINGWORKFORCE" fill="#292429" fill-rule="nonzero"></path>
                </g>
            </g>
        </g>
    </g>
</svg>