<svg xmlns="http://www.w3.org/2000/svg" width="473.99" height="161.52" viewBox="0 0 473.99 161.52"><defs><style>.bd99064a-cb88-4190-bfcb-9451abdf6daa{fill:#666;}</style></defs><title>Asset 7</title><g id="b63b2778-23c8-4892-9893-7bd71ecd2c98" data-name="Layer 2"><g id="ad3978d0-9f3f-403e-9f81-a437f89451c7" data-name="Layer 1"><path class="bd99064a-cb88-4190-bfcb-9451abdf6daa" d="M3.72,1.32h35C56.76,1.32,81,6,81,28.56c0,9.6-3.84,16.44-10.08,21,1.08,4.68,4.68,8.28,12,8.28A31.21,31.21,0,0,0,101,51.6V83.28c-5.28,3.48-14,6.24-23,6.24-20.52,0-34.8-12.84-38.28-30.12h-.24V88.2H3.72Zm38.4,38.4c5.64,0,8.16-3,8.16-6.72s-2.64-6.6-8.16-6.6H39.48V39.72Z"/><path class="bd99064a-cb88-4190-bfcb-9451abdf6daa" d="M153.79.09c25.2,0,44.84,19.54,44.84,44.71S179,89.52,153.79,89.52,109,70,109,44.8,128.6.09,153.79.09Zm0,58.74c6.88,0,12.43-6,12.43-13.43S160.67,32,153.79,32s-12.43,6-12.43,13.42S146.91,58.83,153.79,58.83Z"/><path class="bd99064a-cb88-4190-bfcb-9451abdf6daa" d="M249.7.09c25.19,0,44.84,19.54,44.84,44.71S274.89,89.52,249.7,89.52,204.86,70,204.86,44.8,224.5.09,249.7.09Zm0,58.74c6.88,0,12.43-6,12.43-13.43S256.58,32,249.7,32s-12.43,6-12.43,13.42S242.81,58.83,249.7,58.83Z"/><path class="bd99064a-cb88-4190-bfcb-9451abdf6daa" d="M327.64,30.84H303.4V1.32h84.23V30.84H363.39V88.2H327.64Z"/><path class="bd99064a-cb88-4190-bfcb-9451abdf6daa" d="M400.23,52.92c11.64,7.56,23.4,10.32,28.56,10.32,3.6,0,4.44-1.44,4.44-2.88,0-1.68-1.08-2.4-2.64-2.76-4.2-1.08-16.32-2.4-25.19-10.2-4.56-4.08-7.68-9.72-7.68-18.12C397.72,11.88,411.15,0,433.11,0c10.56,0,23,2.76,31,6.84V35.28c-11.28-5.64-21.84-7.68-26.28-7.68-3.48,0-4.44,1.32-4.44,2.64,0,1.8,1.32,2.52,2.76,3,3.6,1.08,15.6,2.52,24.12,9.24A22.82,22.82,0,0,1,469,61.2c0,16.68-13.44,28.32-36.24,28.32-10.92,0-24-2.64-32.52-7.08Z"/><path class="bd99064a-cb88-4190-bfcb-9451abdf6daa" d="M10,124.13h7.21l10,28.76h-8l-1.74-5.63H9.76l-1.7,5.63H0ZM16.16,142l-2.55-8.91L10.94,142Z"/><path class="bd99064a-cb88-4190-bfcb-9451abdf6daa" d="M38.68,152.89V124.13H58.4V131H46.58v4.78h9.64v6.4H46.58v10.69Z"/><path class="bd99064a-cb88-4190-bfcb-9451abdf6daa" d="M69.87,153.3a9.87,9.87,0,0,1-4-.81,9.31,9.31,0,0,1-3.18-2.29,10.69,10.69,0,0,1-2.09-3.53,12.86,12.86,0,0,1-.75-4.47,13.5,13.5,0,0,1,.69-4.38,11,11,0,0,1,1.92-3.5A9.13,9.13,0,0,1,65.37,132a8.43,8.43,0,0,1,3.73-.83,7.85,7.85,0,0,1,3.84.93,6.52,6.52,0,0,1,2.64,2.64v-2.84h7.69v21H75.62V150.1a6.43,6.43,0,0,1-2.29,2.41A6.89,6.89,0,0,1,69.87,153.3Zm5.75-12.48a5.26,5.26,0,0,0-1.68-2.31,3.85,3.85,0,0,0-2.33-.85,3.1,3.1,0,0,0-1.52.39,4.15,4.15,0,0,0-1.24,1,4.51,4.51,0,0,0-.81,1.48,5.64,5.64,0,0,0-.28,1.82,4.47,4.47,0,0,0,1.17,3.24,4,4,0,0,0,3,1.22,3.83,3.83,0,0,0,2-.55,6.07,6.07,0,0,0,1.64-1.64Z"/><path class="bd99064a-cb88-4190-bfcb-9451abdf6daa" d="M121.51,152.89h-7.7v-12a3.42,3.42,0,0,0-.63-2.29,2,2,0,0,0-1.52-.7,3.14,3.14,0,0,0-2,.85,4.87,4.87,0,0,0-1.52,2.18v11.95h-7.7v-12a3.43,3.43,0,0,0-.62-2.29,2,2,0,0,0-1.52-.7,3.16,3.16,0,0,0-2,.85,5,5,0,0,0-1.52,2.18v11.95H87.16v-21.3h6.93v3.16a7.23,7.23,0,0,1,3.11-2.66,11.32,11.32,0,0,1,4.7-.91,7.37,7.37,0,0,1,2.27.31,5.5,5.5,0,0,1,1.68.83,4.84,4.84,0,0,1,1.14,1.17,5.84,5.84,0,0,1,.66,1.38,7.74,7.74,0,0,1,3.1-2.72,10.07,10.07,0,0,1,4.48-1,6.2,6.2,0,0,1,3.34.79,5.44,5.44,0,0,1,1.88,2,7.39,7.39,0,0,1,.85,2.51,15.75,15.75,0,0,1,.21,2.43Z"/><path class="bd99064a-cb88-4190-bfcb-9451abdf6daa" d="M125.23,129.8v-6.48h7.7v6.48Zm0,23.09v-21.3h7.7v21.3Z"/><path class="bd99064a-cb88-4190-bfcb-9451abdf6daa" d="M136.81,123.32h7.7v29.57h-7.7Z"/><path class="bd99064a-cb88-4190-bfcb-9451abdf6daa" d="M168.77,131.59l-9,29.93h-9l3.36-8.63-7.74-21.3h7.9l4,14.78,3.28-14.78Z"/><path class="bd99064a-cb88-4190-bfcb-9451abdf6daa" d="M202.91,131h-8.26v21.87h-7.9V131h-8.3v-6.89h24.46Z"/><path class="bd99064a-cb88-4190-bfcb-9451abdf6daa" d="M219.72,138.15a16,16,0,0,0-4.05.48,5,5,0,0,0-2.71,1.62v12.64h-7.7v-21.3h7.05v4a9,9,0,0,1,2.82-3.3,6.26,6.26,0,0,1,3.62-1.16,8.07,8.07,0,0,1,1,0Z"/><path class="bd99064a-cb88-4190-bfcb-9451abdf6daa" d="M232.6,153.3a13.4,13.4,0,0,1-5-.87,10.57,10.57,0,0,1-3.67-2.37,10.22,10.22,0,0,1-2.24-3.45,10.85,10.85,0,0,1-.77-4.09,12.7,12.7,0,0,1,.75-4.37,10.22,10.22,0,0,1,2.22-3.61,10.9,10.9,0,0,1,3.65-2.45,14.36,14.36,0,0,1,10.06,0,11,11,0,0,1,3.67,2.43,10.18,10.18,0,0,1,2.23,3.53,11.82,11.82,0,0,1,.75,4.19c0,.4,0,.82-.06,1.23s-.09.79-.15,1.12H229.12a3,3,0,0,0,1.25,2.45,4.4,4.4,0,0,0,2.47.75,5.12,5.12,0,0,0,2.37-.57,2.81,2.81,0,0,0,1.48-1.58l6.52,1.86a10.19,10.19,0,0,1-4,4.18A12.61,12.61,0,0,1,232.6,153.3ZM236,140a3.91,3.91,0,0,0-1.13-2.43,3.65,3.65,0,0,0-4.78,0A3.91,3.91,0,0,0,229,140Z"/><path class="bd99064a-cb88-4190-bfcb-9451abdf6daa" d="M257.27,153.3a13.33,13.33,0,0,1-5-.87,10.57,10.57,0,0,1-3.67-2.37,10.25,10.25,0,0,1-2.25-3.45,11.05,11.05,0,0,1-.77-4.09,12.7,12.7,0,0,1,.75-4.37,10.1,10.1,0,0,1,2.23-3.61,10.8,10.8,0,0,1,3.65-2.45,14.36,14.36,0,0,1,10.06,0,11,11,0,0,1,3.67,2.43,10.16,10.16,0,0,1,2.22,3.53,11.82,11.82,0,0,1,.75,4.19c0,.4,0,.82-.06,1.23s-.09.79-.14,1.12h-15A3,3,0,0,0,255,147a4.4,4.4,0,0,0,2.47.75,5.12,5.12,0,0,0,2.37-.57,2.84,2.84,0,0,0,1.48-1.58l6.52,1.86a10.19,10.19,0,0,1-4,4.18A12.64,12.64,0,0,1,257.27,153.3Zm3.4-13.33a4,4,0,0,0-1.13-2.43,3.65,3.65,0,0,0-4.78,0,4,4,0,0,0-1.14,2.43Z"/><path class="bd99064a-cb88-4190-bfcb-9451abdf6daa" d="M286.63,124.13,292.26,143l5.55-18.84h8.3l-10.57,28.76H289l-10.69-28.76Z"/><path class="bd99064a-cb88-4190-bfcb-9451abdf6daa" d="M307.77,129.8v-6.48h7.7v6.48Zm0,23.09v-21.3h7.7v21.3Z"/><path class="bd99064a-cb88-4190-bfcb-9451abdf6daa" d="M328.15,153.3a16.75,16.75,0,0,1-5.47-.92,12.32,12.32,0,0,1-4.54-2.65l2.63-4.62a20.19,20.19,0,0,0,3.83,2.07,9.21,9.21,0,0,0,3.38.73c1.08,0,1.62-.34,1.62-1a1.15,1.15,0,0,0-.62-1,11.14,11.14,0,0,0-2.45-.93,34.65,34.65,0,0,1-3.79-1.27,10.81,10.81,0,0,1-2.47-1.36,4.34,4.34,0,0,1-1.36-1.62,5.06,5.06,0,0,1-.4-2.11,7,7,0,0,1,.64-3,7.31,7.31,0,0,1,1.81-2.39,8,8,0,0,1,2.75-1.56,10.68,10.68,0,0,1,3.51-.55,16,16,0,0,1,4.47.61,11.32,11.32,0,0,1,4.27,2.47l-2.91,4.62a21.34,21.34,0,0,0-3.32-1.85,6.73,6.73,0,0,0-2.51-.54,2.29,2.29,0,0,0-1.14.26.89.89,0,0,0-.44.83,1.11,1.11,0,0,0,.64,1,11.06,11.06,0,0,0,2.56.87,29.38,29.38,0,0,1,3.88,1.28,10.25,10.25,0,0,1,2.54,1.46,4.54,4.54,0,0,1,1.35,1.78,6,6,0,0,1,.41,2.29,7,7,0,0,1-.61,3,6.28,6.28,0,0,1-1.76,2.22,8,8,0,0,1-2.8,1.42A13.15,13.15,0,0,1,328.15,153.3Z"/><path class="bd99064a-cb88-4190-bfcb-9451abdf6daa" d="M346.09,153.3a6.17,6.17,0,0,1-4.94-2,8.49,8.49,0,0,1-1.7-5.73v-14h7.69v12.27a3.4,3.4,0,0,0,.63,2.19,2.11,2.11,0,0,0,1.72.77,4.56,4.56,0,0,0,1.82-.41,4.73,4.73,0,0,0,1.87-1.78v-13h7.69v12.8a2.55,2.55,0,0,0,.33,1.51,1.49,1.49,0,0,0,1.13.51v6.48a16.93,16.93,0,0,1-3.24.41q-3.93,0-4.54-3l-.16-.77a8.74,8.74,0,0,1-3.56,2.86A12.14,12.14,0,0,1,346.09,153.3Z"/><path class="bd99064a-cb88-4190-bfcb-9451abdf6daa" d="M374.4,153.3a9.9,9.9,0,0,1-4-.81,9.31,9.31,0,0,1-3.18-2.29,10.69,10.69,0,0,1-2.09-3.53,12.86,12.86,0,0,1-.75-4.47,13.5,13.5,0,0,1,.69-4.38,10.78,10.78,0,0,1,1.93-3.5A9,9,0,0,1,369.9,132a8.46,8.46,0,0,1,3.73-.83,7.92,7.92,0,0,1,3.85.93,6.49,6.49,0,0,1,2.63,2.64v-2.84h7.7v21h-7.66V150.1a6.35,6.35,0,0,1-2.29,2.41A6.87,6.87,0,0,1,374.4,153.3Zm5.75-12.48a5.26,5.26,0,0,0-1.68-2.31,3.83,3.83,0,0,0-2.33-.85,3.1,3.1,0,0,0-1.52.39,4.11,4.11,0,0,0-1.23,1,4.51,4.51,0,0,0-.81,1.48,5.65,5.65,0,0,0-.29,1.82,4.44,4.44,0,0,0,1.18,3.24,4,4,0,0,0,3,1.22,3.8,3.8,0,0,0,2.05-.55,5.93,5.93,0,0,0,1.64-1.64Z"/><path class="bd99064a-cb88-4190-bfcb-9451abdf6daa" d="M391.69,123.32h7.7v29.57h-7.7Z"/><path class="bd99064a-cb88-4190-bfcb-9451abdf6daa" d="M403.28,129.8v-6.48H411v6.48Zm0,23.09v-21.3H411v21.3Z"/><path class="bd99064a-cb88-4190-bfcb-9451abdf6daa" d="M413.81,148.35l9.72-11.5h-9.12v-5.26h17.14v4.53l-9.68,11.51h10v5.26h-18.1Z"/><path class="bd99064a-cb88-4190-bfcb-9451abdf6daa" d="M445.36,153.3a13.33,13.33,0,0,1-5-.87,10.57,10.57,0,0,1-3.67-2.37,10.25,10.25,0,0,1-2.25-3.45,11.05,11.05,0,0,1-.77-4.09,12.7,12.7,0,0,1,.75-4.37,10.1,10.1,0,0,1,2.23-3.61,10.85,10.85,0,0,1,3.64-2.45,14.38,14.38,0,0,1,10.07,0,11,11,0,0,1,3.67,2.43,10.16,10.16,0,0,1,2.22,3.53,11.82,11.82,0,0,1,.75,4.19c0,.4,0,.82-.06,1.23s-.09.79-.14,1.12H441.87a3,3,0,0,0,1.26,2.45,4.4,4.4,0,0,0,2.47.75,5.12,5.12,0,0,0,2.37-.57,2.84,2.84,0,0,0,1.48-1.58L456,147.5a10.32,10.32,0,0,1-4,4.18A12.64,12.64,0,0,1,445.36,153.3Zm3.4-13.33a4,4,0,0,0-1.13-2.43,3.65,3.65,0,0,0-4.78,0,4,4,0,0,0-1.14,2.43Z"/><path class="bd99064a-cb88-4190-bfcb-9451abdf6daa" d="M474,138.15a16,16,0,0,0-4.05.48,5,5,0,0,0-2.71,1.62v12.64h-7.7v-21.3h7.05v4a9,9,0,0,1,2.82-3.3,6.28,6.28,0,0,1,3.62-1.16,8.07,8.07,0,0,1,1,0Z"/></g></g></svg>