<?xml version="1.0" encoding="UTF-8"?>
<svg width="2202px" height="552px" viewBox="0 0 2202 552" version="1.1" xmlns="http://www.w3.org/2000/svg" xmlns:xlink="http://www.w3.org/1999/xlink">
    <!-- Generator: Sketch 64 (93537) - https://sketch.com -->
    <title>Fig2__nah</title>
    <desc>Created with Sketch.</desc>
    <g id="Fig2__nah" stroke="none" stroke-width="1" fill="none" fill-rule="evenodd">
        <rect fill="#FFFFFF" x="0" y="0" width="2202" height="552"></rect>
        <g id="Arrows" transform="translate(180.000000, 216.000000)" fill="#F1753A" fill-rule="nonzero">
            <path id="Angled-Arrow" d="M86.5,-14.5 L115.5,0 L86.5,14.5 L86.5,2.5 L0,2.5 L0,-2.5 L86.5,-2.5 L86.5,-14.5 Z"></path>
        </g>
        <circle id="Oval" stroke="#F1753A" stroke-width="5" cx="120" cy="216" r="60"></circle>
        <circle id="Oval" stroke="#F1753A" stroke-width="5" cx="120" cy="216" r="60"></circle>
        <circle id="Oval-Copy" stroke="#F1753A" stroke-width="5" cx="355" cy="216" r="60"></circle>
        <g id="Arrows" transform="translate(415.000000, 216.000000)" fill="#F1753A" fill-rule="nonzero">
            <path id="Angled-Arrow" d="M86.5,-14.5 L115.5,0 L86.5,14.5 L86.5,2.5 L0,2.5 L0,-2.5 L86.5,-2.5 L86.5,-14.5 Z"></path>
        </g>
        <circle id="Oval-Copy" stroke="#F1753A" stroke-width="5" cx="590" cy="216" r="60"></circle>
        <circle id="Oval-Copy" stroke="#F1753A" stroke-width="5" cx="833" cy="96" r="60"></circle>
        <circle id="Oval-Copy-2" stroke="#F1753A" stroke-width="5" cx="833" cy="336" r="60"></circle>
        <g id="Arrows" transform="translate(590.000000, 96.000000)" fill="#F1753A" fill-rule="nonzero">
            <path id="Angled-Arrow" d="M154.5,-14.5 L183.5,0 L154.5,14.5 L154.5,2.5 L141.5,2.5 C131.944846,2.5 124.178305,10.1579601 124.003026,19.6712297 L124,20 L124,100 C124,112.302143 114.126871,122.298293 101.872079,122.496986 L101.5,122.5 L60,122.5 L60,117.5 L101.5,117.5 C111.055154,117.5 118.821695,109.84204 118.996974,100.32877 L119,100 L119,20 C119,7.6978572 128.873129,-2.29829286 141.127921,-2.49698564 L141.5,-2.5 L154.5,-2.5 L154.5,-14.5 Z"></path>
            <path id="Angled-Arrow" d="M101.5,117.5 C113.802143,117.5 123.798293,127.373129 123.996986,139.627921 L124,140 L124,220 C124,229.555154 131.65796,237.321695 141.17123,237.496974 L141.5,237.5 L154.5,237.5 L154.5,225.5 L183.5,240 L154.5,254.5 L154.5,242.5 L141.5,242.5 C129.197857,242.5 119.201707,232.626871 119.003014,220.372079 L119,220 L119,140 C119,130.444846 111.34204,122.678305 101.82877,122.503026 L101.5,122.5 L60,122.5 L60,117.5 L101.5,117.5 Z"></path>
            <path id="Angled-Arrow" d="M859.5,105.5 L888.5,120 L859.5,134.5 L859.5,122.5 L615.5,122.5 C605.944846,122.5 598.178305,130.15796 598.003026,139.67123 L598,140 L598,220 C598,232.302143 588.126871,242.298293 575.872079,242.496986 L575.5,242.5 L303,242.5 L303,237.5 L575.5,237.5 C585.055154,237.5 592.821695,229.84204 592.996974,220.32877 L593,220 L593,140 C593,127.697857 602.873129,117.701707 615.127921,117.503014 L615.5,117.5 L859.5,117.5 L859.5,105.5 Z"></path>
            <path id="Angled-Arrow" d="M810.5,-1.5 C822.802143,-1.5 832.798293,8.37312863 832.996986,20.6279214 L833,21 L833,100 C833,109.555154 840.65796,117.321695 850.17123,117.496974 L850.5,117.5 L859.5,117.5 L859.5,105.5 L888.5,120 L859.5,134.5 L859.5,122.5 L850.5,122.5 C838.197857,122.5 828.201707,112.626871 828.003014,100.372079 L828,100 L828,21 C828,11.4448462 820.34204,3.67830487 810.82877,3.50302645 L810.5,3.5 L773,3.5 L773,-1.5 L810.5,-1.5 Z"></path>
            <path id="Angled-Arrow" d="M1102.5,105.5 L1131.5,120 L1102.5,134.5 L1102.5,122.5 L1089.5,122.5 C1079.94485,122.5 1072.1783,130.15796 1072.00303,139.67123 L1072,140 L1072,340 C1072,352.302143 1062.12687,362.298293 1049.87208,362.496986 L1049.5,362.5 L1008,362.5 L1008,357.5 L1049.5,357.5 C1059.05515,357.5 1066.8217,349.84204 1066.99697,340.32877 L1067,340 L1067,140 C1067,127.697857 1076.87313,117.701707 1089.12792,117.503014 L1089.5,117.5 L1102.5,117.5 L1102.5,105.5 Z"></path>
            <path id="Angled-Arrow" d="M2.5,180 L2.5,340 C2.5,349.555154 10.1579601,357.321695 19.6712297,357.496974 L20,357.5 L859.5,357.5 L859.5,345.5 L888.5,360 L859.5,374.5 L859.5,362.5 L20,362.5 C7.6978572,362.5 -2.29829286,352.626871 -2.49698564,340.372079 L-2.5,340 L-2.5,180 L2.5,180 Z"></path>
        </g>
        <path id="Angled-Arrow" d="M979.5,81.5 L1008.5,96 L979.5,110.5 L979.5,98.5 L893,98.5 L893,93.5 L979.5,93.5 L979.5,81.5 Z" fill="#F1753A" fill-rule="nonzero"></path>
        <circle id="Oval-Copy" stroke="#F1753A" stroke-width="5" cx="1068" cy="96" r="60"></circle>
        <path id="Angled-Arrow" d="M1214.5,82.5 L1243.5,97 L1214.5,111.5 L1214.5,99.5 L1128,99.5 L1128,94.5 L1214.5,94.5 L1214.5,82.5 Z" fill="#F1753A" fill-rule="nonzero"></path>
        <circle id="Oval-Copy" stroke="#F1753A" stroke-width="5" cx="1303" cy="97" r="60"></circle>
        <circle id="Oval-Copy-3" stroke="#F1753A" stroke-width="5" cx="1538" cy="216" r="60"></circle>
        <circle id="Oval-Copy-3" stroke="#F1753A" stroke-width="5" cx="1538" cy="216" r="60"></circle>
        <circle id="Oval-Copy-3" stroke="#F1753A" stroke-width="5" cx="1538" cy="456" r="60"></circle>
        <circle id="Oval-Copy-3" stroke="#F1753A" stroke-width="5" cx="1781" cy="216" r="60"></circle>
        <path id="Angled-Arrow" d="M1692.5,202.5 L1721.5,217 L1692.5,231.5 L1692.5,219.5 L1598,219.5 L1598,214.5 L1692.5,214.5 L1692.5,202.5 Z" fill="#F1753A" fill-rule="nonzero"></path>
        <circle id="Oval-Copy-3" stroke="#F1753A" stroke-width="5" cx="2026" cy="216" r="60"></circle>
        <path id="Angled-Arrow" d="M1937.5,202.5 L1966.5,217 L1937.5,231.5 L1937.5,219.5 L1843,219.5 L1843,214.5 L1937.5,214.5 L1937.5,202.5 Z" fill="#F1753A" fill-rule="nonzero"></path>
        <text id="A" font-family="Raleway-ExtraBold, Raleway" font-size="50" font-weight="600" letter-spacing="0.833333333" fill="#F1753A">
            <tspan x="103" y="235">A</tspan>
        </text>
        <text id="B" font-family="Raleway-ExtraBold, Raleway" font-size="50" font-weight="600" letter-spacing="0.833333333" fill="#F1753A">
            <tspan x="338" y="235">B</tspan>
        </text>
        <text id="C" font-family="Raleway-ExtraBold, Raleway" font-size="50" font-weight="600" letter-spacing="0.833333333" fill="#F1753A">
            <tspan x="572" y="235">C</tspan>
        </text>
        <text id="D" font-family="Raleway-ExtraBold, Raleway" font-size="50" font-weight="600" letter-spacing="0.833333333" fill="#F1753A">
            <tspan x="814" y="113">D</tspan>
        </text>
        <text id="E" font-family="Raleway-ExtraBold, Raleway" font-size="50" font-weight="600" letter-spacing="0.833333333" fill="#F1753A">
            <tspan x="814" y="353">E</tspan>
        </text>
        <text id="F" font-family="Raleway-ExtraBold, Raleway" font-size="50" font-weight="600" letter-spacing="0.833333333" fill="#F1753A">
            <tspan x="1523" y="473">F</tspan>
        </text>
        <text id="G" font-family="Raleway-ExtraBold, Raleway" font-size="50" font-weight="600" letter-spacing="0.833333333" fill="#F1753A">
            <tspan x="1050" y="115">G</tspan>
        </text>
        <text id="H" font-family="Raleway-ExtraBold, Raleway" font-size="50" font-weight="600" letter-spacing="0.833333333" fill="#F1753A">
            <tspan x="1284" y="115">H</tspan>
        </text>
        <text id="I" font-family="Raleway-ExtraBold, Raleway" font-size="50" font-weight="600" letter-spacing="0.833333333" fill="#F1753A">
            <tspan x="1530" y="233">I</tspan>
        </text>
        <text id="J" font-family="Raleway-ExtraBold, Raleway" font-size="50" font-weight="600" letter-spacing="0.833333333" fill="#F1753A">
            <tspan x="1768" y="233">J</tspan>
        </text>
        <text id="K" font-family="Raleway-ExtraBold, Raleway" font-size="50" font-weight="600" letter-spacing="0.833333333" fill="#F1753A">
            <tspan x="2008" y="233">K</tspan>
        </text>
    </g>
</svg>