<?xml version="1.0" encoding="UTF-8"?>
<svg width="2211px" height="783px" viewBox="0 0 2211 783" version="1.1" xmlns="http://www.w3.org/2000/svg" xmlns:xlink="http://www.w3.org/1999/xlink">
    <!-- Generator: Sketch 64 (93537) - https://sketch.com -->
    <title>Fig3</title>
    <desc>Created with Sketch.</desc>
    <g id="Fig3" stroke="none" stroke-width="1" fill="none" fill-rule="evenodd">
        <g id="Template" transform="translate(120.000000, 58.000000)">
            <g id="OG-ARROWS" transform="translate(60.000000, 120.000000)" stroke="#778086" stroke-width="5">
                <path d="M360,0 L360,40 C360,51.045695 351.045695,60 340,60 L140,60 C128.954305,60 120,68.954305 120,80 L120,120 L120,120" id="Angled-Arrow"></path>
                <path d="M360,0 L360,40 C360,51.045695 368.954305,60 380,60 L583,60 C594.045695,60 603,68.954305 603,80 L603,120 L603,120" id="Angled-Arrow"></path>
                <path d="M120,240 L120,280 C120,291.045695 111.045695,300 100,300 L20,300 C8.954305,300 -8.45813486e-15,308.954305 0,320 L0,360 L0,360" id="Angled-Arrow"></path>
                <path d="M120,240 L120,280 C120,291.045695 128.954305,300 140,300 L220,300 C231.045695,300 240,308.954305 240,320 L240,360 L240,360" id="Angled-Arrow"></path>
                <path d="M603,240 L603,280 C603,291.045695 594.045695,300 583,300 L503,300 C491.954305,300 483,308.954305 483,320 L483,360 L483,360" id="Angled-Arrow"></path>
                <path d="M603,240 L603,280 C603,291.045695 611.954305,300 623,300 L703,300 C714.045695,300 723,308.954305 723,320 L723,360 L723,360" id="Angled-Arrow"></path>
            </g>
            <circle id="Oval" stroke="#778086" stroke-width="5" fill="#FFFFFF" cx="420" cy="60" r="60"></circle>
            <path d="M411.5,79 L414.2,71.05 L425.25,71.05 L428,79 L436.4,79 L423.45,43.5 L416.05,43.5 L403.1,79 L411.5,79 Z M423.9,65.4 L415.5,65.4 L419.75,52.85 L423.9,65.4 Z" id="A" fill="#778086" fill-rule="nonzero"></path>
            <circle id="Oval" stroke="#778086" stroke-width="5" fill="#FFFFFF" cx="180" cy="300" r="60"></circle>
            <circle id="Oval-Copy-3" stroke="#778086" stroke-width="5" fill="#FFFFFF" cx="663" cy="300" r="60"></circle>
            <circle id="Oval-Copy" stroke="#778086" stroke-width="5" fill="#FFFFFF" cx="300" cy="540" r="60"></circle>
            <circle id="Oval-Copy-4" stroke="#778086" stroke-width="5" fill="#FFFFFF" cx="783" cy="540" r="60"></circle>
            <circle id="Oval-Copy-2" stroke="#778086" stroke-width="5" fill="#FFFFFF" cx="60" cy="540" r="60"></circle>
            <circle id="Oval-Copy-5" stroke="#778086" stroke-width="5" fill="#FFFFFF" cx="543" cy="540" r="60"></circle>
            <path d="M183.7,319 C185.333333,319 186.883333,318.808333 188.35,318.425 C189.816667,318.041667 191.1,317.475 192.2,316.725 C193.3,315.975 194.166667,315.033333 194.8,313.9 C195.433333,312.766667 195.75,311.433333 195.75,309.9 C195.75,307.5 195.158333,305.533333 193.975,304 C192.791667,302.466667 191.183333,301.4 189.15,300.8 C190.85,300.033333 192.125,298.9 192.975,297.4 C193.825,295.9 194.25,294.3 194.25,292.6 C194.25,291.466667 194.058333,290.358333 193.675,289.275 C193.291667,288.191667 192.75,287.225 192.05,286.375 C191.35,285.525 190.5,284.833333 189.5,284.3 C188.5,283.766667 187.383333,283.5 186.15,283.5 L186.15,283.5 L166.4,283.5 L166.4,319 L183.7,319 Z M182.65,297.85 L174.6,297.85 L174.6,290.5 L182.95,290.5 C183.816667,290.5 184.558333,290.816667 185.175,291.45 C185.791667,292.083333 186.1,292.983333 186.1,294.15 C186.1,295.416667 185.75,296.35 185.05,296.95 C184.35,297.55 183.55,297.85 182.65,297.85 L182.65,297.85 Z M183.7,312.05 L174.6,312.05 L174.6,304.3 L184.05,304.3 C185.016667,304.3 185.816667,304.683333 186.45,305.45 C187.083333,306.216667 187.4,307.15 187.4,308.25 C187.4,309.383333 187.05,310.3 186.35,311 C185.65,311.7 184.766667,312.05 183.7,312.05 L183.7,312.05 Z" id="B" fill="#778086" fill-rule="nonzero"></path>
            <path d="M664.85,319.3 C666.316667,319.3 667.816667,319.116667 669.35,318.75 C670.883333,318.383333 672.333333,317.85 673.7,317.15 C675.066667,316.45 676.275,315.583333 677.325,314.55 C678.375,313.516667 679.166667,312.35 679.7,311.05 L679.7,311.05 L673,307.1 C672.633333,308 672.15,308.758333 671.55,309.375 C670.95,309.991667 670.291667,310.491667 669.575,310.875 C668.858333,311.258333 668.108333,311.541667 667.325,311.725 C666.541667,311.908333 665.783333,312 665.05,312 C663.616667,312 662.325,311.708333 661.175,311.125 C660.025,310.541667 659.041667,309.75 658.225,308.75 C657.408333,307.75 656.783333,306.6 656.35,305.3 C655.916667,304 655.7,302.65 655.7,301.25 C655.7,299.95 655.883333,298.666667 656.25,297.4 C656.616667,296.133333 657.183333,295 657.95,294 C658.716667,293 659.683333,292.183333 660.85,291.55 C662.016667,290.916667 663.383333,290.6 664.95,290.6 C665.683333,290.6 666.433333,290.675 667.2,290.825 C667.966667,290.975 668.716667,291.241667 669.45,291.625 C670.183333,292.008333 670.858333,292.508333 671.475,293.125 C672.091667,293.741667 672.6,294.516667 673,295.45 L673,295.45 L679.3,291.05 C678.1,288.75 676.275,286.883333 673.825,285.45 C671.375,284.016667 668.483333,283.3 665.15,283.3 C662.35,283.3 659.85,283.816667 657.65,284.85 C655.45,285.883333 653.583333,287.233333 652.05,288.9 C650.516667,290.566667 649.35,292.458333 648.55,294.575 C647.75,296.691667 647.35,298.816667 647.35,300.95 C647.35,303.216667 647.775,305.45 648.625,307.65 C649.475,309.85 650.675,311.816667 652.225,313.55 C653.775,315.283333 655.625,316.675 657.775,317.725 C659.925,318.775 662.283333,319.3 664.85,319.3 Z" id="C" fill="#778086" fill-rule="nonzero"></path>
            <polygon id="E" fill="#778086" fill-rule="nonzero" points="311.35 559 311.35 551.8 294.6 551.8 294.6 544.25 308.6 544.25 308.6 537.6 294.6 537.6 294.6 530.7 310.9 530.7 310.9 523.5 286.4 523.5 286.4 559"></polygon>
            <path d="M784.45,559.25 C787.983333,559.25 791.1,558 793.8,555.5 L793.8,555.5 L793.8,559 L800.6,559 L800.6,540.45 L786.9,540.45 L786.9,546.4 L793.8,546.4 L793.8,547.5 C791.233333,550.466667 788.35,551.95 785.15,551.95 C783.75,551.95 782.475,551.683333 781.325,551.15 C780.175,550.616667 779.183333,549.875 778.35,548.925 C777.516667,547.975 776.866667,546.85 776.4,545.55 C775.933333,544.25 775.7,542.833333 775.7,541.3 C775.7,539.8 775.916667,538.4 776.35,537.1 C776.783333,535.8 777.4,534.658333 778.2,533.675 C779,532.691667 779.958333,531.925 781.075,531.375 C782.191667,530.825 783.433333,530.55 784.8,530.55 C786.566667,530.55 788.208333,530.991667 789.725,531.875 C791.241667,532.758333 792.4,534 793.2,535.6 L793.2,535.6 L799.3,531 C798.066667,528.6 796.216667,526.708333 793.75,525.325 C791.283333,523.941667 788.4,523.25 785.1,523.25 C782.6,523.25 780.266667,523.716667 778.1,524.65 C775.933333,525.583333 774.058333,526.85 772.475,528.45 C770.891667,530.05 769.65,531.933333 768.75,534.1 C767.85,536.266667 767.4,538.566667 767.4,541 C767.4,543.7 767.85,546.175 768.75,548.425 C769.65,550.675 770.875,552.6 772.425,554.2 C773.975,555.8 775.783333,557.041667 777.85,557.925 C779.916667,558.808333 782.116667,559.25 784.45,559.25 Z" id="G" fill="#778086" fill-rule="nonzero"></path>
            <path d="M59.65,559 C62.3166667,559 64.7416667,558.575 66.925,557.725 C69.1083333,556.875 70.975,555.675 72.525,554.125 C74.075,552.575 75.2666667,550.708333 76.1,548.525 C76.9333333,546.341667 77.35,543.9 77.35,541.2 C77.35,538.766667 76.975,536.475 76.225,534.325 C75.475,532.175 74.3583333,530.3 72.875,528.7 C71.3916667,527.1 69.55,525.833333 67.35,524.9 C65.15,523.966667 62.5833333,523.5 59.65,523.5 L59.65,523.5 L46.4,523.5 L46.4,559 L59.65,559 Z M59.65,551.8 L54.6,551.8 L54.6,530.7 L59.65,530.7 C61.1166667,530.7 62.4333333,530.95 63.6,531.45 C64.7666667,531.95 65.75,532.666667 66.55,533.6 C67.35,534.533333 67.9583333,535.641667 68.375,536.925 C68.7916667,538.208333 69,539.633333 69,541.2 C69,542.733333 68.7916667,544.141667 68.375,545.425 C67.9583333,546.708333 67.3583333,547.825 66.575,548.775 C65.7916667,549.725 64.8166667,550.466667 63.65,551 C62.4833333,551.533333 61.15,551.8 59.65,551.8 L59.65,551.8 Z" id="D" fill="#778086" fill-rule="nonzero"></path>
            <polygon id="F" fill="#778086" fill-rule="nonzero" points="537.6 559 537.6 545 550.7 545 550.7 538.35 537.6 538.35 537.6 530.7 553.5 530.7 553.5 523.5 529.4 523.5 529.4 559"></polygon>
            <g id="Arrows" transform="translate(60.000000, 60.000000)" fill="#F1753A" fill-rule="nonzero">
                <path id="Angled-Arrow" d="M298.232233,-1.76776695 L301.767767,1.76776695 L141.92,161.615 L150.405592,170.100505 L119.646447,180.353553 L129.899495,149.594408 L138.385,158.08 L298.232233,-1.76776695 Z"></path>
                <path id="Angled-Arrow" d="M514.5,225.5 L543.5,240 L514.5,254.5 L514.5,242.5 L180,242.5 L180,237.5 L514.5,237.5 L514.5,225.5 Z"></path>
                <path id="Angled-Arrow" d="M542.213365,237.626984 L543.786635,242.373016 L27.838,413.405 L31.6148668,424.795852 L-0.474603208,420.157327 L22.489899,397.268866 L26.265,408.659 L542.213365,237.626984 Z"></path>
                <path id="Angled-Arrow" d="M151.5,465.5 L180.5,480 L151.5,494.5 L151.5,482.5 L60,482.5 L60,477.5 L151.5,477.5 L151.5,465.5 Z"></path>
                <path id="Angled-Arrow" d="M634.262324,465.976948 L663.499931,479.991668 L634.745591,494.972921 L634.545,482.975 L543.041661,484.499653 L542.958339,479.500347 L634.462,477.975 L634.262324,465.976948 Z"></path>
                <path id="Angled-Arrow" d="M394.268026,465.96527 L423.499934,479.991871 L394.739508,494.961437 L394.544,482.962 L300.040645,484.49967 L299.959355,479.50033 L394.463,477.963 L394.268026,465.96527 Z"></path>
            </g>
        </g>
        <g id="Template" transform="translate(1248.000000, 58.000000)">
            <g id="OG-ARROWS" transform="translate(60.000000, 120.000000)" stroke="#778086" stroke-width="5">
                <path d="M360,0 L360,40 C360,51.045695 351.045695,60 340,60 L140,60 C128.954305,60 120,68.954305 120,80 L120,120 L120,120" id="Angled-Arrow"></path>
                <path d="M360,0 L360,40 C360,51.045695 368.954305,60 380,60 L583,60 C594.045695,60 603,68.954305 603,80 L603,120 L603,120" id="Angled-Arrow"></path>
                <path d="M120,240 L120,280 C120,291.045695 111.045695,300 100,300 L20,300 C8.954305,300 -8.45813486e-15,308.954305 0,320 L0,360 L0,360" id="Angled-Arrow"></path>
                <path d="M120,240 L120,280 C120,291.045695 128.954305,300 140,300 L220,300 C231.045695,300 240,308.954305 240,320 L240,360 L240,360" id="Angled-Arrow"></path>
                <path d="M603,240 L603,280 C603,291.045695 594.045695,300 583,300 L503,300 C491.954305,300 483,308.954305 483,320 L483,360 L483,360" id="Angled-Arrow"></path>
                <path d="M603,240 L603,280 C603,291.045695 611.954305,300 623,300 L703,300 C714.045695,300 723,308.954305 723,320 L723,360 L723,360" id="Angled-Arrow"></path>
            </g>
            <circle id="Oval" stroke="#778086" stroke-width="5" fill="#FFFFFF" cx="420" cy="60" r="60"></circle>
            <path d="M411.5,79 L414.2,71.05 L425.25,71.05 L428,79 L436.4,79 L423.45,43.5 L416.05,43.5 L403.1,79 L411.5,79 Z M423.9,65.4 L415.5,65.4 L419.75,52.85 L423.9,65.4 Z" id="A" fill="#778086" fill-rule="nonzero"></path>
            <circle id="Oval" stroke="#778086" stroke-width="5" fill="#FFFFFF" cx="180" cy="300" r="60"></circle>
            <circle id="Oval-Copy-3" stroke="#778086" stroke-width="5" fill="#FFFFFF" cx="663" cy="300" r="60"></circle>
            <circle id="Oval-Copy" stroke="#778086" stroke-width="5" fill="#FFFFFF" cx="300" cy="540" r="60"></circle>
            <circle id="Oval-Copy-4" stroke="#778086" stroke-width="5" fill="#FFFFFF" cx="783" cy="540" r="60"></circle>
            <circle id="Oval-Copy-2" stroke="#778086" stroke-width="5" fill="#FFFFFF" cx="60" cy="540" r="60"></circle>
            <circle id="Oval-Copy-5" stroke="#778086" stroke-width="5" fill="#FFFFFF" cx="543" cy="540" r="60"></circle>
            <path d="M183.7,319 C185.333333,319 186.883333,318.808333 188.35,318.425 C189.816667,318.041667 191.1,317.475 192.2,316.725 C193.3,315.975 194.166667,315.033333 194.8,313.9 C195.433333,312.766667 195.75,311.433333 195.75,309.9 C195.75,307.5 195.158333,305.533333 193.975,304 C192.791667,302.466667 191.183333,301.4 189.15,300.8 C190.85,300.033333 192.125,298.9 192.975,297.4 C193.825,295.9 194.25,294.3 194.25,292.6 C194.25,291.466667 194.058333,290.358333 193.675,289.275 C193.291667,288.191667 192.75,287.225 192.05,286.375 C191.35,285.525 190.5,284.833333 189.5,284.3 C188.5,283.766667 187.383333,283.5 186.15,283.5 L186.15,283.5 L166.4,283.5 L166.4,319 L183.7,319 Z M182.65,297.85 L174.6,297.85 L174.6,290.5 L182.95,290.5 C183.816667,290.5 184.558333,290.816667 185.175,291.45 C185.791667,292.083333 186.1,292.983333 186.1,294.15 C186.1,295.416667 185.75,296.35 185.05,296.95 C184.35,297.55 183.55,297.85 182.65,297.85 L182.65,297.85 Z M183.7,312.05 L174.6,312.05 L174.6,304.3 L184.05,304.3 C185.016667,304.3 185.816667,304.683333 186.45,305.45 C187.083333,306.216667 187.4,307.15 187.4,308.25 C187.4,309.383333 187.05,310.3 186.35,311 C185.65,311.7 184.766667,312.05 183.7,312.05 L183.7,312.05 Z" id="B" fill="#778086" fill-rule="nonzero"></path>
            <path d="M664.85,319.3 C666.316667,319.3 667.816667,319.116667 669.35,318.75 C670.883333,318.383333 672.333333,317.85 673.7,317.15 C675.066667,316.45 676.275,315.583333 677.325,314.55 C678.375,313.516667 679.166667,312.35 679.7,311.05 L679.7,311.05 L673,307.1 C672.633333,308 672.15,308.758333 671.55,309.375 C670.95,309.991667 670.291667,310.491667 669.575,310.875 C668.858333,311.258333 668.108333,311.541667 667.325,311.725 C666.541667,311.908333 665.783333,312 665.05,312 C663.616667,312 662.325,311.708333 661.175,311.125 C660.025,310.541667 659.041667,309.75 658.225,308.75 C657.408333,307.75 656.783333,306.6 656.35,305.3 C655.916667,304 655.7,302.65 655.7,301.25 C655.7,299.95 655.883333,298.666667 656.25,297.4 C656.616667,296.133333 657.183333,295 657.95,294 C658.716667,293 659.683333,292.183333 660.85,291.55 C662.016667,290.916667 663.383333,290.6 664.95,290.6 C665.683333,290.6 666.433333,290.675 667.2,290.825 C667.966667,290.975 668.716667,291.241667 669.45,291.625 C670.183333,292.008333 670.858333,292.508333 671.475,293.125 C672.091667,293.741667 672.6,294.516667 673,295.45 L673,295.45 L679.3,291.05 C678.1,288.75 676.275,286.883333 673.825,285.45 C671.375,284.016667 668.483333,283.3 665.15,283.3 C662.35,283.3 659.85,283.816667 657.65,284.85 C655.45,285.883333 653.583333,287.233333 652.05,288.9 C650.516667,290.566667 649.35,292.458333 648.55,294.575 C647.75,296.691667 647.35,298.816667 647.35,300.95 C647.35,303.216667 647.775,305.45 648.625,307.65 C649.475,309.85 650.675,311.816667 652.225,313.55 C653.775,315.283333 655.625,316.675 657.775,317.725 C659.925,318.775 662.283333,319.3 664.85,319.3 Z" id="C" fill="#778086" fill-rule="nonzero"></path>
            <polygon id="E" fill="#778086" fill-rule="nonzero" points="311.35 559 311.35 551.8 294.6 551.8 294.6 544.25 308.6 544.25 308.6 537.6 294.6 537.6 294.6 530.7 310.9 530.7 310.9 523.5 286.4 523.5 286.4 559"></polygon>
            <path d="M784.45,559.25 C787.983333,559.25 791.1,558 793.8,555.5 L793.8,555.5 L793.8,559 L800.6,559 L800.6,540.45 L786.9,540.45 L786.9,546.4 L793.8,546.4 L793.8,547.5 C791.233333,550.466667 788.35,551.95 785.15,551.95 C783.75,551.95 782.475,551.683333 781.325,551.15 C780.175,550.616667 779.183333,549.875 778.35,548.925 C777.516667,547.975 776.866667,546.85 776.4,545.55 C775.933333,544.25 775.7,542.833333 775.7,541.3 C775.7,539.8 775.916667,538.4 776.35,537.1 C776.783333,535.8 777.4,534.658333 778.2,533.675 C779,532.691667 779.958333,531.925 781.075,531.375 C782.191667,530.825 783.433333,530.55 784.8,530.55 C786.566667,530.55 788.208333,530.991667 789.725,531.875 C791.241667,532.758333 792.4,534 793.2,535.6 L793.2,535.6 L799.3,531 C798.066667,528.6 796.216667,526.708333 793.75,525.325 C791.283333,523.941667 788.4,523.25 785.1,523.25 C782.6,523.25 780.266667,523.716667 778.1,524.65 C775.933333,525.583333 774.058333,526.85 772.475,528.45 C770.891667,530.05 769.65,531.933333 768.75,534.1 C767.85,536.266667 767.4,538.566667 767.4,541 C767.4,543.7 767.85,546.175 768.75,548.425 C769.65,550.675 770.875,552.6 772.425,554.2 C773.975,555.8 775.783333,557.041667 777.85,557.925 C779.916667,558.808333 782.116667,559.25 784.45,559.25 Z" id="G" fill="#778086" fill-rule="nonzero"></path>
            <path d="M59.65,559 C62.3166667,559 64.7416667,558.575 66.925,557.725 C69.1083333,556.875 70.975,555.675 72.525,554.125 C74.075,552.575 75.2666667,550.708333 76.1,548.525 C76.9333333,546.341667 77.35,543.9 77.35,541.2 C77.35,538.766667 76.975,536.475 76.225,534.325 C75.475,532.175 74.3583333,530.3 72.875,528.7 C71.3916667,527.1 69.55,525.833333 67.35,524.9 C65.15,523.966667 62.5833333,523.5 59.65,523.5 L59.65,523.5 L46.4,523.5 L46.4,559 L59.65,559 Z M59.65,551.8 L54.6,551.8 L54.6,530.7 L59.65,530.7 C61.1166667,530.7 62.4333333,530.95 63.6,531.45 C64.7666667,531.95 65.75,532.666667 66.55,533.6 C67.35,534.533333 67.9583333,535.641667 68.375,536.925 C68.7916667,538.208333 69,539.633333 69,541.2 C69,542.733333 68.7916667,544.141667 68.375,545.425 C67.9583333,546.708333 67.3583333,547.825 66.575,548.775 C65.7916667,549.725 64.8166667,550.466667 63.65,551 C62.4833333,551.533333 61.15,551.8 59.65,551.8 L59.65,551.8 Z" id="D" fill="#778086" fill-rule="nonzero"></path>
            <polygon id="F" fill="#778086" fill-rule="nonzero" points="537.6 559 537.6 545 550.7 545 550.7 538.35 537.6 538.35 537.6 530.7 553.5 530.7 553.5 523.5 529.4 523.5 529.4 559"></polygon>
        </g>
        <g id="Arrows" transform="translate(1308.000000, 118.000000)" fill="#F7A13E" fill-rule="nonzero">
            <path id="Angled-Arrow" d="M298.227316,-1.76283597 L301.772684,1.76283597 L142.868,161.554 L151.377899,170.015849 L120.647433,180.354537 L130.814762,149.566951 L139.323,158.028 L298.227316,-1.76283597 Z"></path>
            <path id="Angled-Arrow" d="M118.232233,298.232233 L121.767767,301.767767 L21.92,401.615 L30.4055916,410.100505 L-0.353553391,420.353553 L9.89949494,389.594408 L18.385,398.08 L118.232233,298.232233 Z"></path>
            <path id="Angled-Arrow" d="M151.5,465.5 L180.5,480 L151.5,494.5 L151.5,482.5 L60,482.5 L60,477.5 L151.5,477.5 L151.5,465.5 Z"></path>
            <path id="Angled-Arrow" d="M543.355743,239.648649 L532.911845,270.343519 L524.479,261.805 L301.756753,481.778713 L298.243247,478.221287 L520.965,258.248 L512.533509,249.710453 L543.355743,239.648649 Z"></path>
            <path id="Angled-Arrow" d="M601.232233,298.232233 L604.767767,301.767767 L504.92,401.615 L513.405592,410.100505 L482.646447,420.353553 L492.899495,389.594408 L501.385,398.08 L601.232233,298.232233 Z"></path>
            <path id="Angled-Arrow" d="M634.5,465.5 L663.5,480 L634.5,494.5 L634.5,482.5 L543,482.5 L543,477.5 L634.5,477.5 L634.5,465.5 Z"></path>
        </g>
        <path d="M411.28,734 C413.98,734 415.76,732.34 415.76,729.86 C415.76,728.26 414.84,726.94 413.4,726.4 C414.34,725.9 415,724.92 415,723.74 C415,721.5 413.28,720 410.7,720 L404.98,720 C403.52,720 402.9,720.6 402.9,722.12 L402.9,731.88 C402.9,733.38 403.5,734 405,734 L411.28,734 Z M410.16,725.48 L406.42,725.48 L406.42,723.18 L410.16,723.18 C411.04,723.18 411.48,723.54 411.48,724.28 C411.48,725.02 410.98,725.48 410.16,725.48 Z M410.5,731.04 L406.42,731.04 L406.42,728.32 L410.5,728.32 C411.7,728.32 412.24,728.74 412.24,729.68 C412.24,730.62 411.7,731.04 410.5,731.04 Z M429.552,734.1 C430.492,734.1 431.192,733.46 431.192,732.58 C431.192,732.04 431.012,731.7 430.612,731.24 L428.532,728.94 C430.292,728.28 431.252,726.8 431.252,724.64 C431.252,721.7 429.432,720 426.312,720 L419.992,720 C418.652,720 417.992,720.68 417.992,722.02 L417.992,732.2 C417.992,733.38 418.672,734.1 419.772,734.1 C420.832,734.1 421.512,733.38 421.512,732.2 L421.512,729.3 L424.312,729.3 L428.272,733.52 C428.652,733.92 429.012,734.1 429.552,734.1 Z M426.132,726.12 L421.512,726.12 L421.512,723.18 L426.132,723.18 C427.192,723.18 427.712,723.66 427.712,724.64 C427.712,725.58 427.112,726.12 426.132,726.12 Z M443.884,734 C445.004,734 445.664,733.38 445.664,732.36 C445.664,731.34 444.984,730.7 443.884,730.7 L437.204,730.7 L437.204,728.54 L443.124,728.54 C444.244,728.54 444.804,728.02 444.804,726.98 C444.804,725.96 444.224,725.42 443.124,725.42 L437.204,725.42 L437.204,723.3 L443.844,723.3 C444.964,723.3 445.624,722.68 445.624,721.66 C445.624,720.64 444.944,720 443.844,720 L435.684,720 C434.344,720 433.684,720.68 433.684,722.02 L433.684,731.98 C433.684,733.32 434.364,734 435.704,734 L443.884,734 Z M460.356,734.1 C461.316,734.1 462.016,733.4 462.016,732.46 C462.016,732.12 461.956,731.88 461.716,731.42 L456.176,721.1 C455.716,720.24 455.216,719.9 454.416,719.9 C453.556,719.9 453.096,720.22 452.636,721.08 L447.116,731.4 C446.876,731.86 446.796,732.12 446.796,732.46 C446.796,733.4 447.516,734.1 448.456,734.1 C449.116,734.1 449.656,733.74 450.036,733.02 L451.076,731.02 L457.756,731.02 L458.796,733.02 C459.176,733.74 459.696,734.1 460.356,734.1 Z M456.256,728.16 L452.576,728.16 L454.416,724.64 L456.256,728.16 Z M470.628,734 C474.608,734 477.588,731.04 477.588,727 C477.588,723 474.628,720 470.688,720 L465.848,720 C464.348,720 463.748,720.62 463.748,722.12 L463.748,731.88 C463.748,733.38 464.368,734 465.868,734 L470.628,734 Z M470.348,730.82 L467.268,730.82 L467.268,723.18 L470.408,723.18 C472.708,723.18 474.048,724.58 474.048,727 C474.048,729.42 472.728,730.82 470.348,730.82 Z M484.46,734.1 C485.52,734.1 486.2,733.38 486.2,732.2 L486.2,723.3 L489.34,723.3 C490.48,723.3 491.14,722.7 491.14,721.66 C491.14,720.64 490.46,720 489.34,720 L479.5,720 C478.4,720 477.72,720.64 477.72,721.66 C477.72,722.68 478.38,723.3 479.5,723.3 L482.68,723.3 L482.68,732.2 C482.68,733.38 483.36,734.1 484.46,734.1 Z M504.172,734.1 C505.232,734.1 505.912,733.38 505.912,732.2 L505.912,721.8 C505.912,720.62 505.232,719.9 504.172,719.9 C503.072,719.9 502.392,720.62 502.392,721.8 L502.392,725.3 L496.392,725.3 L496.392,721.8 C496.392,720.62 495.712,719.9 494.652,719.9 C493.552,719.9 492.872,720.62 492.872,721.8 L492.872,732.2 C492.872,733.38 493.552,734.1 494.652,734.1 C495.712,734.1 496.392,733.38 496.392,732.2 L496.392,728.36 L502.392,728.36 L502.392,732.2 C502.392,733.38 503.072,734.1 504.172,734.1 Z M512.924,729.64 C514.024,729.64 514.664,729.02 514.664,728.04 C514.664,727.06 514.024,726.46 512.924,726.46 L510.484,726.46 C509.384,726.46 508.744,727.06 508.744,728.04 C508.744,729.06 509.384,729.64 510.484,729.64 L512.924,729.64 Z M519.276,734.1 C520.376,734.1 521.036,733.38 521.036,732.2 L521.036,729.24 L526.776,729.24 C527.896,729.24 528.456,728.72 528.456,727.7 C528.456,726.68 527.876,726.14 526.776,726.14 L521.016,726.14 L521.016,723.3 L527.756,723.3 C528.876,723.3 529.536,722.68 529.536,721.66 C529.536,720.64 528.856,720 527.756,720 L519.496,720 C518.156,720 517.496,720.68 517.496,722.02 L517.496,732.2 C517.496,733.38 518.176,734.1 519.276,734.1 Z M539.568,734 C540.708,734 541.368,733.4 541.368,732.36 C541.368,731.34 540.688,730.7 539.568,730.7 L537.788,730.7 L537.788,723.3 L539.368,723.3 C540.508,723.3 541.168,722.7 541.168,721.66 C541.168,720.64 540.488,720 539.368,720 L532.648,720 C531.548,720 530.868,720.64 530.868,721.66 C530.868,722.68 531.528,723.3 532.648,723.3 L534.248,723.3 L534.248,730.7 L532.448,730.7 C531.348,730.7 530.668,731.34 530.668,732.36 C530.668,733.38 531.328,734 532.448,734 L539.568,734 Z M554.96,734.1 C555.9,734.1 556.6,733.46 556.6,732.58 C556.6,732.04 556.42,731.7 556.02,731.24 L553.94,728.94 C555.7,728.28 556.66,726.8 556.66,724.64 C556.66,721.7 554.84,720 551.72,720 L545.4,720 C544.06,720 543.4,720.68 543.4,722.02 L543.4,732.2 C543.4,733.38 544.08,734.1 545.18,734.1 C546.24,734.1 546.92,733.38 546.92,732.2 L546.92,729.3 L549.72,729.3 L553.68,733.52 C554.06,733.92 554.42,734.1 554.96,734.1 Z M551.54,726.12 L546.92,726.12 L546.92,723.18 L551.54,723.18 C552.6,723.18 553.12,723.66 553.12,724.64 C553.12,725.58 552.52,726.12 551.54,726.12 Z M564.992,734.3 C568.272,734.3 570.532,732.4 570.532,729.68 C570.532,726.4 567.272,725.8 564.772,725.32 C563.192,725.06 561.892,724.78 561.892,723.98 C561.892,723.26 562.732,722.78 563.952,722.78 C565.072,722.78 565.952,723.18 566.892,724.14 C567.352,724.6 567.712,724.78 568.252,724.78 C569.212,724.78 569.932,724.1 569.932,723.2 C569.932,722.88 569.832,722.56 569.652,722.24 C568.752,720.76 566.472,719.7 564.072,719.7 C560.872,719.7 558.552,721.5 558.552,723.98 C558.552,727.3 561.652,727.84 564.132,728.32 C565.792,728.64 567.172,728.84 567.172,729.82 C567.172,730.68 566.392,731.18 565.032,731.18 C563.412,731.18 562.312,730.64 561.592,729.44 C561.132,728.7 560.592,728.4 559.852,728.4 C558.872,728.4 558.092,729.12 558.092,730.06 C558.092,730.44 558.192,730.76 558.412,731.18 C559.432,733.12 561.972,734.3 564.992,734.3 Z M577.904,734.1 C578.964,734.1 579.644,733.38 579.644,732.2 L579.644,723.3 L582.784,723.3 C583.924,723.3 584.584,722.7 584.584,721.66 C584.584,720.64 583.904,720 582.784,720 L572.944,720 C571.844,720 571.164,720.64 571.164,721.66 C571.164,722.68 571.824,723.3 572.944,723.3 L576.124,723.3 L576.124,732.2 C576.124,733.38 576.804,734.1 577.904,734.1 Z M598.448,734.3 C601.728,734.3 603.988,732.4 603.988,729.68 C603.988,726.4 600.728,725.8 598.228,725.32 C596.648,725.06 595.348,724.78 595.348,723.98 C595.348,723.26 596.188,722.78 597.408,722.78 C598.528,722.78 599.408,723.18 600.348,724.14 C600.808,724.6 601.168,724.78 601.708,724.78 C602.668,724.78 603.388,724.1 603.388,723.2 C603.388,722.88 603.288,722.56 603.108,722.24 C602.208,720.76 599.928,719.7 597.528,719.7 C594.328,719.7 592.008,721.5 592.008,723.98 C592.008,727.3 595.108,727.84 597.588,728.32 C599.248,728.64 600.628,728.84 600.628,729.82 C600.628,730.68 599.848,731.18 598.488,731.18 C596.868,731.18 595.768,730.64 595.048,729.44 C594.588,728.7 594.048,728.4 593.308,728.4 C592.328,728.4 591.548,729.12 591.548,730.06 C591.548,730.44 591.648,730.76 591.868,731.18 C592.888,733.12 595.428,734.3 598.448,734.3 Z M616.22,734 C617.34,734 618,733.38 618,732.36 C618,731.34 617.32,730.7 616.22,730.7 L609.54,730.7 L609.54,728.54 L615.46,728.54 C616.58,728.54 617.14,728.02 617.14,726.98 C617.14,725.96 616.56,725.42 615.46,725.42 L609.54,725.42 L609.54,723.3 L616.18,723.3 C617.3,723.3 617.96,722.68 617.96,721.66 C617.96,720.64 617.28,720 616.18,720 L608.02,720 C606.68,720 606.02,720.68 606.02,722.02 L606.02,731.98 C606.02,733.32 606.7,734 608.04,734 L616.22,734 Z M632.692,734.1 C633.652,734.1 634.352,733.4 634.352,732.46 C634.352,732.12 634.292,731.88 634.052,731.42 L628.512,721.1 C628.052,720.24 627.552,719.9 626.752,719.9 C625.892,719.9 625.432,720.22 624.972,721.08 L619.452,731.4 C619.212,731.86 619.132,732.12 619.132,732.46 C619.132,733.4 619.852,734.1 620.792,734.1 C621.452,734.1 621.992,733.74 622.372,733.02 L623.412,731.02 L630.092,731.02 L631.132,733.02 C631.512,733.74 632.032,734.1 632.692,734.1 Z M628.592,728.16 L624.912,728.16 L626.752,724.64 L628.592,728.16 Z M647.644,734.1 C648.584,734.1 649.284,733.46 649.284,732.58 C649.284,732.04 649.104,731.7 648.704,731.24 L646.624,728.94 C648.384,728.28 649.344,726.8 649.344,724.64 C649.344,721.7 647.524,720 644.404,720 L638.084,720 C636.744,720 636.084,720.68 636.084,722.02 L636.084,732.2 C636.084,733.38 636.764,734.1 637.864,734.1 C638.924,734.1 639.604,733.38 639.604,732.2 L639.604,729.3 L642.404,729.3 L646.364,733.52 C646.744,733.92 647.104,734.1 647.644,734.1 Z M644.224,726.12 L639.604,726.12 L639.604,723.18 L644.224,723.18 C645.284,723.18 645.804,723.66 645.804,724.64 C645.804,725.58 645.204,726.12 644.224,726.12 Z M658.236,734.3 C661.056,734.3 663.456,732.86 664.256,730.62 C664.356,730.32 664.396,730.14 664.396,729.84 C664.396,728.86 663.696,728.22 662.676,728.22 C661.976,728.22 661.596,728.48 661.196,729.2 C660.416,730.58 659.516,731.12 657.996,731.12 C655.776,731.12 654.296,729.46 654.296,727 C654.296,724.54 655.776,722.88 657.996,722.88 C659.516,722.88 660.416,723.4 661.196,724.78 C661.596,725.48 661.976,725.76 662.676,725.76 C663.696,725.76 664.376,725.12 664.376,724.14 C664.376,723.8 664.336,723.54 664.196,723.24 C663.396,721.24 661.016,719.7 658.236,719.7 C653.916,719.7 650.776,722.74 650.776,727 C650.776,731.26 653.916,734.3 658.236,734.3 Z M677.828,734.1 C678.888,734.1 679.568,733.38 679.568,732.2 L679.568,721.8 C679.568,720.62 678.888,719.9 677.828,719.9 C676.728,719.9 676.048,720.62 676.048,721.8 L676.048,725.3 L670.048,725.3 L670.048,721.8 C670.048,720.62 669.368,719.9 668.308,719.9 C667.208,719.9 666.528,720.62 666.528,721.8 L666.528,732.2 C666.528,733.38 667.208,734.1 668.308,734.1 C669.368,734.1 670.048,733.38 670.048,732.2 L670.048,728.36 L676.048,728.36 L676.048,732.2 C676.048,733.38 676.728,734.1 677.828,734.1 Z" id="BREADTH-FIRSTSEARCH" fill="#F1753A" fill-rule="nonzero"></path>
        <path d="M1553.292,734 C1557.272,734 1560.252,731.04 1560.252,727 C1560.252,723 1557.292,720 1553.352,720 L1548.512,720 C1547.012,720 1546.412,720.62 1546.412,722.12 L1546.412,731.88 C1546.412,733.38 1547.032,734 1548.532,734 L1553.292,734 Z M1553.012,730.82 L1549.932,730.82 L1549.932,723.18 L1553.072,723.18 C1555.372,723.18 1556.712,724.58 1556.712,727 C1556.712,729.42 1555.392,730.82 1553.012,730.82 Z M1572.584,734 C1573.704,734 1574.364,733.38 1574.364,732.36 C1574.364,731.34 1573.684,730.7 1572.584,730.7 L1565.904,730.7 L1565.904,728.54 L1571.824,728.54 C1572.944,728.54 1573.504,728.02 1573.504,726.98 C1573.504,725.96 1572.924,725.42 1571.824,725.42 L1565.904,725.42 L1565.904,723.3 L1572.544,723.3 C1573.664,723.3 1574.324,722.68 1574.324,721.66 C1574.324,720.64 1573.644,720 1572.544,720 L1564.384,720 C1563.044,720 1562.384,720.68 1562.384,722.02 L1562.384,731.98 C1562.384,733.32 1563.064,734 1564.404,734 L1572.584,734 Z M1578.076,734.12 C1579.136,734.12 1579.816,733.4 1579.816,732.22 L1579.816,729.3 L1584.296,729.3 C1587.416,729.3 1589.236,727.58 1589.236,724.64 C1589.236,721.7 1587.436,720 1584.296,720 L1578.296,720 C1576.956,720 1576.296,720.68 1576.296,722.02 L1576.296,732.22 C1576.296,733.4 1576.976,734.12 1578.076,734.12 Z M1584.116,726.12 L1579.816,726.12 L1579.816,723.18 L1584.116,723.18 C1585.176,723.18 1585.716,723.66 1585.716,724.64 C1585.716,725.58 1585.136,726.12 1584.116,726.12 Z M1596.948,734.1 C1598.008,734.1 1598.688,733.38 1598.688,732.2 L1598.688,723.3 L1601.828,723.3 C1602.968,723.3 1603.628,722.7 1603.628,721.66 C1603.628,720.64 1602.948,720 1601.828,720 L1591.988,720 C1590.888,720 1590.208,720.64 1590.208,721.66 C1590.208,722.68 1590.868,723.3 1591.988,723.3 L1595.168,723.3 L1595.168,732.2 C1595.168,733.38 1595.848,734.1 1596.948,734.1 Z M1616.66,734.1 C1617.72,734.1 1618.4,733.38 1618.4,732.2 L1618.4,721.8 C1618.4,720.62 1617.72,719.9 1616.66,719.9 C1615.56,719.9 1614.88,720.62 1614.88,721.8 L1614.88,725.3 L1608.88,725.3 L1608.88,721.8 C1608.88,720.62 1608.2,719.9 1607.14,719.9 C1606.04,719.9 1605.36,720.62 1605.36,721.8 L1605.36,732.2 C1605.36,733.38 1606.04,734.1 1607.14,734.1 C1608.2,734.1 1608.88,733.38 1608.88,732.2 L1608.88,728.36 L1614.88,728.36 L1614.88,732.2 C1614.88,733.38 1615.56,734.1 1616.66,734.1 Z M1625.412,729.64 C1626.512,729.64 1627.152,729.02 1627.152,728.04 C1627.152,727.06 1626.512,726.46 1625.412,726.46 L1622.972,726.46 C1621.872,726.46 1621.232,727.06 1621.232,728.04 C1621.232,729.06 1621.872,729.64 1622.972,729.64 L1625.412,729.64 Z M1631.764,734.1 C1632.864,734.1 1633.524,733.38 1633.524,732.2 L1633.524,729.24 L1639.264,729.24 C1640.384,729.24 1640.944,728.72 1640.944,727.7 C1640.944,726.68 1640.364,726.14 1639.264,726.14 L1633.504,726.14 L1633.504,723.3 L1640.244,723.3 C1641.364,723.3 1642.024,722.68 1642.024,721.66 C1642.024,720.64 1641.344,720 1640.244,720 L1631.984,720 C1630.644,720 1629.984,720.68 1629.984,722.02 L1629.984,732.2 C1629.984,733.38 1630.664,734.1 1631.764,734.1 Z M1652.056,734 C1653.196,734 1653.856,733.4 1653.856,732.36 C1653.856,731.34 1653.176,730.7 1652.056,730.7 L1650.276,730.7 L1650.276,723.3 L1651.856,723.3 C1652.996,723.3 1653.656,722.7 1653.656,721.66 C1653.656,720.64 1652.976,720 1651.856,720 L1645.136,720 C1644.036,720 1643.356,720.64 1643.356,721.66 C1643.356,722.68 1644.016,723.3 1645.136,723.3 L1646.736,723.3 L1646.736,730.7 L1644.936,730.7 C1643.836,730.7 1643.156,731.34 1643.156,732.36 C1643.156,733.38 1643.816,734 1644.936,734 L1652.056,734 Z M1667.448,734.1 C1668.388,734.1 1669.088,733.46 1669.088,732.58 C1669.088,732.04 1668.908,731.7 1668.508,731.24 L1666.428,728.94 C1668.188,728.28 1669.148,726.8 1669.148,724.64 C1669.148,721.7 1667.328,720 1664.208,720 L1657.888,720 C1656.548,720 1655.888,720.68 1655.888,722.02 L1655.888,732.2 C1655.888,733.38 1656.568,734.1 1657.668,734.1 C1658.728,734.1 1659.408,733.38 1659.408,732.2 L1659.408,729.3 L1662.208,729.3 L1666.168,733.52 C1666.548,733.92 1666.908,734.1 1667.448,734.1 Z M1664.028,726.12 L1659.408,726.12 L1659.408,723.18 L1664.028,723.18 C1665.088,723.18 1665.608,723.66 1665.608,724.64 C1665.608,725.58 1665.008,726.12 1664.028,726.12 Z M1677.48,734.3 C1680.76,734.3 1683.02,732.4 1683.02,729.68 C1683.02,726.4 1679.76,725.8 1677.26,725.32 C1675.68,725.06 1674.38,724.78 1674.38,723.98 C1674.38,723.26 1675.22,722.78 1676.44,722.78 C1677.56,722.78 1678.44,723.18 1679.38,724.14 C1679.84,724.6 1680.2,724.78 1680.74,724.78 C1681.7,724.78 1682.42,724.1 1682.42,723.2 C1682.42,722.88 1682.32,722.56 1682.14,722.24 C1681.24,720.76 1678.96,719.7 1676.56,719.7 C1673.36,719.7 1671.04,721.5 1671.04,723.98 C1671.04,727.3 1674.14,727.84 1676.62,728.32 C1678.28,728.64 1679.66,728.84 1679.66,729.82 C1679.66,730.68 1678.88,731.18 1677.52,731.18 C1675.9,731.18 1674.8,730.64 1674.08,729.44 C1673.62,728.7 1673.08,728.4 1672.34,728.4 C1671.36,728.4 1670.58,729.12 1670.58,730.06 C1670.58,730.44 1670.68,730.76 1670.9,731.18 C1671.92,733.12 1674.46,734.3 1677.48,734.3 Z M1690.392,734.1 C1691.452,734.1 1692.132,733.38 1692.132,732.2 L1692.132,723.3 L1695.272,723.3 C1696.412,723.3 1697.072,722.7 1697.072,721.66 C1697.072,720.64 1696.392,720 1695.272,720 L1685.432,720 C1684.332,720 1683.652,720.64 1683.652,721.66 C1683.652,722.68 1684.312,723.3 1685.432,723.3 L1688.612,723.3 L1688.612,732.2 C1688.612,733.38 1689.292,734.1 1690.392,734.1 Z M1710.936,734.3 C1714.216,734.3 1716.476,732.4 1716.476,729.68 C1716.476,726.4 1713.216,725.8 1710.716,725.32 C1709.136,725.06 1707.836,724.78 1707.836,723.98 C1707.836,723.26 1708.676,722.78 1709.896,722.78 C1711.016,722.78 1711.896,723.18 1712.836,724.14 C1713.296,724.6 1713.656,724.78 1714.196,724.78 C1715.156,724.78 1715.876,724.1 1715.876,723.2 C1715.876,722.88 1715.776,722.56 1715.596,722.24 C1714.696,720.76 1712.416,719.7 1710.016,719.7 C1706.816,719.7 1704.496,721.5 1704.496,723.98 C1704.496,727.3 1707.596,727.84 1710.076,728.32 C1711.736,728.64 1713.116,728.84 1713.116,729.82 C1713.116,730.68 1712.336,731.18 1710.976,731.18 C1709.356,731.18 1708.256,730.64 1707.536,729.44 C1707.076,728.7 1706.536,728.4 1705.796,728.4 C1704.816,728.4 1704.036,729.12 1704.036,730.06 C1704.036,730.44 1704.136,730.76 1704.356,731.18 C1705.376,733.12 1707.916,734.3 1710.936,734.3 Z M1728.708,734 C1729.828,734 1730.488,733.38 1730.488,732.36 C1730.488,731.34 1729.808,730.7 1728.708,730.7 L1722.028,730.7 L1722.028,728.54 L1727.948,728.54 C1729.068,728.54 1729.628,728.02 1729.628,726.98 C1729.628,725.96 1729.048,725.42 1727.948,725.42 L1722.028,725.42 L1722.028,723.3 L1728.668,723.3 C1729.788,723.3 1730.448,722.68 1730.448,721.66 C1730.448,720.64 1729.768,720 1728.668,720 L1720.508,720 C1719.168,720 1718.508,720.68 1718.508,722.02 L1718.508,731.98 C1718.508,733.32 1719.188,734 1720.528,734 L1728.708,734 Z M1745.18,734.1 C1746.14,734.1 1746.84,733.4 1746.84,732.46 C1746.84,732.12 1746.78,731.88 1746.54,731.42 L1741,721.1 C1740.54,720.24 1740.04,719.9 1739.24,719.9 C1738.38,719.9 1737.92,720.22 1737.46,721.08 L1731.94,731.4 C1731.7,731.86 1731.62,732.12 1731.62,732.46 C1731.62,733.4 1732.34,734.1 1733.28,734.1 C1733.94,734.1 1734.48,733.74 1734.86,733.02 L1735.9,731.02 L1742.58,731.02 L1743.62,733.02 C1744,733.74 1744.52,734.1 1745.18,734.1 Z M1741.08,728.16 L1737.4,728.16 L1739.24,724.64 L1741.08,728.16 Z M1760.132,734.1 C1761.072,734.1 1761.772,733.46 1761.772,732.58 C1761.772,732.04 1761.592,731.7 1761.192,731.24 L1759.112,728.94 C1760.872,728.28 1761.832,726.8 1761.832,724.64 C1761.832,721.7 1760.012,720 1756.892,720 L1750.572,720 C1749.232,720 1748.572,720.68 1748.572,722.02 L1748.572,732.2 C1748.572,733.38 1749.252,734.1 1750.352,734.1 C1751.412,734.1 1752.092,733.38 1752.092,732.2 L1752.092,729.3 L1754.892,729.3 L1758.852,733.52 C1759.232,733.92 1759.592,734.1 1760.132,734.1 Z M1756.712,726.12 L1752.092,726.12 L1752.092,723.18 L1756.712,723.18 C1757.772,723.18 1758.292,723.66 1758.292,724.64 C1758.292,725.58 1757.692,726.12 1756.712,726.12 Z M1770.724,734.3 C1773.544,734.3 1775.944,732.86 1776.744,730.62 C1776.844,730.32 1776.884,730.14 1776.884,729.84 C1776.884,728.86 1776.184,728.22 1775.164,728.22 C1774.464,728.22 1774.084,728.48 1773.684,729.2 C1772.904,730.58 1772.004,731.12 1770.484,731.12 C1768.264,731.12 1766.784,729.46 1766.784,727 C1766.784,724.54 1768.264,722.88 1770.484,722.88 C1772.004,722.88 1772.904,723.4 1773.684,724.78 C1774.084,725.48 1774.464,725.76 1775.164,725.76 C1776.184,725.76 1776.864,725.12 1776.864,724.14 C1776.864,723.8 1776.824,723.54 1776.684,723.24 C1775.884,721.24 1773.504,719.7 1770.724,719.7 C1766.404,719.7 1763.264,722.74 1763.264,727 C1763.264,731.26 1766.404,734.3 1770.724,734.3 Z M1790.316,734.1 C1791.376,734.1 1792.056,733.38 1792.056,732.2 L1792.056,721.8 C1792.056,720.62 1791.376,719.9 1790.316,719.9 C1789.216,719.9 1788.536,720.62 1788.536,721.8 L1788.536,725.3 L1782.536,725.3 L1782.536,721.8 C1782.536,720.62 1781.856,719.9 1780.796,719.9 C1779.696,719.9 1779.016,720.62 1779.016,721.8 L1779.016,732.2 C1779.016,733.38 1779.696,734.1 1780.796,734.1 C1781.856,734.1 1782.536,733.38 1782.536,732.2 L1782.536,728.36 L1788.536,728.36 L1788.536,732.2 C1788.536,733.38 1789.216,734.1 1790.316,734.1 Z" id="DEPTH-FIRSTSEARCH" fill="#F7A13E" fill-rule="nonzero"></path>
    </g>
</svg>